<?xml version="1.0" encoding="UTF-8"?>
<svg width="155px" height="49px" viewBox="0 0 155 49" version="1.1" xmlns="http://www.w3.org/2000/svg" xmlns:xlink="http://www.w3.org/1999/xlink">
    <!-- Generator: Sketch 62 (91390) - https://sketch.com -->
    <title>APPSTORE LARGEicons/principa</title>
    <desc>Created with Sketch.</desc>
    <g id="Symbols" stroke="none" stroke-width="1" fill="none" fill-rule="evenodd">
        <g id="footer" transform="translate(-978.000000, -156.000000)">
            <g id="APPSTORE-LARGE" transform="translate(980.000000, 158.000000)">
                <path d="M5.29237491,45 C2.37322468,44.9993847 0.00555434446,42.6226724 0,39.687414 L0,5.3182125 C0.0043184121,2.38152751 2.37180906,0.00247867285 5.29237491,0 L145.70762,0 C148.627677,0.00371530465 150.994447,2.38204106 151,5.3182125 L151,39.687414 C151.002233,42.6177199 148.624078,45 145.708739,45 L5.29237491,45 Z" id="Path" stroke="#FFFFFF" stroke-width="3"></path>
                <path d="M33.2102699,22.4221426 C33.1781348,18.7584317 36.1345675,16.9760244 36.2697567,16.8930424 C34.5954052,14.3888057 32.0002158,14.0466471 31.0882427,14.0193654 C28.9085939,13.7840603 26.7943234,15.3573076 25.683999,15.3573076 C24.5515124,15.3573076 22.8417014,14.0421002 20.9989174,14.0807494 C18.6275659,14.1182617 16.4091332,15.5266818 15.1924304,17.7137683 C12.6814572,22.1731967 14.5541601,28.726499 16.959863,32.3310995 C18.1632685,34.0975924 19.5694579,36.0675617 21.4100256,35.9982205 C23.2107014,35.9231958 23.8833231,34.8216953 26.0563233,34.8216953 C28.2093776,34.8216953 28.8409992,35.9982205 30.7181346,35.9538877 C32.6506753,35.9231958 33.8673781,34.1805743 35.0286755,32.3993037 C36.4193513,30.3770445 36.9778379,28.3832037 37,28.2808972 C36.9556757,28.2649828 33.2479456,26.8122299 33.2102699,22.4221426 Z M29.6643237,11.6481272 C30.6328102,10.4056711 31.295459,8.71533966 31.1115129,7 C29.7097561,7.0636574 27.9567289,7.99464692 26.9472423,9.20982124 C26.0541071,10.2806297 25.2562692,12.0357553 25.4623773,13.6863008 C27.0369991,13.8067952 28.6537289,12.8712587 29.6643237,11.6481272 L29.6643237,11.6481272 Z" id="Shape" fill="#FFFFFF" fill-rule="nonzero"></path>
                <path d="M60.6087059,35.0135245 L58.0718407,35.0135245 L56.682206,30.6848629 L51.8519967,30.6848629 L50.5282691,35.0135245 L48.0584281,35.0135245 L52.8450716,20.2768071 L55.800838,20.2768071 L60.6087059,35.0135245 L60.6087059,35.0135245 Z M56.2633049,28.8687962 L55.0066015,25.0207278 C54.8736702,24.6276158 54.6234466,23.7018647 54.2570477,22.2445819 L54.2123649,22.2445819 C54.0649117,22.8713464 53.82921,23.7970975 53.5063769,25.0207278 L52.2708978,28.8687962 L56.2633049,28.8687962 Z M72.8942383,29.5697537 C72.8942383,31.3769616 72.3993764,32.805453 71.4085356,33.8541209 C70.5215823,34.7876235 69.4190345,35.2538211 68.1042435,35.2538211 C66.6844479,35.2538211 65.6634462,34.7521881 65.0434726,33.7467072 L65.0434726,39.3222537 L62.66188,39.3222537 L62.66188,27.8799256 C62.66188,26.7448839 62.6317191,25.5810509 62.5736315,24.3873192 L64.6681371,24.3873192 L64.8010684,26.0716104 L64.8457512,26.0716104 C65.6399877,24.8025783 66.8453059,24.1680623 68.4628228,24.1680623 C69.7273458,24.1680623 70.7829766,24.6630513 71.6274813,25.6541365 C72.4708689,26.6474364 72.8942383,27.9519039 72.8942383,29.5697537 Z M70.4679629,29.6561276 C70.4679629,28.6218554 70.2333783,27.7691899 69.7619749,27.0970237 C69.2470058,26.3982809 68.5555397,26.0483559 67.6886936,26.0483559 C67.1011149,26.0483559 66.5671556,26.2432508 66.0901669,26.627504 C65.612061,27.0150792 65.2992815,27.5211417 65.1529454,28.1479062 C65.087618,28.3823025 65.0504966,28.6235377 65.0423555,28.8665814 L65.0423555,30.6394612 C65.0423555,31.4112897 65.2814084,32.0635234 65.7595143,32.5972698 C66.23762,33.1288016 66.8587108,33.3956748 67.6227865,33.3956748 C68.5197934,33.3956748 69.217962,33.0512865 69.7172921,32.3680468 C70.2177394,31.6825923 70.4679629,30.7789883 70.4679629,29.6561276 L70.4679629,29.6561276 Z M85.2233364,29.5697537 C85.2233364,31.3769616 84.7284745,32.805453 83.7376337,33.8541209 C82.8495633,34.7876235 81.7481326,35.2538211 80.4322245,35.2538211 C79.012429,35.2538211 77.9914272,34.7521881 77.3714536,33.7467072 L77.3714536,39.3222537 L74.989861,39.3222537 L74.989861,27.8799256 C74.989861,26.7448839 74.9597001,25.5810509 74.9016125,24.3873192 L76.9961181,24.3873192 L77.1290494,26.0716104 L77.1737322,26.0716104 C77.9668517,24.8025783 79.1721699,24.1680623 80.7908038,24.1680623 C82.0542097,24.1680623 83.1098405,24.6630513 83.9565793,25.6541365 C84.7988499,26.6474364 85.2233364,27.9519039 85.2233364,29.5697537 L85.2233364,29.5697537 Z M82.7959439,29.6561276 C82.7959439,28.6218554 82.5602422,27.7691899 82.0888388,27.0970237 C81.5738697,26.3982809 80.8846377,26.0483559 80.0177916,26.0483559 C79.430213,26.0483559 78.8962537,26.2432508 78.4170308,26.627504 C77.9389249,27.0150792 77.6272625,27.5211417 77.4809264,28.1479062 C77.4083169,28.4402487 77.3692195,28.6783306 77.3692195,28.8665814 L77.3692195,30.6394612 C77.3692195,31.4112897 77.6093894,32.0635234 78.0852611,32.5972698 C78.5633669,33.1276942 79.1844576,33.3956748 79.9507675,33.3956748 C80.8488915,33.3956748 81.5470601,33.0512865 82.0452731,32.3680468 C82.5457204,31.6825923 82.7959439,30.7789883 82.7959439,29.6561276 L82.7959439,29.6561276 Z M99.0079762,30.8797579 C99.0079762,32.1343943 98.5656167,33.1542708 97.6864828,33.9416022 C96.7191004,34.8009118 95.3685632,35.231674 93.6371052,35.231674 C92.0374614,35.231674 90.7550654,34.9260432 89.7876831,34.3136743 L90.3383984,32.3458996 C91.3828586,32.9593758 92.5300892,33.2650065 93.778973,33.2650065 C94.6770971,33.2650065 95.3752656,33.0634675 95.8734787,32.6637113 C96.3728089,32.2628477 96.6252666,31.7268866 96.6252666,31.0580425 C96.6252666,30.4589619 96.4163746,29.9573289 96.00641,29.5487138 C95.5942113,29.1412062 94.9127988,28.7613824 93.9554701,28.4125647 C91.3526977,27.4502708 90.0501944,26.0428191 90.0501944,24.1913168 C90.0501944,22.9820821 90.5104271,21.9921043 91.4286584,21.2180612 C92.3468897,20.4451254 93.5644957,20.0586576 95.0792421,20.0586576 C96.4320135,20.0586576 97.5591369,20.2923101 98.4539096,20.7585077 L97.8562774,22.6830955 C97.0140069,22.2312936 96.0633806,22.0053926 94.9999302,22.0053926 C94.1598938,22.0053926 93.5008227,22.2102538 93.0294193,22.6177614 C92.6328596,22.9820821 92.431787,23.4261326 92.431787,23.9532349 C92.431787,24.5345978 92.6607863,25.0174058 93.1165507,25.3961221 C93.5119934,25.7449398 94.2336204,26.1247635 95.2769635,26.5322712 C96.5571253,27.0438705 97.497698,27.639629 98.0997986,28.3239761 C98.7063674,29.0083232 99.0079762,29.8620961 99.0079762,30.8797579 Z M106.902308,26.1590916 L104.277194,26.1590916 L104.277194,31.3182716 C104.277194,32.6304905 104.739661,33.284939 105.666829,33.284939 C106.092432,33.284939 106.445426,33.2495036 106.724694,33.1753106 L106.790601,34.9681229 C106.321431,35.141978 105.703692,35.2294593 104.938499,35.2294593 C103.997926,35.2294593 103.262895,34.9448683 102.732287,34.3756864 C102.203913,33.8065045 101.93805,32.8530695 101.93805,31.5109518 L101.93805,26.1546622 L100.374152,26.1546622 L100.374152,24.3828897 L101.93805,24.3828897 L101.93805,22.4372621 L104.277194,21.737412 L104.277194,24.3828897 L106.902308,24.3828897 L106.902308,26.1590916 L106.902308,26.1590916 Z M118.723139,29.6129406 C118.723139,31.2462933 118.251736,32.5873036 117.311163,33.6359714 C116.327025,34.7156452 115.017819,35.2538211 113.38578,35.2538211 C111.810712,35.2538211 110.558477,34.736685 109.624607,33.7035203 C108.690736,32.6681407 108.223801,31.3636732 108.223801,29.7901178 C108.223801,28.1434768 108.706375,26.794715 109.668172,25.7460472 C110.632203,24.696272 111.930238,24.1713844 113.562277,24.1713844 C115.135111,24.1713844 116.398517,24.6896279 117.354729,25.7239 C118.268492,26.7271662 118.723139,28.0227748 118.723139,29.6129406 Z M116.254415,29.6672011 C116.254415,28.6938336 116.042172,27.8588858 115.616568,27.1601431 C115.117238,26.3163364 114.402314,25.8944331 113.476263,25.8944331 C112.522285,25.8944331 111.790605,26.3163364 111.292392,27.1601431 C110.865671,27.8588858 110.653428,28.7082292 110.653428,29.7114954 C110.653428,30.6859703 110.865671,31.5231328 111.292392,32.2196608 C111.807361,33.0634675 112.525636,33.4853708 113.456155,33.4853708 C114.366567,33.4853708 115.080375,33.0546086 115.596461,32.198621 C116.034352,31.4832679 116.254415,30.6427833 116.254415,29.6672011 Z M126.467783,26.463615 C126.22008,26.4192842 125.968818,26.3974158 125.717112,26.3982809 C124.87931,26.3982809 124.23141,26.7105558 123.775645,27.339535 C123.380203,27.8932139 123.181364,28.5930641 123.181364,29.437978 L123.181364,35.0135245 L120.799772,35.0135245 L120.799772,27.7337544 C120.801896,26.6182723 120.778804,25.502883 120.730513,24.3884265 L122.804912,24.3884265 L122.892043,26.4215354 L122.95795,26.4215354 C123.210408,25.7227927 123.605851,25.1591475 124.148747,24.7372442 C124.645679,24.3685801 125.249467,24.1689377 125.870151,24.1680623 C126.090214,24.1680623 126.289052,24.1835653 126.465549,24.2112493 L126.467783,26.463615 L126.467783,26.463615 Z M137.119043,29.1976814 C137.125082,29.5565757 137.095901,29.9152017 137.031911,30.2684963 L129.887133,30.2684963 C129.913943,31.3182716 130.260235,32.1222133 130.923774,32.6758922 C131.525875,33.1697738 132.304472,33.4178219 133.260684,33.4178219 C134.318549,33.4178219 135.283697,33.2517183 136.15166,32.9161889 L136.524761,34.553971 C135.510462,34.9924847 134.312963,35.2106342 132.931148,35.2106342 C131.268949,35.2106342 129.964211,34.7256115 129.014702,33.7577808 C128.067427,32.7888427 127.592672,31.4865899 127.592672,29.8554519 C127.592672,28.2542126 128.033915,26.9198464 128.917517,25.8556756 C129.842451,24.7195265 131.092452,24.151452 132.665286,24.151452 C134.210193,24.151452 135.379765,24.7195265 136.174002,25.8556756 C136.802912,26.7559575 137.119043,27.8721741 137.119043,29.1976814 L137.119043,29.1976814 Z M134.84804,28.5853125 C134.864796,27.8843551 134.708406,27.2808451 134.385573,26.7703531 C133.973374,26.1125826 133.338879,25.7848047 132.488789,25.7848047 C131.710191,25.7848047 131.075696,26.1048311 130.593121,26.7470986 C130.196562,27.2575906 129.96086,27.8710668 129.888251,28.5830978 L134.84804,28.5853125 Z" id="Shape" fill="#FFFFFF" fill-rule="nonzero"></path>
                <path d="M50.7395067,14.8686249 C50.0797608,14.8686249 49.5090195,14.8357978 49.0339579,14.7803315 L49.0339579,7.49726397 C49.6983861,7.39283461 50.3698157,7.34136233 51.042122,7.34321224 C53.7623221,7.34321224 55.0150604,8.70507141 55.0150604,10.9248562 C55.0150604,13.4853627 53.5353606,14.8686249 50.7395067,14.8686249 Z M51.1378018,8.27718836 C50.7706583,8.27718836 50.45803,8.29982768 50.1988043,8.35416204 L50.1988043,13.8906065 C50.3389864,13.9132458 50.608225,13.9234335 50.9864942,13.9234335 C52.7688093,13.9234335 53.7834606,12.8910807 53.7834606,10.9576832 C53.7834606,9.23369941 52.8656017,8.27718836 51.1378018,8.27718836 L51.1378018,8.27718836 Z M58.9190204,14.9240912 C57.3859178,14.9240912 56.3924051,13.7592984 56.3924051,12.1779423 C56.3924051,10.5298002 57.4070564,9.35481974 59.0057998,9.35481974 C60.5166512,9.35481974 61.532415,10.4641462 61.532415,12.0907809 C61.532415,13.7592984 60.4854996,14.9240912 58.9190204,14.9240912 Z M58.9635226,10.2219055 C58.1213175,10.2219055 57.5817277,11.0233372 57.5817277,12.1439833 C57.5817277,13.2431221 58.1324431,14.0445538 58.9523971,14.0445538 C59.7723511,14.0445538 60.3230663,13.1876557 60.3230663,12.121344 C60.3230663,11.0346569 59.7834766,10.2219055 58.9635226,10.2219055 Z M70.2748822,9.46462042 L68.6338617,14.8029708 L67.5646951,14.8029708 L66.8849232,12.484705 C66.7159024,11.9176416 66.5751698,11.3422458 66.4632645,10.7607212 L66.4410133,10.7607212 C66.3553465,11.3425516 66.1929133,11.9255139 66.0204671,12.484705 L65.2973055,14.8029708 L64.2170133,14.8029708 L62.6727852,9.46462042 L63.8710083,9.46462042 L64.4651134,12.0024876 C64.6052955,12.6069573 64.7232264,13.177468 64.8211314,13.7162837 L64.8433825,13.7162837 C64.9290493,13.2668933 65.0692314,12.7054383 65.2750543,12.0138073 L66.0204671,9.46575239 L66.9705901,9.46575239 L67.6837387,11.9594729 C67.8561849,12.5639426 67.996367,13.1570927 68.1053975,13.7174157 L68.1365491,13.7174157 C68.2122029,13.1684123 68.3312464,12.58545 68.4925671,11.9594729 L69.1300618,9.46575239 L70.2748822,9.46462042 L70.2748822,9.46462042 Z M76.3160627,14.8029708 L75.1501037,14.8029708 L75.1501037,11.7376076 C75.1501037,10.7935482 74.7940858,10.3203865 74.0920627,10.3203865 C73.4011653,10.3203865 72.9261038,10.9248562 72.9261038,11.627807 L72.9261038,14.8029708 L71.7601449,14.8029708 L71.7601449,10.9905102 C71.7601449,10.5184805 71.7490192,10.0124918 71.7167552,9.46348845 L72.742532,9.46348845 L72.7970473,10.2875595 L72.8293114,10.2875595 C73.1430522,9.71704878 73.7794345,9.35481974 74.492583,9.35481974 C75.5940138,9.35481974 76.3171753,10.2117178 76.3171753,11.6062996 L76.3160627,14.8029708 L76.3160627,14.8029708 Z M79.5313504,14.8029708 L78.3642788,14.8029708 L78.3642788,7.01504656 L79.5313504,7.01504656 L79.5313504,14.8029708 Z M83.7824278,14.9240912 C82.2504379,14.9240912 81.2558126,13.7592984 81.2558126,12.1779423 C81.2558126,10.5298002 82.2704639,9.35481974 83.8680947,9.35481974 C85.3800587,9.35481974 86.3947117,10.4641462 86.3947117,12.0907809 C86.3958225,13.7592984 85.3477945,14.9240912 83.7824278,14.9240912 Z M83.8258176,10.2219055 C82.9836125,10.2219055 82.4440227,11.0233372 82.4440227,12.1439833 C82.4440227,13.2431221 82.9958506,14.0445538 83.8135795,14.0445538 C84.634646,14.0445538 85.1842522,13.1876557 85.1842522,12.121344 C85.1853613,11.0346569 84.6468841,10.2219055 83.8258176,10.2219055 L83.8258176,10.2219055 Z M90.9917925,14.8029708 L90.9072382,14.1883134 L90.8760866,14.1883134 C90.5200686,14.6829825 90.0005049,14.9240912 89.3418715,14.9240912 C88.4017615,14.9240912 87.7342277,14.2539675 87.7342277,13.3529227 C87.7342277,12.0353146 88.8567971,11.3538712 90.8004329,11.3538712 L90.8004329,11.2553902 C90.8004329,10.5524395 90.4344018,10.2003982 89.7112402,10.2003982 C89.1939016,10.2003982 88.7399786,10.3328381 88.3405709,10.5965862 L88.1035964,9.81666177 C88.588671,9.50876708 89.1939016,9.35481974 89.904825,9.35481974 C91.2754943,9.35481974 91.9675044,10.0905975 91.9675044,11.5632849 L91.9675044,13.5295094 C91.9675044,14.0683251 91.990868,14.4860204 92.0431582,14.8041028 L90.9917925,14.8029708 L90.9917925,14.8029708 Z M90.8315844,12.1439833 C89.5365689,12.1439833 88.886836,12.4631977 88.886836,13.2204827 C88.886836,13.7808058 89.2217155,14.0547415 89.686764,14.0547415 C90.2797565,14.0547415 90.8315844,13.5940314 90.8315844,12.9680544 L90.8315844,12.1439833 L90.8315844,12.1439833 Z M97.6293032,14.8029708 L97.5747879,13.9460728 L97.5425238,13.9460728 C97.2076443,14.5935572 96.6446909,14.9240912 95.8581136,14.9240912 C94.5931371,14.9240912 93.6563647,13.7921254 93.6563647,12.1994496 C93.6563647,10.5298002 94.6276264,9.35368778 95.9537935,9.35368778 C96.6558164,9.35368778 97.1531291,9.59479648 97.4334933,10.0792778 L97.456857,10.0792778 L97.456857,7.01504656 L98.6239285,7.01504656 L98.6239285,13.3642424 C98.6239285,13.8804188 98.6361666,14.3637681 98.6673182,14.8029708 L97.6293032,14.8029708 Z M97.456857,11.6617659 C97.456857,10.9146685 96.9706699,10.2773718 96.2285949,10.2773718 C95.3641386,10.2773718 94.8356744,11.0572962 94.8356744,12.155303 C94.8356744,13.2318024 95.3841646,13.9687121 96.2052311,13.9687121 C96.9384057,13.9687121 97.456857,13.3200957 97.456857,12.551491 L97.456857,11.6617659 Z M106.02354,14.9240912 C104.49155,14.9240912 103.498038,13.7592984 103.498038,12.1779423 C103.498038,10.5298002 104.512689,9.35481974 106.11032,9.35481974 C107.622284,9.35481974 108.636937,10.4641462 108.636937,12.0907809 C108.638047,13.7592984 107.591132,14.9240912 106.02354,14.9240912 Z M106.06693,10.2219055 C105.225837,10.2219055 104.686248,11.0233372 104.686248,12.1439833 C104.686248,13.2431221 105.236963,14.0445538 106.055804,14.0445538 C106.876871,14.0445538 107.426487,13.1876557 107.426487,12.121344 C107.428699,11.0346569 106.889109,10.2219055 106.06693,10.2219055 Z M114.907302,14.8029708 L113.740231,14.8029708 L113.740231,11.7376076 C113.740231,10.7935482 113.384212,10.3203865 112.68219,10.3203865 C111.991292,10.3203865 111.517343,10.9248562 111.517343,11.627807 L111.517343,14.8029708 L110.350272,14.8029708 L110.350272,10.9905102 C110.350272,10.5184805 110.339146,10.0124918 110.306882,9.46348845 L111.332659,9.46348845 L111.387174,10.2875595 L111.419438,10.2875595 C111.732066,9.71704878 112.369561,9.35368778 113.081597,9.35368778 C114.183028,9.35368778 114.907302,10.2105858 114.907302,11.6051676 L114.907302,14.8029708 Z M122.751936,10.3543455 L121.469159,10.3543455 L121.469159,12.946547 C121.469159,13.6064831 121.693895,13.9358851 122.147818,13.9358851 C122.353641,13.9358851 122.526087,13.9132458 122.665157,13.8804188 L122.697421,14.7814635 C122.471572,14.8697568 122.168957,14.9139035 121.792913,14.9139035 C120.873941,14.9139035 120.324339,14.3977271 120.324339,13.04616 L120.324339,10.3543455 L119.5589,10.3543455 L119.5589,9.46462042 L120.324339,9.46462042 L120.324339,8.48660203 L121.469159,8.13456068 L121.469159,9.46348845 L122.751936,9.46348845 L122.751936,10.3543455 L122.751936,10.3543455 Z M128.924398,14.8029708 L127.759552,14.8029708 L127.759552,11.7602469 C127.759552,10.8048679 127.404647,10.3215185 126.701511,10.3215185 C126.097393,10.3215185 125.534439,10.7392138 125.534439,11.5847922 L125.534439,14.8029708 L124.369593,14.8029708 L124.369593,7.01504656 L125.534439,7.01504656 L125.534439,10.2219055 L125.557803,10.2219055 C125.924947,9.64007511 126.456749,9.35368778 127.135408,9.35368778 C128.245739,9.35368778 128.924398,10.2320932 128.924398,11.627807 L128.924398,14.8029708 L128.924398,14.8029708 Z M135.248168,12.419051 L131.749179,12.419051 C131.77143,13.4298964 132.428951,14.0004071 133.402437,14.0004071 C133.919776,14.0004071 134.39595,13.9121138 134.816496,13.7479788 L134.997843,14.5720498 C134.501643,14.7916512 133.917551,14.9014519 133.237779,14.9014519 C131.596759,14.9014519 130.625497,13.8464598 130.625497,12.2107693 C130.625497,10.5739468 131.620122,9.34350009 133.106497,9.34350009 C134.447128,9.34350009 135.28822,10.3543455 135.28822,11.8813673 C135.29576,12.0615751 135.282316,12.2420577 135.248168,12.419051 L135.248168,12.419051 Z M134.179002,11.5734726 C134.179002,10.7494015 133.770694,10.1675711 133.025281,10.1675711 C132.355522,10.1675711 131.825945,10.7607212 131.750291,11.5734726 L134.179002,11.5734726 L134.179002,11.5734726 Z" id="Shape" fill="#FFFFFF" fill-rule="nonzero"></path>
            </g>
        </g>
    </g>
</svg>