<?xml version="1.0" encoding="UTF-8"?>
<svg width="153px" height="153px" viewBox="0 0 153 153" version="1.1" xmlns="http://www.w3.org/2000/svg" xmlns:xlink="http://www.w3.org/1999/xlink">
    <title>encuentra parqueaderp</title>
    <defs>
        <filter x="-8.9%" y="-8.9%" width="117.8%" height="117.8%" filterUnits="objectBoundingBox" id="filter-1">
            <feOffset dx="0" dy="2" in="SourceAlpha" result="shadowOffsetOuter1"></feOffset>
            <feGaussianBlur stdDeviation="2" in="shadowOffsetOuter1" result="shadowBlurOuter1"></feGaussianBlur>
            <feColorMatrix values="0 0 0 0 0   0 0 0 0 0   0 0 0 0 0  0 0 0 0.2 0" type="matrix" in="shadowBlurOuter1" result="shadowMatrixOuter1"></feColorMatrix>
            <feMerge>
                <feMergeNode in="shadowMatrixOuter1"></feMergeNode>
                <feMergeNode in="SourceGraphic"></feMergeNode>
            </feMerge>
        </filter>
        <rect id="path-2" x="0" y="0" width="135" height="135" rx="19"></rect>
        <polygon id="path-4" points="0.159363265 0.0757533698 85.8991732 0.0757533698 85.8991732 17.8758054 0.159363265 17.8758054"></polygon>
        <polygon id="path-6" points="0.212122727 0.108993409 45.8093788 0.108993409 45.8093788 134.879778 0.212122727 134.879778"></polygon>
        <polygon id="path-8" points="0.158059259 0.0716046073 46.9256339 0.0716046073 46.9256339 113.923988 0.158059259 113.923988"></polygon>
        <polygon id="path-10" points="0.16186087 0.0712806619 40.9286988 0.0712806619 40.9286988 98.9245485 0.16186087 98.9245485"></polygon>
        <polygon id="path-12" points="0.159489022 0.0896739802 175.80784 0.0896739802 175.80784 57.8458914 0.159489022 57.8458914"></polygon>
        <polygon id="path-14" points="0.064452841 0.00247392687 119.925515 0.00247392687 119.925515 38.990183 0.064452841 38.990183"></polygon>
        <polygon id="path-16" points="0.186265385 0.00246269592 44.8106885 0.00246269592 44.8106885 111.962501 0.186265385 111.962501"></polygon>
        <polygon id="path-18" points="0.205086872 0.0853216534 30.919346 0.0853216534 30.919346 63.7746948 0.205086872 63.7746948"></polygon>
        <polygon id="path-20" points="0.159489022 0.141019267 175.80784 0.141019267 175.80784 15.9952608 0.159489022 15.9952608"></polygon>
        <polygon id="path-22" points="0.0667918919 0.0024715262 25.9251973 0.0024715262 25.9251973 154.874341 0.0667918919 154.874341"></polygon>
        <polygon id="path-24" points="0 176 176 176 176 0 0 0"></polygon>
        <polygon id="path-26" points="0.000417714012 0.177894737 52.7938297 0.177894737 52.7938297 80 0.000417714012 80"></polygon>
        <polygon id="path-28" points="0 0.0135576923 5.02352799 0.0135576923 5.02352799 7.65117788 0 7.65117788"></polygon>
        <polygon id="path-30" points="0.0905337946 0.0175565611 4.51125211 0.0175565611 4.51125211 7.59425339 0.0905337946 7.59425339"></polygon>
        <polygon id="path-32" points="0.0258562753 0.0770874862 3.98047166 0.0770874862 3.98047166 4.76190476 0.0258562753 4.76190476"></polygon>
        <polygon id="path-34" points="0 40.5128205 30.5769231 40.5128205 30.5769231 0 0 0"></polygon>
    </defs>
    <g id="Symbols" stroke="none" stroke-width="1" fill="none" fill-rule="evenodd">
        <g id="como-funciona" transform="translate(-57.000000, -74.000000)">
            <g id="encuentra-parqueaderp" filter="url(#filter-1)" transform="translate(66.000000, 83.000000)">
                <mask id="mask-3" fill="white">
                    <use xlink:href="#path-2"></use>
                </mask>
                <use id="Mask" fill="#D8D8D8" xlink:href="#path-2"></use>
                <g id="Group-150" opacity="0.767485119" mask="url(#mask-3)">
                    <g transform="translate(-18.000000, -15.000000)">
                        <g id="Group-3" stroke="none" stroke-width="1" fill="none" fill-rule="evenodd" transform="translate(0.000000, 158.000000)">
                            <mask id="mask-5" fill="white">
                                <use xlink:href="#path-4"></use>
                            </mask>
                            <g id="Clip-2"></g>
                            <path d="M72.7424857,0.12439819 L3.40928571,9.92004072 C0.393669388,10.3461403 -1.5566,13.3885339 -0.725383673,16.3715882 L4.38793061,34.7263982 C4.78984898,36.1687738 5.79341633,37.3584208 7.13361224,37.9796968 L31.088649,49.0893846 C32.4021673,49.6985068 33.909449,49.701724 35.2254245,49.0983213 L82.9424367,27.2171086 C85.4473184,26.0685701 86.5783061,23.0812262 85.4789102,20.5178371 L78.0267469,3.1389095 C77.1274327,1.04165611 74.9679551,-0.18981448 72.7424857,0.12439819" id="Fill-1" fill="#A4C754" mask="url(#mask-5)"></path>
                        </g>
                        <g id="Group-6" stroke="none" stroke-width="1" fill="none" fill-rule="evenodd" transform="translate(130.000000, 41.000000)">
                            <mask id="mask-7" fill="white">
                                <use xlink:href="#path-6"></use>
                            </mask>
                            <g id="Clip-5"></g>
                            <path d="M62.2678652,1.06752775 C54.93435,-1.54348706 46.4212136,1.42521541 40.9639409,7.00002808 C35.5070167,12.5744904 32.7306379,20.3150476 31.5161682,28.0405405 C30.3016985,35.7656831 30.4947591,43.6344613 30.1117742,51.4464859 C29.7280924,59.2581602 28.7157439,67.2113681 25.2964106,74.2369002 C22.3959712,80.1970767 17.903653,85.2054046 14.3132136,90.7732106 C2.40374394,109.240894 1.12794091,132.420176 0.212122727,154.410084" id="Stroke-4" stroke="#ADCBFC" stroke-width="20" mask="url(#mask-7)"></path>
                        </g>
                        <g id="Group-9" stroke="none" stroke-width="1" fill="none" fill-rule="evenodd" transform="translate(0.000000, 24.000000)">
                            <mask id="mask-9" fill="white">
                                <use xlink:href="#path-8"></use>
                            </mask>
                            <g id="Clip-8"></g>
                            <path d="M0.670637778,113.923988 C-5.95322889,113.923988 -12.1419104,112.721059 -17.7230733,110.349398 C-26.9660585,106.422603 -34.2963178,99.2039704 -37.8338511,90.544784 L-38.7202363,88.3744346 L-18.2727993,7.52116321 L-16.8321622,6.12714737 C-12.8556141,2.27897263 -7.35417704,0.0716046073 -1.73854741,0.0716046073 C0.137622963,0.0716046073 1.99046741,0.317337799 3.76846,0.802105574 C6.19017852,1.46209486 8.47472667,2.57617935 10.51766,4.04105943 C14.5119637,6.90489116 17.5826304,11.1087973 18.9487637,15.8771494 C19.7206081,18.571048 19.910697,21.158474 20.0785044,23.4412895 C20.1697193,24.6889936 20.25606,25.8668912 20.4266526,26.9030602 C21.4871119,33.3428916 26.4729415,38.9845309 31.7515637,44.957575 C37.6133341,51.5902558 44.2570452,59.1078582 46.3086822,69.0824399 C48.5041044,79.753677 44.7482822,91.6229075 36.5076156,100.058219 C27.8164452,108.95362 16.6913711,112.178471 8.88867481,113.317235 C6.13168963,113.719857 3.36704519,113.923988 0.67203037,113.923988 L0.670637778,113.923988 Z" id="Stroke-7" stroke="#FFFFFF" stroke-width="11" mask="url(#mask-9)"></path>
                        </g>
                        <g id="Group-12" stroke="none" stroke-width="1" fill="none" fill-rule="evenodd" transform="translate(0.000000, 32.000000)">
                            <mask id="mask-11" fill="white">
                                <use xlink:href="#path-10"></use>
                            </mask>
                            <g id="Clip-11"></g>
                            <path d="M-32.1548383,80.0720831 C-29.1094296,87.2866593 -22.737673,92.9055665 -15.3908296,95.9267511 C-8.04398609,98.9472369 0.199509565,99.5090578 8.08541391,98.3948496 C17.0726139,97.1258613 25.9303965,93.5819876 32.3167704,87.2562623 C38.7031443,80.9308863 42.2940313,71.6101807 40.4422574,62.8988131 C36.9633183,46.5319378 16.6904226,37.3132544 13.884953,20.8226946 C13.3127357,17.4598055 13.5259357,13.9679912 12.556553,10.6938475 C11.1219096,5.84849208 6.97770087,1.86578326 2.00636174,0.55486796 C-2.96497739,-0.756047339 -8.58910783,0.650950505 -12.3108383,4.13647583 L-32.1548383,80.0720831 Z" id="Fill-10" fill="#ADCBFC" mask="url(#mask-11)"></path>
                        </g>
                        <g id="Group-15" stroke="none" stroke-width="1" fill="none" fill-rule="evenodd" transform="translate(0.000000, 12.000000)">
                            <mask id="mask-13" fill="white">
                                <use xlink:href="#path-12"></use>
                            </mask>
                            <g id="Clip-14"></g>
                            <path d="M-11.2075465,0.0896739802 C-0.470141317,0.557927115 10.3687888,1.04117272 20.7478707,3.81024673 C31.1273038,6.57932073 41.1547369,11.8629455 47.6776271,20.3410119 C51.4698826,25.26935 54.0297868,31.185099 58.6363497,35.3749709 C65.1683737,41.3154749 74.5508248,42.7265102 83.3346651,43.8715164 C119.078473,48.5296414 154.822282,53.1877664 190.56609,57.8458914" id="Stroke-13" stroke="#FFFFFF" stroke-width="11" mask="url(#mask-13)"></path>
                        </g>
                        <path d="M49.2778855,49.8632604 C46.6928118,47.1201948 44.0678265,41.9818945 41.0585591,39.7040046 C38.1443027,37.498273 34.4710186,37.3746232 31.2311114,39.680886 C27.0594615,42.6509349 25.8497502,48.2740267 28.1522636,52.8259534 C30.8454166,58.1509544 35.4719885,61.9862022 39.6439915,66.2925805 C49.0645524,76.0167849 55.3522258,88.2728342 57.985688,101.308263 C58.4130604,103.424322 61.3908929,103.60752 62.0835189,101.561868 L73.6921562,68.834934 C74.7612938,65.8203991 72.9447842,62.5585645 69.8037731,61.8453885 C62.0863445,60.0932733 54.5310349,55.4373126 49.2778855,49.8632604" id="Fill-16" stroke="none" fill="#A4C754" fill-rule="evenodd"></path>
                        <g id="Group-20" stroke="none" stroke-width="1" fill="none" fill-rule="evenodd" transform="translate(19.000000, 0.000000)">
                            <mask id="mask-15" fill="white">
                                <use xlink:href="#path-14"></use>
                            </mask>
                            <g id="Clip-19"></g>
                            <polyline id="Stroke-18" stroke="#FFFFFF" stroke-width="11" mask="url(#mask-15)" points="0.064452841 38.990183 21.3493132 24.8110479 65.9681626 15.6663539 119.925515 -9.06867372"></polyline>
                        </g>
                        <g id="Group-23" stroke="none" stroke-width="1" fill="none" fill-rule="evenodd" transform="translate(47.000000, 0.000000)">
                            <mask id="mask-17" fill="white">
                                <use xlink:href="#path-16"></use>
                            </mask>
                            <g id="Clip-22"></g>
                            <path d="M0.186265385,103.065372 C2.85926538,107.483801 7.40634231,110.68425 12.4158808,111.673198 C12.6246115,111.714361 12.8340346,111.751653 13.0438038,111.785427 C20.0599962,112.904898 26.83215,108.613826 29.2174962,101.815027 L44.8106885,57.3732159 L32.9261885,-9.02739891" id="Stroke-21" stroke="#FFFFFF" stroke-width="11" mask="url(#mask-17)"></path>
                        </g>
                        <g id="Group-26" stroke="none" stroke-width="1" fill="none" fill-rule="evenodd" transform="translate(64.000000, 112.000000)">
                            <mask id="mask-19" fill="white">
                                <use xlink:href="#path-18"></use>
                            </mask>
                            <g id="Clip-25"></g>
                            <line x1="0.205086872" y1="0.0853216534" x2="30.919346" y2="70.198697" id="Stroke-24" stroke="#FFFFFF" stroke-width="11" mask="url(#mask-19)"></line>
                        </g>
                        <g id="Group-29" stroke="none" stroke-width="1" fill="none" fill-rule="evenodd" transform="translate(0.000000, 149.000000)">
                            <mask id="mask-21" fill="white">
                                <use xlink:href="#path-20"></use>
                            </mask>
                            <g id="Clip-28"></g>
                            <polyline id="Stroke-27" stroke="#FFFFFF" stroke-width="11" mask="url(#mask-21)" points="183.419471 15.9952608 81.3089086 0.141019267 -13.3070754 15.9952608"></polyline>
                        </g>
                        <g id="Group-32" stroke="none" stroke-width="1" fill="none" fill-rule="evenodd" transform="translate(113.000000, 0.000000)">
                            <mask id="mask-23" fill="white">
                                <use xlink:href="#path-22"></use>
                            </mask>
                            <g id="Clip-31"></g>
                            <polyline id="Stroke-30" stroke="#FFFFFF" stroke-width="11" mask="url(#mask-23)" points="25.9251973 -12.5906253 21.3766027 63.0123018 5.54681892 118.468407 0.0667918919 154.874341"></polyline>
                        </g>
                        <line x1="28" y1="65" x2="54" y2="41" id="Stroke-33" stroke="#FFFFFF" stroke-width="5" fill="none"></line>
                        <path d="M44,87 C47.9731165,80.7420359 55.3768131,77.123941 62.8354634,76.2477641 C70.2941136,75.3715873 77.8388697,76.9318692 85,79.1587328" id="Stroke-35" stroke="#FFFFFF" stroke-width="5" fill="none"></path>
                        <line x1="40" y1="54" x2="60" y2="76" id="Stroke-37" stroke="#FFFFFF" stroke-width="5" fill="none"></line>
                        <polygon id="Fill-39" stroke="none" fill="#C3C0BC" fill-rule="evenodd" points="81 38.6803368 61 41 61 30 81 30"></polygon>
                        <polygon id="Fill-41" stroke="none" fill="#C3C0BC" fill-rule="evenodd" points="66 25.0909091 66 28 82 28 82 22"></polygon>
                        <polygon id="Fill-43" stroke="none" fill="#C3C0BC" fill-rule="evenodd" points="58 33 52 33 52 27.0823979 58 26"></polygon>
                        <path d="M86.2490099,47.4593777 C85.9903763,46.0841191 85.2518417,44.6187795 83.8264259,44.1578765 C82.9523468,43.8754422 81.9921785,44.0278348 81.081832,44.1832753 C79.6758321,44.4233783 78.2694659,44.6634813 76.8634659,44.9035843 C75.6904561,45.1037266 74.4804463,45.3177536 73.4895057,45.9317265 C72.4985652,46.5453607 71.7768821,47.67205 72.0633573,48.7425234 C72.2769316,49.5390287 73.0030107,50.1499538 73.81408,50.482847 C74.6251492,50.8160788 75.5226739,50.9139487 76.4040798,51.0077548 C79.2300005,51.3088149 82.0555547,51.6095363 84.8814754,51.9105963 L85.6661684,52 C86.110901,51.8591215 86.5556337,51.718243 87,51.5773645 C86.4508614,50.2772863 86.5080099,48.8346363 86.2490099,47.4593777" id="Fill-45" stroke="none" fill="#A4C754" fill-rule="evenodd"></path>
                        <path d="M67,51 C67.1079305,47.959375 68.8399576,45.0390067 71.389858,43.5973652 C72.7675991,42.8185764 74.3217979,42.4624866 75.8612634,42.1701257 C80.1928732,41.3466906 84.5984924,40.956036 89,41.0039227" id="Stroke-47" stroke="#FFFFFF" stroke-width="5" fill="none"></path>
                        <mask id="mask-25" fill="white">
                            <use xlink:href="#path-24"></use>
                        </mask>
                        <g id="Clip-50" stroke="none" fill="none"></g>
                        <polygon id="Fill-49" stroke="none" fill="#C3C0BC" fill-rule="evenodd" mask="url(#mask-25)" points="46 10 75 10 75 -6 46 -6"></polygon>
                        <path d="M29,17 C33.2648051,15.5302134 37.8029997,13.8643423 40.4219456,10.2498186 C41.8727732,8.24698028 42.5900752,5.80456063 42.8569059,3.36180232 C43.1237367,0.918705349 42.9646048,-1.5477592 42.8054728,-4" id="Stroke-54" stroke="#FFFFFF" stroke-width="5" fill="none" mask="url(#mask-25)"></path>
                        <path d="M41.5,18 C40.6719023,18 40,18.6715636 40,19.5002182 C40,20.3284364 40.6719023,21 41.5,21 C42.3280977,21 43,20.3284364 43,19.5002182 C43,18.6715636 42.3280977,18 41.5,18" id="Fill-55" stroke="none" fill="#A4C754" fill-rule="evenodd" mask="url(#mask-25)"></path>
                        <path d="M46.5,17 C45.6719023,17 45,17.6715636 45,18.5002182 C45,19.3284364 45.6719023,20 46.5,20 C47.3280977,20 48,19.3284364 48,18.5002182 C48,17.6715636 47.3280977,17 46.5,17" id="Fill-56" stroke="none" fill="#A4C754" fill-rule="evenodd" mask="url(#mask-25)"></path>
                        <path d="M78.5,10 C77.6719023,10 77,10.6715636 77,11.5002182 C77,12.3284364 77.6719023,13 78.5,13 C79.3280977,13 80,12.3284364 80,11.5002182 C80,10.6715636 79.3280977,10 78.5,10" id="Fill-57" stroke="none" fill="#A4C754" fill-rule="evenodd" mask="url(#mask-25)"></path>
                        <path d="M28.5,12 C27.6719023,12 27,12.6715636 27,13.5002182 C27,14.3284364 27.6719023,15 28.5,15 C29.3280977,15 30,14.3284364 30,13.5002182 C30,12.6715636 29.3280977,12 28.5,12" id="Fill-58" stroke="none" fill="#A4C754" fill-rule="evenodd" mask="url(#mask-25)"></path>
                        <path d="M20.5,30 C19.6719023,30 19,30.6715636 19,31.5002182 C19,32.3284364 19.6719023,33 20.5,33 C21.3280977,33 22,32.3284364 22,31.5002182 C22,30.6715636 21.3280977,30 20.5,30" id="Fill-60" stroke="none" fill="#A4C754" fill-rule="evenodd" mask="url(#mask-25)"></path>
                        <path d="M32.5,34 C31.6719023,34 31,34.6715636 31,35.5002182 C31,36.3284364 31.6719023,37 32.5,37 C33.3280977,37 34,36.3284364 34,35.5002182 C34,34.6715636 33.3280977,34 32.5,34" id="Fill-61" stroke="none" fill="#A4C754" fill-rule="evenodd" mask="url(#mask-25)"></path>
                        <path d="M91.5,17 C90.6719023,17 90,17.6715636 90,18.5002182 C90,19.3284364 90.6719023,20 91.5,20 C92.3280977,20 93,19.3284364 93,18.5002182 C93,17.6715636 92.3280977,17 91.5,17" id="Fill-62" stroke="none" fill="#A4C754" fill-rule="evenodd" mask="url(#mask-25)"></path>
                        <path d="M119.5,39 C118.671902,39 118,39.6715636 118,40.5002182 C118,41.328 118.671902,42 119.5,42 C120.328098,42 121,41.328 121,40.5002182 C121,39.6715636 120.328098,39 119.5,39" id="Fill-63" stroke="none" fill="#A4C754" fill-rule="evenodd" mask="url(#mask-25)"></path>
                        <path d="M127.5,39 C126.671902,39 126,39.6715636 126,40.5002182 C126,41.328 126.671902,42 127.5,42 C128.328098,42 129,41.328 129,40.5002182 C129,39.6715636 128.328098,39 127.5,39" id="Fill-64" stroke="none" fill="#A4C754" fill-rule="evenodd" mask="url(#mask-25)"></path>
                        <path d="M106.5,63 C105.671902,63 105,63.6715636 105,64.5002182 C105,65.3284364 105.671902,66 106.5,66 C107.328098,66 108,65.3284364 108,64.5002182 C108,63.6715636 107.328098,63 106.5,63" id="Fill-65" stroke="none" fill="#A4C754" fill-rule="evenodd" mask="url(#mask-25)"></path>
                        <path d="M152.5,97 C151.671902,97 151,97.6715636 151,98.5002182 C151,99.3284364 151.671902,100 152.5,100 C153.328098,100 154,99.3284364 154,98.5002182 C154,97.6715636 153.328098,97 152.5,97" id="Fill-66" stroke="none" fill="#A4C754" fill-rule="evenodd" mask="url(#mask-25)"></path>
                        <path d="M142.5,15 C141.671902,15 141,15.6715636 141,16.5002182 C141,17.328 141.671902,18 142.5,18 C143.328098,18 144,17.328 144,16.5002182 C144,15.6715636 143.328098,15 142.5,15" id="Fill-68" stroke="none" fill="#A4C754" fill-rule="evenodd" mask="url(#mask-25)"></path>
                        <path d="M145.5,26 C144.671902,26 144,26.6715636 144,27.5002182 C144,28.3284364 144.671902,29 145.5,29 C146.328098,29 147,28.3284364 147,27.5002182 C147,26.6715636 146.328098,26 145.5,26" id="Fill-69" stroke="none" fill="#A4C754" fill-rule="evenodd" mask="url(#mask-25)"></path>
                        <path d="M56.5,36 C55.6719023,36 55,36.6715636 55,37.5002182 C55,38.3284364 55.6719023,39 56.5,39 C57.3280977,39 58,38.3284364 58,37.5002182 C58,36.6715636 57.3280977,36 56.5,36" id="Fill-73" stroke="none" fill="#A4C754" fill-rule="evenodd" mask="url(#mask-25)"></path>
                        <path d="M62.5,43 C61.6719023,43 61,43.6715636 61,44.5002182 C61,45.3284364 61.6719023,46 62.5,46 C63.3280977,46 64,45.3284364 64,44.5002182 C64,43.6715636 63.3280977,43 62.5,43" id="Fill-74" stroke="none" fill="#A4C754" fill-rule="evenodd" mask="url(#mask-25)"></path>
                        <path d="M76.5,58 C75.6719023,58 75,58.6715636 75,59.5002182 C75,60.3284364 75.6719023,61 76.5,61 C77.3280977,61 78,60.3284364 78,59.5002182 C78,58.6715636 77.3280977,58 76.5,58" id="Fill-75" stroke="none" fill="#A4C754" fill-rule="evenodd" mask="url(#mask-25)"></path>
                        <path d="M53.5,100 C52.6719023,100 52,100.671564 52,101.500218 C52,102.328436 52.6719023,103 53.5,103 C54.3280977,103 55,102.328436 55,101.500218 C55,100.671564 54.3280977,100 53.5,100" id="Fill-76" stroke="none" fill="#A4C754" fill-rule="evenodd" mask="url(#mask-25)"></path>
                        <path d="M85.5,144 C84.6719023,144 84,144.671564 84,145.500218 C84,146.328436 84.6719023,147 85.5,147 C86.3280977,147 87,146.328436 87,145.500218 C87,144.671564 86.3280977,144 85.5,144" id="Fill-77" stroke="none" fill="#A4C754" fill-rule="evenodd" mask="url(#mask-25)"></path>
                        <path d="M44.5,148 C43.671466,148 43,148.671127 43,149.500218 C43,150.328436 43.671466,151 44.5,151 C45.3280977,151 46,150.328436 46,149.500218 C46,148.671127 45.3280977,148 44.5,148" id="Fill-78" stroke="none" fill="#A4C754" fill-rule="evenodd" mask="url(#mask-25)"></path>
                        <path d="M30.5,150 C29.6719023,150 29,150.671564 29,151.500218 C29,152.328436 29.6719023,153 30.5,153 C31.3280977,153 32,152.328436 32,151.500218 C32,150.671564 31.3280977,150 30.5,150" id="Fill-79" stroke="none" fill="#A4C754" fill-rule="evenodd" mask="url(#mask-25)"></path>
                        <path d="M107.5,148 C106.671902,148 106,148.671564 106,149.500218 C106,150.328436 106.671902,151 107.5,151 C108.328098,151 109,150.328436 109,149.500218 C109,148.671564 108.328098,148 107.5,148" id="Fill-81" stroke="none" fill="#A4C754" fill-rule="evenodd" mask="url(#mask-25)"></path>
                        <path d="M144.5,152 C143.671902,152 143,152.671564 143,153.500218 C143,154.328436 143.671902,155 144.5,155 C145.328098,155 146,154.328436 146,153.500218 C146,152.671564 145.328098,152 144.5,152" id="Fill-83" stroke="none" fill="#A4C754" fill-rule="evenodd" mask="url(#mask-25)"></path>
                        <path d="M50.5,113 C49.6719023,113 49,113.671564 49,114.500218 C49,115.328436 49.6719023,116 50.5,116 C51.3280977,116 52,115.328436 52,114.500218 C52,113.671564 51.3280977,113 50.5,113" id="Fill-86" stroke="none" fill="#A4C754" fill-rule="evenodd" mask="url(#mask-25)"></path>
                        <path d="M115.5,107 C114.671902,107 114,107.671564 114,108.500218 C114,109.328436 114.671902,110 115.5,110 C116.328098,110 117,109.328436 117,108.500218 C117,107.671564 116.328098,107 115.5,107" id="Fill-89" stroke="none" fill="#A4C754" fill-rule="evenodd" mask="url(#mask-25)"></path>
                        <path d="M77.5,124 C76.6719023,124 76,124.671564 76,125.500218 C76,126.328436 76.6719023,127 77.5,127 C78.3280977,127 79,126.328436 79,125.500218 C79,124.671564 78.3280977,124 77.5,124" id="Fill-90" stroke="none" fill="#A4C754" fill-rule="evenodd" mask="url(#mask-25)"></path>
                        <path d="M106.5,101 C105.671902,101 105,101.671564 105,102.500218 C105,103.328436 105.671902,104 106.5,104 C107.328098,104 108,103.328436 108,102.500218 C108,101.671564 107.328098,101 106.5,101" id="Fill-91" stroke="none" fill="#A4C754" fill-rule="evenodd" mask="url(#mask-25)"></path>
                        <path d="M118.5,100 C117.671902,100 117,100.671564 117,101.500218 C117,102.328436 117.671902,103 118.5,103 C119.328098,103 120,102.328436 120,101.500218 C120,100.671564 119.328098,100 118.5,100" id="Fill-92" stroke="none" fill="#A4C754" fill-rule="evenodd" mask="url(#mask-25)"></path>
                        <path d="M92.5,74 C91.6719023,74 91,74.6715636 91,75.5002182 C91,76.328 91.6719023,77 92.5,77 C93.3280977,77 94,76.328 94,75.5002182 C94,74.6715636 93.3280977,74 92.5,74" id="Fill-93" stroke="none" fill="#A4C754" fill-rule="evenodd" mask="url(#mask-25)"></path>
                        <path d="M59.5,105 C58.6719023,105 58,105.671564 58,106.500218 C58,107.328436 58.6719023,108 59.5,108 C60.3280977,108 61,107.328436 61,106.500218 C61,105.671564 60.3280977,105 59.5,105" id="Fill-94" stroke="none" fill="#A4C754" fill-rule="evenodd" mask="url(#mask-25)"></path>
                        <polygon id="Fill-95" stroke="none" fill="#C3C0BC" fill-rule="evenodd" mask="url(#mask-25)" points="35 32.5438087 36.9608742 35 41 31.4561913 39.038806 29"></polygon>
                        <line x1="90" y1="42" x2="136" y2="33" id="Stroke-96" stroke="#FFFFFF" stroke-width="5" fill="none" mask="url(#mask-25)"></line>
                        <path d="M139,11.0295628 C143.820025,10.7502813 148.723472,12.4609687 152.351493,15.6872 C156.651085,19.511235 158.993556,25.1166617 162.891043,29.3599724 C166.403877,33.1840075 171.071367,35.7661238 175.942004,37.4824675 C180.812641,39.1988113 185.919584,40.1027641 191,41" id="Stroke-97" stroke="#FFFFFF" stroke-width="11" fill="none" mask="url(#mask-25)"></path>
                        <polyline id="Stroke-98" stroke="#FFFFFF" stroke-width="11" fill="none" mask="url(#mask-25)" points="79 88 117.259542 119 197 119"></polyline>
                        <path d="M137.336666,124.004251 L124.932419,124 C124.11035,123.999646 123.410639,124.635925 123.28661,125.497878 L120.019396,148.162664 C119.87932,149.132316 120.513172,150.036428 121.429182,150.175658 L126.748726,150.981989 C127.583833,151.10882 128.378489,150.554024 128.591779,149.688883 C130.602655,141.522121 134.025323,133.660035 138.680593,126.805509 C139.475248,125.635337 138.697309,124.004606 137.336666,124.004251" id="Fill-99" stroke="none" fill="#A4C754" fill-rule="evenodd" mask="url(#mask-25)"></path>
                        <path d="M180.371732,-2.674355 L167.397153,-9.76589535 C166.963021,-10.0031534 166.454994,-10.0627372 165.978231,-9.93244264 L143.871248,-3.88325857 C143.086471,-3.66861358 142.519826,-2.97873452 142.455523,-2.15999668 L142.006115,3.57691123 C141.92547,4.60419212 142.651274,5.52486839 143.663419,5.65480399 C148.972122,6.33678641 153.784521,9.91181004 157.409275,13.972118 C158.681829,15.3974613 159.900027,17.0259635 161.687358,17.6763594 C163.333649,18.2754271 165.151532,17.9251035 166.865324,17.568319 C172.064605,16.4857616 177.264242,15.4035632 182.463523,14.3213648 C183.498761,14.1060019 184.168077,13.0873356 183.96309,12.0395952 L181.343733,-1.34161777 C181.232535,-1.90981681 180.876206,-2.39869052 180.371732,-2.674355" id="Fill-100" stroke="none" fill="#A4C754" fill-rule="evenodd" mask="url(#mask-25)"></path>
                        <path d="M23,134 C28.1670587,142.839807 35.422101,150.440395 44,156" id="Stroke-101" stroke="#FFFFFF" stroke-width="5" fill="none" mask="url(#mask-25)"></path>
                        <path d="M85,79 C99.6666667,79.3333333 114.333333,79.6666667 129,80" id="Stroke-102" stroke="#FFFFFF" stroke-width="5" fill="none" mask="url(#mask-25)"></path>
                        <path d="M184,120 C175.123242,120.594838 166.841901,126.843091 163.654344,135.350954 C161.815646,140.258891 161.60072,145.616292 160.968624,150.833235 C159.697921,161.316283 156.649192,171.570384 152,181" id="Stroke-103" stroke="#FFFFFF" stroke-width="5" fill="none" mask="url(#mask-25)"></path>
                        <polygon id="Fill-104" stroke="none" fill="#C3C0BC" fill-rule="evenodd" mask="url(#mask-25)" points="109 54.691599 128.424722 57 129 44 109 44"></polygon>
                        <polygon id="Fill-105" stroke="none" fill="#C3C0BC" fill-rule="evenodd" mask="url(#mask-25)" points="98 55 106 55 106 43 98 43"></polygon>
                        <polygon id="Fill-106" stroke="none" fill="#C3C0BC" fill-rule="evenodd" mask="url(#mask-25)" points="105 12 96 16.0935011 97.6659597 34 105 31.9931291"></polygon>
                        <polygon id="Fill-107" stroke="none" fill="#C3C0BC" fill-rule="evenodd" mask="url(#mask-25)" points="110 12.6835858 110 34 129.488846 28.5934964 131 3"></polygon>
                        <polygon id="Fill-108" stroke="none" fill="#C3C0BC" fill-rule="evenodd" mask="url(#mask-25)" points="23 27 29 27 29 21 23 21"></polygon>
                        <polygon id="Fill-109" stroke="none" fill="#C3C0BC" fill-rule="evenodd" mask="url(#mask-25)" points="14 25 20 25 20 19 14 19"></polygon>
                        <polygon id="Fill-110" stroke="none" fill="#C3C0BC" fill-rule="evenodd" mask="url(#mask-25)" points="4 22 10 22 10 16 4 16"></polygon>
                        <polygon id="Fill-113" stroke="none" fill="#C3C0BC" fill-rule="evenodd" mask="url(#mask-25)" points="139.040063 94.8608267 139.040063 85 134.857182 85 128 112 148 112 148 94.8608267"></polygon>
                        <polygon id="Fill-114" stroke="none" fill="#C3C0BC" fill-rule="evenodd" mask="url(#mask-25)" points="138.699878 70 136 80 153 80 153 71.488172"></polygon>
                        <polygon id="Fill-115" stroke="none" fill="#C3C0BC" fill-rule="evenodd" mask="url(#mask-25)" points="145 92 153 92 153 84 145 84"></polygon>
                        <path d="M86.018361,-1.67277462 L87.4470268,6.06421487 C87.5819543,6.79509266 88.4064721,7.20599935 89.1131508,6.89518967 L104.309412,0.210406315 C105.426213,-0.280577975 105.117909,-1.86753964 103.891101,-1.94524206 L87.265818,-2.9974482 C86.4975497,-3.0459698 85.8848575,-2.39516961 86.018361,-1.67277462" id="Fill-116" stroke="none" fill="#A4C754" fill-rule="evenodd" mask="url(#mask-25)"></path>
                        <polygon id="Fill-117" stroke="none" fill="#C3C0BC" fill-rule="evenodd" mask="url(#mask-25)" points="91 102.07371 84.5253995 97 78 110.906194 84.3656453 117"></polygon>
                        <polygon id="Fill-118" stroke="none" fill="#C3C0BC" fill-rule="evenodd" mask="url(#mask-25)" points="103 113.274658 92.6955705 105 86 120.439126 95.7458288 130"></polygon>
                        <polygon id="Fill-119" stroke="none" fill="#C3C0BC" fill-rule="evenodd" mask="url(#mask-25)" points="105.455904 115 98 132.049468 108.227125 142 112 120.211501"></polygon>
                        <polygon id="Fill-122" stroke="none" fill="#C3C0BC" fill-rule="evenodd" mask="url(#mask-25)" points="99 75 125 75 125 67 99 67"></polygon>
                        <polygon id="Fill-123" stroke="none" fill="#C3C0BC" fill-rule="evenodd" mask="url(#mask-25)" points="95 64 100 64 100 62 95 62"></polygon>
                        <polygon id="Fill-124" stroke="none" fill="#C3C0BC" fill-rule="evenodd" mask="url(#mask-25)" points="109.284147 83 107 83 107 95 119.220642 95 123 83"></polygon>
                        <polygon id="Fill-125" stroke="none" fill="#C3C0BC" fill-rule="evenodd" mask="url(#mask-25)" points="93 84 100 84 100 81 93 81"></polygon>
                        <polygon id="Fill-126" stroke="none" fill="#C3C0BC" fill-rule="evenodd" mask="url(#mask-25)" points="93 89 100 89 100 86 93 86"></polygon>
                        <polygon id="Fill-127" stroke="none" fill="#C3C0BC" fill-rule="evenodd" mask="url(#mask-25)" points="93 93 100 93 100 90 93 90"></polygon>
                        <line x1="93" y1="98" x2="123" y2="98" id="Stroke-128" stroke="#FFFFFF" stroke-width="5" fill="none" mask="url(#mask-25)"></line>
                        <path d="M64.517337,131.786493 L60.0527489,145.562097 C59.7998433,146.342513 60.4931409,147.106002 61.3472455,146.987851 L72.9925988,145.380726 C73.8075981,145.267757 74.2512793,144.418593 73.8499927,143.738708 L66.6692275,131.570574 C66.1645127,130.714846 64.821043,130.849924 64.517337,131.786493" id="Fill-129" stroke="none" fill="#A4C754" fill-rule="evenodd" mask="url(#mask-25)"></path>
                        <line x1="159" y1="24" x2="184" y2="20" id="Stroke-130" stroke="#FFFFFF" stroke-width="5" fill="none" mask="url(#mask-25)"></line>
                        <polygon id="Fill-131" stroke="none" fill="#C3C0BC" fill-rule="evenodd" mask="url(#mask-25)" points="158.364272 44 159 34.4664278 141.553279 34 141 44"></polygon>
                        <polygon id="Fill-132" stroke="none" fill="#C3C0BC" fill-rule="evenodd" mask="url(#mask-25)" points="140.552912 47 140 57.159168 157.212295 59 158 47"></polygon>
                        <polygon id="Fill-133" stroke="none" fill="#C3C0BC" fill-rule="evenodd" mask="url(#mask-25)" points="161.19363 130 162 126 155.051421 126 153 130"></polygon>
                        <polygon id="Fill-134" stroke="none" fill="#C3C0BC" fill-rule="evenodd" mask="url(#mask-25)" points="159.746794 138 161 132 151.187615 132 148 138"></polygon>
                        <polygon id="Fill-135" stroke="none" fill="#C3C0BC" fill-rule="evenodd" mask="url(#mask-25)" points="146.926951 140 142 149.436214 156.741858 151 159 140"></polygon>
                        <line x1="45" y1="157" x2="81" y2="193" id="Stroke-138" stroke="#FFFFFF" stroke-width="5" fill="none" mask="url(#mask-25)"></line>
                        <line x1="71" y1="108" x2="101" y2="152" id="Stroke-140" stroke="#FFFFFF" stroke-width="5" fill="none" mask="url(#mask-25)"></line>
                        <polygon id="Fill-143" stroke="none" fill="#C3C0BC" fill-rule="evenodd" mask="url(#mask-25)" points="3 153 26 153 26 144 3 144"></polygon>
                        <polygon id="Fill-144" stroke="none" fill="#C3C0BC" fill-rule="evenodd" mask="url(#mask-25)" points="45.7326578 120 34 137.56957 47.0528982 144 55 123.77212"></polygon>
                        <path d="M36,197 L81.5233655,60.7387963 C88.0707986,41.1401603 104.906405,26.7699054 125.276275,23.3930163 L194,12" id="Stroke-145" stroke="#F0C64C" stroke-width="12" fill="none" mask="url(#mask-25)"></path>
                        <line x1="42" y1="217" x2="123" y2="-12" id="Stroke-146" stroke="#F0C64C" stroke-width="12" fill="none" mask="url(#mask-25)"></line>
                        <path d="M201,-0.972110259 L93.9106177,18.0202356 C67.7081627,22.6673826 40.7308186,19.0878717 16.589801,7.76049563 L-17,-8" id="Stroke-147" stroke="#F0C64C" stroke-width="12" fill="none" mask="url(#mask-25)"></path>
                        <polygon id="Fill-148" stroke="none" fill="#C3C0BC" fill-rule="evenodd" mask="url(#mask-25)" points="82 138.044992 83.9181306 142 90 140.159024 87.4104396 136"></polygon>
                        <polygon id="Fill-149" stroke="none" fill="#C3C0BC" fill-rule="evenodd" mask="url(#mask-25)" points="86 135.057306 82.7285506 130 78 131.721456 80.6594669 137"></polygon>
                    </g>
                </g>
                <g id="Group" mask="url(#mask-3)">
                    <g transform="translate(45.000000, 28.000000)" id="Group-6">
                        <g id="Group-6">
                            <g id="Group-3">
                                <mask id="mask-27" fill="white">
                                    <use xlink:href="#path-26"></use>
                                </mask>
                                <g id="Clip-2"></g>
                                <path d="M26.4051647,44.2131579 C16.5523355,44.2131579 8.57190925,36.1678947 8.57190925,26.2373684 C8.57190925,16.3236842 16.5523355,8.27842105 26.4051647,8.27842105 C36.2402411,8.27842105 44.2217116,16.3236842 44.2217116,26.2373684 C44.2217116,36.1678947 36.2402411,44.2131579 26.4051647,44.2131579 M52.7942475,26.7857895 C52.7942475,12.0984211 40.9833838,0.177368421 26.3968104,0.177368421 C11.8102371,0.177368421 0.000417714012,12.0984211 0.000417714012,26.7857895 C0.000417714012,30.7236842 0.859864295,34.4489474 2.38347615,37.8089474 L2.36781188,37.8089474 L2.59442173,38.2342105 C2.9108401,38.9036842 3.25858701,39.5573684 3.62095392,40.2110526 L23.588728,78.2942105 C24.7813015,80.5689474 28.0123194,80.5689474 29.2059372,78.2942105 L49.1737113,40.2110526 C49.5350339,39.5573684 49.8817365,38.9036842 50.1991992,38.2342105 L50.425809,37.8089474 L50.4101447,37.8089474 C51.9191366,34.4489474 52.7942475,30.7236842 52.7942475,26.7857895" id="Fill-1" fill="#25BBD4" mask="url(#mask-27)"></path>
                            </g>
                            <ellipse id="Oval" fill="#25BBD4" cx="27.0096154" cy="26.1538462" rx="23.4423077" ry="23.5897436"></ellipse>
                            <path d="M25.9903846,44.1357471 C16.3210673,43.9710772 8.53487005,35.9803663 8.53487005,26.125508 C8.53487005,16.2875389 16.3210673,8.29682799 25.9903846,8.13215813 L25.9903846,0 C11.6023489,0.160447564 0,12.0462342 0,26.6744076 C0,30.6233177 0.855774616,34.3590014 2.37287688,37.7284003 L2.35727953,37.7284003 L2.5829212,38.1559086 C2.89798767,38.8261994 3.24424885,39.4817121 3.60506755,40.1372249 L23.4875298,78.3279675 C24.0271981,79.3655988 24.9911144,79.9071093 25.9903846,80 L25.9903846,44.1357471 Z" id="Fill-4" fill="#25BBD4" opacity="0.0748232887" style="mix-blend-mode: multiply;"></path>
                        </g>
                        <g id="Group-35-Copy" transform="translate(11.211538, 11.282051)">
                            <path d="M16.3076923,20.2564103 C16.3076923,21.5309091 15.2809563,22.5641026 14.0144231,22.5641026 C12.8068964,22.5641026 11.8173168,21.6248865 11.7276978,20.4327574 C11.7233721,20.3746075 11.7211538,20.3157879 11.7211538,20.2564103 C11.7211538,18.9819114 12.7478898,17.9487179 14.0144231,17.9487179 C15.2809563,17.9487179 16.3076923,18.9819114 16.3076923,20.2564103" id="Fill-1" fill="#FFFFFE"></path>
                            <path d="M25.5384875,7.69230769 C25.5262338,7.29192872 25.4850065,6.95872742 25.423051,6.66666667 C25.48535,7.00107253 25.5384875,7.33844347 25.5384875,7.69230769" id="Fill-3" fill="#FFFFFE"></path>
                            <path d="M16.0109491,8.77673022 C10.8511441,11.6072739 8.63278746,9.86736729 8.15384615,9.38143317 L8.15384615,15.8611204 L8.15384615,20.0019669 C8.15384615,20.5673065 8.61623682,21.025641 9.18672029,21.025641 C9.18672029,18.4993717 10.0680134,15.7762856 14.2303284,15.7762856 L14.288541,15.7575088 L17.4946855,15.7575088 C19.6180756,15.7575088 21.6913573,14.9727297 23.1919868,13.4841605 C24.7177276,11.9709327 25.4807692,10.1451732 25.4807692,7.9805267 C25.4807692,7.54854755 25.4278072,7.13670254 25.3657137,6.72859026 C24.8461378,3.73425874 22.4565676,5.24081289 16.0109491,8.77673022" id="Fill-5" fill="#FFFFFE"></path>
                            <path d="M21.4623906,2.37296891 C22.0232813,2.21500334 22.5062059,2.16418453 22.9326923,2.17711409 C21.4359752,0.75306291 19.3843021,0 17.2810782,0 L8.69723911,0 C8.11563499,0 7.64423077,0.455570456 7.64423077,1.01750065 L7.64423077,4.03728517 C11.1055782,9.24014262 18.0537576,3.33357947 21.4623906,2.37296891" id="Fill-7" fill="#FFFFFE"></path>
                            <g id="Group-11" transform="translate(0.000000, 24.615385)">
                                <mask id="mask-29" fill="white">
                                    <use xlink:href="#path-28"></use>
                                </mask>
                                <g id="Clip-10"></g>
                                <path d="M3.84733568,2.60526442 C3.84733568,1.55802885 3.3590109,1.00790865 2.37228226,1.00790865 L1.15622671,1.00790865 L1.15622671,4.20262019 L2.37228226,4.20262019 C3.3590109,4.20262019 3.84733568,3.6525 3.84733568,2.60526442 M5.02352799,2.60526442 C5.02352799,4.34012019 4.00678868,5.19697115 2.37228226,5.19697115 L1.15622671,5.19697115 L1.15622671,7.34444712 C1.15622671,7.61944712 1.01670534,7.65117788 0.578096368,7.65117788 C0.139600641,7.65117788 -3.3974359e-05,7.61944712 -3.3974359e-05,7.34444712 L-3.3974359e-05,0.309711538 C-3.3974359e-05,0.119326923 0.0996241453,0.0135576923 0.279122009,0.0135576923 L2.37228226,0.0135576923 C4.00678868,0.0135576923 5.02352799,0.870408654 5.02352799,2.60526442" id="Fill-9" fill="#FFFFFE" mask="url(#mask-29)"></path>
                            </g>
                            <path d="M8.11782458,30.3675838 L8.11782458,29.8508197 C6.52546383,29.8313233 6.17058863,30.3090947 6.17058863,30.767259 C6.17058863,31.1962895 6.48709894,31.4302457 6.88993025,31.4302457 C7.3216442,31.4302457 7.73406673,31.167045 7.94518259,30.8843479 C8.03150358,30.767259 8.11782458,30.6112882 8.11782458,30.3675838 M9.17307692,29.148951 L9.17307692,31.9470098 C9.17307692,32.180966 9.10582938,32.2297069 8.77972785,32.2297069 C8.46321754,32.2297069 8.37689655,32.180966 8.33842267,31.9762543 L8.24261945,31.4984829 C7.84927038,31.9957507 7.23532321,32.3076923 6.56382872,32.3076923 C5.75805712,32.3076923 5.09615385,31.8397799 5.09615385,30.9233406 C5.09615385,30.0262868 5.71969223,29.0416103 8.11782458,29.1098475 L8.11782458,28.9246322 C8.11782458,28.4078681 7.88763526,28.0569338 7.12022855,28.0569338 C6.23772718,28.0569338 5.83478689,28.4078681 5.68132735,28.4078681 C5.52775881,28.4078681 5.3935907,28.1446674 5.3935907,27.8717184 C5.3935907,27.6376514 5.50868536,27.501177 5.79642201,27.4036952 C6.1512972,27.2769689 6.70769704,27.1794872 7.21614077,27.1794872 C8.59738565,27.1794872 9.17307692,27.7547403 9.17307692,29.148951" id="Fill-12" fill="#FFFFFE"></path>
                            <path d="M13.7596154,27.6763406 C13.7596154,27.9446415 13.6809724,28.2329294 13.5040257,28.2329294 C13.3957799,28.2329294 13.2779272,28.163257 13.0222258,28.163257 C12.629011,28.163257 12.2455148,28.2826148 11.9506036,28.6304122 C11.8424696,28.7595941 11.7834873,28.9485113 11.7834873,29.1571898 L11.7834873,32.0194044 C11.7834873,32.2778811 11.6457504,32.3076923 11.2427052,32.3076923 C10.8395483,32.3076923 10.7019231,32.2778811 10.7019231,32.0194044 L10.7019231,27.5272846 C10.7019231,27.288682 10.8199992,27.2389967 11.1049683,27.2389967 C11.3999911,27.2389967 11.4884645,27.288682 11.5671075,27.4676622 L11.6753533,27.9446415 C12.1275503,27.4279139 12.8059577,27.1794872 13.3073066,27.1794872 C13.6514813,27.1794872 13.7596154,27.3384803 13.7596154,27.6763406" id="Fill-14" fill="#FFFFFE"></path>
                            <path d="M17.3036492,32.3076923 C16.895906,32.3076923 16.7792976,32.2770905 16.7308671,32.0016738 C16.5754261,31.1957092 16.1869889,30.4509484 15.5364312,29.9612029 C15.3131433,30.0938109 15.070439,30.2061336 14.8277348,30.2979391 L14.8277348,32.0118744 C14.8277348,32.2770905 14.6917101,32.3076923 14.2936751,32.3076923 C13.8955298,32.3076923 13.7596154,32.2770905 13.7596154,32.0118744 L13.7596154,24.9112025 C13.7596154,24.6459865 13.8955298,24.6153846 14.2936751,24.6153846 C14.6917101,24.6153846 14.8277348,24.6459865 14.8277348,24.9112025 L14.8277348,29.4205702 C15.7792458,29.0124297 16.3618463,28.237067 16.5463015,27.4005005 C16.6045506,27.1352845 16.7405753,27.1046827 17.1483184,27.1046827 C17.5657698,27.1046827 17.7503353,27.1556857 17.6337269,27.5229079 C17.410439,28.237067 16.9443365,28.8900223 16.3326115,29.4103696 C17.1289021,30.0836103 17.6823781,30.9814963 17.8280007,31.9404701 C17.8764312,32.2566892 17.7211005,32.3076923 17.3036492,32.3076923" id="Fill-16" fill="#FFFFFE"></path>
                            <path d="M18.9463523,32.0021503 L18.9463523,27.2391908 C18.9463523,26.9757925 19.0520325,26.9336488 19.3616103,26.9336488 C19.6711024,26.9336488 19.7768684,26.9757925 19.7768684,27.2391908 L19.7768684,32.0021503 C19.7768684,32.2762042 19.6711024,32.3076923 19.3616103,32.3076923 C19.0520325,32.3076923 18.9463523,32.2762042 18.9463523,32.0021503 M18.8557692,25.2687321 C18.8557692,24.7944955 18.9312551,24.6153846 19.3616103,24.6153846 C19.7994284,24.6153846 19.875,24.7630074 19.875,25.2687321 C19.875,25.7745766 19.7994284,25.9220796 19.3616103,25.9220796 C18.9312551,25.9220796 18.8557692,25.7745766 18.8557692,25.2687321" id="Fill-18" fill="#FFFFFE"></path>
                            <path d="M25.4807692,28.8093923 L25.4807692,32.0195173 C25.4807692,32.277994 25.3468073,32.3076923 24.9543814,32.3076923 C24.5620643,32.3076923 24.4279936,32.277994 24.4279936,32.0195173 L24.4279936,29.0082466 C24.4279936,28.5112803 24.2557568,28.1236217 23.662388,28.1236217 C23.2603935,28.1236217 22.8680763,28.3323001 22.6287498,28.6404622 C22.5236028,28.7696441 22.4566218,28.9485113 22.4566218,29.1573027 L22.4566218,32.0195173 C22.4566218,32.277994 22.3225511,32.3076923 21.930234,32.3076923 C21.5378081,32.3076923 21.4038462,32.277994 21.4038462,32.0195173 L21.4038462,27.5272846 C21.4038462,27.2887949 21.5186707,27.2391096 21.7961633,27.2391096 C22.0833333,27.2391096 22.159883,27.2887949 22.2077266,27.4777122 L22.3416885,27.9646286 C22.7819579,27.437851 23.432739,27.1794872 23.9591268,27.1794872 C25.0213624,27.1794872 25.4807692,27.8056354 25.4807692,28.8093923" id="Fill-20" fill="#FFFFFE"></path>
                            <g id="Group-24" transform="translate(25.990385, 27.179487)">
                                <mask id="mask-31" fill="white">
                                    <use xlink:href="#path-30"></use>
                                </mask>
                                <g id="Clip-23"></g>
                                <path d="M3.44799182,2.90488688 L3.44799182,2.34730769 C3.44799182,1.84945701 3.39877043,1.68022624 3.28052723,1.51099548 C3.05410884,1.18237557 2.70944726,0.953529412 2.24676621,0.953529412 C1.70521907,0.953529412 1.22273759,1.2621267 1.22273759,2.62615385 C1.22273759,3.99006787 1.70521907,4.28871041 2.23692193,4.28871041 C2.72913581,4.28871041 3.0737974,4.03984163 3.28052723,3.7411991 C3.38892615,3.59187783 3.44799182,3.41257919 3.44799182,2.90488688 M4.51128567,0.376040724 L4.51128567,5.14504525 C4.51128567,6.51891403 3.9402057,7.59425339 2.18770054,7.59425339 C1.63630912,7.59425339 1.05538487,7.47468326 0.700990877,7.32547511 C0.444927791,7.21585973 0.346485014,7.09640271 0.346485014,6.85748869 C0.346485014,6.59855204 0.484416768,6.2999095 0.641925211,6.2999095 C0.799433654,6.2999095 1.23258187,6.67819005 2.06956921,6.67819005 C3.08364167,6.67819005 3.42819139,6.09085973 3.42819139,5.24459276 L3.42819139,4.61733032 C3.06395312,4.99561086 2.52251785,5.23463801 1.99081499,5.23463801 C0.947209686,5.23463801 0.0905337946,4.58746606 0.0905337946,2.62615385 C0.0905337946,0.674683258 0.976630652,0.0175565611 2.02023595,0.0175565611 C2.61111635,0.0175565611 3.15255162,0.276493213 3.55627887,0.724457014 L3.65472165,0.316312217 C3.69409876,0.146968326 3.80238581,0.087239819 4.10755842,0.087239819 C4.39315434,0.087239819 4.51128567,0.137013575 4.51128567,0.376040724" id="Fill-22" fill="#FFFFFE" mask="url(#mask-31)"></path>
                            </g>
                            <path d="M9.64210544,35.8401831 C10.1923077,36.3382149 10.1923077,37.0162891 10.1923077,37.8004007 L10.1923077,40.5128205 L9.40630448,40.5128205 L9.40630448,37.8004007 C9.40630448,37.1116491 9.40630448,36.7619959 9.19296075,36.4653615 C9.02453149,36.2321775 8.72135882,36.0837989 8.33958583,36.0837989 C7.95781284,36.0837989 7.65464017,36.2321775 7.48621091,36.4653615 C7.27286718,36.7619959 7.27286718,37.1116491 7.27286718,37.8004007 L7.27286718,40.5128205 L6.48686396,40.5128205 L6.48686396,37.8004007 C6.48686396,37.1116491 6.48686396,36.7619959 6.27340448,36.4653615 C6.10497522,36.2321775 5.80191831,36.0837989 5.42002956,36.0837989 C5.03825657,36.0837989 4.7350839,36.2321775 4.5667704,36.4653615 C4.35331091,36.7619959 4.35331091,37.1116491 4.35331091,37.8004007 L4.35331091,40.5128205 L3.56730769,40.5128205 L3.56730769,35.4481887 L4.35331091,35.4481887 L4.35331091,35.9355431 C4.62291348,35.5858899 5.02714371,35.3846154 5.4762884,35.3846154 C6.17234692,35.3846154 6.66652184,35.7023591 6.94723728,36.2321775 C7.20549548,35.7448232 7.7780392,35.3846154 8.39561316,35.3846154 C8.92347393,35.3846154 9.33893277,35.5752126 9.64210544,35.8401831" id="Fill-25" fill="#FFFFFE"></path>
                            <g id="Group-29" transform="translate(10.701923, 35.897436)">
                                <mask id="mask-33" fill="white">
                                    <use xlink:href="#path-32"></use>
                                </mask>
                                <g id="Clip-28"></g>
                                <path d="M0.983289474,1.16700997 C0.754338057,1.48251384 0.754338057,1.93190476 0.754338057,2.41950166 C0.754338057,2.90709856 0.754338057,3.35648948 0.983289474,3.67199336 C1.19142713,3.95881506 1.54526113,4.13090808 2.00316397,4.13090808 C2.4610668,4.13090808 2.81490081,3.95881506 3.02303846,3.67199336 C3.25198988,3.35648948 3.25198988,2.90709856 3.25198988,2.41950166 C3.25198988,1.93190476 3.25198988,1.48251384 3.02303846,1.16700997 C2.81490081,0.880188261 2.4610668,0.708095238 2.00316397,0.708095238 C1.54526113,0.708095238 1.19142713,0.880188261 0.983289474,1.16700997 M3.67867206,0.889822813 C3.98047166,1.34873754 3.98047166,1.87454042 3.98047166,2.41950166 C3.98047166,2.9644629 3.98047166,3.49026578 3.67867206,3.94929125 C3.34565182,4.45593577 2.74205263,4.76191584 2.00316397,4.76191584 C1.2642753,4.76191584 0.660676113,4.45593577 0.32765587,3.94929125 C0.0258562753,3.49026578 0.0258562753,2.9644629 0.0258562753,2.41950166 C0.0258562753,1.87454042 0.0258562753,1.34873754 0.32765587,0.889822813 C0.660676113,0.383067553 1.2642753,0.0770874862 2.00316397,0.0770874862 C2.74205263,0.0770874862 3.34565182,0.383067553 3.67867206,0.889822813" id="Fill-27" fill="#FFFFFE" mask="url(#mask-33)"></path>
                            </g>
                            <polygon id="Fill-30" fill="#FFFFFE" points="16.4707692 40.5128205 14.7788462 35.8974359 15.5330769 35.8974359 16.8276051 39.6342109 18.1117308 35.8974359 18.8557692 35.8974359 17.1639512 40.5128205"></polygon>
                            <mask id="mask-35" fill="white">
                                <use xlink:href="#path-34"></use>
                            </mask>
                            <g id="Clip-33"></g>
                            <path d="M19.4930442,41.025641 L20.237725,41.025641 L20.237725,36.115502 L19.4930442,36.115502 L19.4930442,41.025641 Z M20.3653846,34.8418023 C20.3653846,35.1293812 20.1527283,35.3245113 19.8654943,35.3245113 C19.5782602,35.3245113 19.3653846,35.1293812 19.3653846,34.8418023 C19.3653846,34.5541044 19.5782602,34.3589744 19.8654943,34.3589744 C20.1527283,34.3589744 20.3653846,34.5541044 20.3653846,34.8418023 L20.3653846,34.8418023 Z" id="Fill-32" fill="#FFFFFE" mask="url(#mask-35)"></path>
                            <path d="M22.505748,36.6537217 C22.1751774,37.0008614 22.1751774,37.5465635 22.1751774,38.0822685 C22.1751774,38.6179736 22.1751774,39.1635608 22.505748,39.5108154 C22.7039767,39.7191451 23.0236418,39.8580699 23.4422509,39.8580699 C23.8610872,39.8580699 24.1805251,39.7191451 24.3788674,39.5108154 C24.709438,39.1635608 24.709438,38.6179736 24.709438,38.0822685 C24.709438,37.5465635 24.709438,37.0008614 24.3788674,36.6537217 C24.1805251,36.445392 23.8610872,36.3064672 23.4422509,36.3064672 C23.0236418,36.3064672 22.7039767,36.445392 22.505748,36.6537217 M24.709438,36.2568266 L24.709438,33.8461538 L25.4807692,33.8461538 L25.4807692,40.4532977 L24.709438,40.4532977 L24.709438,39.9075956 C24.4119245,40.2846115 23.9272013,40.5128205 23.3872694,40.5128205 C22.7370337,40.5128205 22.2192535,40.2747294 21.899702,39.9274748 C21.4038462,39.3917698 21.4038462,38.7370192 21.4038462,38.0822685 C21.4038462,37.4275179 21.4038462,36.7727673 21.899702,36.2370623 C22.2192535,35.8898077 22.7370337,35.6517166 23.3872694,35.6517166 C23.9272013,35.6517166 24.4119245,35.8799256 24.709438,36.2568266" id="Fill-34" fill="#FFFFFE" mask="url(#mask-35)"></path>
                        </g>
                    </g>
                </g>
            </g>
        </g>
    </g>
</svg>