<?xml version="1.0" encoding="UTF-8"?>
<svg width="15px" height="24px" viewBox="0 0 15 24" version="1.1" xmlns="http://www.w3.org/2000/svg" xmlns:xlink="http://www.w3.org/1999/xlink">
    <!-- Generator: Sketch 62 (91390) - https://sketch.com -->
    <title>013-facebookicons/principa</title>
    <desc>Created with Sketch.</desc>
    <g id="Symbols" stroke="none" stroke-width="1" fill="none" fill-rule="evenodd">
        <g id="footer" transform="translate(-120.000000, -185.000000)" fill="#FFFFFF" fill-rule="nonzero">
            <g id="013-facebook" transform="translate(120.000000, 185.000000)">
                <path d="M9.26526334,24 L5.03306717,24 C4.32615534,24 3.75110897,23.4777832 3.75110897,22.8358154 L3.75110897,14.1668701 L1.28195825,14.1668701 C0.575046376,14.1668701 0,13.6444702 0,13.0026855 L0,9.28802489 C0,8.64605714 0.575046376,8.12384034 1.28195825,8.12384034 L3.75110897,8.12384034 L3.75110897,6.26367188 C3.75110897,4.4192505 4.38886203,2.85003661 5.59520933,1.72595213 C6.80700058,0.596740734 8.50048394,0 10.4925801,0 L13.7202597,0.00476071875 C14.4259618,0.005859375 15,0.528076172 15,1.16894531 L15,4.61791992 C15,5.25988772 14.4251553,5.78210447 13.7184451,5.78210447 L11.5452859,5.78283694 C10.8825309,5.78283694 10.7137673,5.90350341 10.6776756,5.94049073 C10.6181951,6.00183103 10.5474232,6.17523192 10.5474232,6.65405273 L10.5474232,8.12365725 L13.5551254,8.12365725 C13.781555,8.12365725 14.0009275,8.17437745 14.1894508,8.26995848 C14.5961368,8.47631836 14.8489798,8.86651613 14.8489798,9.28820803 L14.8473667,13.0028686 C14.8473667,13.6444702 14.2723204,14.166687 13.5654085,14.166687 L10.5474232,14.166687 L10.5474232,22.8358154 C10.5474232,23.4777832 9.97217517,24 9.26526334,24 L9.26526334,24 Z M5.30042746,22.5930176 L8.99790305,22.5930176 L8.99790305,13.5369873 C8.99790305,13.1083374 9.38200664,12.7597046 9.85381889,12.7597046 L13.2980482,12.7597046 L13.2994597,9.53082277 L9.85361727,9.53082277 C9.38180497,9.53082277 8.99790305,9.18218995 8.99790305,8.75354006 L8.99790305,6.65405273 C8.99790305,6.10437009 9.05939998,5.47924805 9.51629164,5.00939944 C10.0683523,4.44140625 10.9383821,4.37585447 11.5448826,4.37585447 L13.4506816,4.37512209 L13.4506816,1.41137695 L10.4913703,1.40698242 C7.28990244,1.40698242 5.30042746,3.26806641 5.30042746,6.26367188 L5.30042746,8.75354006 C5.30042746,9.18200681 4.91652553,9.53082277 4.44471329,9.53082277 L1.5493185,9.53082277 L1.5493185,12.7597046 L4.44471329,12.7597046 C4.91652553,12.7597046 5.30042746,13.1083374 5.30042746,13.5369873 L5.30042746,22.5930176 Z" id="Shape"></path>
            </g>
        </g>
    </g>
</svg>