<?xml version="1.0" encoding="UTF-8"?>
<svg width="153px" height="153px" viewBox="0 0 153 153" version="1.1" xmlns="http://www.w3.org/2000/svg" xmlns:xlink="http://www.w3.org/1999/xlink">
    <title>llama a nuestras lineas</title>
    <defs>
        <filter x="-8.9%" y="-8.9%" width="117.8%" height="117.8%" filterUnits="objectBoundingBox" id="filter-1">
            <feOffset dx="0" dy="2" in="SourceAlpha" result="shadowOffsetOuter1"></feOffset>
            <feGaussianBlur stdDeviation="2" in="shadowOffsetOuter1" result="shadowBlurOuter1"></feGaussianBlur>
            <feColorMatrix values="0 0 0 0 0   0 0 0 0 0   0 0 0 0 0  0 0 0 0.2 0" type="matrix" in="shadowBlurOuter1" result="shadowMatrixOuter1"></feColorMatrix>
            <feMerge>
                <feMergeNode in="shadowMatrixOuter1"></feMergeNode>
                <feMergeNode in="SourceGraphic"></feMergeNode>
            </feMerge>
        </filter>
        <rect id="path-2" x="0" y="0" width="135" height="135" rx="19"></rect>
        <polygon id="path-4" points="0.473788035 0.345976305 154.603228 0.345976305 154.603228 152.626726 0.473788035 152.626726"></polygon>
        <polygon id="path-6" points="0.473788035 0.345976305 154.603228 0.345976305 154.603228 152.626726 0.473788035 152.626726"></polygon>
        <polygon id="path-8" points="0.473788035 0.375528448 154.603228 0.375528448 154.603228 18.560908 0.473788035 18.560908"></polygon>
        <polygon id="path-10" points="0.101814024 0.401548749 99.1599475 0.401548749 99.1599475 71.981884 0.101814024 71.981884"></polygon>
        <linearGradient x1="51.4350725%" y1="5.7959683%" x2="51.4350725%" y2="99.6995794%" id="linearGradient-12">
            <stop stop-color="#59C6EF" offset="0%"></stop>
            <stop stop-color="#AAE6F6" offset="100%"></stop>
        </linearGradient>
        <path d="M3.77733333,2.0576 C3.44666667,1.656 2.86666667,0.9376 2.326,1.1664 L2.326,1.1664 C1.92666667,1.336 1.786,1.8912 2.006,2.2592 L2.006,2.2592 C1.65066667,1.9392 1.02933333,1.6792 0.696666667,2.0224 L0.696666667,2.0224 C0.220666667,2.5144 0.510666667,3.1592 1.00066667,3.2208 L1.00066667,3.2208 C2.596,3.2208 4.21733333,3.3224 5.81066667,3.2208 L5.81066667,3.2208 C6.406,3.1824 7.744,2.9064 7.45733333,1.7776 L7.45733333,1.7776 C7.196,0.748 5.93666667,1.3272 5.698,2.076 L5.698,2.076 C5.658,0.9848 5.03133333,0.4976 4.478,0.4976 L4.478,0.4976 C3.88,0.4976 3.368,1.0672 3.77733333,2.0576" id="path-13"></path>
        <linearGradient x1="50.000728%" y1="5.79433663%" x2="50.000728%" y2="99.701277%" id="linearGradient-15">
            <stop stop-color="#59C6EF" offset="0%"></stop>
            <stop stop-color="#AAE6F6" offset="100%"></stop>
        </linearGradient>
        <path d="M3.3796,1.2675 C3.0884,1.058 2.5788,0.682 2.1042,0.8015 L2.1042,0.8015 C1.7535,0.8905 1.6289,1.1805 1.8214,1.3735 L1.8214,1.3735 C1.5099,1.206 0.9646,1.0705 0.672,1.2495 L0.672,1.2495 C0.2534,1.507 0.5089,1.8445 0.9387,1.877 L0.9387,1.877 C2.3415,1.877 3.7667,1.9295 5.166,1.877 L5.166,1.877 C5.6896,1.857 6.8663,1.7125 6.615,1.1215 L6.615,1.1215 C6.3847,0.583 5.2773,0.8855 5.068,1.277 L5.068,1.277 C5.0323,0.7065 4.4814,0.452 3.9956,0.452 L3.9956,0.452 C3.4699,0.452 3.0198,0.7495 3.3796,1.2675" id="path-16"></path>
        <linearGradient x1="49.9949445%" y1="5.79313809%" x2="49.9949445%" y2="99.6958136%" id="linearGradient-18">
            <stop stop-color="#59C6EF" offset="0%"></stop>
            <stop stop-color="#AAE6F6" offset="100%"></stop>
        </linearGradient>
        <path d="M2.238125,0.914666667 C2.0325,0.693333333 1.673125,0.297333333 1.338125,0.423333333 L1.338125,0.423333333 C1.090625,0.516666667 1.0025,0.823333333 1.13875,1.02533333 L1.13875,1.02533333 C0.918125,0.849333333 0.533125,0.706666667 0.326875,0.896 L0.326875,0.896 C0.031875,1.16666667 0.211875,1.522 0.51625,1.556 L0.51625,1.556 C1.505,1.556 2.510625,1.612 3.498125,1.556 L3.498125,1.556 C3.868125,1.53533333 4.6975,1.38333333 4.520625,0.761333333 L4.520625,0.761333333 C4.358125,0.193333333 3.576875,0.512 3.429375,0.925333333 L3.429375,0.925333333 C3.40375,0.323333333 3.015,0.0546666667 2.671875,0.0546666667 L2.671875,0.0546666667 C2.30125,0.0546666667 1.98375,0.368666667 2.238125,0.914666667" id="path-19"></path>
        <linearGradient x1="49.9982856%" y1="5.81539167%" x2="49.9982856%" y2="99.7154616%" id="linearGradient-21">
            <stop stop-color="#59C6EF" offset="0%"></stop>
            <stop stop-color="#AAE6F6" offset="100%"></stop>
        </linearGradient>
        <polygon id="path-22" points="0.474372093 152.820297 154.793814 152.820297 154.793814 0.346415094 0.474372093 0.346415094"></polygon>
    </defs>
    <g id="PROTOTIPO" stroke="none" stroke-width="1" fill="none" fill-rule="evenodd">
        <g id="NECESITAS-AYUDA" transform="translate(-483.000000, -171.000000)">
            <g id="llama-a-nuestras-lineas" filter="url(#filter-1)" transform="translate(492.000000, 180.000000)">
                <mask id="mask-3" fill="white">
                    <use xlink:href="#path-2"></use>
                </mask>
                <use id="Mask" fill="#D8D8D8" xlink:href="#path-2"></use>
                <g id="Group-256" mask="url(#mask-3)">
                    <g transform="translate(-21.000000, 0.000000)">
                        <g id="Group-68" stroke-width="1" fill="none">
                            <g id="Group-3">
                                <mask id="mask-5" fill="white">
                                    <use xlink:href="#path-4"></use>
                                </mask>
                                <g id="Clip-2"></g>
                                <path d="M263.648064,172.137051 L-128.999809,172.137051 C-130.52918,172.137051 -131.767653,170.896582 -131.767653,169.366357 L-131.767653,-77.3666448 C-131.767653,-78.8968692 -130.52918,-80.1373384 -128.999809,-80.1373384 L263.648064,-80.1373384 C265.176715,-80.1373384 266.415908,-78.8968692 266.415908,-77.3666448 L266.415908,169.366357 C266.415908,170.896582 265.176715,172.137051 263.648064,172.137051" id="Fill-1" fill="#FFFFFF" mask="url(#mask-5)"></path>
                            </g>
                            <g id="Group-6">
                                <mask id="mask-7" fill="white">
                                    <use xlink:href="#path-6"></use>
                                </mask>
                                <g id="Clip-5"></g>
                                <path d="M177.943337,162.179781 L177.943337,-85.5349291 C177.943337,-87.0291143 176.732946,-88.2400314 175.241017,-88.2400314 L107.267555,-88.2400314 C97.3388877,-82.2582452 85.5489101,-63.1336841 82.3555211,-52.600868 C76.9083988,-34.6310028 64.92905,-22.1535115 58.8482901,-18.8198857 C42.9569498,-10.1084906 25.04589,-12.2117382 7.83615168,-8.1580492 C-10.8093516,-3.76559169 -28.1911801,7.52765154 -36.3989458,24.2397487 C-44.3359754,40.400446 -42.0217585,53.9483015 -46.6285911,70.5818332 C-51.3059879,87.4698016 -68.1009816,100.57942 -84.0492053,106.693831 C-100.950045,113.172237 -117.295013,118.040412 -120.381115,136.349046 C-121.969529,145.771134 -121.13572,155.539919 -118.401718,164.884883 L175.241017,164.884883 C176.732946,164.884883 177.943337,163.673966 177.943337,162.179781" id="Fill-4" fill="#EB4555" opacity="0.247279576" mask="url(#mask-7)"></path>
                            </g>
                            <path d="M99.8848143,87.7701523 C93.7687724,86.2002848 89.3081085,84.79836 88.9070448,75.4685323 C88.7162335,71.0313862 89.8099782,67.7763258 92.5396597,64.6769547 C94.7530707,62.163581 95.9173796,61.1761069 96.1693945,57.5159659 C96.5510171,51.9630462 94.3880091,47.7824992 96.2255578,42.4854578 C98.188394,36.8258621 104.194989,36.4618662 106.210389,31.1554546 C107.954332,26.5633399 108.348195,21.711743 113.486419,19.2502658 C118.036368,17.0698943 121.547296,20.7235482 120.552197,25.131863 C119.974003,27.6935292 118.271822,30.0814865 118.06085,32.7440625 C117.853478,35.3597875 119.340366,36.9101938 120.855335,38.8022517 C124.456988,43.2992229 126.819448,49.0085528 122.016764,54.8584355 C119.148834,58.3527961 117.000227,61.3202637 119.40733,65.9931062 C122.157172,71.3283492 123.653421,74.6259358 119.317324,80.3294994 C116.067052,84.6051899 112.487,84.8444902 108.26395,85.769256 C104.459965,86.6017615 99.7163244,88.9832317 96.2010764,86.8994453 L99.8848143,87.7701523 Z" id="Fill-10" fill="#8494AB"></path>
                            <path d="M103.210115,81.2113065 C103.028664,81.2379755 102.846494,81.2567159 102.662163,81.2658138 C102.420948,81.276177 102.215016,81.0902148 102.202776,80.8473106 C102.192695,80.6058479 102.347504,80.3903335 102.62112,80.3867296 C105.514251,80.2613132 108.066082,77.2181633 109.351358,74.6637049 C110.377419,72.6238863 110.012358,70.9790572 109.55009,68.8974331 L109.178548,67.1783634 C108.219452,62.6813922 107.392843,58.7985289 110.378139,54.7116838 C113.682415,50.1851605 114.27213,47.6054747 113.250389,42.1599518 C113.168304,41.7166697 113.070379,41.2503224 112.971733,40.7724427 C112.608831,39.0144505 112.195527,37.0229244 112.281932,35.3132249 C112.330895,34.3466536 112.629712,33.3858485 112.91989,32.4560372 C113.292872,31.2566527 113.645693,30.1228595 113.494484,29.0099691 C113.462082,28.769948 113.626971,28.5508297 113.863866,28.5155112 C113.865306,28.5147905 113.867466,28.5147905 113.868906,28.5147905 C114.11012,28.4816344 114.331173,28.6495771 114.363575,28.8895981 C114.542866,30.197821 114.142522,31.4793749 113.755859,32.716961 C113.471442,33.6359606 113.201426,34.5023429 113.158224,35.3586343 C113.076859,36.95445 113.477203,38.8875926 113.831464,40.5929674 C113.93227,41.0773343 114.028755,41.5501686 114.11372,41.999217 C115.178663,47.6725076 114.527745,50.5160004 111.086661,55.2299275 C108.332498,58.9989069 109.084223,62.528586 110.036839,66.996005 L110.404781,68.7057046 C110.887209,70.8694981 111.302674,72.7377701 110.134765,75.0594153 C108.758763,77.7919073 106.248695,80.7536087 103.210115,81.2113065" id="Fill-12" fill="#FFFFFF"></path>
                            <path d="M111.274016,67.6775784 C110.738305,67.7575854 110.061465,67.6465846 109.329901,67.0108532 C109.14845,66.8522807 109.128289,66.5747789 109.287419,66.390979 C109.445108,66.2093414 109.723044,66.1869971 109.906655,66.3477319 C110.438767,66.811196 110.947837,66.9344501 111.454747,66.7203772 C113.20085,65.9931062 114.604213,61.7887733 114.705739,60.2801725 C115.003837,55.8264483 115.806684,53.4557898 119.776999,51.193249 C119.984372,51.0714365 120.255108,51.1449564 120.375355,51.3575877 C120.495602,51.5687774 120.420717,51.8361883 120.210465,51.9565592 C116.396399,54.1297229 115.851327,56.2798214 115.579871,60.3392768 C115.490586,61.6835389 114.134746,66.5545969 111.793167,67.53198 C111.639798,67.595409 111.465548,67.648747 111.274016,67.6775784" id="Fill-14" fill="#FFFFFF"></path>
                            <path d="M84.7857369,92.9254155 C80.27539,97.7842202 74.7109008,102.230737 66.9862837,96.633849 C63.0987737,93.817746 62.9115626,89.8058625 62.6876293,84.9283173 C62.512659,81.1261819 62.69843,79.4164823 59.8852235,76.5866845 C55.5080845,72.1848568 47.9094749,72.8422117 44.9911422,67.2042395 C41.8942389,61.2217326 49.6339769,55.1282249 47.1066274,49.8585733 C44.9407392,45.3406994 41.1072324,41.1824967 44.3906267,37.2571072 C47.0425436,34.0870993 52.9396925,35.8386043 55.3496751,39.3920693 C56.7436776,41.4463036 57.1231401,43.7902931 58.8814841,45.7782152 C60.5894252,47.7091955 62.7632338,48.171218 65.1033723,48.8343393 C70.30424,50.3076217 75.0997238,52.8865867 75.9911365,58.5634813 C76.5484495,62.1075761 77.1936077,65.0548617 81.2438473,66.5130077 C85.5389015,68.0598101 87.9510442,69.0653037 89.2615217,74.592996 C90.2839822,78.9076088 88.9382226,81.4188202 87.6169444,84.9564279 C86.3381488,88.379431 85.4856183,93.7752198 82.1964637,95.8150384 L84.7857369,92.9254155 Z" id="Fill-16" fill="#0400A3"></path>
                            <path d="M84.8595413,90.4772727 C83.8846036,90.4938508 82.9543085,90.3107716 82.0816169,89.9265938 C78.3453158,88.2839271 76.2831138,83.3443946 74.4822872,79.0319441 C73.6009551,76.9164431 72.770746,74.9292417 71.8627722,73.6484086 C69.4405489,70.2246847 66.9095991,67.981605 62.5310201,65.3622761 C57.4446391,62.3227301 56.124081,59.9902732 54.9568919,54.9764999 C54.0085958,50.92209 52.8270059,46.8792128 50.5847932,44.5251323 C50.4112629,44.3442155 50.4407847,44.082571 50.648877,43.9405765 C50.8548092,43.7978613 51.1644275,43.8281342 51.3357976,44.009051 C53.7212988,46.5051259 54.9489714,50.6683741 55.9267893,54.8316223 C57.0579762,59.6594333 58.2496467,61.7634017 63.0753723,64.6465376 C66.7907921,66.8651107 69.8567335,69.1701778 72.7160227,73.2015225 C73.68376,74.5638042 74.5341303,76.5942527 75.4392239,78.7544422 C77.1716464,82.8939046 79.1553637,87.6323384 82.4920412,89.0969714 C83.7866778,89.6663908 85.1943611,89.7017092 86.7849352,89.2029267 C87.0506309,89.1279651 87.3530488,89.2490568 87.4624953,89.4926818 C87.5719418,89.7363068 87.4473744,90.0001137 87.1816787,90.0830039 C86.3831514,90.3316744 85.6091056,90.4635778 84.8595413,90.4772727" id="Fill-18" fill="#FFFFFF"></path>
                            <path d="M67.3697064,68.4448348 C67.2617,68.4462224 67.1515335,68.4188326 67.0543277,68.3590075 C66.8260742,68.2126884 66.7648706,67.9359073 66.9196797,67.7391333 C68.2733598,66.0431286 67.1832153,63.419475 66.0369075,60.6595932 C65.0446888,58.2716359 64.0265486,55.8159249 64.6097831,53.803496 C64.6745869,53.5764491 64.946043,53.4445456 65.2081385,53.5115785 C65.4731141,53.5764491 65.6351237,53.8121454 65.5695999,54.0391924 C65.0626899,55.80223 66.0325873,58.131083 66.9758431,60.3950654 C68.1603132,63.2414413 69.3951862,66.2031427 67.7563693,68.2667472 C67.6642038,68.3799103 67.5194752,68.4418977 67.3697064,68.4448348" id="Fill-20" fill="#FFFFFF"></path>
                            <path d="M72.8691758,74.3588854 C72.8079722,74.3603269 72.7431683,74.3509567 72.6805246,74.3307748 C71.9468012,74.0957992 71.367887,73.8082064 70.8062537,73.5299838 C69.9033203,73.0816562 69.1227941,72.695316 67.8908012,72.6441403 C67.2377226,72.6181921 66.6271264,72.6708093 66.0345314,72.721985 C64.7823773,72.8207324 63.4963812,72.935337 61.9151676,72.2837483 C59.6664746,71.3568201 57.2543318,69.6204515 54.7521838,67.1344676 C54.4072834,66.7913745 53.9666173,66.2493449 53.5000297,65.6763217 C52.82967,64.8553487 51.5897566,63.3323322 51.1498106,63.2436758 C50.885555,63.1903378 50.6940236,62.9654532 50.7386663,62.7348023 C50.7811488,62.5063138 51.0122825,62.3448582 51.2736579,62.3830597 C52.0577843,62.4818071 52.9434367,63.5053203 54.3100776,65.1818639 C54.7608243,65.7332636 55.1885296,66.2565528 55.4967078,66.5636067 C57.1499257,68.2033903 59.6815955,70.3945735 62.3169514,71.4793534 C63.6389496,72.0264284 64.6837314,71.937772 65.8977233,71.8332583 C66.5205601,71.7806411 67.1685985,71.7287447 67.8936814,71.7554137 C69.3726489,71.8137972 70.3367859,72.2931185 71.2721213,72.7558618 C71.7948722,73.015344 72.3363443,73.2834757 72.9879828,73.4917822 C73.2543986,73.576114 73.4034474,73.8341546 73.3184824,74.0669679 C73.2543986,74.2435599 73.0707877,74.3552814 72.8691758,74.3588854" id="Fill-22" fill="#FFFFFF"></path>
                            <path d="M86.0021769,90.6948053 C79.0667265,86.4241603 71.2254625,84.0304367 71.3961126,73.8789153 C71.537961,65.4738534 80.6666612,61.9477783 76.3802475,53.5693854 C73.6419255,48.2175644 67.7786186,42.4484095 68.4979411,35.907295 C69.2676667,28.9178529 78.432369,30.2880632 79.3756248,23.7354161 C80.1712719,18.2019576 73.6714473,12.9099617 77.9837824,7.82915548 C81.7863274,3.35020389 90.0819383,5.80951879 93.0931565,9.84374667 C96.938184,14.9966313 92.5977672,19.9066117 94.2373042,25.2476209 C95.2972069,28.7030592 98.7584517,28.7073839 101.544297,30.3738365 C104.238696,31.9840679 107.277276,34.6733129 108.759843,37.4713962 C113.318433,46.0689074 104.690883,50.7359836 102.974301,58.1506883 C101.355645,65.1394097 110.55923,65.8443364 112.229009,72.3948211 C114.070878,79.6242843 107.092225,86.6007524 100.958182,88.7479678 C96.7214512,90.2306204 90.3857963,93.3948621 86.0021769,90.6948053" id="Fill-24" fill="#B3B2DA"></path>
                            <path d="M93.4029908,91.7668273 C93.3626684,91.7733144 93.3194659,91.7747559 93.2762633,91.7668273 C93.0357691,91.7336713 92.8694392,91.510949 92.9047213,91.2716487 C92.9284827,91.0957774 95.3082235,73.5079278 88.4447774,56.2105541 C84.0978802,45.260404 85.2974712,36.9612974 86.2616082,30.2926041 C86.8354822,26.3246884 87.3294314,22.8988022 86.3573739,20.0783745 C86.2788893,19.8491652 86.3991364,19.5983324 86.6281099,19.5190461 C86.8650039,19.4347144 87.1083783,19.563014 87.186863,19.7907817 C88.2280446,22.8137497 87.7189745,26.3369417 87.1292596,30.4187413 C86.1809635,36.9829209 84.9986535,45.153728 89.2591456,55.8869221 C96.2125971,73.4062973 93.7975742,91.2168692 93.7723727,91.3934612 C93.744291,91.590956 93.5894818,91.7387167 93.4029908,91.7668273" id="Fill-26" fill="#FFFFFF"></path>
                            <path d="M89.1538034,55.9894897 C88.9421108,56.0212042 88.7340185,55.895067 88.6692147,55.6838773 C88.5986505,55.4539472 88.7275382,55.2074391 88.9593919,55.1353607 C92.4746399,54.0469769 96.0921339,50.1374446 95.8710808,46.0563658 C95.8444393,45.5691158 95.7983565,45.0371772 95.7486736,44.4785697 C95.5117796,41.8152729 95.2187222,38.5032706 96.8985816,36.6249075 C97.7194302,35.7087911 98.9406225,35.2316321 100.504555,35.1911415 C100.747929,35.1855019 100.948101,35.3772305 100.953142,35.6194139 C100.958902,35.8615973 100.775291,36.0475596 100.525436,36.0691831 C99.1803967,36.1030599 98.2133794,36.4721013 97.5509402,37.2101841 C96.127416,38.805279 96.4017522,41.9068125 96.6220853,44.400725 C96.6732083,44.9694235 96.7200111,45.5121739 96.7473727,46.0073525 C96.9986676,50.6463181 93.034113,54.7937091 89.2178872,55.9743532 C89.1962859,55.981561 89.1739646,55.9866065 89.1538034,55.9894897" id="Fill-28" fill="#FFFFFF"></path>
                            <path d="M86.5520734,56.5005255 C84.8052501,56.718923 83.2910005,56.4248432 82.033086,55.6168443 C80.0486486,54.3453814 78.7655327,51.7995724 78.3219864,48.2518737 C78.2787839,47.9030143 78.2384615,47.4950506 78.1952589,47.0496061 C77.9439641,44.5254206 77.5659417,40.7110319 75.7507143,39.2420741 C75.1509188,38.7569865 74.4423969,38.5688619 73.583386,38.6661677 C73.3436119,38.692116 73.1254389,38.5191278 73.0980773,38.2791067 C73.0721558,38.0405272 73.2420859,37.8235713 73.48042,37.7940191 C73.48186,37.7932983 73.4833001,37.7932983 73.4854603,37.7932983 C74.5734446,37.6707651 75.5210207,37.9273642 76.3022669,38.5587709 C78.4019112,40.2583795 78.8022549,44.2933282 79.0665105,46.9623912 C79.1104331,47.3991863 79.1500354,47.7992214 79.1925179,48.1423146 C79.6029422,51.4226024 80.74781,53.7521762 82.5068741,54.8780408 C84.0160834,55.8446121 85.9983607,55.9448011 88.3910622,55.1865363 C88.6315565,55.1072501 88.8691705,55.2420367 88.9426149,55.471246 C89.0153392,55.7033384 88.8886117,55.9498465 88.658198,56.0240873 C87.9215945,56.2576213 87.220273,56.4169146 86.5520734,56.5005255" id="Fill-30" fill="#FFFFFF"></path>
                            <path d="M95.9266681,84.1070561 C95.3844761,84.1885047 94.8408439,84.1769721 94.3065723,84.0457894 C94.0703983,83.9874059 93.9263898,83.7509888 93.9839932,83.5145717 C94.0423166,83.2788753 94.2712902,83.1332769 94.5139445,83.1916604 C97.2846685,83.8699182 100.840239,80.3258234 102.056391,78.1512181 C102.561861,77.2459135 102.788674,75.9218333 103.027008,74.5184669 C103.454714,72.022392 103.89538,69.4405439 106.016625,68.5655121 C106.244879,68.4573945 106.499054,68.5770447 106.589779,68.8019293 C106.682665,69.0268139 106.576818,69.2841337 106.352885,69.3749525 C104.678786,70.0669051 104.280602,72.4065699 103.892499,74.6655069 C103.640485,76.1452763 103.40143,77.5435973 102.820356,78.5808054 C101.731652,80.5334092 98.8421206,83.6688194 95.9266681,84.1070561" id="Fill-32" fill="#FFFFFF"></path>
                            <path d="M92.0409582,84.5181913 C91.4922857,84.6003606 90.9162517,84.5852242 90.3157361,84.4727819 C86.9660979,83.8406543 83.7151056,80.2893517 82.3463046,78.0578045 C81.6183415,76.8670694 81.2828016,75.0679926 80.9256605,73.1651229 C80.3618671,70.1479213 79.7800727,67.0298098 77.6422662,66.3335325 C77.4132927,66.258571 77.2872852,66.0106213 77.3614496,65.7792496 C77.436334,65.5493195 77.6861888,65.4267863 77.9158824,65.4974231 C80.5469181,66.3565976 81.2071972,69.8877182 81.7889916,73.0036673 C82.1281317,74.82653 82.4514308,76.5470413 83.0958689,77.5979444 C84.3329021,79.6168603 87.4312454,83.0326555 90.4784658,83.6085619 C91.665816,83.8320049 92.7343592,83.5934254 93.6459332,82.9000312 C93.8374645,82.7565952 94.1125208,82.7911929 94.2615696,82.9836422 C94.4062982,83.1789746 94.369576,83.4528725 94.1773246,83.6006333 C93.5220859,84.0958118 92.8070835,84.4028658 92.0409582,84.5181913" id="Fill-34" fill="#FFFFFF"></path>
                            <path d="M60.9529747,135.897979 C55.7974696,134.377846 51.6889065,133.014122 52.0374071,127.370384 C52.2181378,124.448326 53.6863047,122.502209 56.886174,121.049829 C59.4603264,119.88288 60.7592832,119.50591 61.5354892,116.971634 C62.7761226,112.922269 61.1452261,108.745326 64.0361971,104.947515 C67.2468671,100.728767 73.4428337,103.20466 76.6837455,99.4450506 C79.5775967,96.0890805 81.3798634,91.5985963 86.8039443,92.1211647 C91.3243718,92.5565182 92.7493361,97.5890319 90.5380853,100.826073 C89.2916915,102.651819 87.2698119,103.858411 86.3222358,105.849937 C85.4164222,107.753527 86.0968625,109.407006 86.6757767,111.238518 C87.9509722,115.27635 88.0013752,119.3495 83.4046232,121.70358 C80.6396596,123.1192 78.4845721,124.383455 79.1945341,127.363897 C79.9397782,130.489216 80.241476,132.263786 76.3964485,134.421814 C73.5047574,136.044298 70.9997292,135.800673 67.8012999,135.804998 C64.7843214,135.809323 60.671438,136.483256 57.9057544,135.040967 L60.9529747,135.897979 Z" id="Fill-36" fill="#8494AB"></path>
                            <path d="M62.8890972,133.073948 C62.4894736,132.552821 62.2367386,132.013674 62.1344926,131.464437 C61.6967067,129.092337 64.0980488,126.85214 66.2660971,124.82962 C67.3562416,123.814757 68.394543,122.846023 68.9136937,122.000543 C70.3285775,119.702684 70.8671693,117.613852 70.8844503,114.290317 C70.9010113,110.347629 72.0696405,108.810197 75.4178386,106.433772 C78.2252847,104.437921 81.0082494,102.23016 81.930624,99.9150018 C82.0019082,99.734085 82.2388022,99.6526364 82.4605753,99.7312019 C82.6801883,99.8090465 82.8025956,100.018795 82.7305913,100.19827 C81.745573,102.659026 78.8690028,104.934541 75.9758716,106.980126 C72.7392801,109.265011 71.6772173,110.6518 71.6527358,114.399876 C71.6347347,117.229674 71.2747134,119.658716 69.594134,122.372468 C69.0382611,123.272727 67.971878,124.261643 66.8543719,125.298851 C64.7633682,127.238481 62.4441109,129.390021 62.834374,131.512009 C62.9841429,132.330098 63.5241748,133.096292 64.4861517,133.855277 C64.641681,133.983577 64.6834434,134.170981 64.5682366,134.279098 C64.4530298,134.386495 64.2312567,134.372079 64.0714072,134.245942 C63.5911388,133.865368 63.1965554,133.474703 62.8890972,133.073948" id="Fill-38" fill="#FFFFFF"></path>
                            <path d="M70.7287051,118.011365 C70.6804623,117.948656 70.6531007,117.876578 70.6544866,117.803779 C70.6617412,117.63007 70.8374316,117.516186 71.048404,117.551504 C72.8909931,117.867208 74.3829214,116.472491 75.9864562,114.974702 C77.40278,113.651342 78.8867879,112.265275 80.7776197,111.983448 C80.9921924,111.951013 81.2247662,112.076429 81.2902901,112.259508 C81.3594142,112.444029 81.2420472,112.61918 81.0267545,112.650894 C79.3706565,112.89524 77.9579329,114.207788 76.6107332,115.459068 C74.9495949,117.002267 73.2625351,118.571414 71.0260827,118.187236 C70.9022354,118.165612 70.7949491,118.097859 70.7287051,118.011365" id="Fill-40" fill="#FFFFFF"></path>
                            <path d="M68.8378732,122.756285 C68.8112317,122.721688 68.7910705,122.682765 68.7781097,122.642402 C68.6333811,122.16308 68.5908986,121.75872 68.5498562,121.365172 C68.4836123,120.730882 68.4245688,120.182366 67.9363799,119.462303 C67.6771646,119.080287 67.379787,118.745123 67.0917699,118.418607 C66.4890943,117.728096 65.8626572,117.024611 65.6452043,115.935507 C65.3334259,114.378613 65.5199169,112.475023 66.2039574,110.262937 C66.299003,109.954441 66.4962947,109.527016 66.705107,109.072923 C67.0046448,108.417009 67.5677181,107.191676 67.4388305,106.9012 C67.3603458,106.727491 67.4402705,106.539367 67.6289217,106.490354 C67.8154127,106.439178 68.0364658,106.52351 68.124311,106.692173 C68.3979272,107.190956 68.0379059,108.05013 67.4165091,109.392951 C67.2141772,109.831187 67.0233659,110.246359 66.9369608,110.521698 C66.4797337,111.989214 66.0167463,114.107599 66.3810879,115.939111 C66.5603785,116.853065 67.0687286,117.42825 67.6606036,118.097138 C67.9637415,118.440952 68.2776801,118.799902 68.5685773,119.224444 C69.1582922,120.090105 69.2281363,120.771967 69.2972604,121.430043 C69.3339826,121.796922 69.3735849,122.176054 69.5024726,122.602758 C69.5557557,122.776467 69.4355086,122.927832 69.2346167,122.938644 C69.0826877,122.947293 68.9257184,122.87089 68.8378732,122.756285" id="Fill-42" fill="#FFFFFF"></path>
                            <path d="M58.9745856,141.313013 C52.5842075,140.151109 46.6006534,140.643405 44.0135404,133.640267 C41.9664592,128.09888 46.7389016,122.8768 41.9362174,119.068899 C39.0459664,116.776806 34.4866566,115.402271 33.478597,111.484089 C32.4280548,107.402289 37.6447635,104.816117 36.707268,100.900818 C35.9325022,97.6637772 31.4459167,97.4489836 32.616706,93.2345597 C33.6550074,89.4951325 36.9405618,88.5537886 39.5521564,89.3005208 C43.043643,90.2988066 43.3331001,93.4962043 45.6509172,95.7162189 C47.1975688,97.1988716 49.3886584,95.7090111 51.6582327,95.4365547 C53.9184464,95.1640984 56.8122977,95.3659179 58.726891,96.3642037 C64.9444589,99.6055692 59.961764,106.471757 61.0907908,112.060716 C62.1830955,117.464434 69.7831452,114.198561 73.7095375,118.257296 C78.2954889,122.997171 74.8356841,131.194647 70.3166968,135.063095 C67.3054786,137.640619 63.2934012,142.098667 58.9745856,141.313013" id="Fill-44" fill="#B3B2DA"></path>
                            <path d="M65.1420386,139.901646 C65.1117968,139.918224 65.0772347,139.93336 65.0390725,139.941289 C64.8331403,139.989581 64.6185676,139.866327 64.5616842,139.668833 C64.5192017,139.524676 60.3609557,125.611383 50.2357165,116.448777 C44.5351392,111.292288 43.180019,105.964974 42.1208364,101.802447 C41.5037598,99.3726839 40.9766887,97.3047547 39.7641369,96.1868188 C39.6676512,96.096 39.6770118,95.9136417 39.7886184,95.7774135 C39.9031051,95.6361398 40.0708751,95.6051461 40.1680808,95.6938025 C41.4756782,96.8917455 42.0221905,99.0231037 42.6637485,101.527828 C43.7164508,105.634855 45.0622104,110.892253 50.6864632,115.940624 C61.0147543,125.21351 65.2644458,139.346642 65.3076484,139.494403 C65.3558912,139.656579 65.2831669,139.821639 65.1420386,139.901646" id="Fill-46" fill="#FFFFFF"></path>
                            <path d="M50.6444847,116.045426 C50.5119969,116.144894 50.3384666,116.14057 50.2369406,116.03029 C50.125334,115.909919 50.141895,115.704495 50.2751029,115.574034 C52.3243441,113.552234 53.6549829,109.655676 52.3207439,107.200686 C52.1637746,106.910931 51.9801637,106.603156 51.7879124,106.281687 C50.8799386,104.761553 49.771073,102.901931 50.3478272,101.08988 C50.6308039,100.203315 51.3011636,99.4010828 52.3265042,98.7012016 C52.4877938,98.5916424 52.6764449,98.6175906 52.7491693,98.7588643 C52.8218936,98.8994172 52.7520494,99.0889834 52.5907599,99.2107958 C51.7043874,99.8119297 51.1686757,100.443336 50.9382621,101.160516 C50.447193,102.703715 51.4955751,104.449454 52.3524258,105.876606 C52.5497175,106.204563 52.7376486,106.518825 52.8989381,106.812904 C54.4311888,109.612429 52.9212594,113.8146 50.682647,116.01227 C50.6704062,116.025244 50.6574455,116.036056 50.6444847,116.045426" id="Fill-48" fill="#FFFFFF"></path>
                            <path d="M49.0683835,117.325827 C47.9919198,118.092741 46.9399375,118.445925 45.9282776,118.381775 C44.3614649,118.283749 42.9329004,117.165092 41.7916329,115.175728 C41.6800263,114.981837 41.556899,114.752628 41.4229711,114.501795 C40.6669263,113.097708 39.5450999,111.010318 38.1726987,110.818589 C37.7248322,110.756602 37.2863263,110.901479 36.8305393,111.26043 C36.7038118,111.359898 36.5446824,111.338274 36.4762784,111.212137 C36.4093144,111.086721 36.4546771,110.904362 36.5792445,110.803453 C36.5799645,110.802732 36.5814046,110.802011 36.5821246,110.80129 C37.1574387,110.345755 37.7442734,110.153306 38.3275079,110.23115 C39.9209622,110.447385 41.1147928,112.654426 41.9190804,114.140683 C42.0522883,114.38647 42.1739755,114.610634 42.284142,114.802362 C43.3469249,116.642524 44.6415615,117.671082 46.0334039,117.752531 C47.2481157,117.821726 48.5549931,117.173741 49.9129934,115.816505 C50.0505216,115.677394 50.2456531,115.674511 50.3586998,115.79344 C50.4717465,115.913811 50.4573456,116.118514 50.3248578,116.251138 C49.9021928,116.671355 49.483848,117.029585 49.0683835,117.325827" id="Fill-50" fill="#FFFFFF"></path>
                            <path d="M64.4543259,133.179542 C64.050382,133.423888 63.6140361,133.596156 63.1467285,133.675442 C62.9407963,133.710039 62.7456648,133.580298 62.7103827,133.383524 C62.6743805,133.187471 62.8039882,133.00223 63.0149607,132.964749 C65.4616655,132.538765 67.0781611,128.611934 67.2840933,126.53968 C67.3690583,125.679064 67.0745609,124.613025 66.7620624,123.492206 C66.21339,121.512212 65.6510367,119.485368 67.0457592,118.015689 C67.1919279,117.847747 67.4417826,117.830448 67.5965918,117.953702 C67.7542811,118.077677 67.7614816,118.304724 67.6117127,118.459692 C66.502127,119.624479 67.0191176,121.469686 67.5217074,123.268763 C67.853647,124.456615 68.1690257,125.585362 68.0703798,126.577882 C67.887489,128.446875 66.6554961,131.849696 64.4543259,133.179542" id="Fill-52" fill="#FFFFFF"></path>
                            <path d="M61.5386573,134.775214 C61.1426339,135.015235 60.6940474,135.188944 60.1964979,135.297782 C57.4740168,135.889546 54.0142121,134.331211 52.3869158,133.176515 C51.5343854,132.570336 50.784101,131.427893 49.9992545,130.234275 C48.7766222,128.37249 47.5381489,126.486198 45.9770965,126.724057 C45.8114867,126.749284 45.6660381,126.627472 45.6523573,126.452321 C45.6386765,126.279333 45.765404,126.117878 45.9295737,126.089767 C47.8528075,125.789921 49.263371,127.923442 50.5349662,129.847935 C51.291011,130.991819 52.0139337,132.085248 52.7714186,132.617908 C54.248226,133.657278 57.5597019,135.150742 60.0344883,134.602226 C61.0180665,134.383828 61.7625906,133.856214 62.2349385,133.035962 C62.3350245,132.865136 62.5625579,132.798824 62.7447287,132.893247 C62.9261794,132.990553 62.9924234,133.20895 62.8908974,133.38338 C62.547437,133.973702 62.0945302,134.438608 61.5386573,134.775214" id="Fill-54" fill="#FFFFFF"></path>
                            <g id="Group-58" transform="translate(0.000000, 134.065818)">
                                <mask id="mask-9" fill="white">
                                    <use xlink:href="#path-8"></use>
                                </mask>
                                <g id="Clip-57"></g>
                                <path d="M-31.1007283,10.386497 C-32.6855421,19.7884031 -31.8582131,29.5355647 -29.1378921,38.8632301 L264.756138,38.8632301 C266.165261,38.6044686 267.223724,37.5196888 267.223724,36.2172321 L267.223724,0.375528448 L-27.4421918,0.375528448 C-29.1796546,3.20100161 -30.4433294,6.48705573 -31.1007283,10.386497" id="Fill-56" fill="#FD425F" mask="url(#mask-9)"></path>
                            </g>
                            <polygon id="Fill-59" fill="#1B0C41" points="118.649485 131.816756 99.1118486 131.816756 100.718264 108.240633 117.04451 108.240633"></polygon>
                            <path d="M102.449246,125.957575 C107.335455,124.333649 113.112357,123.168141 117.8992,120.797483 L117.04451,108.240705 L100.718264,108.240705 L99.4445083,126.934958 C100.452568,126.609885 101.457027,126.286974 102.449246,125.957575" id="Fill-61" fill="#060D24"></path>
                            <path d="M121.21046,128.042515 C120.973566,127.68861 120.575383,127.475979 120.149117,127.475979 L109.329757,127.475979 L108.432584,127.475979 L97.6125039,127.475979 C97.1862387,127.475979 96.7887751,127.68861 96.5511611,128.042515 L93.5989864,132.45083 C93.0308728,133.300634 93.6385887,134.440914 94.6603292,134.440914 L108.432584,134.440914 L109.329757,134.440914 L123.101292,134.440914 C124.123033,134.440914 124.730749,133.300634 124.162635,132.45083 L121.21046,128.042515 Z" id="Fill-63" fill="#1B0C41"></path>
                            <g id="Group-67" transform="translate(55.443281, 42.526254)">
                                <mask id="mask-11" fill="white">
                                    <use xlink:href="#path-10"></use>
                                </mask>
                                <g id="Clip-66"></g>
                                <path d="M101.275001,71.981884 L5.60005936,71.981884 C2.56291965,71.981884 0.101814024,69.5175236 0.101814024,66.4772568 L0.101814024,5.90617593 C0.101814024,2.86590914 2.56291965,0.401548749 5.60005936,0.401548749 L101.275001,0.401548749 C104.31214,0.401548749 106.773966,2.86590914 106.773966,5.90617593 L106.773966,66.4772568 C106.773966,69.5175236 104.31214,71.981884 101.275001,71.981884" id="Fill-65" fill="#1B0C41" mask="url(#mask-11)"></path>
                            </g>
                        </g>
                        <polygon id="Fill-69" fill="url(#linearGradient-12)" points="61 110 155 110 155 48 61 48"></polygon>
                        <g id="Group-79" stroke-width="1" fill="none" transform="translate(83.000000, 55.000000)">
                            <polygon id="Fill-71" fill="#1B0C41" points="0.685818182 32.868 47.9287273 32.868 47.9287273 0.200106383 0.685818182 0.200106383"></polygon>
                            <polygon id="Fill-73" fill="#01D9CF" points="2.77890909 29.9155532 45.8356364 29.9155532 45.8356364 7.1862766 2.77890909 7.1862766"></polygon>
                            <path d="M43.3920727,23.3552234 C41.2851636,23.8684787 39.0160727,24.8914787 36.7993455,24.8247766 C34.3840727,24.7510532 32.2968,24.2806277 30.0277091,23.4465 C26.6808,22.2156702 24.7826182,21.7831596 21.3855273,23.5637553 C17.6153455,25.5409468 14.2204364,26.9922447 9.97461818,25.6441596 C7.41170909,24.8310957 5.74625455,23.2155 2.84225455,23.1410745 C2.82116364,23.1403723 2.8008,23.1410745 2.77898182,23.1403723 L2.77898182,29.9159043 L45.8357091,29.9159043 L45.8357091,23.4647553 C45.0524364,23.2288404 44.2422545,23.1487979 43.3920727,23.3552234" id="Fill-74" fill="#01D9CF"></path>
                            <path d="M4.8104,15.6290809 C5.16894545,16.355783 4.79367273,17.3191021 5.0104,18.0872298 C5.57330909,20.0798681 8.04749091,18.121634 9.30058182,18.3350809 C10.8191273,18.5962723 11.1536727,20.6169957 12.1442182,21.4988681 C13.5194909,22.7226766 14.7536727,20.8838043 15.8227636,20.2062511 C16.6438545,19.6852723 17.3980364,19.8551872 18.3056727,19.6326128 C19.3602182,19.3749319 20.2453091,18.5653787 20.9769455,17.8225277 C22.1514909,16.6324213 22.8962182,15.6669957 24.7493091,15.7014 C25.6380364,15.7175489 26.5274909,15.9331021 27.4082182,16.0194638 C28.2751273,16.1051234 29.3944,15.9464426 30.1456727,16.4646128 C30.9754909,17.0375489 30.8402182,17.9074851 31.0133091,18.7654851 C31.4758545,21.053017 33.5696727,20.1571021 35.1093091,19.6635064 C37.2038545,18.9929745 37.9827636,21.6371872 39.8874909,21.454634 C41.0867636,21.3394851 41.0707636,20.4189957 41.4765818,19.6024213 C41.8002182,18.9508468 42.6380364,18.3098043 43.3791273,18.8455277 C43.9369455,19.2478468 43.8474909,19.9064426 44.7202182,19.9275064 C44.8227636,19.9303149 44.9202182,19.9204851 45.0133091,19.9015277 C45.3747636,19.8271021 45.6598545,19.5961021 45.8358545,19.2998043 L45.8358545,17.0768681 L45.8358545,17.0740596 C45.8067636,16.1318043 45.8358545,15.1832298 45.8358545,14.2395702 L45.8358545,7.18669787 L2.77912727,7.18669787 L2.77912727,15.0877404 C2.77912727,14.8679745 4.54567273,15.0919532 4.8104,15.6290809" id="Fill-75" fill="#DBDBDB"></path>
                            <path d="M32.1299636,26.276917 C32.0870545,26.3401085 32.0594182,26.392066 32.0594182,26.4215553 C32.0594182,26.4735128 32.0848727,26.4159383 32.1299636,26.276917" id="Fill-76" fill="#DBDBDB"></path>
                            <path d="M13.5092364,12.0066638 C16.5303273,14.5687277 18.8517818,23.4569617 23.1223273,21.792217 C25.5376,20.851366 33.9739636,11.9989404 36.5936,11.7538979 C38.7717818,11.5502809 40.0750545,12.3914298 41.9557818,13.6882596 C43.6176,14.8327277 45.8357818,16.9440255 45.8357818,16.9440255 L45.8357818,5.37717447 L2.77905455,5.37717447 L2.77905455,13.9592809 C7.19214545,10.7245787 9.09178182,8.25870638 13.5092364,12.0066638" id="Fill-77" fill="#FFFFFF"></path>
                            <path d="M26.5724364,13.954717 C26.5724364,15.4018021 25.3571636,16.5743553 23.8589818,16.5743553 C22.3600727,16.5743553 21.1448,15.4018021 21.1448,13.954717 C21.1448,12.5069298 22.3600727,11.3350787 23.8589818,11.3350787 C25.3571636,11.3350787 26.5724364,12.5069298 26.5724364,13.954717" id="Fill-78" fill="#FFFFFF"></path>
                        </g>
                        <g id="Group-82" stroke-width="1" fill="none" transform="translate(95.000000, 62.000000)">
                            <mask id="mask-14" fill="white">
                                <use xlink:href="#path-13"></use>
                            </mask>
                            <g id="Clip-81"></g>
                            <path d="M3.77733333,2.0576 C3.44666667,1.656 2.86666667,0.9376 2.326,1.1664 L2.326,1.1664 C1.92666667,1.336 1.786,1.8912 2.006,2.2592 L2.006,2.2592 C1.65066667,1.9392 1.02933333,1.6792 0.696666667,2.0224 L0.696666667,2.0224 C0.220666667,2.5144 0.510666667,3.1592 1.00066667,3.2208 L1.00066667,3.2208 C2.596,3.2208 4.21733333,3.3224 5.81066667,3.2208 L5.81066667,3.2208 C6.406,3.1824 7.744,2.9064 7.45733333,1.7776 L7.45733333,1.7776 C7.196,0.748 5.93666667,1.3272 5.698,2.076 L5.698,2.076 C5.658,0.9848 5.03133333,0.4976 4.478,0.4976 L4.478,0.4976 C3.88,0.4976 3.368,1.0672 3.77733333,2.0576" id="Fill-80" fill="url(#linearGradient-15)" mask="url(#mask-14)"></path>
                        </g>
                        <g id="Group-85" stroke-width="1" fill="none" transform="translate(117.000000, 63.000000)">
                            <mask id="mask-17" fill="white">
                                <use xlink:href="#path-16"></use>
                            </mask>
                            <g id="Clip-84"></g>
                            <path d="M3.3796,1.2675 C3.0884,1.058 2.5788,0.682 2.1042,0.8015 L2.1042,0.8015 C1.7535,0.8905 1.6289,1.1805 1.8214,1.3735 L1.8214,1.3735 C1.5099,1.206 0.9646,1.0705 0.672,1.2495 L0.672,1.2495 C0.2534,1.507 0.5089,1.8445 0.9387,1.877 L0.9387,1.877 C2.3415,1.877 3.7667,1.9295 5.166,1.877 L5.166,1.877 C5.6896,1.857 6.8663,1.7125 6.615,1.1215 L6.615,1.1215 C6.3847,0.583 5.2773,0.8855 5.068,1.277 L5.068,1.277 C5.0323,0.7065 4.4814,0.452 3.9956,0.452 L3.9956,0.452 C3.4699,0.452 3.0198,0.7495 3.3796,1.2675" id="Fill-83" fill="url(#linearGradient-18)" mask="url(#mask-17)"></path>
                        </g>
                        <g id="Group-88" stroke-width="1" fill="none" transform="translate(112.000000, 65.000000)">
                            <mask id="mask-20" fill="white">
                                <use xlink:href="#path-19"></use>
                            </mask>
                            <g id="Clip-87"></g>
                            <path d="M2.238125,0.914666667 C2.0325,0.693333333 1.673125,0.297333333 1.338125,0.423333333 L1.338125,0.423333333 C1.090625,0.516666667 1.0025,0.823333333 1.13875,1.02533333 L1.13875,1.02533333 C0.918125,0.849333333 0.533125,0.706666667 0.326875,0.896 L0.326875,0.896 C0.031875,1.16666667 0.211875,1.522 0.51625,1.556 L0.51625,1.556 C1.505,1.556 2.510625,1.612 3.498125,1.556 L3.498125,1.556 C3.868125,1.53533333 4.6975,1.38333333 4.520625,0.761333333 L4.520625,0.761333333 C4.358125,0.193333333 3.576875,0.512 3.429375,0.925333333 L3.429375,0.925333333 C3.40375,0.323333333 3.015,0.0546666667 2.671875,0.0546666667 L2.671875,0.0546666667 C2.30125,0.0546666667 1.98375,0.368666667 2.238125,0.914666667" id="Fill-86" fill="url(#linearGradient-21)" mask="url(#mask-20)"></path>
                        </g>
                        <g id="Group-255" stroke-width="1" fill="none">
                            <path d="M85.9585302,57.1942146 C85.9585302,57.7362099 86.3968558,58.1757241 86.9382744,58.1757241 C87.4789721,58.1757241 87.9172977,57.7362099 87.9172977,57.1942146 C87.9172977,56.652941 87.4789721,56.2141486 86.9382744,56.2141486 C86.3968558,56.2141486 85.9585302,56.652941 85.9585302,57.1942146 Z" id="Fill-89" fill="#FFFFFF"></path>
                            <path d="M90.2288884,56.2141486 C89.6881907,56.2141486 89.2498651,56.652941 89.2498651,57.1942146 C89.2498651,57.7362099 89.6881907,58.1757241 90.2288884,58.1757241 C90.769586,58.1757241 91.2079116,57.7362099 91.2079116,57.1942146 C91.2079116,56.652941 90.769586,56.2141486 90.2288884,56.2141486" id="Fill-91" fill="#FFFFFF"></path>
                            <path d="M92.5405512,57.1942146 C92.5405512,57.7362099 92.9788767,58.1757241 93.5195744,58.1757241 C94.0602721,58.1757241 94.4985977,57.7362099 94.4985977,57.1942146 C94.4985977,56.652941 94.0602721,56.2141486 93.5195744,56.2141486 C92.9788767,56.2141486 92.5405512,56.652941 92.5405512,57.1942146 Z" id="Fill-93" fill="#FFFFFF"></path>
                            <path d="M127.36386,56.2141486 C126.823163,56.2141486 126.384837,56.652941 126.384837,57.1942146 C126.384837,57.7362099 126.823163,58.1757241 127.36386,58.1757241 C127.904558,58.1757241 128.342884,57.7362099 128.342884,57.1942146 C128.342884,56.652941 127.904558,56.2141486 127.36386,56.2141486" id="Fill-95" fill="#FFFFFF"></path>
                            <path d="M92.1044605,53.1821505 C91.9141349,53.102042 91.2335767,53.3596882 90.8320186,53.6209429 C90.6027628,53.7696127 90.1017163,53.9269429 89.711693,54.0351976 C89.7563907,54.2531505 89.783786,54.4747118 89.7938791,54.6969948 C89.7931581,54.686891 90.4182047,54.5872967 90.4838093,54.5670892 C90.6950419,54.4999712 90.858693,54.3354241 91.1016465,54.3996552 C91.2090651,54.4278014 91.334507,54.5107967 91.4311116,54.562759 C91.5587163,54.632042 91.8701581,54.9423722 92.0244372,54.8824712 C92.2565767,54.792259 91.8788093,54.5259524 91.8362744,54.4516175 C91.7735535,54.3404759 91.7980651,54.1376788 91.9682047,54.1831458 C92.202507,54.2452118 92.6019023,54.5237873 92.853507,54.4075939 C93.1707163,54.2603675 92.1844837,53.9781835 92.0172279,53.8713722 C92.2839721,54.0084948 93.1620651,54.2762448 93.2334372,54.1225231 C93.3711349,53.8266269 92.440414,53.6714618 92.1830419,53.5437212 C92.4541116,53.6750703 92.7778093,53.7472401 92.9169488,53.699608 C93.2471349,53.5863014 92.2940651,53.2615373 92.1044605,53.1821505" id="Fill-97" fill="#F88667"></path>
                            <path d="M80.3281372,61.0228953 C80.9899512,61.566334 81.9639279,61.4963292 82.5997884,60.9233009 C83.6451372,59.9843717 85.5923698,58.2436358 86.2260674,57.7564896 C87.1056023,57.0780934 91.0570209,54.6005038 91.0570209,54.6005038 L90.4629744,53.4840368 C90.4629744,53.4840368 85.5397419,55.6635651 84.8433233,56.2120557 C84.1476256,56.7605462 80.1060907,59.1912255 79.9424395,60.1720132 C79.8847651,60.5162632 80.0592302,60.801334 80.3281372,61.0228953" id="Fill-99" fill="#FD425F"></path>
                            <path d="M80.3281372,61.0228953 C80.9899512,61.566334 81.9639279,61.4963292 82.5997884,60.9233009 C83.6451372,59.9843717 85.5923698,58.2436358 86.2260674,57.7564896 C87.1056023,57.0780934 91.0570209,54.6005038 91.0570209,54.6005038 L90.4629744,53.4840368 C90.4629744,53.4840368 85.5397419,55.6635651 84.8433233,56.2120557 C84.1476256,56.7605462 80.1060907,59.1912255 79.9424395,60.1720132 C79.8847651,60.5162632 80.0592302,60.801334 80.3281372,61.0228953" id="Fill-101" fill="#CA0045"></path>
                            <polygon id="Fill-103" fill="#110239" points="77.3246698 73.2804325 77.6036698 72.4432627 90.0973907 72.4432627 89.8306465 73.2804325"></polygon>
                            <polygon id="Fill-105" fill="#110239" points="75.839193 77.7389392 76.1210767 76.893109 88.6811233 76.893109 88.4122163 77.7389392"></polygon>
                            <polygon id="Fill-107" fill="#110239" points="79.2037744 68.8212764 79.4827744 67.9848283 91.9764953 67.9848283 91.7104721 68.8212764"></polygon>
                            <polygon id="Fill-109" fill="#110239" points="74.3382163 82.2452943 74.6237047 81.3900821 87.2507977 81.3900821 86.979007 82.2452943"></polygon>
                            <polygon id="Fill-111" fill="#110239" points="72.8210186 86.800292 73.1086698 85.9364193 85.8049721 85.9364193 85.5302977 86.800292"></polygon>
                            <polygon id="Fill-113" fill="#110239" points="71.2876 91.4046538 71.5781349 90.5313991 84.3429256 90.5313991 84.0653674 91.4046538"></polygon>
                            <polygon id="Fill-115" fill="#110239" points="69.7373116 96.0590292 70.0314512 95.1756708 82.8654512 95.1756708 82.5842884 96.0590292"></polygon>
                            <polygon id="Fill-117" fill="#110239" points="68.3919116 100.704239 68.6860512 99.8208807 81.5200512 99.8208807 81.2388884 100.704239"></polygon>
                            <polygon id="Fill-119" fill="#110239" points="67.0461512 105.349521 67.3402907 104.466163 80.1742907 104.466163 79.8938488 105.349521"></polygon>
                            <polygon id="Fill-121" fill="#110239" points="65.7007512 109.994731 65.9948907 109.111373 78.8281698 109.111373 78.5477279 109.994731"></polygon>
                            <path d="M63.4263605,117.077116 L63.3672442,117.077116 C62.9728953,117.077116 62.6938953,116.690285 62.8193372,116.315002 L79.4295698,66.8137288 C79.5088721,66.5770118 79.7294767,66.4182382 79.9781977,66.4182382 L80.7863605,66.4182382 L63.9749884,116.680903 C63.896407,116.91762 63.6750814,117.077116 63.4263605,117.077116" id="Fill-123" fill="#110239"></path>
                            <path d="M76.1348465,117.077116 L76.0706837,117.077116 C75.6792186,117.077116 75.4009395,116.696059 75.519893,116.322219 L91.6161023,66.8202241 C91.6925209,66.5806203 91.9152884,66.4182382 92.1661721,66.4182382 L92.1784279,66.4182382 C92.569893,66.4182382 92.8481721,66.7985731 92.7299395,67.171691 L76.6856372,116.673686 C76.6092186,116.914012 76.3871721,117.077116 76.1348465,117.077116" id="Fill-125" fill="#110239"></path>
                            <polygon id="Fill-127" fill="#110239" points="69.6099233 96.0357906 69.8961326 95.1748047 82.7517605 95.1748047 82.4785279 96.0357906"></polygon>
                            <polygon id="Fill-129" fill="#110239" points="68.0817674 100.623192 68.3715814 99.7528245 81.2956977 99.7528245 81.0188605 100.623192"></polygon>
                            <polygon id="Fill-131" fill="#110239" points="71.5431698 91.4483887 71.8301 90.5874028 84.6857279 90.5874028 84.4124953 91.4483887"></polygon>
                            <polygon id="Fill-133" fill="#110239" points="66.5374628 105.259958 66.8301605 104.380208 79.824207 104.380208 79.5437651 105.259958"></polygon>
                            <polygon id="Fill-135" fill="#110239" points="64.9762884 109.947532 65.2725907 109.0584 78.3358465 109.0584 78.0525209 109.947532"></polygon>
                            <polygon id="Fill-137" fill="#110239" points="63.3982442 114.685047 63.6981512 113.785811 76.8320581 113.785811 76.5458488 114.685047"></polygon>
                            <polygon id="Fill-139" fill="#110239" points="61.8032581 119.474092 62.1060488 118.565474 75.3113279 118.565474 75.0222349 119.474092"></polygon>
                            <polygon id="Fill-141" fill="#110239" points="60.4187116 124.253898 60.7215023 123.344558 73.9267814 123.344558 73.6376884 124.253898"></polygon>
                            <polygon id="Fill-143" fill="#110239" points="59.0342372 129.033055 59.3370279 128.124437 72.542307 128.124437 72.253214 129.033055"></polygon>
                            <path d="M57.4192093,134.809455 L57.3586512,134.809455 C56.9527674,134.809455 56.6658372,134.410356 56.7941628,134.024969 L71.7765349,89.382167 C71.8572791,89.1389547 72.0843721,88.9744075 72.3410233,88.9744075 L73.1722558,88.9744075 L57.9836977,134.401695 C57.9029535,134.644908 57.6751395,134.809455 57.4192093,134.809455" id="Fill-145" fill="#110239"></path>
                            <path d="M70.495586,134.809455 L70.4299814,134.809455 C70.0269814,134.809455 69.7407721,134.416851 69.8633302,134.032908 L84.3150977,89.3886623 C84.3936791,89.1425632 84.6229349,88.9744075 84.8817488,88.9744075 L84.8947256,88.9744075 C85.2962837,88.9744075 85.583214,89.3662896 85.4613767,89.750233 L71.0622372,134.394478 C70.9843767,134.642021 70.7544,134.809455 70.495586,134.809455" id="Fill-147" fill="#110239"></path>
                            <path d="M81.0405605,56.1838373 C81.065793,56.2112618 81.0888628,56.2401297 81.1155372,56.2668325 C81.3606535,56.5136533 81.6187465,56.7655259 81.9085605,56.9582193 C82.0851884,57.0751344 82.3598628,57.1523561 82.5112581,57.2757665 C82.5725372,57.324842 82.6359791,57.3695873 82.7015837,57.4092807 C82.6136302,57.9050873 82.3944674,59.2070307 82.4290721,59.7158278 C82.4290721,59.7158278 80.8466302,59.6032429 80.270607,58.9638184 C80.270607,58.9638184 80.9259326,57.1992665 81.0405605,56.1838373" id="Fill-149" fill="#F88667"></path>
                            <path d="M81.8889512,58.8316755 C81.7793698,58.3806142 81.5263233,57.9396566 81.1687419,57.6379868 C81.0454628,57.5333406 80.9207419,57.4402415 80.7895326,57.3558028 C80.9041605,56.9444349 81.0029279,56.5222415 81.0404163,56.1837651 C81.0656488,56.2111896 81.0894395,56.2400575 81.116114,56.2667604 C81.3612302,56.5135811 81.6186023,56.7654538 81.9084163,56.9581472 C82.0850442,57.0750623 82.3597186,57.152284 82.511114,57.2756943 C82.572393,57.3247698 82.6358349,57.3695151 82.7014395,57.4092085 C82.613486,57.9050151 82.3943233,59.2076802 82.4289279,59.7157557 C82.4289279,59.7157557 82.1571372,59.6955481 81.7995558,59.6284302 C81.9149047,59.3866613 81.9567186,59.1080858 81.8889512,58.8316755" id="Fill-151" fill="#E45940"></path>
                            <path d="M81.9164186,84.4442363 C81.9164186,84.4442363 81.9603953,86.0233118 82.2062326,86.2390995 C82.4535116,86.4548873 85.5917209,86.548708 85.8613488,86.2614722 C86.1316977,85.9727929 85.973093,85.4878118 85.2990233,85.300892 C84.5766512,85.0995382 84.2233953,85.2965618 83.7706512,85.1081986 C83.317907,84.9191137 83.4375814,84.2053542 83.4375814,84.2053542 L81.9164186,84.4442363 Z" id="Fill-153" fill="#110239"></path>
                            <path d="M74.1346977,84.3906863 C74.1346977,84.3906863 73.893186,85.928625 74.131093,86.1537948 C74.3697209,86.3789646 77.5656047,86.6308373 77.8460465,86.3529835 C78.1272093,86.0751297 77.9880698,85.584375 77.3219302,85.3714741 C76.6082093,85.1434175 76.2621628,85.2877571 75.8022093,85.1203231 C75.4403023,84.9882524 75.6832558,84.2557288 75.6832558,84.2557288 L74.1346977,84.3906863 Z" id="Fill-155" fill="#110239"></path>
                            <path d="M76.454507,75.5385538 C76.3845767,71.1693934 76.8834605,68.1656858 77.1091116,66.7590962 C77.631786,66.7778604 78.1544605,66.8247708 78.675693,67.0622094 C79.6338093,67.4988368 80.5969721,67.9167 81.559414,68.3367283 C80.7779256,69.9554972 79.0678791,75.2376057 78.861693,76.3432472 C78.6050419,77.7180821 75.7342977,84.732266 75.7342977,84.732266 L73.9968558,84.5143132 C74.0249721,83.3834123 76.4609953,75.9174453 76.454507,75.5385538" id="Fill-157" fill="#0400A3"></path>
                            <path d="M80.0183535,67.6865505 C80.5230047,67.9326495 81.0456791,68.1267863 81.5683535,68.3173146 C80.8020047,69.9043288 79.4034,74.2965835 79.0876326,75.4635693 C78.8439581,74.728159 77.6652372,72.9477297 77.213214,70.9991448 C76.9104233,69.695758 76.8585163,68.3469042 77.0668651,67.0261967 C77.067586,67.0204231 77.068307,67.0153712 77.0697488,67.0103193 C78.0444465,67.0767156 78.9874233,67.1835269 80.0183535,67.6865505" id="Fill-159" fill="#04006C"></path>
                            <path d="M78.7201023,67.4476684 C79.3970558,67.675725 80.6284047,68.0040976 81.5591256,68.3368005 C82.2072419,69.9757769 84.1213116,73.8440788 84.2208,75.593475 C84.3303814,77.5232958 83.6628,84.835541 83.6628,84.835541 L81.6751953,84.835541 C81.6751953,84.835541 81.4906372,76.5937486 81.2123581,76.0640222 C80.294614,74.3182344 79.2795442,72.9340175 78.7035209,71.8478618 C77.7360326,70.0248524 77.4072884,68.854258 77.2371488,68.0012108 C77.1621721,67.6237627 76.832707,66.3615127 77.4721721,65.9660222 C77.999893,66.1161354 78.1534512,67.2556967 78.7201023,67.4476684" id="Fill-161" fill="#0400A3"></path>
                            <path d="M82.2838767,68.7338788 C82.2838767,68.7338788 80.6142023,69.4093882 78.9690395,69.2513363 C77.7521093,69.1336995 77.1220163,69.1142137 76.4097372,68.7302703 C76.4097372,68.7302703 77.1703186,62.7892514 78.0491326,60.9157231 C78.9279465,59.0429165 80.369807,58.6842325 80.369807,58.6842325 C80.369807,58.6842325 81.506714,59.345308 82.4352721,59.3308741 C82.4352721,59.3308741 82.4129233,62.9805014 82.3415512,64.4383316 C82.2709,65.8961618 82.2838767,68.7338788 82.2838767,68.7338788" id="Fill-163" fill="#FD425F"></path>
                            <path d="M82.3627465,63.9054297 C82.367793,63.744491 82.3728395,63.5756137 82.377886,63.3951892 C82.377886,63.3742599 82.377886,63.3511656 82.378607,63.3295146 C82.3829326,63.1584722 82.3872581,62.9802127 82.3908628,62.7983448 C82.3915837,62.7680335 82.3923047,62.7384439 82.3930256,62.7081325 C82.3966302,62.5053354 82.4009558,62.2989297 82.4045605,62.0939675 L82.4045605,62.0845854 C82.3281419,62.0845854 82.2531651,62.0838637 82.1796302,62.068708 C81.5985605,61.9561231 81.0939093,61.631359 80.5914209,61.3340193 C80.5070721,61.2842222 80.4176767,61.2430854 80.3290023,61.1997835 C80.2280721,61.9799392 80.5784442,62.9325807 80.7298395,63.553241 C81.1487,65.2694392 81.375793,67.4410288 81.0160488,69.099491 C81.757886,68.9414392 82.2841651,68.7335901 82.2841651,68.7335901 C82.2841651,68.7335901 82.2711884,65.8965948 82.3418395,64.4380429 C82.347607,64.3095807 82.3533744,64.1594675 82.3591419,63.9992505 C82.3605837,63.9682175 82.3613047,63.9371844 82.3627465,63.9054297" id="Fill-165" fill="#CA0045"></path>
                            <path d="M89.5868279,68.766283 C89.679107,68.7583443 89.7872465,68.7366934 89.8196884,68.7482406 C89.9710837,68.7980377 90.2248512,68.7244245 90.3308279,68.6847311 C90.5723395,68.5937972 90.9414558,68.4328585 91.1894558,68.4768821 C91.3336419,68.5028632 92.1987581,68.704217 91.9860837,69.0592925 C91.9579674,69.1076462 91.8519907,69.1812594 91.8217116,69.170434 C91.7330372,69.1372358 91.4843163,69.0463019 91.4843163,69.0463019 C91.4843163,69.0463019 91.6746419,69.1155849 91.7135721,69.1437311 C91.7474558,69.1682689 91.8116186,69.1971368 91.8332465,69.2317783 C91.8815488,69.3046698 91.8087349,69.4634434 91.7337581,69.4894245 C91.6595023,69.514684 91.6018279,69.4403491 91.539107,69.4057075 C91.5405488,69.4064292 91.5427116,69.4078726 91.5434326,69.4085943 C91.6039907,69.4562264 91.7337581,69.4894245 91.653014,69.6720142 C91.5628977,69.875533 91.5008977,69.7470708 91.414386,69.7254198 C91.384107,69.7174811 91.352386,69.7030472 91.3206651,69.6886132 C91.353107,69.7073774 91.4749442,69.7651132 91.4994558,69.7867642 C91.5809209,69.8596557 91.4021302,70.0999811 91.2413628,70.0790519 C91.1425953,70.066783 90.9097349,69.9246085 90.8542233,69.9404858 C90.7929442,69.9570849 90.7179674,69.9570849 90.6545256,69.9628585 C90.4577116,69.9816226 90.2515256,69.928217 90.0705721,69.8466651 C89.9898279,69.8091368 89.8283395,69.7456274 89.7483163,69.7030472 C89.5471767,69.5955142 89.3265721,69.4244717 89.2674558,69.3753962 C89.400107,69.1206368 89.6142233,69.055684 89.5868279,68.766283" id="Fill-167" fill="#F88667"></path>
                            <path d="M89.2862,69.8538099 L89.9847814,68.4695929 C89.9847814,68.4695929 86.5214326,66.2503712 85.2554791,64.9715222 C83.9895256,63.6933948 82.6212,61.0916731 81.6558744,60.9285693 C80.6905488,60.7647439 79.7187349,61.2973571 80.2781767,62.6426024 C80.8368977,63.9871259 83.6687116,65.770442 84.2454558,66.3622344 C84.8222,66.9540269 88.7202698,69.535541 89.2862,69.8538099" id="Fill-169" fill="#FD425F"></path>
                            <path d="M80.5653953,53.4838203 C80.5653953,53.4838203 83.121093,53.1908108 83.2977209,53.6202212 C83.4750698,54.051075 83.5132791,55.2620844 83.6783721,55.5175656 C83.844907,55.7737684 84.144093,56.0797684 84.0323488,56.2443156 C83.9198837,56.4095844 83.7966047,56.3691693 83.7266744,56.5546458 C83.6553023,56.7401222 83.6826977,57.7865844 83.3445814,57.9431929 C83.007907,58.0990797 81.2863256,58.0074241 80.6627209,57.0251929 C80.0398372,56.0436835 79.3311628,53.5740325 80.5653953,53.4838203" id="Fill-171" fill="#F88667"></path>
                            <path d="M79.9247047,53.7241458 L81.6196116,54.5093533 C81.6196116,54.5093533 81.5655419,55.4966363 82.0536116,56.3626741 C82.0536116,56.3626741 81.9007744,56.5957825 81.7414488,56.4644335 C81.5814023,56.331641 81.4783093,56.2609146 81.4415419,56.0140939 C81.4040535,55.7679948 81.2562628,55.1069193 80.8114488,55.4324052 C80.3673558,55.7586127 80.8374023,56.1461646 81.0630535,56.2421505 C81.0630535,56.2421505 81.4220767,57.5296599 80.7393558,57.4380042 C80.7393558,57.4380042 80.1092628,57.0389052 79.5664023,55.4915844 C79.0235419,53.9449854 79.5022395,53.4340231 79.9247047,53.7241458" id="Fill-173" fill="#161415"></path>
                            <path d="M84.0376837,53.1610047 C84.0376837,53.1610047 84.643986,54.0335377 83.2360093,54.6173915 C81.8280326,55.2005236 79.8022186,53.6633066 79.8022186,53.6633066 C79.8022186,53.6633066 79.8534047,52.8983066 80.9773349,52.5713774 C81.8164977,52.326 82.6037535,52.3606415 83.0312651,52.847066 C83.7594047,53.6741321 84.0376837,53.1610047 84.0376837,53.1610047" id="Fill-175" fill="#161415"></path>
                            <polygon id="Fill-177" fill="#1B0C41" points="142.984256 109.127106 144.519837 95.939516 100.290767 90.8414406 98.1690698 109.127106"></polygon>
                            <polygon id="Fill-179" fill="#FFFFFF" points="140.998886 109.127106 141.780374 102.495422 101.470281 97.8491292 100.154584 109.127106"></polygon>
                            <path d="M102.21976,93.8024958 C102.160644,94.313458 102.527598,94.7753448 103.038016,94.8345241 C103.549156,94.8937033 104.011272,94.5270807 104.069667,94.0153967 C104.128784,93.5044344 103.76183,93.0418259 103.251412,92.9826467 C102.740272,92.9241892 102.278156,93.2908118 102.21976,93.8024958 Z" id="Fill-181" fill="#FFFFFF"></path>
                            <path d="M105.327402,94.1605302 C105.269007,94.6722142 105.63524,95.1341009 106.146379,95.1925585 C106.656798,95.2517377 107.118914,94.8851151 107.17803,94.3741528 C107.236426,93.8624689 106.870193,93.3998604 106.359053,93.3414028 C105.848635,93.2822236 105.386519,93.6495679 105.327402,94.1605302 Z" id="Fill-183" fill="#FFFFFF"></path>
                            <path d="M109.467344,93.6994373 C108.956205,93.640258 108.494088,94.0076024 108.435693,94.5185646 C108.376577,95.0302486 108.74353,95.4921354 109.253949,95.5513146 C109.765088,95.6097722 110.227205,95.2438712 110.286321,94.7321873 C110.344716,94.2205033 109.977763,93.7578948 109.467344,93.6994373" id="Fill-185" fill="#FFFFFF"></path>
                            <path d="M138.388326,94.7432292 C138.571442,94.8363283 138.812953,95.5241066 138.87207,95.9997057 C138.905953,96.2710642 139.108535,96.756767 139.277233,97.124833 C139.08114,97.2309226 138.894419,97.3528896 138.718512,97.4885689 C138.727163,97.4820736 138.39986,96.9393566 138.373186,96.8758472 C138.288116,96.6708849 138.309023,96.4392198 138.103558,96.2941585 C138.012721,96.2313708 137.868535,96.1887906 137.766163,96.1476538 C137.631349,96.0942481 137.193023,96.0559981 137.139674,95.9001113 C137.05893,95.664116 137.505907,95.7817528 137.590977,95.7658755 C137.715698,95.7427811 137.854837,95.5933896 137.711372,95.4916302 C137.513116,95.3530642 137.042349,95.2260453 136.968814,94.9582953 C136.876535,94.6212623 137.727953,95.1942906 137.918279,95.2541915 C137.641442,95.1379981 136.870767,94.6378613 136.94214,94.4841396 C137.080558,94.1875217 137.798605,94.8009651 138.061023,94.9149934 C137.786349,94.7923047 137.522488,94.5916726 137.46914,94.45455 C137.343698,94.1276208 138.204488,94.6494085 138.388326,94.7432292" id="Fill-187" fill="#F88667"></path>
                            <path d="M147.92306,106.458122 C148.376526,105.660645 148.126363,104.644494 147.406874,104.075796 C146.226712,103.142641 144.039409,101.401183 143.410758,100.820216 C142.536991,100.012636 139.208456,96.2886736 139.208456,96.2886736 L138.139316,97.1186264 C138.139316,97.1186264 141.329433,101.925136 142.033781,102.560952 C142.73813,103.196046 146.032781,107.024655 147.096874,107.019608 C147.469595,107.018159 147.739223,106.782164 147.92306,106.458122" id="Fill-189" fill="#B3B2DA"></path>
                            <path d="M147.92306,106.458122 C148.376526,105.660645 148.126363,104.644494 147.406874,104.075796 C146.226712,103.142641 144.039409,101.401183 143.410758,100.820216 C142.536991,100.012636 139.208456,96.2886736 139.208456,96.2886736 L138.139316,97.1186264 C138.139316,97.1186264 141.329433,101.925136 142.033781,102.560952 C142.73813,103.196046 146.032781,107.024655 147.096874,107.019608 C147.469595,107.018159 147.739223,106.782164 147.92306,106.458122" id="Fill-191" fill="#696C95"></path>
                            <path d="M147.081014,101.830521 C147.05434,101.860111 147.030549,101.891866 147.002433,101.921455 C146.74434,102.189927 146.47327,102.464172 146.166153,102.676351 C145.979433,102.805535 145.686735,102.892139 145.527409,103.027097 C145.463247,103.080502 145.395479,103.1303 145.32627,103.174323 C145.430084,103.702606 145.689619,105.093318 145.662223,105.637479 C145.662223,105.637479 147.354247,105.487366 147.959107,104.791649 C147.959107,104.791649 147.223037,102.915233 147.081014,101.830521" id="Fill-193" fill="#F88667"></path>
                            <path d="M146.22354,104.680651 C146.3324,104.19567 146.594819,103.71935 146.971865,103.389533 C147.102353,103.275505 147.233563,103.173024 147.372702,103.080647 C147.242214,102.641854 147.128307,102.192236 147.080726,101.830666 C147.054051,101.860255 147.03026,101.89201 147.002144,101.9216 C146.744772,102.190071 146.473702,102.464317 146.166586,102.676496 C145.979144,102.804958 145.687167,102.891562 145.527121,103.027241 C145.462958,103.080647 145.395912,103.130444 145.326702,103.174467 C145.429795,103.70275 145.690051,105.092741 145.662656,105.637623 C145.662656,105.637623 145.95247,105.61092 146.333842,105.532255 C146.206237,105.275331 146.156493,104.977991 146.22354,104.680651" id="Fill-195" fill="#E45940"></path>
                            <path d="M143.732653,132.925534 C143.732653,132.925534 143.754281,134.617194 143.499793,134.858963 C143.244584,135.10001 139.892258,135.336006 139.590909,135.039388 C139.28956,134.74277 139.438072,134.216652 140.150351,133.987874 C140.914537,133.741775 141.301677,133.936633 141.777491,133.715793 C142.253305,133.494232 142.0947,132.735727 142.0947,132.735727 L143.732653,132.925534 Z" id="Fill-197" fill="#161415"></path>
                            <path d="M151.938858,132.438532 C151.938858,132.438532 152.357719,134.051527 152.127742,134.317112 C151.897044,134.581975 148.518044,135.186037 148.190021,134.91973 C147.861277,134.652702 147.958602,134.115037 148.64637,133.818419 C149.38244,133.500872 149.786881,133.656758 150.239626,133.391174 C150.691649,133.124867 150.46023,132.385126 150.46023,132.385126 L151.938858,132.438532 Z" id="Fill-199" fill="#161415"></path>
                            <path d="M151.978293,122.671647 C152.31713,118.005869 151.965316,114.764723 151.809595,113.24627 C151.250153,113.236166 150.687828,113.253487 150.11613,113.47577 C149.065735,113.884251 148.010293,114.273246 146.956293,114.663685 C147.694526,116.441227 149.202712,122.191718 149.35627,123.386128 C149.547316,124.871383 150.329526,132.995539 150.329526,132.995539 L152.236386,132.989043 C152.274595,131.778756 151.948735,123.077242 151.978293,122.671647" id="Fill-201" fill="#0400A3"></path>
                            <path d="M148.64327,114.061356 C148.088874,114.293742 147.518619,114.469837 146.947642,114.643044 C147.671456,116.385945 149.16306,122.091691 149.34906,123.346002 C149.654735,122.573785 150.839944,119.828445 151.441921,117.773049 C151.843479,116.398214 151.981177,114.95987 151.838433,113.535238 C151.837712,113.529464 151.837712,113.523691 151.836991,113.517917 C150.790921,113.530908 149.775851,113.586478 148.64327,114.061356" id="Fill-203" fill="#04006C"></path>
                            <path d="M150.045695,113.885117 C149.308184,114.088636 147.971579,114.364325 146.956509,114.663829 C146.164928,116.376419 144.015835,121.319329 143.580393,123.143782 C142.978416,125.668282 141.846556,133.176108 141.846556,133.176108 L143.983393,133.542008 C143.983393,133.542008 146.53044,123.493806 146.860626,122.945315 C147.947788,121.133853 149.115695,119.716438 149.797695,118.589867 C151.446463,115.866178 151.595695,114.509386 151.842253,113.537258 C151.268393,113.664999 150.662812,113.714796 150.045695,113.885117" id="Fill-205" fill="#0400A3"></path>
                            <path d="M145.989814,115.289758 C145.989814,115.289758 147.713558,115.554621 149.470465,115.353989 C150.771744,115.205319 151.959837,114.736937 152.239558,114.249791 C152.239558,114.249791 151.34993,108.827673 150.373791,106.839395 C149.398372,104.850395 147.84693,104.494598 147.84693,104.494598 C147.84693,104.494598 146.642256,105.224234 145.648093,105.2264 C145.648093,105.2264 145.741814,109.133673 145.845628,110.692541 C145.948721,112.251409 145.989814,115.289758 145.989814,115.289758" id="Fill-207" fill="#B3B2DA"></path>
                            <path d="M147.55416,109.713485 C147.704835,109.045915 148.061695,108.01966 147.938416,107.186099 C147.844695,107.234452 147.749533,107.280641 147.660137,107.33549 C147.12737,107.662419 146.593881,108.020382 145.974602,108.152452 C145.896021,108.169051 145.815277,108.171938 145.734533,108.173382 C145.766974,109.123136 145.805184,110.085882 145.845556,110.692108 C145.948649,112.251698 145.989742,115.290047 145.989742,115.290047 C145.989742,115.290047 146.472765,115.36366 147.185765,115.404075 C146.768347,113.635193 147.138184,111.560311 147.55416,109.713485" id="Fill-209" fill="#696C95"></path>
                            <path d="M147.73223,100.0996 C147.73223,100.0996 146.963719,98.6107373 146.00416,98.7002278 C145.043881,98.7904401 144.43037,98.9665344 144.313579,99.3418175 C144.196788,99.7178222 144.011509,100.748407 143.777207,101.135237 C143.542184,101.521346 143.025277,102.034473 143.041858,102.205516 C143.05844,102.375836 143.610672,102.41986 143.643835,102.488421 C143.676277,102.556983 144.010788,103.795417 144.216253,103.919549 C144.420998,104.043681 146.247114,103.264968 146.516742,102.704931 C146.78637,102.146336 147.844695,101.073893 147.73223,100.0996" id="Fill-211" fill="#F88667"></path>
                            <path d="M145.768705,100.275767 C145.534402,100.479286 144.925937,100.729715 143.892844,100.293088 C142.860472,99.8571821 143.232472,97.5123849 145.372193,97.6206396 C147.511914,97.729616 147.437658,98.4931726 147.834891,98.6533896 C148.232123,98.8128849 148.545728,99.0293943 148.73317,99.4573613 C149.057588,100.199267 149.103728,101.088399 148.126147,102.003512 C147.13703,102.928008 146.459356,102.79305 146.459356,102.79305 C146.411774,102.528187 146.423309,102.078569 146.654007,101.938559 C146.744844,101.882989 146.859472,101.869998 147.002937,101.745144 C147.264635,101.518531 147.089449,100.972927 146.58696,101.058809 C146.350495,101.099225 146.24596,101.519253 146.109705,101.673696 C145.964077,101.838965 145.868914,101.805767 145.786728,101.776899 C145.629565,101.719163 145.50917,101.245008 145.836472,100.738375 C146.048426,100.410725 146.003007,100.071526 145.768705,100.275767" id="Fill-213" fill="#161415"></path>
                            <path d="M134.584914,108.586049 C134.480379,108.513157 134.383053,108.439544 134.259053,108.413563 C134.13217,108.387582 133.994472,108.311082 133.868309,108.251902 C133.750077,108.196332 133.613821,108.113336 133.468193,108.1321 C133.293728,108.153751 133.428542,108.332733 133.53524,108.439544 C133.651309,108.555016 134.158123,108.635124 134.174705,108.808332 C134.190565,108.981539 133.581379,108.844417 133.460263,108.814827 C133.174053,108.746266 133.10917,108.53553 132.909472,108.359435 C132.793402,108.256954 132.709053,108.245407 132.69103,108.424388 C132.678053,108.557902 132.79124,108.666157 132.876309,108.754204 C133.048612,108.934629 133.282914,109.102784 133.527309,109.176398 C133.329774,109.141034 133.038519,108.96927 132.879914,108.846582 C132.770333,108.761421 132.366612,108.317577 132.2181,108.477794 C131.919635,108.801115 133.089705,109.483119 133.336263,109.501162 C133.091147,109.45786 132.879193,109.331563 132.662914,109.210317 C132.536751,109.138869 132.244774,108.958445 132.259914,109.218978 C132.282263,109.6022 133.064472,109.710454 133.405472,109.821596 C133.160356,109.824483 132.975798,109.748704 132.721309,109.684473 C132.421402,109.608695 132.471147,109.855516 132.763844,109.986143 C132.887844,110.040992 133.150984,110.110275 133.209379,110.123987 C133.818565,110.266162 134.158844,110.195435 134.7291,110.002742 C134.933844,109.933459 135.381542,110.022228 135.475263,109.859846 C135.656216,109.54735 135.421193,109.085464 135.345495,108.788124 C135.070821,108.76503 134.807681,108.73977 134.584914,108.586049 Z" id="Fill-215" fill="#F88667"></path>
                            <path d="M134.832265,110.119441 L134.829381,108.577893 C134.829381,108.577893 139.394312,108.033011 141.326405,107.525658 C143.258498,107.019025 146.036242,105.304992 147.052033,105.693988 C148.067102,106.083705 148.696474,107.143158 147.403126,108.113842 C146.109056,109.083082 142.394102,109.187728 141.5088,109.427332 C140.622056,109.667658 135.553916,110.134596 134.832265,110.119441" id="Fill-217" fill="#B3B2DA"></path>
                            <path d="M131.453626,32.0051462 C131.453626,32.0051462 132.530695,35.8943774 133.060579,36.5309151 C133.590463,37.1667311 135.320695,38.1034953 135.320695,38.1034953 L134.862184,38.9168491 C134.862184,38.9168491 131.716765,37.3125142 131.171021,36.000467 C130.853091,35.2361887 130.641858,34.5758349 130.535881,33.9847642 C130.448649,33.5033915 130.09323,32.3060943 130.270579,31.8283302 C130.386649,31.5172783 131.206347,31.3512877 131.453626,32.0051462" id="Fill-219" fill="#01D9CF"></path>
                            <path d="M131.453626,32.0051462 C131.453626,32.0051462 132.530695,35.8943774 133.060579,36.5309151 C133.590463,37.1667311 135.320695,38.1034953 135.320695,38.1034953 L134.862184,38.9168491 C134.862184,38.9168491 131.716765,37.3125142 131.171021,36.000467 C130.853091,35.2361887 130.641858,34.5758349 130.535881,33.9847642 C130.448649,33.5033915 130.09323,32.3060943 130.270579,31.8283302 C130.386649,31.5172783 131.206347,31.3512877 131.453626,32.0051462" id="Fill-221" fill="#00A1CC"></path>
                            <path d="M142.245735,50.5680877 L143.0402,49.8254604 C143.0402,49.8254604 146.214456,49.5916302 146.399735,49.8702057 C146.585735,50.1495028 143.389851,51.6585736 142.979642,51.6311491 C142.568712,51.6044462 142.299805,50.8740877 142.245735,50.5680877" id="Fill-223" fill="#110239"></path>
                            <path d="M136.426891,39.8173118 C136.426891,39.8173118 139.428844,39.0523118 139.676123,39.5473967 C139.923402,40.0424816 143.039984,49.8250995 143.039984,49.8250995 L142.245519,50.5677269 C142.245519,50.5677269 138.904728,42.3107788 137.936519,41.4476278 C136.968309,40.5844769 135.979914,40.1579533 136.426891,39.8173118" id="Fill-225" fill="#F88667"></path>
                            <path d="M136.426891,39.8173118 C136.426891,39.8173118 139.428844,39.0523118 139.676123,39.5473967 C139.923402,40.0424816 143.039984,49.8250995 143.039984,49.8250995 L142.245519,50.5677269 C142.245519,50.5677269 138.904728,42.3107788 137.936519,41.4476278 C136.968309,40.5844769 135.979914,40.1579533 136.426891,39.8173118" id="Fill-227" fill="#E45940"></path>
                            <path d="M134.879414,38.0152316 C135.106507,37.954609 135.29467,37.8788307 135.503019,37.7648024 C135.670274,37.672425 135.831763,37.5850995 136.032902,37.6139675 C136.175647,37.6348967 137.329135,38.1155476 137.022019,38.3306137 C136.92253,38.3998967 136.673088,38.2779297 136.574321,38.2425665 C136.432298,38.1920476 136.290274,38.1220429 136.15474,38.0614203 C136.278019,38.0556467 136.902344,38.3205099 136.83674,38.4662929 C136.722112,38.7224958 136.089856,38.3796892 135.943507,38.2974156 C136.055251,38.315458 136.445995,38.4619627 136.445274,38.6041373 C136.444553,38.8285854 135.980274,38.6409439 135.880065,38.5897033 C135.805088,38.552175 135.749577,38.4973259 135.668112,38.4865005 C135.571507,38.4735099 135.477065,38.5175335 135.385507,38.5370193 C135.226181,38.5709392 135.055321,38.5615571 134.893833,38.5464014 C134.797228,38.5370193 134.57374,38.5579486 134.526158,38.4749533 C134.474972,38.3876278 134.513181,38.1884392 134.588158,38.124208 C134.66746,38.0563684 134.776321,38.0426561 134.879414,38.0152316" id="Fill-229" fill="#F88667"></path>
                            <path d="M134.879414,38.0152316 C135.106507,37.954609 135.29467,37.8788307 135.503019,37.7648024 C135.670274,37.672425 135.831763,37.5850995 136.032902,37.6139675 C136.175647,37.6348967 137.329135,38.1155476 137.022019,38.3306137 C136.92253,38.3998967 136.673088,38.2779297 136.574321,38.2425665 C136.432298,38.1920476 136.290274,38.1220429 136.15474,38.0614203 C136.278019,38.0556467 136.902344,38.3205099 136.83674,38.4662929 C136.722112,38.7224958 136.089856,38.3796892 135.943507,38.2974156 C136.055251,38.315458 136.445995,38.4619627 136.445274,38.6041373 C136.444553,38.8285854 135.980274,38.6409439 135.880065,38.5897033 C135.805088,38.552175 135.749577,38.4973259 135.668112,38.4865005 C135.571507,38.4735099 135.477065,38.5175335 135.385507,38.5370193 C135.226181,38.5709392 135.055321,38.5615571 134.893833,38.5464014 C134.797228,38.5370193 134.57374,38.5579486 134.526158,38.4749533 C134.474972,38.3876278 134.513181,38.1884392 134.588158,38.124208 C134.66746,38.0563684 134.776321,38.0426561 134.879414,38.0152316" id="Fill-231" fill="#E45940"></path>
                            <polygon id="Fill-233" fill="#110239" points="140.079412 32.8216755 140.785202 33.1117981 138.359993 38.9705434 137.646272 38.5844349"></polygon>
                            <mask id="mask-23" fill="white">
                                <use xlink:href="#path-22"></use>
                            </mask>
                            <g id="Clip-236"></g>
                            <polygon id="Fill-235" fill="#110239" mask="url(#mask-23)" points="133.287023 39.2004764 137.904581 39.2004764 137.904581 38.4823868 133.287023 38.4823868"></polygon>
                            <path d="M125.499319,33.1051585 C125.157598,31.8111538 126.052272,30.469517 126.913784,30.1151632 C127.54604,29.8539085 128.101877,29.7391585 128.486853,29.0643708 C128.871109,28.389583 128.141528,26.9490736 129.360621,25.8831255 C130.248086,25.1065783 131.522691,25.7272387 131.522691,25.7272387 C131.796644,25.5749604 131.909109,27.1749651 131.928574,28.3780358 C130.386505,30.7423189 130.825551,33.8311868 131.387877,36.4776538 C131.401574,36.5426066 131.423202,36.5988991 131.444109,36.6551915 C131.323714,38.7033708 131.226388,40.3993613 131.226388,40.3993613 C131.226388,40.3993613 127.516481,42.5016679 124.993947,40.7017528 C122.471412,38.9018377 123.882993,35.8512198 125.12083,35.1425123 C125.737947,34.7888802 125.84176,34.3984415 125.499319,33.1051585 Z" id="Fill-237" fill="#110239" mask="url(#mask-23)"></path>
                            <path d="M136.968526,50.6245245 C136.968526,50.6245245 138.122014,53.5943123 137.91006,53.8541236 C137.698107,54.1132132 135.3212,51.4970575 135.226758,51.0957934 C135.132316,50.6959726 135.750153,50.2239821 136.026991,50.0825292 L136.968526,50.6245245 Z" id="Fill-238" fill="#110239" mask="url(#mask-23)"></path>
                            <path d="M141.441898,40.6078599 C142.007107,41.1498552 136.869758,50.5680156 136.869758,50.5680156 L136.026991,50.0823127 C136.026991,50.0823127 137.298712,45.6048976 137.628177,44.5678175 C137.957642,43.5307373 138.593502,42.2814778 138.47527,42.116209 C138.357037,41.9516618 132.259409,42.8703835 132.306991,41.1498552 C132.353851,39.4293269 134.825921,39.6415061 134.825921,39.6415061 C134.825921,39.6415061 140.877409,40.0658646 141.441898,40.6078599 Z" id="Fill-239" fill="#F88667" mask="url(#mask-23)"></path>
                            <path d="M131.842207,29.4242816 C131.842207,29.4242816 131.206347,31.1563571 131.594928,32.4467533 L129.476114,31.9343476 C129.476114,31.9343476 130.342672,29.0352863 130.713951,28.5402014 C131.084509,28.0458382 131.842207,29.4242816 131.842207,29.4242816" id="Fill-240" fill="#F88667" mask="url(#mask-23)"></path>
                            <path d="M130.959356,30.9800462 C130.2651,30.9800462 129.905356,31.4931736 129.872193,32.0308387 L129.475681,31.9341311 C129.475681,31.9341311 130.34296,29.0357915 130.713519,28.5407066 C131.084798,28.0456217 131.842495,29.4240651 131.842495,29.4240651 C131.842495,29.4240651 131.557007,30.2034991 131.485635,31.1063434 C131.337844,31.0284 131.164821,30.9800462 130.959356,30.9800462" id="Fill-241" fill="#E45940" mask="url(#mask-23)"></path>
                            <path d="M132.061153,27.1664491 C132.061153,27.1664491 132.884456,27.5597745 133.08127,27.8924774 C133.277363,28.2244585 133.105781,28.6834585 133.122363,28.9872934 C133.138223,29.2904066 133.221851,29.7414679 133.176433,29.8150811 C133.130293,29.8886943 132.826781,29.8150811 132.777758,29.8807557 C132.728735,29.9464302 132.335828,30.1925292 132.212549,30.4718264 C132.089991,30.7504019 131.92634,30.7749396 131.639409,30.6356519 C131.3532,30.4963642 130.254502,29.0443075 130.242967,28.3637462 C130.229991,27.6831849 131.245781,26.8878736 132.061153,27.1664491" id="Fill-242" fill="#F88667" mask="url(#mask-23)"></path>
                            <path d="M131.788065,27.3167788 C131.827716,27.6220571 131.53574,28.523458 131.364158,28.6432599 C131.191856,28.7623401 131.337484,27.6350476 130.899879,27.9800193 C130.462995,28.3242693 130.927274,28.9745193 130.899879,29.1065901 C130.873926,29.2393825 130.674949,29.663741 130.225088,29.7034344 C129.774507,29.7438495 129.03267,27.5022552 129.522902,26.9458259 C130.013135,26.388675 130.847251,26.242892 131.364158,26.242892 C131.364158,26.242892 131.747693,27.0115005 131.788065,27.3167788 Z" id="Fill-243" fill="#110239" mask="url(#mask-23)"></path>
                            <path d="M131.288893,25.7918307 C131.288893,25.7918307 132.013428,25.248392 132.768242,25.8582269 C133.523056,26.4680618 133.497102,27.383175 134.119265,27.3037882 C134.119265,27.3037882 133.708335,28.3639627 132.807172,28.1120901 C131.90673,27.8602175 130.975288,26.4283684 131.288893,25.7918307" id="Fill-244" fill="#110239" mask="url(#mask-23)"></path>
                            <path d="M128.822663,37.7794528 L131.629244,37.5672736 C131.629244,37.5672736 133.089849,39.2004764 134.53243,39.2004764 L139.465035,39.2004764 C139.465035,39.2004764 139.198291,41.4536179 138.010198,43.083934 C138.010198,43.083934 133.324872,43.2311604 131.040965,43.0427972 C128.757058,42.854434 126.585616,40.3335425 128.822663,37.7794528" id="Fill-245" fill="#FD425F" mask="url(#mask-23)"></path>
                            <path d="M128.560749,38.1092689 C128.640772,37.9995708 128.725842,37.8898726 128.822447,37.7794528 L131.629028,37.5672736 C131.629028,37.5672736 133.051423,39.153566 134.473819,39.1961462 C132.755121,39.3707972 129.470563,39.7511321 128.560749,38.1092689" id="Fill-246" fill="#CA0045" mask="url(#mask-23)"></path>
                            <path d="M138.161665,39.5301481 C137.447223,39.4601434 136.752967,39.2891009 136.048619,39.2003321 L139.142851,39.2003321 C138.837177,39.3576623 138.687223,39.5813887 138.161665,39.5301481" id="Fill-247" fill="#CA0045" mask="url(#mask-23)"></path>
                            <path d="M131.470063,31.51035 C131.470063,31.51035 132.377714,33.513784 132.73097,34.0557792 C133.084226,34.5977745 131.835574,36.6719349 131.765644,37.5675623 C131.765644,37.5675623 131.015156,38.2842085 128.741342,37.8432509 C128.741342,37.8432509 128.148016,32.2168925 129.744877,30.9560858 C129.744877,30.9560858 131.033179,31.4634396 131.470063,31.51035 Z" id="Fill-248" fill="#01D9CF" mask="url(#mask-23)"></path>
                            <path d="M129.400633,32.1528057 C129.794981,31.9723811 130.479865,32.1571358 130.672353,32.5526264 C130.90954,33.0419377 130.665865,33.9123057 130.694702,34.4413104 C130.724981,34.9984613 130.759586,35.7389236 130.900167,36.2816406 C131.009749,36.7045557 131.285865,37.2277868 131.640563,37.6557538 C131.349307,37.8318481 130.504377,38.1854802 128.741702,37.8433953 C128.741702,37.8433953 128.379795,34.4124425 128.981772,32.3086925 C129.145423,32.2524 129.296819,32.199716 129.400633,32.1528057" id="Fill-249" fill="#00A1CC" mask="url(#mask-23)"></path>
                            <path d="M134.437988,38.0152316 C134.665081,37.954609 134.853244,37.8788307 135.061593,37.7648024 C135.228849,37.672425 135.390337,37.5850995 135.591477,37.6139675 C135.734221,37.6348967 136.887709,38.1155476 136.580593,38.3306137 C136.481105,38.3998967 136.232384,38.2779297 136.132895,38.2425665 C135.990872,38.1920476 135.848128,38.1220429 135.713314,38.0614203 C135.836593,38.0556467 136.460919,38.3205099 136.395314,38.4662929 C136.279965,38.7224958 135.64843,38.3796892 135.502081,38.2974156 C135.613826,38.315458 136.00457,38.4619627 136.003849,38.6041373 C136.003128,38.8285854 135.538849,38.6409439 135.43864,38.5897033 C135.363663,38.552175 135.308151,38.4973259 135.226686,38.4865005 C135.130081,38.4735099 135.03564,38.5175335 134.944081,38.5370193 C134.784756,38.5709392 134.613895,38.5615571 134.452407,38.5464014 C134.355802,38.5370193 134.132314,38.5579486 134.084733,38.4749533 C134.033547,38.3876278 134.071756,38.1884392 134.146733,38.124208 C134.226035,38.0563684 134.334895,38.0426561 134.437988,38.0152316" id="Fill-250" fill="#F88667" mask="url(#mask-23)"></path>
                            <path d="M134.632279,37.9870132 L134.385,38.9165604 C134.385,38.9165604 128.310442,38.2100179 128.16914,37.1310792 C128.027837,36.0528623 128.416419,31.0334519 129.88207,31.5545179 C131.347,32.0763057 129.900093,35.7172726 130.129349,36.0001783 C130.358605,36.283084 134.632279,37.9870132 134.632279,37.9870132" id="Fill-251" fill="#01D9CF" mask="url(#mask-23)"></path>
                            <path d="M139.319047,5.00136792 C135.971047,5.00136792 132.659814,4.91548585 129.344256,5.08941509 C127.045209,5.20921698 124.813209,5.08291981 122.545884,4.82238679 C121.726907,4.72856604 121.032651,4.56907075 120.281442,4.21616038 C119.608093,3.9007783 118.728558,3.54498113 119.750116,3.11845755 C121.992209,2.1816934 124.626488,4.07470755 126.767651,2.91999057 C126.535512,2.46532075 125.74393,1.78403774 126.114488,1.15976887 C126.356,0.752731132 127.676744,0.560759434 128.080465,0.514570755 C129.582163,0.342806604 131.458744,0.376004717 132.825628,1.0320283 C134.482326,1.82806132 136.143349,1.6822783 137.955047,1.6822783 C138.768977,1.6822783 142.173209,1.25070283 142.554581,2.4855283 C142.777349,3.20289623 141.910791,2.88534906 142.661279,3.54353774 C143.198372,4.0148066 144.185326,3.92892453 144.813977,3.92531604 C145.220581,3.92242925 146.353884,3.81633962 146.651628,4.25729717 C147.076256,4.88445283 146.431744,5.24458019 145.968186,5.36438208 C144.826953,5.661 140.318977,5.00136792 139.319047,5.00136792" id="Fill-252" fill="#FFFFFF" mask="url(#mask-23)"></path>
                            <path d="M141.050288,14.7513651 C142.706986,14.818483 144.362242,15.0667472 146.044893,14.8675585 C146.755009,14.7831198 147.469451,14.8437425 148.175963,14.9671528 C149.732451,15.2385113 151.173591,14.971483 152.665195,14.811266 C153.577172,14.7131151 154.685242,14.8596198 155.533777,14.352266 C157.220033,13.3447755 154.828707,12.8742283 154.077498,12.9629972 C152.756753,13.118884 151.601102,13.0272283 150.441847,12.3214075 C149.838428,11.9540632 149.2278,11.9468462 148.570312,11.8753981 C148.031777,11.8169406 147.134219,11.5066104 146.625963,11.80395 C146.404637,11.9324123 146.308033,12.2297519 146.021823,12.3675962 C145.620265,12.5624547 145.112009,12.5465774 144.687381,12.5754453 C143.893637,12.6288509 143.188567,12.3228509 142.412847,12.2412991 C141.887288,12.18645 138.003637,11.4950632 137.798893,12.2506811 C137.651823,12.7905113 139.19966,12.7443226 139.077823,13.2805443 C138.993474,13.6522189 137.328847,13.6269594 137.039033,13.6774783 C136.598544,13.7539783 134.904358,13.6774783 134.889219,14.4201057 C136.109033,14.8747755 137.281265,14.9397283 138.560195,14.9426151 C138.621474,14.9426151 138.682753,14.9368415 138.743312,14.9252943 L138.752684,14.9238509 C139.512544,14.7816764 140.282498,14.7203321 141.050288,14.7513651" id="Fill-253" fill="#FFFFFF" mask="url(#mask-23)"></path>
                            <polygon id="Fill-254" fill="#FFF9FD" mask="url(#mask-23)" points="158.707456 28.3459203 156.690293 28.3459203 156.690293 26.326609 155.555549 26.326609 155.555549 28.3459203 153.538386 28.3459203 153.538386 29.4818731 155.555549 29.4818731 155.555549 31.5011844 156.690293 31.5011844 156.690293 29.4818731 158.707456 29.4818731"></polygon>
                        </g>
                    </g>
                </g>
            </g>
        </g>
    </g>
</svg>