<?xml version="1.0" encoding="UTF-8"?>
<svg width="188px" height="44px" viewBox="0 0 188 44" version="1.1" xmlns="http://www.w3.org/2000/svg" xmlns:xlink="http://www.w3.org/1999/xlink">
    <title>logo_blanco</title>
    <defs>
        <polygon id="path-1" points="0.648454545 0.416664706 13.1593636 0.416664706 13.1593636 21 0.648454545 21"></polygon>
        <polygon id="path-3" points="0 43 188 43 188 0 0 0"></polygon>
    </defs>
    <g id="Symbols" stroke="none" stroke-width="1" fill="none" fill-rule="evenodd">
        <g id="header" transform="translate(-32.000000, -59.000000)">
            <g id="logo_blanco" transform="translate(32.000000, 59.000000)">
                <path d="M48.6111464,27.4206731 L45.2212053,27.4206731 L45.2212053,19.4735577 L48.6111464,19.4735577 C51.3603987,19.4735577 52.7217037,20.8413462 52.7217037,23.4471154 C52.7217037,26.0516827 51.3603987,27.4206731 48.6111464,27.4206731 M48.6111464,17 L42.7764386,17 C42.2778432,17 42,17.2620192 42,17.7355769 L42,35.2367788 C42,35.9206731 42.389488,36 43.611237,36 C44.8317173,36 45.2212053,35.9206731 45.2212053,35.2367788 L45.2212053,29.8942308 L48.6111464,29.8942308 C53.1657454,29.8942308 56,27.7632212 56,23.4471154 C56,19.1310096 53.1657454,17 48.6111464,17" id="Fill-1" fill="#FFFFFE"></path>
                <path d="M64.1521762,31.7036555 C64.1521762,32.3685856 63.9204729,32.7940436 63.6864052,33.1137449 C63.116604,33.8856473 62.0041913,34.6040636 60.8397636,34.6040636 C59.7521762,34.6040636 58.8986566,33.9658765 58.8986566,32.7940436 C58.8986566,31.543197 59.8562063,30.2388643 64.1521762,30.2923504 L64.1521762,31.7036555 Z M61.7192907,23 C60.347985,23 58.8466416,23.2662152 57.8890919,23.6126595 C57.1124127,23.8788747 56.8015046,24.2508466 56.8015046,24.8902492 C56.8015046,25.6354085 57.1644277,26.3538248 57.5770016,26.3538248 C57.9919398,26.3538248 59.0795271,25.3959364 61.4615798,25.3959364 C63.5315422,25.3959364 64.1521762,26.3538248 64.1521762,27.7639142 L64.1521762,28.2696015 C57.6810317,28.0836155 56,30.7712946 56,33.2207172 C56,35.7224103 57.7850618,37 59.9590543,37 C61.7713057,37 63.4286943,36.1478684 64.4890919,34.7912651 L64.747985,36.0943822 C64.852015,36.6535556 65.0849006,36.787271 65.9384202,36.787271 C66.8191295,36.787271 67,36.6535556 67,36.0153686 L67,28.3765738 C67,24.5705479 65.4466416,23 61.7192907,23 L61.7192907,23 Z" id="Fill-3" fill="#FFFFFE"></path>
                <path d="M76.8170338,22 C75.5048458,22 73.7298091,22.6778191 72.5468429,24.0892193 L72.2649046,22.7868649 C72.0581498,22.2986369 71.8267254,22.1623296 71.056094,22.1623296 C70.3101322,22.1623296 70,22.2986369 70,22.9491945 L70,35.2131351 C70,35.9182156 70.3606461,36 71.4155653,36 C72.4704846,36 72.8299559,35.9182156 72.8299559,35.2131351 L72.8299559,27.3990087 C72.8299559,26.8289963 72.9838473,26.3135068 73.2681351,25.9615861 C74.0387665,25.0111524 75.0419971,24.685254 76.071072,24.685254 C76.7406755,24.685254 77.0484581,24.8760843 77.3303965,24.8760843 C77.79442,24.8760843 78,24.0892193 78,23.3568773 C78,22.4349442 77.7180617,22 76.8170338,22" id="Fill-5" fill="#FFFFFE"></path>
                <path d="M85.9422794,28.4671391 C87.5934938,27.1139379 88.851049,25.4166818 89.4541012,23.5607245 C89.7675927,22.6048822 89.2698353,22.472833 88.1438986,22.472833 C87.043089,22.472833 86.6757536,22.5527894 86.5190079,23.2421104 C86.0212506,25.4166818 84.4490073,27.4325519 81.8812494,28.4937913 L81.8812494,16.7692774 C81.8812494,16.0799564 81.5151105,16 80.4406247,16 C79.3673354,16 79,16.0799564 79,16.7692774 L79,35.2307226 C79,35.9212551 79.3673354,36 80.4406247,36 C81.5151105,36 81.8812494,35.9212551 81.8812494,35.2307226 L81.8812494,30.7749712 C82.536949,30.5363135 83.1914521,30.2443516 83.7945043,29.9002968 C85.5498169,31.1723302 86.597979,33.1094554 87.0167653,35.205282 C87.1483838,35.9212551 87.4630718,36 88.5626848,36 C89.6898181,36 90.1074078,35.8679508 89.9769858,35.0453692 C89.5845232,32.5521837 88.0912511,30.2176994 85.9422794,28.4671391" id="Fill-7" fill="#FFFFFE"></path>
                <path d="M93.5,23 C92.3824751,23 92,23.1090714 92,23.7960956 L92,36.2039044 C92,36.9172562 92.3824751,37 93.5,37 C94.6175249,37 95,36.9172562 95,36.2039044 L95,23.7960956 C95,23.1090714 94.6175249,23 93.5,23" id="Fill-9" fill="#FFFFFE"></path>
                <path d="M93.985115,17 C92.2963464,17 92,17.4110497 92,18.4994475 C92,19.6618785 92.2963464,20 93.985115,20 C95.7036536,20 96,19.6618785 96,18.4994475 C96,17.3392265 95.7036536,17 93.985115,17" id="Fill-11" fill="#FFFFFE"></path>
                <path d="M104.895047,22 C103.475236,22 101.71934,22.7050805 100.53184,24.1425031 L100.169811,22.8141264 C100.041274,22.2986369 99.8337264,22.1623296 99.0601415,22.1623296 C98.3113208,22.1623296 98,22.2986369 98,22.9491945 L98,35.2131351 C98,35.9182156 98.3620283,36 99.4209906,36 C100.479953,36 100.840802,35.9182156 100.840802,35.2131351 L100.840802,27.3990087 C100.840802,26.8289963 101.022406,26.3407683 101.305425,25.9888476 C101.951651,25.1474597 103.009434,24.5774473 104.09434,24.5774473 C105.695755,24.5774473 106.160377,25.6356877 106.160377,26.9925651 L106.160377,35.2131351 C106.160377,35.9182156 106.522406,36 107.580189,36 C108.639151,36 109,35.9182156 109,35.2131351 L109,26.4498141 C109,23.708798 107.761792,22 104.895047,22" id="Fill-13" fill="#FFFFFE"></path>
                <g id="Group-17" transform="translate(110.000000, 22.000000)">
                    <mask id="mask-2" fill="white">
                        <use xlink:href="#path-1"></use>
                    </mask>
                    <g id="Clip-16"></g>
                    <path d="M10.1506364,8.26078235 C10.1506364,9.64060588 9.98263636,10.1273118 9.67718182,10.5324882 C9.09172727,11.3440765 8.11554545,12.0197824 6.72318182,12.0197824 C5.21754545,12.0197824 3.85318182,11.2094294 3.85318182,7.50354706 C3.85318182,3.79766471 5.21754545,2.9589 6.75118182,2.9589 C8.05954545,2.9589 9.03572727,3.58148824 9.67718182,4.47460588 C10.0119091,4.93413529 10.1506364,5.39366471 10.1506364,6.74631176 L10.1506364,8.26078235 Z M12.0177273,0.6069 C11.1535455,0.6069 10.8468182,0.768723529 10.7360909,1.22825294 L10.4573636,2.33754706 C9.31445455,1.12078235 7.78209091,0.416664706 6.10972727,0.416664706 C3.15572727,0.416664706 0.648454545,2.2029 0.648454545,7.50354706 C0.648454545,12.8313706 3.07172727,14.5904294 6.02572727,14.5904294 C7.53009091,14.5904294 9.06372727,13.9406647 10.0946364,12.9129 L10.0946364,14.6176059 C10.0946364,16.9152529 9.11845455,18.5112529 6.24972727,18.5112529 C3.87990909,18.5112529 2.65427273,17.4834882 2.20881818,17.4834882 C1.76209091,17.4834882 1.37263636,18.2950765 1.37263636,18.9979588 C1.37263636,19.6477235 1.65009091,19.9713706 2.37681818,20.2703118 C3.37845455,20.6754882 5.02281818,21.0003706 6.58318182,21.0003706 C11.5442727,21.0003706 13.1593636,18.0789 13.1593636,14.3458412 L13.1593636,1.39007647 C13.1593636,0.741547059 12.8259091,0.6069 12.0177273,0.6069 L12.0177273,0.6069 Z" id="Fill-15" fill="#FFFFFE" mask="url(#mask-2)"></path>
                </g>
                <path d="M139.846863,22 C138.074755,22 136.433198,22.9833551 135.6922,24.3132026 C134.887136,22.867451 133.471625,22 131.47347,22 C130.186092,22 129.026848,22.5490196 128.253213,23.5043137 L128.253213,22.1732462 L126,22.1732462 L126,36 L128.253213,36 L128.253213,28.5955556 C128.253213,26.7154684 128.253213,25.7601743 128.864868,24.9500654 C129.34839,24.3132026 130.217521,23.9093682 131.312699,23.9093682 C132.407876,23.9093682 133.277007,24.3132026 133.760529,24.9500654 C134.372185,25.7601743 134.372185,26.7154684 134.372185,28.5955556 L134.372185,36 L136.626606,36 L136.626606,28.5955556 C136.626606,26.7154684 136.626606,25.7601743 137.238262,24.9500654 C137.720575,24.3132026 138.590915,23.9093682 139.684884,23.9093682 C140.780061,23.9093682 141.649192,24.3132026 142.133923,24.9500654 C142.74437,25.7601743 142.74437,26.7154684 142.74437,28.5955556 L142.74437,36 L145,36 L145,28.5955556 C145,26.4543791 145,24.603573 143.4213,23.2444444 C142.550961,22.5209586 141.360288,22 139.846863,22" id="Fill-18" fill="#FFFFFE"></path>
                <path d="M156.095723,32.7428129 C155.463894,33.5995868 154.39109,34.1141332 153.000593,34.1141332 C151.611281,34.1141332 150.537291,33.5995868 149.905463,32.7428129 C149.210807,31.800482 149.210807,30.4580823 149.210807,29 C149.210807,27.5431227 149.210807,26.200723 149.905463,25.2571871 C150.537291,24.4004132 151.611281,23.8858668 153.000593,23.8858668 C154.39109,23.8858668 155.463894,24.4004132 156.095723,25.2571871 C156.790378,26.200723 156.790378,27.5431227 156.790378,29 C156.790378,30.4580823 156.790378,31.800482 156.095723,32.7428129 M153.000593,22 C150.757779,22 148.926306,22.9146153 147.916329,24.4293338 C147,25.8006542 147,27.3708039 147,29 C147,30.6291961 147,32.2005509 147.916329,33.5706662 C148.926306,35.0853847 150.757779,36 153.000593,36 C155.242221,36 157.073694,35.0853847 158.084856,33.5706662 C159,32.2005509 159,30.6291961 159,29 C159,27.3708039 159,25.8006542 158.084856,24.4293338 C157.073694,22.9146153 155.242221,22 153.000593,22" id="Fill-20" fill="#FFFFFE"></path>
                <polygon id="Fill-22" fill="#FFFFFE" points="165.532939 33.3353922 161.404561 22 159 22 164.394707 36 166.605293 36 172 22 169.627158 22"></polygon>
                <path d="M173.5,17 C172.638578,17 172,17.6056528 172,18.4993271 C172,19.3930013 172.638578,20 173.5,20 C174.361422,20 175,19.3930013 175,18.4993271 C175,17.6056528 174.361422,17 173.5,17" id="Fill-24" fill="#FFFFFE"></path>
                <mask id="mask-4" fill="white">
                    <use xlink:href="#path-3"></use>
                </mask>
                <g id="Clip-27"></g>
                <polygon id="Fill-26" fill="#FFFFFE" mask="url(#mask-4)" points="172 36 174 36 174 22 172 22"></polygon>
                <path d="M184.756494,33.993661 C184.173295,34.6187786 183.232143,35.0355238 181.998782,35.0355238 C180.767857,35.0355238 179.826705,34.6187786 179.242289,33.993661 C178.269481,32.9517982 178.269481,31.3149438 178.269481,29.7082157 C178.269481,28.1014875 178.269481,26.4633779 179.242289,25.4227704 C179.826705,24.7976527 180.767857,24.3809076 181.998782,24.3809076 C183.232143,24.3809076 184.173295,24.7976527 184.756494,25.4227704 C185.729302,26.4633779 185.729302,28.1014875 185.729302,29.7082157 C185.729302,31.3149438 185.729302,32.9517982 184.756494,33.993661 L184.756494,33.993661 Z M185.729302,17 L185.729302,24.2327873 C184.853896,23.1018013 183.426948,22.4164313 181.838068,22.4164313 C179.92289,22.4164313 178.398539,23.1306722 177.458604,24.172535 C176,25.7805184 176,27.7437394 176,29.7082157 C176,31.6726919 176,33.6371681 177.458604,35.2438963 C178.398539,36.2857591 179.92289,37 181.838068,37 C183.426948,37 184.853896,36.3158853 185.729302,35.1848993 L185.729302,36.8204983 L188,36.8204983 L188,17 L185.729302,17 Z" id="Fill-28" fill="#FFFFFE" mask="url(#mask-4)"></path>
                <path d="M11,32 C8.79048731,32 7,33.7904873 7,36 C7,36.1027137 7.00466881,36.2042603 7.01167202,36.3046396 C7.16807704,38.3717537 8.89436825,40 11,40 C13.2095127,40 15,38.2083455 15,36 C15,33.7904873 13.2095127,32 11,32" id="Fill-29" fill="#FFFFFE" mask="url(#mask-4)"></path>
                <path d="M24.3922145,4.16095111 C25.3874862,3.88260275 26.2439405,3.79338854 27,3.81717899 C24.3562707,1.31680185 20.7271851,0 17.0113386,0 L1.85916269,0 C0.832904884,0 0,0.798169867 0,1.78428435 L0,7.07647175 C6.04847595,16.672353 18.3177102,5.86196886 24.3922145,4.16095111" id="Fill-30" fill="#FFFFFE" mask="url(#mask-4)"></path>
                <path d="M14.0570793,15.66889 C3.48716114,21.5779802 0,16.7066203 0,16.7066203 L0,28.5845261 L0,36.1335786 C0,37.1638432 0.828046745,38 1.84831863,38 C1.84831863,33.3949162 3.42431831,28.4302353 10.8718102,28.4302353 L10.975316,28.3953954 L16.7112648,28.3953954 C20.5101757,28.3953954 24.2203673,26.9644723 26.9053581,24.2506956 C29.6359409,21.4921248 31,18.1636733 31,14.2168141 C30.7929883,5.84280338 26.9620399,8.45579336 14.0570793,15.66889" id="Fill-31" fill="#FFFFFE" mask="url(#mask-4)"></path>
            </g>
        </g>
    </g>
</svg>