<?xml version="1.0" encoding="UTF-8"?>
<svg width="154px" height="49px" viewBox="0 0 154 49" version="1.1" xmlns="http://www.w3.org/2000/svg" xmlns:xlink="http://www.w3.org/1999/xlink">
    <!-- Generator: Sketch 62 (91390) - https://sketch.com -->
    <title>PLAYSTORE LARGEicons/principa</title>
    <desc>Created with Sketch.</desc>
    <defs>
        <path d="M21.2939215,11.9882293 L14.5200113,7.96889242 C14.5200113,7.96889242 2.17937725,0.645337756 1.45388089,0.214877801 C0.728409015,-0.215582154 0.00558055294,0.045229488 0.00558055294,0.944788162 L0.00558055294,32.5353215 C0.00558055294,33.2096887 0.522197793,33.5003849 1.15250656,33.1266757 C1.78252162,32.7523627 14.5200113,25.1939568 14.5200113,25.1939568 L21.2936277,21.1748967 C21.2936277,21.1748967 27.0410098,17.7647493 27.8049336,17.3116242 C28.5689065,16.8579207 28.4954781,16.2360781 27.8507775,15.8792984 C27.2063704,15.5221666 21.2939215,11.9882293 21.2939215,11.9882293 L21.2939215,11.9882293 Z" id="path-1"></path>
        <path d="M21.2939215,11.9882293 L14.5200113,7.96889242 C14.5200113,7.96889242 2.17937725,0.645337756 1.45388089,0.214877801 C0.728409015,-0.215582154 0.00558055294,0.045229488 0.00558055294,0.944788162 L0.00558055294,32.5353215 C0.00558055294,33.2096887 0.522197793,33.5003849 1.15250656,33.1266757 C1.78252162,32.7523627 14.5200113,25.1939568 14.5200113,25.1939568 L21.2936277,21.1748967 C21.2936277,21.1748967 27.0410098,17.7647493 27.8049336,17.3116242 C28.5689065,16.8579207 28.4954781,16.2360781 27.8507775,15.8792984 C27.2063704,15.5221666 21.2939215,11.9882293 21.2939215,11.9882293 L21.2939215,11.9882293 Z" id="path-3"></path>
        <path d="M21.2939215,11.9882293 L14.5200113,7.96889242 C14.5200113,7.96889242 2.17937725,0.645337756 1.45388089,0.214877801 C0.728409015,-0.215582154 0.00558055294,0.045229488 0.00558055294,0.944788162 L0.00558055294,32.5353215 C0.00558055294,33.2096887 0.522197793,33.5003849 1.15250656,33.1266757 C1.78252162,32.7523627 14.5200113,25.1939568 14.5200113,25.1939568 L21.2936277,21.1748967 C21.2936277,21.1748967 27.0410098,17.7647493 27.8049336,17.3116242 C28.5689065,16.8579207 28.4954781,16.2360781 27.8507775,15.8792984 C27.2063704,15.5221666 21.2939215,11.9882293 21.2939215,11.9882293 L21.2939215,11.9882293 Z" id="path-5"></path>
        <path d="M14.5200113,7.96889242 C14.5200113,7.96889242 2.17937725,0.645337756 1.45388089,0.214877801 C0.728409015,-0.215582154 0.00558055294,0.045229488 0.00558055294,0.944788162 L0.00558055294,32.5353215 C0.00558055294,33.2096887 0.522197793,33.5003849 1.15250656,33.1266757 C1.78252162,32.7523627 14.5200113,25.1939568 14.5200113,25.1939568 L21.2936277,21.1748967 C21.2936277,21.1748967 27.0410098,17.7647493 27.8049336,17.3116242 C28.5689065,16.8579207 28.4954781,16.2360781 27.8507775,15.8792984 C27.2063704,15.5221666 21.2939215,11.9882293 21.2939215,11.9882293 L14.5200113,7.96889242 Z" id="path-7"></path>
    </defs>
    <g id="Symbols" stroke="none" stroke-width="1" fill="none" fill-rule="evenodd">
        <g id="footer" transform="translate(-1158.000000, -156.000000)">
            <g id="PLAYSTORE-LARGE" transform="translate(1160.000000, 158.000000)">
                <path d="M143.370685,45 L6.63075673,45 C2.96932383,45 0,42.276778 0,38.918272 L0,6.08119012 C0,2.72322202 2.96932383,0 6.63075673,0 L143.370392,0 C147.031531,0 150,2.72322202 150,6.08119012 L150,38.918272 C150,42.276509 147.031825,45 143.370685,45 Z" id="Path" stroke="#FFFFFF" stroke-width="3"></path>
                <g id="Group-8" transform="translate(11.000000, 6.000000)">
                    <g id="Clipped">
                        <g id="Path-Clipped">
                            <mask id="mask-2" fill="white">
                                <use xlink:href="#path-1"></use>
                            </mask>
                            <g id="path-1"></g>
                            <polygon id="Path" stroke="#00213A" fill="#FFFFFF" fill-rule="nonzero" mask="url(#mask-2)" points="0.00587426625 -0.519560537 0.00587426625 33.6826865 16.7868907 16.5817139"></polygon>
                        </g>
                    </g>
                    <g id="Clipped">
                        <g id="Path-Clipped">
                            <mask id="mask-4" fill="white">
                                <use xlink:href="#path-3"></use>
                            </mask>
                            <g id="path-3"></g>
                            <polygon id="Path" stroke="#00213A" fill="#FFFFFF" fill-rule="nonzero" mask="url(#mask-4)" points="21.2939215 11.9882293 14.5200113 7.96889242 0.00587426625 -0.643929051 0.00587426625 -0.519560537 16.7868907 16.5817139"></polygon>
                        </g>
                    </g>
                    <g id="Clipped">
                        <g id="Path-Clipped">
                            <mask id="mask-6" fill="white">
                                <use xlink:href="#path-5"></use>
                            </mask>
                            <g id="path-5"></g>
                            <polygon id="Path" stroke="#00213A" fill="#FFFFFF" fill-rule="nonzero" mask="url(#mask-6)" points="0.00587426625 33.6826865 0.00587426625 33.807055 14.5200113 25.1939316 21.2936277 21.1745948 16.7868907 16.5817139"></polygon>
                        </g>
                    </g>
                    <g id="Clipped">
                        <g id="Path-Clipped">
                            <mask id="mask-8" fill="white">
                                <use xlink:href="#path-7"></use>
                            </mask>
                            <g id="path-7"></g>
                            <polygon id="Path" stroke="#00213A" fill="#FFFFFF" fill-rule="nonzero" mask="url(#mask-8)" points="21.2939215 11.9882293 16.7868907 16.5817139 21.2936277 21.1745948 29.035005 16.581412"></polygon>
                        </g>
                    </g>
                </g>
                <g id="Group-20" transform="translate(46.000000, 19.000000)" fill="#FFFFFF" fill-rule="nonzero">
                    <path d="M66.7607752,14.2159146 C66.1718696,14.2159146 65.6345551,14.1063228 65.1480083,13.8874159 C64.6614615,13.6682323 64.2525983,13.3311546 63.9224481,12.8767361 L63.8236798,12.8767361 C63.8895177,13.4091972 63.9224481,13.9140067 63.9224481,14.3908187 L63.9224481,18.1432305 L62.5536406,18.1432305 L62.5536406,4.93050091 L63.6672374,4.93050091 L63.8565873,6.17862965 L63.9224481,6.17862965 C64.2747806,5.67910141 64.6847871,5.31905363 65.1521017,5.09710257 C65.619462,4.87515152 66.1559304,4.76417599 66.7604779,4.76417599 C67.9596937,4.76417599 68.8853127,5.17763594 69.536786,6.00400233 C70.1885337,6.83036872 70.5145448,7.98993844 70.5145448,9.48160452 C70.5145448,10.979359 70.1830453,12.1425264 69.5208697,12.9724905 C68.858168,13.8016013 67.9383119,14.2159146 66.7607752,14.2159146 L66.7607752,14.2159146 Z M66.5626438,5.93730631 C65.6386714,5.93730631 64.9704584,6.19551122 64.558005,6.71111385 C64.1455517,7.2269471 63.9336993,8.04807837 63.9224481,9.17416174 L63.9224481,9.48162757 C63.9224481,10.7632197 64.1343004,11.6798056 64.558005,12.2319388 C64.9817097,12.784072 65.6611739,13.0594122 66.5955743,13.0594122 C67.3771227,13.0594122 67.9891024,12.7408764 68.4320164,12.1029747 C68.8743816,11.4653497 69.0958158,10.5861246 69.0958158,9.46502278 C69.0958158,8.32842303 68.8743588,7.45554008 68.4320164,6.84835727 C67.989354,6.24062097 67.3658715,5.93730631 66.5626438,5.93730631 L66.5626438,5.93730631 Z M73.6857663,14.049313 L72.3163872,14.049313 L72.3163872,1.10309059 L73.6857663,1.10309059 L73.6857663,14.049313 Z M81.5597023,14.049313 L81.2872031,12.7513928 L81.2213423,12.7513928 C80.7701727,13.323129 80.3206726,13.7102979 79.872293,13.9120464 C79.4241651,14.1149019 78.864348,14.2159377 78.1936653,14.2159377 C77.2971577,14.2159377 76.5946194,13.9829167 76.0855701,13.5171285 C75.5765208,13.0513864 75.3224078,12.3888312 75.3224078,11.5287017 C75.3224078,9.68750426 76.7828716,8.72221087 79.7032274,8.63309836 L81.2383563,8.58300716 L81.2383563,8.01733639 C81.2383563,7.30166877 81.0854814,6.7730821 80.7800519,6.43240661 C80.4751711,6.09087781 79.9861545,5.92042475 79.3157691,5.92042475 C78.5619142,5.92042475 77.7093139,6.15344568 76.7581509,6.6192108 L76.3372134,5.56259094 C76.783146,5.31850013 77.2707905,5.12729105 77.8020678,4.98861777 C78.3327963,4.84996755 78.8646225,4.78052712 79.3983696,4.78052712 C80.4763146,4.78052712 81.2751286,5.02157372 81.7951776,5.5042204 C82.3146548,5.98686708 82.5745306,6.76062849 82.5745306,7.82585057 L82.5745306,14.0490592 L81.5597251,14.0490592 L81.5597251,14.049313 L81.5597023,14.049313 Z M78.4658901,13.0762706 C79.3179645,13.0762706 79.9875495,12.8404592 80.4746452,12.3691822 C80.9609404,11.897859 81.2048999,11.2375639 81.2048999,10.3885043 L81.2048999,9.5649053 L79.8347204,9.62274548 C78.7458215,9.66232026 77.9612315,9.83224287 77.4793727,10.1352808 C76.9983142,10.4374884 76.757625,10.9076816 76.757625,11.5455832 C76.757625,12.044558 76.9071839,12.4248083 77.2074223,12.6849274 C77.5073407,12.9459229 77.9263802,13.0762706 78.4658901,13.0762706 Z M83.3695028,4.93050091 L84.8376503,4.93050091 L86.8178886,10.1308298 C87.2522957,11.3180742 87.5220277,12.1749058 87.6268562,12.7020857 L87.6927396,12.7020857 C87.764341,12.4186968 87.9144482,11.9352199 88.1422174,11.249464 C88.3705343,10.5642386 89.1174832,8.45844797 90.3820337,4.93050091 L91.8512789,4.93050091 L87.9649413,15.3143232 C87.5802048,16.340501 87.1304531,17.068599 86.6156182,17.4992173 C86.1016293,17.9287286 85.4701886,18.1432305 84.7229427,18.1432305 C84.3047265,18.1432305 83.8922731,18.0961836 83.4847592,18.0020896 L83.4847592,16.8956323 C83.7871473,16.9620515 84.1257817,16.9955379 84.4998391,16.9955379 C85.4405513,16.9955379 86.1109596,16.4630768 86.512985,15.3979008 L87.0159971,14.1002113 L83.3695028,4.93050091 L83.3695028,4.93050091 Z M41.3908886,5.77790007 C41.8255929,6.14069226 42.7333746,6.90285336 42.7333746,8.35330719 C42.7333746,9.76388643 41.9389284,10.4327837 41.1444823,11.0612761 C40.8986018,11.3089416 40.6148514,11.5768326 40.6148514,11.9969344 C40.6148514,12.4156526 40.8983274,12.6448222 41.1071611,12.816682 L41.7882718,13.3496736 C42.6203135,14.055655 43.3760665,14.7046266 43.3760665,16.0211119 C43.3760665,17.8138786 41.6549036,19.6251874 38.4024766,19.6251874 C35.6596706,19.6251874 34.3364169,18.3095324 34.3364169,16.8972927 C34.3364169,16.2109603 34.6753028,15.2387483 35.7927644,14.5704043 C36.9645381,13.8456041 38.5542538,13.7512334 39.4049332,13.6925861 C39.1393175,13.3496966 38.8374553,12.9871581 38.8374553,12.3968569 C38.8374553,12.073063 38.9324047,11.8821076 39.0265537,11.6521309 C38.8176971,11.6715031 38.609961,11.6905987 38.4206341,11.6905987 C36.4165212,11.6905987 35.281817,10.1837115 35.281817,8.69675017 C35.281817,7.81918557 35.6794517,6.84586655 36.4917352,6.14099207 C37.5701833,5.24463176 38.8561159,5.09156763 39.8783536,5.09156763 L43.7734725,5.09156763 L42.5629826,5.77817682 L41.3909115,5.77817682 L41.3909115,5.77790007 L41.3908886,5.77790007 Z M40.0476022,14.2469103 C39.8964196,14.2269844 39.8014474,14.2269844 39.6131952,14.2269844 C39.4430776,14.2269844 38.4203139,14.2660057 37.6269654,14.5336201 C37.2109674,14.6850007 36.0001802,15.1427401 36.0001802,16.4976932 C36.0001802,17.8512625 37.3058939,18.8254349 39.3297421,18.8254349 C41.1442078,18.8254349 42.1098693,17.9462098 42.1098693,16.764754 C42.1098693,15.7900512 41.4855865,15.2772391 40.0476022,14.2469103 Z M40.5964425,10.6223554 C41.0308495,10.183158 41.0681934,9.57348452 41.0681934,9.22976478 C41.0681934,7.85682316 40.2553383,5.72061345 38.6859526,5.72061345 C38.19362,5.72061345 37.664561,5.96830197 37.3618756,6.35021277 C37.0407812,6.7506656 36.945283,7.26513818 36.945283,7.76162221 C36.945283,9.03936287 37.6829243,11.1567538 39.3102354,11.1567538 C39.7830841,11.1567538 40.2926822,10.9278841 40.5964425,10.6223554 L40.5964425,10.6223554 Z M29.4840978,13.9416583 C26.4822164,13.9416583 24.8771561,11.5801766 24.8771561,9.44701113 C24.8771561,6.95211432 26.8971624,4.82035563 29.7684199,4.82035563 C32.5427843,4.82035563 34.2801607,7.009424 34.2801607,9.31414957 C34.2804123,11.5602509 32.5628169,13.9416583 29.4840978,13.9416583 Z M31.8441336,12.3993476 C32.2980244,11.7893973 32.4113371,11.0280664 32.4113371,10.2847472 C32.4113371,8.60846788 31.618263,5.40984969 29.2766362,5.40984969 C28.6537255,5.40984969 28.0307918,5.65781496 27.5777243,6.05854454 C26.8411579,6.7240979 26.7083614,7.56238747 26.7083614,8.38211193 C26.7083614,10.2659284 27.6336831,13.369069 29.9190537,13.369069 C30.6553228,13.369069 31.4107784,13.0079142 31.8441336,12.3993476 L31.8441336,12.3993476 Z M19.2496003,13.9416583 C16.2471471,13.9416583 14.6418124,11.5801766 14.6418124,9.44701113 C14.6418124,6.95211432 16.6626191,4.82035563 19.5330762,4.82035563 C22.3082867,4.82035563 24.045343,7.009424 24.045343,9.31414957 C24.0456403,11.5602509 22.3277705,13.9416583 19.2496003,13.9416583 Z M21.610162,12.3993476 C22.0632295,11.7893973 22.1768395,11.0280664 22.1768395,10.2847472 C22.1768395,8.60846788 21.3831937,5.40984969 19.041567,5.40984969 C18.4189078,5.40984969 17.7954482,5.65781496 17.3426321,6.05854454 C16.6060886,6.7240979 16.4740925,7.56238747 16.4740925,8.38211193 C16.4740925,10.2659284 17.3988882,13.369069 19.6845561,13.369069 C20.4210996,13.369069 21.1760522,13.0079142 21.610162,12.3993476 L21.610162,12.3993476 Z M13.1994604,13.6430484 L10.484325,14.2748617 C9.38280277,14.4475517 8.39601094,14.5994858 7.3523913,14.5994858 C2.11206511,14.5994858 0.11950077,10.7128517 0.11950077,7.66863523 C0.11950077,3.95499097 2.9476743,0.509745128 7.7892681,0.509745128 C8.81477602,0.509745128 9.80106474,0.662509444 10.6931816,0.911581696 C12.1168731,1.31371808 12.781267,1.81100929 13.1991859,2.09857243 L11.6229169,3.61097145 L10.9588203,3.76345902 L11.4332926,2.99742346 C10.7881309,2.36616367 9.61004549,1.19856829 7.37077745,1.19856829 C4.37109136,1.19856829 2.11153913,3.4969517 2.11153913,6.84697354 C2.11153913,10.4452374 4.69383226,13.8340038 8.83151564,13.8340038 C10.0477455,13.8340038 10.6728974,13.5855081 11.242845,13.3552316 L11.242845,10.2736543 L8.37680153,10.4266953 L9.89489352,9.602566 L13.9198131,9.602566 L13.4266802,10.0810615 C13.292786,10.196465 13.2743999,10.2352095 13.23653,10.3868669 C13.2167717,10.559557 13.1989344,11.1152648 13.1989344,11.306497 L13.1989344,13.6430715 L13.1994604,13.6430715 L13.1994604,13.6430484 Z" id="Shape"></path>
                    <path d="M47.4381788,12.8912504 C46.8162859,12.8342046 46.6861123,12.7209358 46.6861123,11.9801634 L46.6861123,1.24184286 C46.6899243,1.20097833 46.6923748,1.15901677 46.6961641,1.11950068 C46.7721535,0.455794909 46.9603006,0.341977597 47.5448681,0 L44.8504076,0 L43.4372851,0.683178129 L44.8773862,0.683178129 L44.8773862,0.691680145 L44.8762971,0.68482368 L44.8762971,12.3981335 C44.8762971,12.7768846 44.801964,12.8344789 44.3681956,13.403017 L47.7025876,13.403017 L48.3996077,12.9866924 C48.0796759,12.9474734 47.7589273,12.9290981 47.4381788,12.8912504 L47.4381788,12.8912504 Z M55.1029035,13.0656789 C54.8978976,13.1789477 54.6920521,13.3114145 54.4870009,13.4049367 C53.8686478,13.687423 53.2328912,13.7631184 52.6706055,13.7631184 C52.0734904,13.7631184 51.1373837,13.7241737 50.1824896,13.0278312 C48.8554083,12.0849302 48.275447,10.4646333 48.275447,9.05190452 C48.275447,6.13187338 50.6323001,4.69996933 52.5589698,4.69996933 C53.2325962,4.69996933 53.9255774,4.86918687 54.4867286,5.22793996 C55.4212243,5.84856427 55.664327,6.65874697 55.7945006,7.09232694 L51.3996143,8.88298409 L49.9589685,8.99595574 C50.4259328,11.3888619 52.0345994,12.7820955 53.8123079,12.7820955 C54.7661129,12.7820955 55.4585269,12.4436604 56.0943062,12.1238749 L55.1029035,13.0656789 L55.1029035,13.0656789 Z M53.3450715,7.44996013 C53.6998554,7.31859027 53.8868907,7.20504722 53.8868907,6.94148472 C53.8868907,6.18837065 53.0455382,5.32116502 52.034554,5.32116502 C51.2854826,5.32116502 49.8835236,5.90561005 49.8835236,7.94008308 C49.8835236,8.2604171 49.9210986,8.5994007 49.9404306,8.93973278 L53.3450715,7.44996013 L53.3450715,7.44996013 Z M56.9084076,4.82887086 L56.9084076,6.07208502 L56.7584027,6.07208502 L56.7584027,4.82887086 L56.3499792,4.82887086 L56.3499792,4.69994647 L57.3165814,4.69994647 L57.3165814,4.82887086 L56.9084076,4.82887086 L56.9084076,4.82887086 Z M58.591135,6.07208502 L58.591135,4.817352 L58.5843279,4.817352 L58.2042218,6.07208502 L58.0868682,6.07208502 L57.7034946,4.817352 L57.6985709,4.817352 L57.6985709,6.07208502 L57.5624297,6.07208502 L57.5624297,4.69996933 L57.7957756,4.69996933 L58.1426634,5.80907103 L58.1475644,5.80907103 L58.4892787,4.69996933 L58.7259148,4.69996933 L58.7259148,6.07208502 L58.591135,6.07208502 L58.591135,6.07208502 Z" id="Shape"></path>
                </g>
                <path d="M50.0215495,13.8946807 L49.0065673,13.8946807 C49.0065673,13.7659294 48.9103241,13.4014517 48.7178376,12.8009754 L47.2526133,12.8009754 C47.0539518,13.3916524 46.9544611,13.7561074 46.9544611,13.8946807 L46,13.8946807 C46,13.8187138 46.2468078,13.1948281 46.7404233,12.0232959 C47.2340142,10.8517409 47.4808466,10.2063287 47.4808466,10.0876715 L48.6797537,10.0876715 C48.6797537,10.1987297 48.9032387,10.8345923 49.3505039,11.9955314 C49.7977692,13.1564704 50.0215495,13.7893387 50.0215495,13.8946807 L50.0215495,13.8946807 Z M48.5563252,12.242418 C48.1946996,11.2366111 48.0140222,10.6927753 48.0140222,10.61082 L47.9632436,10.61082 C47.9632436,10.6867869 47.7760712,11.2306227 47.4020217,12.242418 L48.5563252,12.242418 L48.5563252,12.242418 Z M54.1110006,13.8946807 L53.3277697,13.8946807 C53.3277697,13.8146535 53.0369981,13.3927413 52.4556763,12.6286719 C51.8469231,11.8235 51.5000343,11.2731088 51.4156246,10.976704 L51.364846,10.976704 C51.4176912,11.4034932 51.444286,11.7894748 51.444286,12.134649 C51.444286,12.6161732 51.4590473,13.2030396 51.4885697,13.8949756 L50.7082911,13.8949756 C50.7398555,13.2906884 50.7558223,12.6270614 50.7558223,11.9038221 C50.7558223,11.1923103 50.7398801,10.5869116 50.7082911,10.0879664 L51.650033,10.0879664 C51.650033,10.191403 51.9110115,10.6037881 52.4332638,11.3248497 C52.9891964,12.0908245 53.3086047,12.6104571 53.3909971,12.8834751 L53.4385282,12.8834751 C53.3877742,12.4487694 53.3623602,12.0589543 53.3623602,11.7138255 C53.3623602,11.1857775 53.3475744,10.6435295 53.3180765,10.0879664 L54.1110498,10.0879664 C54.0812075,10.5713961 54.0667415,11.1767721 54.0667415,11.9038221 C54.0664217,12.6362935 54.0811829,13.2999206 54.1110006,13.8946807 L54.1110006,13.8946807 Z M58.7073524,11.8594533 C58.7073524,12.4130884 58.5148906,12.8965407 58.1301883,13.3097425 C57.7452154,13.7232165 57.2061107,13.9295452 56.5126527,13.9295452 C56.1997147,13.9295452 55.7683915,13.9178178 55.2186833,13.8944085 C55.2461146,13.3056595 55.2600148,12.6417375 55.2600148,11.9032778 C55.2600148,11.1939208 55.2461392,10.5885448 55.2186833,10.0873993 L55.7737301,10.0873993 C55.8646347,10.0873993 55.9998476,10.0844051 56.1796639,10.0786889 C56.3591359,10.0729726 56.4766353,10.0699784 56.5315471,10.0699784 C57.2947273,10.0699784 57.8479782,10.2455484 58.1918902,10.596416 C58.5355317,10.9472836 58.7073524,11.3681071 58.7073524,11.8594533 L58.7073524,11.8594533 Z M57.8417292,11.985165 C57.8417292,11.6108881 57.7233442,11.2956788 57.4865741,11.0389928 C57.2498039,10.7828513 56.8881538,10.6546671 56.4019189,10.6546671 C56.3110143,10.6546671 56.186405,10.6633776 56.0275741,10.6810706 C56.048535,11.0711126 56.0591631,11.4783259 56.0591631,11.9032551 C56.0591631,12.3692639 56.0697912,12.8311897 56.0907275,13.2893047 C56.2264062,13.314508 56.3644564,13.3272729 56.5028611,13.3274129 C56.957507,13.3274129 57.294063,13.1970511 57.5128491,12.9368039 C57.7316351,12.6765793 57.8417292,12.3594419 57.8417292,11.985165 L57.8417292,11.985165 Z M62.9458919,13.8946807 L62.0070777,13.8946807 C61.7617461,13.2046501 61.5737126,12.7786549 61.4426329,12.6169672 C61.3115531,12.4550074 61.1001723,12.3741635 60.8084905,12.3741635 C60.6856771,12.3741635 60.5684483,12.3752523 60.4565828,12.3771577 C60.4565828,12.8783032 60.4660053,13.3840308 60.4852195,13.8946807 L59.6036789,13.8946807 C59.6311102,13.305909 59.6450103,12.6420098 59.6450103,11.9035272 C59.6450103,11.194193 59.6311348,10.5887943 59.6036789,10.0876715 L60.1521815,10.0876715 C60.2156548,10.0876715 60.3482353,10.0846773 60.550169,10.0789611 C60.7521025,10.0732449 60.9386845,10.0702279 61.1099148,10.0702279 C62.0803181,10.0702279 62.5656673,10.3761824 62.5656673,10.988386 C62.5656673,11.4737212 62.2887466,11.8117954 61.7349052,12.003153 L61.7349052,12.0469774 C61.9483526,12.1014177 62.135525,12.2552115 62.2961272,12.50727 C62.4564096,12.7596007 62.6731044,13.222071 62.9458919,13.8946807 L62.9458919,13.8946807 Z M61.7567273,11.2044913 C61.7567273,10.8166043 61.4860063,10.6225473 60.9448596,10.6225473 C60.7461735,10.6225473 60.5704902,10.6361574 60.4184741,10.6633776 C60.4417969,10.9655211 60.4533107,11.3593966 60.4533107,11.8447318 C60.5696538,11.8488147 60.6679636,11.8504485 60.74824,11.8504485 C61.4204664,11.8507202 61.7567273,11.6354088 61.7567273,11.2044913 L61.7567273,11.2044913 Z M67.4917357,11.9209254 C67.4917357,12.5192469 67.2930495,13.0154474 66.8954066,13.4093229 C66.4977391,13.8029488 66.0061901,14 65.4207598,14 C64.8625146,14 64.3951495,13.8192582 64.0190334,13.4575025 C63.642622,13.096019 63.4545639,12.6362935 63.4545639,12.0790745 C63.4545639,11.4807757 63.6532501,10.9845526 64.0509176,10.5906771 C64.4482899,10.1970738 64.9398389,10 65.5255399,10 C66.0838096,10 66.5508795,10.1801973 66.9272909,10.5408642 C67.3037023,10.9015538 67.4917357,11.361302 67.4917357,11.9209254 L67.4917357,11.9209254 Z M66.6167146,12.0056028 C66.6167146,11.5981172 66.5036189,11.2676647 66.2775015,11.0142452 C66.0510643,10.7608257 65.772077,10.634252 65.4402446,10.634252 C65.1314396,10.634252 64.8692802,10.7619144 64.6537663,11.0172394 C64.4382523,11.2725643 64.3299049,11.5951458 64.3299049,11.9851877 C64.3299049,12.3904956 64.4435663,12.7204038 64.6708646,12.9749348 C64.8981876,13.2294431 65.176609,13.3565611 65.5066702,13.3565611 C65.8151798,13.3565611 66.0776345,13.2283543 66.2931485,12.9719179 C66.5086624,12.7157763 66.6167146,12.3934671 66.6167146,12.0056028 L66.6167146,12.0056028 Z M69.2849546,13.8946807 L68.3874718,13.8946807 C68.4149276,13.2903935 68.4288032,12.6267664 68.4288032,11.9035272 C68.4288032,11.1919927 68.4149522,10.5866168 68.3874718,10.0876715 L69.2849546,10.0876715 C69.2574987,10.5789951 69.2436231,11.1840989 69.2436231,11.9035272 C69.2436231,12.6381989 69.2574987,13.3020982 69.2849546,13.8946807 Z M73.8816015,11.8594533 C73.8816015,12.4130884 73.6891151,12.8965407 73.3044374,13.3097425 C72.9194892,13.7232165 72.3803844,13.9295452 71.6869019,13.9295452 C71.3739638,13.9295452 70.9426407,13.9178178 70.3929078,13.8944085 C70.4203883,13.3056595 70.4342639,12.6417375 70.4342639,11.9032778 C70.4342639,11.1939208 70.4204129,10.5885448 70.3929078,10.0873993 L70.9479547,10.0873993 C71.0388838,10.0873993 71.1740967,10.0844051 71.3538885,10.0786889 C71.5334097,10.0729726 71.6508845,10.0699784 71.7058208,10.0699784 C72.4689764,10.0699784 73.0222274,10.2455484 73.3661394,10.596416 C73.7097808,10.9472836 73.8816015,11.3681071 73.8816015,11.8594533 L73.8816015,11.8594533 Z M73.016003,11.985165 C73.016003,11.6108881 72.8976179,11.2956788 72.6608232,11.0389928 C72.4240531,10.7828513 72.0624276,10.6546671 71.576168,10.6546671 C71.4852389,10.6546671 71.360654,10.6633776 71.2018232,10.6810706 C71.2227842,11.0711126 71.2333877,11.4783259 71.2333877,11.9032551 C71.2333877,12.3692639 71.2440404,12.8311897 71.2649767,13.2893047 C71.4006555,13.314507 71.5387056,13.3272718 71.6771102,13.3274129 C72.1317315,13.3274129 72.4683122,13.1970511 72.6870736,12.9368039 C72.9058842,12.6765793 73.016003,12.3594419 73.016003,11.985165 Z M79.9797608,13.8946807 L78.9647786,13.8946807 C78.9647786,13.7659294 78.8685355,13.4014517 78.6757538,12.8009754 L77.2105541,12.8009754 C77.0118679,13.3916524 76.9123526,13.7561074 76.9123526,13.8946807 L75.9582113,13.8946807 C75.9582113,13.8187138 76.2049945,13.1948281 76.6986346,12.0232959 C77.1922501,10.8517409 77.4390579,10.2063287 77.4390579,10.0876715 L78.6379651,10.0876715 C78.6379651,10.1987297 78.8617452,10.8345923 79.3087153,11.9955314 C79.7556853,13.1564704 79.9797608,13.7893387 79.9797608,13.8946807 Z M78.5145611,12.242418 C78.152911,11.2366111 77.9719137,10.6927753 77.9719137,10.61082 L77.9211351,10.61082 C77.9211351,10.6867869 77.7342579,11.2306227 77.360233,12.242418 L78.5145611,12.242418 L78.5145611,12.242418 Z M83.6789251,11.0844732 C83.6789251,11.550482 83.4911376,11.8945446 83.1159072,12.1166609 C82.7406767,12.3387773 82.2804216,12.450085 81.7348219,12.450085 C81.6353558,12.450085 81.5647971,12.4481796 81.5222848,12.4443688 C81.5222848,12.8110241 81.5337739,13.2942043 81.5571212,13.8946807 L80.6658136,13.8946807 C80.6932449,13.3314959 80.707145,12.6675739 80.707145,11.9035272 C80.707145,11.201792 80.6932941,10.596416 80.6658136,10.0876715 L81.2175884,10.0876715 C81.2958228,10.0876715 81.4457724,10.0846773 81.6678059,10.0789611 C81.8898394,10.0732449 82.0820306,10.0702279 82.24497,10.0702279 C82.6464755,10.0702279 82.9859837,10.154066 83.2629044,10.321742 C83.5398497,10.4894408 83.6789251,10.7434048 83.6789251,11.0844732 L83.6789251,11.0844732 Z M82.8608577,11.2453442 C82.8608577,10.8283089 82.5605897,10.6195531 81.9601275,10.6195531 C81.8098581,10.6195531 81.6513225,10.6342293 81.4845206,10.6633776 C81.5078434,11.0319383 81.5193571,11.4489509 81.5193571,11.9149597 C81.5721777,11.9190427 81.633609,11.9206763 81.7032821,11.9206763 C82.4749992,11.9209254 82.8608577,11.6958376 82.8608577,11.2453442 L82.8608577,11.2453442 Z M87.4825988,11.0844732 C87.4825988,11.550482 87.294836,11.8945446 86.9199007,12.1166609 C86.5446702,12.3387773 86.0841198,12.450085 85.5385694,12.450085 C85.4390541,12.450085 85.36852,12.4481796 85.325983,12.4443688 C85.325983,12.8110241 85.3375214,13.2942043 85.3608196,13.8946807 L84.4695366,13.8946807 C84.4969924,13.3314959 84.5108926,12.6675739 84.5108926,11.9035272 C84.5108926,11.201792 84.497017,10.596416 84.4695366,10.0876715 L85.0213113,10.0876715 C85.0995704,10.0876715 85.2495199,10.0846773 85.4715288,10.0789611 C85.6935377,10.0732449 85.8857289,10.0702279 86.0486929,10.0702279 C86.4501737,10.0702279 86.7897067,10.154066 87.0666273,10.321742 C87.3435234,10.4894408 87.4825988,10.7434048 87.4825988,11.0844732 L87.4825988,11.0844732 Z M86.6645314,11.2453442 C86.6645314,10.8283089 86.364288,10.6195531 85.7638258,10.6195531 C85.6135564,10.6195531 85.4549962,10.6342293 85.2882189,10.6633776 C85.3115171,11.0319383 85.3230555,11.4489509 85.3230555,11.9149597 C85.375876,11.9190427 85.4373073,11.9206763 85.5069804,11.9206763 C86.2786729,11.9209254 86.6645314,11.6958376 86.6645314,11.2453442 L86.6645314,11.2453442 Z M93.701505,11.9209254 C93.701505,12.5192469 93.5028185,13.0154474 93.1051508,13.4093229 C92.7075079,13.8031983 92.2159347,14 91.6305046,14 C91.0722593,14 90.6048941,13.8192582 90.2288028,13.4575025 C89.8526618,13.096019 89.6643329,12.6362935 89.6643329,12.0790745 C89.6643329,11.4807757 89.8630194,10.9845526 90.2606623,10.5906771 C90.65833,10.1968016 91.1499032,10 91.7353094,10 C92.2935785,10 92.760919,10.1801973 93.1370351,10.5408642 C93.5131513,10.9015538 93.701505,11.361302 93.701505,11.9209254 L93.701505,11.9209254 Z M92.8261641,12.0056028 C92.8261641,11.5981172 92.7130687,11.2676647 92.4869513,11.0142452 C92.2608338,10.7608257 91.9815267,10.634252 91.6497184,10.634252 C91.3408895,10.634252 91.07873,10.7619144 90.8632154,11.0172394 C90.6477016,11.2725643 90.5396499,11.5951458 90.5396499,11.9851877 C90.5396499,12.3904956 90.6533358,12.7204038 90.880634,12.9749348 C91.1079322,13.2294431 91.3863533,13.3565611 91.7161195,13.3565611 C92.0249245,13.3565611 92.287084,13.2283543 92.5025978,12.9719405 C92.7184072,12.7157763 92.8261641,12.3934671 92.8261641,12.0056028 L92.8261641,12.0056028 Z M98,13.8946807 L97.2167438,13.8946807 C97.2167438,13.8146535 96.9262187,13.3927413 96.3446507,12.6286719 C95.7358978,11.8235 95.3889838,11.2731088 95.3045745,10.976704 L95.253796,10.976704 C95.3066414,11.4034932 95.3332359,11.7894748 95.3332359,12.134649 C95.3332359,12.6161732 95.3479972,13.2030396 95.3775446,13.8949756 L94.5972414,13.8949756 C94.62883,13.2906884 94.6447722,12.6270614 94.6447722,11.9038221 C94.6447722,11.1923103 94.6288796,10.5869116 94.5972414,10.0879664 L95.5390073,10.0879664 C95.5390073,10.191403 95.8002816,10.6037881 96.3222387,11.3248497 C96.8784418,12.0908245 97.1975796,12.6104571 97.2799716,12.8834751 L97.3275024,12.8834751 C97.2767238,12.4487694 97.251335,12.0589543 97.251335,11.7138255 C97.251335,11.1857775 97.2365737,10.6435295 97.2070263,10.0879664 L98,10.0879664 C97.9701817,10.5713961 97.9557161,11.1767721 97.9557161,11.9038221 C97.9556913,12.6362935 97.9704526,13.2999206 98,13.8946807 L98,13.8946807 Z" id="Shape" fill="#FFFFFF" fill-rule="nonzero"></path>
            </g>
        </g>
    </g>
</svg>