<?xml version="1.0" encoding="UTF-8"?>
<svg width="24px" height="24px" viewBox="0 0 24 24" version="1.1" xmlns="http://www.w3.org/2000/svg" xmlns:xlink="http://www.w3.org/1999/xlink">
    <!-- Generator: Sketch 62 (91390) - https://sketch.com -->
    <title>004-twittericons/principa</title>
    <desc>Created with Sketch.</desc>
    <g id="Symbols" stroke="none" stroke-width="1" fill="none" fill-rule="evenodd">
        <g id="footer" transform="translate(-271.000000, -185.000000)" fill="#FFFFFF" fill-rule="nonzero">
            <g id="004-twitter" transform="translate(271.000000, 185.000000)">
                <path d="M9.13201903,23.9835993 C5.1264038,23.9835993 1.96051027,23.1365248 0.445861828,21.6600177 L0.416381812,21.6312057 L0.389648438,21.5988475 C0.0298462031,21.1631206 -0.0880737188,20.5915337 0.0664672969,20.0308068 L0.0805664062,19.9842642 C0.268066406,19.4166667 0.727478016,19.0345745 1.2253418,19.0310284 C2.25,19.0095302 3.14648438,18.8617021 3.96002198,18.5746897 C2.66235352,17.8441932 1.76092528,16.579344 1.22460937,14.7486702 C1.0442505,14.1777482 1.19989012,13.5447695 1.61553956,13.1673316 C1.71807862,13.0740249 1.83398437,13.0035461 1.95666506,12.9563387 C1.2355957,11.9488032 0.702941906,10.802305 0.404663063,9.58976062 L0.395324719,9.55208335 L0.388916016,9.51351949 C0.287658703,8.90026599 0.514160156,8.26972516 0.929260266,7.99822695 C1.10339353,7.87721634 1.29254152,7.8144947 1.48242187,7.80917555 C1.27770994,7.2754876 1.1288452,6.72761526 1.04058839,6.17641844 C0.79559325,4.64893617 0.997741687,3.11768618 1.64117433,1.62522162 L1.79003906,1.2648493 C1.90924073,0.976507121 2.13702394,0.77393617 2.39959716,0.722296113 C2.66217042,0.670877674 2.93133544,0.775930837 3.11938477,1.0035461 L3.39056395,1.33222519 C5.53289794,4.05075353 7.45184325,5.34064715 10.7695312,6.22318264 C10.9176636,4.68173759 11.4682617,3.24889186 12.3565064,2.12123228 C13.4135742,0.779476936 14.8251343,0.0265957447 16.3311768,0.000886524823 L16.3410645,0.000886524823 C17.4398804,0.000886524823 18.8029175,0.760195064 19.6272583,1.29565606 C20.3344116,1.01551421 21.1864013,0.581781901 22.0704346,0.12322695 C22.4840698,-0.111702128 22.9940185,-0.00421099574 23.3192138,0.389406014 C23.6380005,0.775265929 23.7264404,1.31937055 23.557251,1.84818264 C23.492981,2.06471631 23.420105,2.27726065 23.3389893,2.4851507 C23.460022,2.55230496 23.5708008,2.6433954 23.6643677,2.75664896 C23.9472656,3.09906916 24.0651855,3.63497339 23.9646607,4.12211881 L23.9538574,4.16843972 C23.6151123,5.48980494 22.9643555,6.56604607 22.1037598,7.24157799 C21.960022,16.5059841 16.196228,23.9835993 9.13201903,23.9835993 L9.13201903,23.9835993 Z M1.79553225,20.7112145 C3.22283934,21.6886082 5.94287109,22.2799202 9.13201903,22.2799202 C12.1981201,22.2799202 15.0915527,20.6866134 17.2791138,17.7934397 C19.4846191,14.8765514 20.6991577,11.0031029 20.6991577,6.88652482 L20.6991577,6.84020391 C20.6991577,6.4674202 20.8687134,6.12721634 21.1415405,5.95212766 C21.6950684,5.59729611 22.1433105,4.9929078 22.4348145,4.22007977 C22.1341552,4.27748227 21.8285522,4.13142729 21.6412354,3.82690604 C21.4235229,3.47296102 21.4211426,2.99490247 21.6351929,2.63785464 C21.7507324,2.44503546 21.8554687,2.24445923 21.9488526,2.03701243 C21.1854858,2.42508868 20.4605713,2.77304965 19.8312378,3.00421101 C19.6025391,3.08798757 19.3476562,3.05518616 19.1387329,2.91400709 C18.0183105,2.15846633 16.9747925,1.7067819 16.3456421,1.70456562 C14.0240479,1.74756204 12.1364136,4.15425532 12.1364136,7.0722518 C12.1364136,7.37389186 12.0258179,7.65669328 11.833374,7.84840426 C11.6407471,8.03989362 11.3902588,8.11657804 11.1456299,8.0580674 C7.32019041,7.1458333 5.05334475,5.77792556 2.69604492,2.91068261 C2.35821534,3.89051416 2.26593019,4.87743796 2.42211914,5.85195035 C2.58050536,6.83909572 3.00183103,7.8282358 3.64068605,8.71232272 C3.88348388,9.04787234 3.91571044,9.52792556 3.72088622,9.90669328 C3.52679442,10.2841312 3.15783694,10.4605497 2.80316161,10.3455231 C2.52593995,10.2555408 2.27105714,10.1374113 2.02935792,9.98559399 C2.52172852,11.2801418 3.3685913,12.4773936 4.43316652,13.3603723 C4.74169922,13.6163564 4.87060547,14.0935284 4.74682617,14.5208334 C4.62286378,14.9488032 4.27661133,15.2242908 3.90234375,15.1906028 C3.49456786,15.1540337 3.13330078,15.0602837 2.80078125,14.9022607 C3.39770508,16.3736702 4.35150145,17.183289 5.82092288,17.4926862 C6.17083739,17.5664894 6.44329833,17.9009308 6.49896239,18.3249113 C6.55480959,18.7488919 6.3814087,19.1691046 6.067749,19.3705674 C4.81530759,20.1742021 3.44641116,20.6054965 1.79553225,20.7112145 Z" id="Shape"></path>
            </g>
        </g>
    </g>
</svg>