<?xml version="1.0" encoding="UTF-8"?>
<svg width="24px" height="24px" viewBox="0 0 24 24" version="1.1" xmlns="http://www.w3.org/2000/svg" xmlns:xlink="http://www.w3.org/1999/xlink">
    <!-- Generator: Sketch 62 (91390) - https://sketch.com -->
    <title>027-whatsappicons/principa</title>
    <desc>Created with Sketch.</desc>
    <g id="Symbols" stroke="none" stroke-width="1" fill="none" fill-rule="evenodd">
        <g id="footer" transform="translate(-351.000000, -185.000000)" fill="#FFFFFF" fill-rule="nonzero">
            <g id="027-whatsapp" transform="translate(351.000000, 185.000000)">
                <path d="M20.5911255,3.4088745 C18.3927612,1.21051027 15.470581,0 12.3614502,0 C12.3612671,0 12.3605347,0 12.3603516,0 C10.8226318,0 9.32409666,0.297912609 7.90667723,0.885131813 C6.48907472,1.47235106 5.21905519,2.32141116 4.1315918,3.4088745 C1.93341066,5.60705569 0.722900391,8.52978516 0.722900391,11.6385498 C0.722900391,13.4924927 1.17022706,15.3348999 2.01782227,16.9764404 L0.0615234375,22.5651855 C-0.0763549687,22.9594116 0.0212402344,23.3878784 0.316772438,23.6832276 C0.523498547,23.8901367 0.79559325,24 1.07537841,24 C1.1953125,24 1.31652834,23.9798584 1.43481445,23.9384766 L7.02355959,21.9823608 C8.66510011,22.829956 10.5075073,23.2772827 12.3614502,23.2772827 C15.4702148,23.2772827 18.3927612,22.0665893 20.5911255,19.8684082 C22.7893066,17.6702271 23.9999973,14.7474975 23.9999973,11.6387329 C23.9999973,8.52978516 22.7894897,5.60705569 20.5911255,3.4088745 Z M19.5957642,18.8730469 C17.6634521,20.805542 15.0941162,21.8695679 12.3614502,21.8695679 C10.6896973,21.8695679 9.02893069,21.4561157 7.55859375,20.6735229 C7.29199219,20.5317993 6.97686769,20.5074463 6.69396975,20.6065064 L1.61645508,22.3835449 L3.39367678,17.3060302 C3.49273683,17.0227661 3.46820067,16.7076416 3.32647706,16.4412232 C2.54406741,14.9712525 2.13043214,13.3104858 2.13043214,11.6385498 C2.13043214,8.90588381 3.19464113,6.33654788 5.12695313,4.40423583 C7.05908203,2.47210692 9.62805178,1.40789794 12.3605347,1.40753175 L12.3614502,1.40753175 C15.0942993,1.40753175 17.6634521,2.47174073 19.5957642,4.40423583 C21.5282593,6.33654788 22.5924682,8.90570067 22.5924682,11.6385498 C22.5924682,14.3713989 21.5282593,16.9407349 19.5957642,18.8730469 Z" id="Shape"></path>
                <path d="M16.6867676,12.6782227 C16.1513672,12.1428223 15.2801513,12.1428223 14.744751,12.6782227 L14.1591797,13.263794 C12.7051392,12.4714966 11.5285034,11.2948608 10.7360229,9.84082031 L11.3215943,9.255249 C11.8571777,8.71984866 11.8571777,7.84863281 11.3215943,7.31323242 L9.7435913,5.73522947 C9.20819091,5.19982913 8.33697511,5.19982913 7.80157472,5.73522947 L6.53924559,6.99755859 C5.81616211,7.72064208 5.78009034,8.96374509 6.43762209,10.4979858 C7.00854492,11.8300781 8.05334475,13.2941895 9.37957762,14.6204224 C10.7058105,15.9466552 12.1699219,16.9914551 13.5020142,17.5623779 C14.230957,17.8747559 14.8939819,18.0305786 15.466919,18.0305786 C16.0999146,18.0305786 16.6228638,17.840332 17.0024414,17.4607544 L18.2647705,16.1982422 L18.2647705,16.1984253 C18.524231,15.9389648 18.6670532,15.5941772 18.6670532,15.227417 C18.6670532,14.8604737 18.524231,14.515686 18.2647705,14.2564087 L16.6867676,12.6782227 Z M16.0070801,16.4653931 C15.8007202,16.6717529 15.1660767,16.7440796 14.0566406,16.2687378 C12.8851318,15.7666626 11.5775757,14.8276978 10.374939,13.625061 C9.17230223,12.4224243 8.23352053,11.1150513 7.73144531,9.94354247 C7.25592042,8.83410647 7.32824709,8.1992798 7.53460692,7.99291992 L8.77276612,6.75476072 L10.302063,8.28424073 L9.5690918,9.01739503 C9.23767087,9.34881591 9.1576538,9.85144041 9.37023928,10.2681885 C10.3339233,12.1578369 11.8421631,13.6660767 13.7318115,14.6297607 C14.1487427,14.8423462 14.6513672,14.7625122 14.9827881,14.4309082 L15.7157593,13.697937 L17.2452393,15.227417 L16.0070801,16.4653931 Z" id="Shape"></path>
            </g>
        </g>
    </g>
</svg>