<?xml version="1.0" standalone="no"?>
<!DOCTYPE svg PUBLIC "-//W3C//DTD SVG 1.1//EN" "http://www.w3.org/Graphics/SVG/1.1/DTD/svg11.dtd" >
<svg xmlns="http://www.w3.org/2000/svg">
<metadata>Generated by IcoMoon</metadata>
<defs>
<font id="icomoon" horiz-adv-x="1024">
<font-face units-per-em="1024" ascent="960" descent="-64" />
<missing-glyph horiz-adv-x="1024" />
<glyph unicode="&#x20;" horiz-adv-x="512" d="" />
<glyph unicode="&#xe900;" glyph-name="back-icon" d="M968.602 396.8h-616.289c-17.596 0-31.877 17.203-31.877 38.4s14.281 38.4 31.877 38.4h616.289c17.596 0 31.877-17.203 31.877-38.4s-14.281-38.4-31.877-38.4zM522.928 217.6c-8.189 0-16.37 3.338-22.599 10.074l-170.526 183.228c-12.49 13.429-12.49 35.186 0 48.606l170.526 183.228c12.49 13.42 32.739 13.42 45.237 0 12.49-13.42 12.49-35.178 0-48.598l-147.935-158.954 147.935-158.954c12.49-13.42 12.49-35.178 0-48.598-6.268-6.693-14.457-10.032-22.638-10.032v0zM488.102-64c-260.525 0-472.513 229.703-472.513 512s211.988 512 472.513 512c195.486 0 368.084-127.44 439.777-324.706 6.528-17.915-1.636-38.165-18.169-45.281-16.541-6.989-35.229 1.722-41.797 19.73-61.901 170.36-210.997 280.439-379.811 280.439-225.005 0-408.079-198.382-408.079-442.182s183.075-442.182 408.079-442.182c168.815 0 317.911 110.079 379.811 280.388 6.528 18.017 25.216 26.719 41.797 19.739 16.533-7.074 24.697-27.366 18.169-45.29-71.693-197.215-244.291-324.654-439.777-324.654z" />
<glyph unicode="&#xe901;" glyph-name="cal-d" d="M892 880h-92v48c0 17.672-14.326 32-32 32s-32-14.328-32-32v-48h-448v48c0 17.672-14.326 32-32 32s-32-14.328-32-32v-48h-92c-72.786 0-132-59.214-132-132v-680c0-72.786 59.214-132 132-132h760c72.786 0 132 59.214 132 132v680c0 72.786-59.214 132-132 132zM132 816h92v-32c0-17.672 14.326-32 32-32s32 14.328 32 32v32h448v-32c0-17.672 14.326-32 32-32s32 14.328 32 32v32h92c37.496 0 68-30.504 68-68v-76h-896v76c0 37.496 30.504 68 68 68zM892 0h-760c-37.496 0-68 30.504-68 68v540h896v-540c0-37.496-30.504-68-68-68zM520.899 140.8c51.369 0 91.172 14.928 119.41 44.785s42.357 71.898 42.357 126.124c0 54.226-14.119 96.187-42.357 125.882s-68.041 44.543-119.41 44.543v0h-88.319c-7.21 0-12.842-2.179-16.898-6.536s-6.083-10.248-6.083-17.672v0-292.917c0-7.424 2.028-13.314 6.083-17.672s9.688-6.536 16.898-6.536v0h88.319zM518.196 182.438h-62.183v258.058h62.183c78.105 0 117.157-42.929 117.157-128.787 0-86.181-39.052-129.271-117.157-129.271v0z" />
<glyph unicode="&#xe902;" glyph-name="cal-m" d="M892 880h-92v48c0 17.672-14.326 32-32 32s-32-14.328-32-32v-48h-448v48c0 17.672-14.326 32-32 32s-32-14.328-32-32v-48h-92c-72.786 0-132-59.214-132-132v-680c0-72.786 59.214-132 132-132h760c72.786 0 132 59.214 132 132v680c0 72.786-59.214 132-132 132zM132 816h92v-32c0-17.672 14.326-32 32-32s32 14.328 32 32v32h448v-32c0-17.672 14.326-32 32-32s32 14.328 32 32v32h92c37.496 0 68-30.504 68-68v-76h-896v76c0 37.496 30.504 68 68 68zM892 0h-760c-37.496 0-68 30.504-68 68v540h896v-540c0-37.496-30.504-68-68-68zM595.386 140.8c5.933 0 10.586 2.069 13.957 6.206s5.057 9.866 5.057 17.186v0 293.117c0 7.32-1.888 13.287-5.664 17.902s-8.63 6.922-14.564 6.922c-8.091 0-14.698-5.729-19.823-17.186v0l-95.877-218.167-96.686 218.167c-5.124 11.457-11.867 17.186-20.227 17.186-5.933 0-10.788-2.307-14.564-6.922s-5.664-10.582-5.664-17.902v0-293.117c0-7.002 1.686-12.651 5.057-16.947s7.889-6.445 13.552-6.445c5.933 0 10.518 2.069 13.754 6.206s4.855 9.866 4.855 17.186v0 220.076l79.695-176.157c5.124-11.139 11.732-16.709 19.823-16.709s14.698 5.57 19.823 16.709v0l79.29 178.066v-221.986c0-7.32 1.618-13.049 4.855-17.186s7.686-6.206 13.35-6.206z" />
<glyph unicode="&#xe903;" glyph-name="car-left" d="M941.221 17.437h38.043v-38.804h-38.043zM9.159 17.437h38.043v-38.804h-38.043zM779.536 133.85c-26.218 0-47.554-21.763-47.554-48.505s21.336-48.505 47.554-48.505v32.337c-8.734 0-15.851 7.26-15.851 16.168s7.117 16.168 15.851 16.168c8.734 0 15.851-7.26 15.851-16.168h31.703c0 26.743-21.336 48.505-47.554 48.505zM500.689 823.564h478.575v46.941c0 43.138-35.096 78.234-78.234 78.234h-688.462c-43.138 0-78.234-35.096-78.234-78.234v-548.892c-52.996-7.636-93.881-53.215-93.881-108.276v-81.113c-18.166-6.478-31.294-23.689-31.294-44.062 0-25.88 21.061-46.941 46.941-46.941h78.234v-31.294h-62.587v-31.294h844.93v31.294h-64.309c9.185 8.981 16.711 19.574 22.297 31.294h73.306c17.258 0 31.294 14.035 31.294 31.294v31.294c0 17.258-14.035 31.294-31.294 31.294v177.607l-62.838 78.547c-44.781 55.969-111.578 88.076-183.272 88.076h-262.742c-70.599 0-135.658-31.137-179.61-83.632v186.683l241.181 241.181zM259.508 626.632v65.279l131.653 131.653h65.279l-196.931-196.931zM259.508 736.16v87.403h87.403l-87.403-87.403zM212.568 917.445h688.462c25.88 0 46.941-21.061 46.941-46.941v-15.647h-782.343v15.647c0 25.88 21.061 46.941 46.941 46.941zM134.333 197.689h-62.587v15.647c0 5.351 0.548 10.593 1.58 15.647h61.007v-31.294zM134.333 289.99v-29.713h-46.534c11.281 14.911 27.554 25.849 46.534 29.713zM56.099 72.514c-8.621 0-15.647 7.025-15.647 15.647s7.025 15.647 15.647 15.647h46.941v31.294h-31.294v31.294h62.587v-93.881h-78.234zM165.627 823.564h62.587v-813.637h-62.587v813.637zM775.855 197.689c-43.577 0-81.192-25.645-98.81-62.587h-135.893v156.469h250.35v-31.294h-62.587v-31.294h62.587v-32.545c-5.132 0.735-10.327 1.252-15.647 1.252zM667.578 72.514h-315.441c0.735 5.132 1.252 10.327 1.252 15.647s-0.516 10.515-1.252 15.647h315.441c-0.735-5.132-1.252-10.327-1.252-15.647s0.516-10.515 1.252-15.647zM509.858 291.57v-31.294h-62.587v-31.294h62.587v-93.881h-167.187c-5.242 10.968-12.173 20.967-20.576 29.573v126.896h187.762zM541.152 322.864v62.587h129.932c40.76 0 78.61-20.247 101.22-54.169l5.617-8.418h-236.768zM509.858 322.864h-179.438c21.155 38.147 61.477 62.587 106.289 62.587h73.149v-62.587zM322.096 88.161c0-37.772-26.928-69.378-62.587-76.654v153.308c35.659-7.276 62.587-38.882 62.587-76.654zM320.375 9.927c9.185 8.981 16.711 19.574 22.297 31.294h334.373c5.586-11.719 13.128-22.312 22.297-31.294h-378.967zM775.855 9.927c-43.138 0-78.234 35.096-78.234 78.234s35.096 78.234 78.234 78.234c43.138 0 78.234-35.096 78.234-78.234s-35.096-78.234-78.234-78.234zM947.97 72.514h-63.839c0.735 5.132 1.252 10.327 1.252 15.647s-0.516 10.515-1.252 15.647h63.839v-31.294zM916.676 200.568c-18.166 6.478-31.294 23.689-31.294 44.062s13.128 37.584 31.294 44.062v-88.123zM439.119 448.039h262.758c62.134 0 120.011-27.82 158.831-76.341l43.436-54.295c-29.213-11.36-50.054-39.602-50.054-72.774 0-37.772 26.928-69.378 62.587-76.654v-32.874h-42.012c-10.828 22.688-29.181 41.042-51.869 51.869v124.987l-24.456 36.692c-28.43 42.638-75.997 68.095-127.256 68.095h-234.374c-65.936 0-124.252-42.027-145.093-104.584l-0.814-2.41v-122.781c-9.732 4.647-20.247 7.87-31.294 9.466v143.482c35.362 66.749 103.801 108.12 179.61 108.12z" />
<glyph unicode="&#xe904;" glyph-name="clock" d="M512 960c-282.312 0-512-229.688-512-512s229.688-512 512-512c282.312 0 512 229.688 512 512s-229.688 512-512 512zM512 0c-247.032 0-448 200.969-448 448s200.968 448 448 448c247.031 0 448-200.968 448-448s-200.969-448-448-448zM532.954 777.542h-63.776v-331.913l200.669-200.567 45.091 45.069-181.984 181.892z" />
<glyph unicode="&#xe905;" glyph-name="cover" d="M916.95 349.702l-19.122 19.639-67.115 175.482c-11.436 29.641-40.681 49.281-73.301 49.462h-479.363c-32.62 0-61.865-19.821-73.301-49.462l-66.177-173.3-27.558-24.731c-23.996-19.821-37.869-48.917-37.869-79.467v-255.677c0.187-41.825 35.245-75.648 78.363-75.648h49.492c43.118 0 78.175 33.824 78.363 75.648v37.097h464.928v-37.097c0.187-41.825 35.245-75.648 78.363-75.648h49.492c43.118 0 78.175 33.824 78.363 75.648v262.405c-0.187 28.55-12.186 55.827-33.557 75.648zM239.992 532.458c5.999 15.457 21.184 25.459 38.057 25.459h479.551c16.872 0 32.058-10.183 38.057-25.459l58.491-152.751h-43.681c-10.311 68.193-75.738 115.291-146.040 105.107-56.054-8.001-100.11-50.735-108.358-105.107h-374.567l58.491 152.751zM772.222 379.706h-178.285c10.311 47.826 58.678 78.376 107.983 68.374 35.245-7.274 62.803-34.005 70.302-68.374zM241.867 11.648c-0.187-21.822-18.372-39.279-40.869-39.279h-49.492c-22.497 0-40.681 17.457-40.869 39.279v47.644c11.248-7.092 26.058-10.547 40.869-10.547h90.361v-37.097zM913.013 11.648c-0.187-21.822-18.372-39.279-40.869-39.279h-49.492c-22.497 0-40.681 17.639-40.869 39.279v37.097h90.361c14.81 0 29.62 3.455 40.869 10.547v-47.644zM872.144 85.113h-720.639c-22.309-0.18-40.681 17.095-40.869 38.917v143.295c0 20.003 9.186 39.097 24.934 52.008 0.187 0.182 0.562 0.546 0.75 0.727l25.496 23.276h709.953l17.997-18.73c0.187-0.364 0.75-0.546 0.937-0.909 14.060-12.911 22.122-30.914 22.122-49.644v-150.024h0.187c-0.187-21.64-18.56-39.097-40.869-38.917zM320.605 270.598h-140.603c-10.311 0-18.747-8.183-18.747-18.185v-94.56c0-10.002 8.436-18.185 18.747-18.185h140.603c10.311 0 18.747 8.183 18.747 18.185v94.56c0 10.002-8.436 18.185-18.747 18.185zM301.857 176.038h-103.109v58.191h103.109v-58.191zM843.649 270.598h-140.603c-10.311 0-18.747-8.183-18.747-18.185v-94.56c0-10.002 8.436-18.185 18.747-18.185h140.603c10.311 0 18.747 8.183 18.747 18.185v94.56c0 10.002-8.436 18.185-18.747 18.185zM824.902 176.038h-103.109v58.191h103.109v-58.191zM602.374 194.223h-181.097c-10.311 0-18.747-8.183-18.747-18.185s8.436-18.185 18.747-18.185h181.097c10.311 0 18.747 8.183 18.747 18.185s-8.436 18.185-18.747 18.185zM602.374 250.595h-181.097c-10.311 0-18.747-8.183-18.747-18.185s8.436-18.185 18.747-18.185h181.097c10.311 0 18.747 8.183 18.747 18.185s-8.436 18.185-18.747 18.185z" />
<glyph unicode="&#xe906;" d="M745.18 925.847c145.732 0 262.18-119.82 277.128-284.97 1.162-7.295 6.007-45.686-8.724-108.275-21.23-90.325-70.267-172.445-141.774-237.505v0l-362.873-324.963-356.749 324.983c-71.507 65.040-120.544 147.18-141.774 237.485-14.731 62.608-9.886 101-8.705 108.295 14.928 165.15 131.395 284.97 277.108 284.97 95.533 0 180.787-51.38 230.356-136.525 50.022 84.058 138.918 136.505 236.008 136.505z" />
<glyph unicode="&#xe907;" d="M1022.307 640.876c-14.947 165.15-131.395 284.97-277.128 284.97-97.089 0-185.986-52.447-236.008-136.505-49.569 85.145-134.822 136.525-230.356 136.525-145.713 0-262.18-119.82-277.108-284.97-1.182-7.295-6.026-45.686 8.705-108.295 21.23-90.305 70.267-172.445 141.774-237.485l356.749-324.983 362.873 324.963c71.507 65.060 120.544 147.18 141.774 237.505 14.731 62.589 9.886 100.98 8.724 108.275zM975.24 541.656c-19.378-82.476-64.299-157.618-129.781-217.163l-336.287-301.181-330.517 301.102c-65.599 59.663-110.501 134.785-129.899 217.262-13.943 59.248-8.212 92.717-8.193 92.934l0.295 1.997c12.801 144.689 112.864 249.722 237.957 249.722 92.304 0 173.559-56.935 212.119-148.564l18.138-43.156 18.138 43.156c37.949 90.226 123.498 148.544 217.988 148.544 125.074 0 225.156-105.033 238.213-251.6 0.039-0.316 5.77-33.805-8.173-93.053z" />
<glyph unicode="&#xe908;" d="M316.509 857.6c-136.881 0-248.242-111.362-248.242-248.242 0-13.728 11.096-24.824 24.824-24.824s24.824 11.096 24.824 24.824c0 109.5 89.094 198.594 198.594 198.594 13.728 0 24.824 11.096 24.824 24.824s-11.121 24.824-24.824 24.824z" />
<glyph unicode="&#xe909;" glyph-name="hearth-icon" d="M1022.307 638.757c-14.947 163.336-131.395 281.839-277.128 281.839-97.089 0-185.986-51.871-236.008-135.005-49.569 84.21-134.822 135.025-230.356 135.025-145.713 0-262.18-118.503-277.108-281.839-1.182-7.215-6.026-45.184 8.705-107.105 21.23-89.313 70.267-170.55 141.774-234.876l356.749-321.412 362.873 321.392c71.507 64.345 120.544 145.563 141.774 234.895 14.731 61.901 9.886 99.87 8.724 107.085zM975.24 540.627c-19.378-81.57-64.299-155.886-129.781-214.776l-336.287-297.871-330.517 297.793c-65.599 59.007-110.501 133.304-129.899 214.874-13.943 58.597-8.212 91.698-8.193 91.913l0.295 1.975c12.801 143.099 112.864 246.978 237.957 246.978 92.304 0 173.559-56.309 212.119-146.932l18.138-42.682 18.138 42.682c37.949 89.234 123.498 146.912 217.988 146.912 125.074 0 225.156-103.879 238.213-248.835 0.039-0.313 5.77-33.434-8.173-92.030zM316.509 853.099c-136.881 0-248.242-110.138-248.242-245.514 0-13.577 11.096-24.551 24.824-24.551s24.824 10.974 24.824 24.551c0 108.296 89.094 196.412 198.594 196.412 13.728 0 24.824 10.974 24.824 24.551s-11.121 24.551-24.824 24.551z" />
<glyph unicode="&#xe90a;" glyph-name="key" d="M819.2 678.4c0-42.415-34.385-76.8-76.8-76.8s-76.8 34.385-76.8 76.8c0 42.415 34.385 76.8 76.8 76.8s76.8-34.385 76.8-76.8zM1012.952 628.175c-21.36 54.402-60.528 132.896-125.829 197.905-65.070 64.785-142.711 102.842-196.387 123.364-58.928 22.528-125.889 8.328-170.589-36.173l-157.075-156.38c-46.562-46.354-59.982-117.68-33.396-177.485 8.244-18.549 17.21-36.691 26.79-54.22l-344.749-344.836c-7.502-7.504-11.716-17.681-11.716-28.293v-176.045c0-22.098 17.908-40.010 40-40.010h175.999c22.092 0 40 17.913 40 40.010v72.018l72 0.002c22.092 0 40 17.913 40 40.010v72.016h72c22.092 0 40 17.913 40 40.010s-17.908 40.010-40 40.010h-112c-22.092 0-40-17.913-40-40.010v-72.016l-72-0.002c-22.092 0-40-17.913-40-40.010v-72.018h-96v119.463l354.708 354.799c13.032 13.035 15.474 33.287 5.916 49.047-13.862 22.854-26.596 47.276-37.846 72.589-13.198 29.69-6.474 65.157 16.732 88.261l157.073 156.378c22.426 22.324 56.022 29.444 85.596 18.141 46.444-17.757 113.38-50.441 168.511-105.331 55.47-55.222 89.24-123.166 107.8-170.438 11.582-29.504 4.544-63.022-17.93-85.396l-158.971-158.268c-23.15-23.044-57.702-29.782-88.032-17.164-25.014 10.407-49.24 22.77-72 36.743-18.826 11.559-43.458 5.661-55.014-13.171s-5.662-43.471 13.166-55.030c26.304-16.148 54.272-30.422 83.124-42.425 60.284-25.084 129.049-11.603 175.189 34.331l158.971 158.266c45.090 44.889 59.204 112.153 35.958 171.362z" />
<glyph unicode="&#xe90b;" glyph-name="list-icon" d="M221.867 587.020c-75.453 0-136.533-60.676-136.533-135.629s61.081-135.629 136.533-135.629c75.453 0 136.533 60.676 136.533 135.629-0.24 74.715-61.32 135.391-136.533 135.629zM221.867 363.351c-48.865 0-88.627 39.261-88.627 88.040 0 48.541 39.523 88.040 88.627 88.040 48.865 0 88.627-39.261 88.627-88.040-0.24-48.541-39.762-87.802-88.627-88.040zM914.537 546.331h-491.047c-13.272 0-24.13-10.681-24.13-23.735s10.859-23.735 24.13-23.735h491.047c13.272 0 24.13 10.681 24.13 23.735s-10.859 23.735-24.13 23.735zM689.156 397.139h-265.566c-13.327 0-24.23-10.681-24.23-23.735s10.661-23.735 24.23-23.735h265.566c13.327 0 24.23 10.681 24.23 23.735s-10.904 23.735-24.23 23.735zM221.867 960c-75.453 0-136.533-60.676-136.533-135.629s61.081-135.629 136.533-135.629c75.453 0 136.533 60.676 136.533 135.629-0.24 74.953-61.32 135.629-136.533 135.629zM221.867 736.569c-48.865 0-88.627 39.261-88.627 88.040s39.523 88.040 88.627 88.040c48.865 0 88.627-39.261 88.627-88.040-0.24-48.779-39.762-88.040-88.627-88.040zM914.537 926.093h-491.047c-13.272 0-24.13-10.681-24.13-23.735s10.859-23.735 24.13-23.735h491.047c13.272 0 24.13 10.681 24.13 23.735s-10.859 23.735-24.13 23.735zM689.156 770.119h-265.566c-13.327 0-24.23-10.681-24.23-23.735s10.661-23.735 24.23-23.735h265.566c13.327 0 24.23 10.681 24.23 23.735s-10.904 23.735-24.23 23.735zM221.867 207.258c-75.453 0-136.533-60.676-136.533-135.629s61.081-135.629 136.533-135.629c75.453 0 136.533 60.676 136.533 135.629-0.24 74.953-61.32 135.629-136.533 135.629zM221.867-16.173c-48.865 0-88.627 39.261-88.627 88.040 0 48.541 39.523 88.040 88.627 88.040 48.865 0 88.627-39.261 88.627-88.040-0.24-48.779-39.762-88.040-88.627-88.040zM914.537 173.351h-491.047c-13.272 0-24.13-10.681-24.13-23.735s10.859-23.735 24.13-23.735h491.047c13.272 0 24.13 10.681 24.13 23.735s-10.859 23.735-24.13 23.735zM689.156 24.159h-265.566c-13.327 0-24.23-10.681-24.23-23.735s10.904-23.735 24.23-23.735h265.566c13.327 0 24.23 10.681 24.23 23.735s-10.904 23.735-24.23 23.735z" />
<glyph unicode="&#xe90c;" glyph-name="mas-icon" d="M509.538 723.692c21.752 0 39.385-17.633 39.385-39.385v-472.615c0-21.752-17.633-39.385-39.385-39.385s-39.385 17.633-39.385 39.385v472.615c0 21.752 17.633 39.385 39.385 39.385zM242.872 448c0 21.752 17.633 39.385 39.385 39.385h451.556c21.752 0 39.385-17.633 39.385-39.385s-17.633-39.385-39.385-39.385h-451.556c-21.752 0-39.385 17.633-39.385 39.385z" />
<glyph unicode="&#xe90d;" glyph-name="parking-icon-p" d="M506.921 960c-208.173 0-377.541-185.276-377.541-413.014 0-223.18 350.997-590.456 365.936-606.004 3.201-3.31 7.404-4.984 11.605-4.984 4.203 0 8.404 1.672 11.605 5 14.937 15.53 365.936 382.806 365.936 605.986 0 227.74-169.368 413.016-377.541 413.016zM506.921-22.494c-61.375 66.184-344.711 382.004-344.711 569.48 0 208.914 154.645 378.88 344.711 378.88s344.711-169.966 344.711-378.88c0-187.392-283.352-503.278-344.711-569.48zM506.921 874.666c-162.916 0-295.467-137.814-295.467-307.2s132.55-307.2 295.467-307.2c162.916 0 295.467 137.814 295.467 307.2s-132.55 307.2-295.467 307.2zM506.921 294.4c-144.829 0-262.636 122.504-262.636 273.066s117.808 273.068 262.636 273.068c144.829 0 262.636-122.504 262.636-273.066s-117.808-273.068-262.636-273.068zM539.751 686.934h-65.659c-9.060 0-16.414-7.646-16.414-17.066v-68.268c0-9.42 7.354-17.066 16.414-17.066h65.659c27.15 0 49.244 22.972 49.244 51.2s-22.095 51.2-49.244 51.2zM539.751 618.666h-49.244v34.134h49.244c9.060 0 16.414-7.662 16.414-17.066s-7.354-17.068-16.414-17.068zM539.751 755.2h-131.319c-9.060 0-16.414-7.646-16.414-17.066v-341.334c0-9.42 7.354-17.066 16.414-17.066h65.659c9.060 0 16.414 7.646 16.414 17.066v119.466h49.244c63.362 0 114.903 53.59 114.903 119.466s-51.541 119.468-114.901 119.468zM539.751 550.4h-65.659c-9.060 0-16.414-7.646-16.414-17.066v-119.466h-32.83v307.2h114.903c45.255 0 82.075-38.28 82.075-85.334s-36.82-85.334-82.075-85.334z" />
<glyph unicode="&#xe90e;" glyph-name="pay-icon" d="M912.779 783.636l-304.92 169.28c-28.925 16.063-68.697 3.707-84.365-25.948l-178.372-339.796h-216.939c-27.72 0-49.414-22.241-49.414-50.66v-549.851c0-28.419 21.694-50.66 49.414-50.66h692.999c27.72 0 49.414 22.241 49.414 50.66v128.505h20.489c10.847 0 19.283 8.649 19.283 19.77v147.039c0 11.121-8.437 19.77-19.283 19.77h-20.489v144.568c0 23.477-16.873 44.482-38.567 49.425l106.059 201.406c15.668 30.891 4.821 69.195-25.31 86.493zM695.84 859.009l-190.424-362.037h-54.235l203.682 384.278 40.977-22.241zM558.445 908.434c6.026 11.121 20.489 16.063 31.336 9.885l30.13-17.299-212.118-404.048h-66.287l216.939 411.462zM116.131 537.747c0 3.707 4.821 9.885 10.847 9.885h196.45l-26.515-49.425h-169.935c-3.616 0-7.231 0-10.847-1.236v40.775zM830.824-13.34c0-6.178-4.821-11.121-10.847-11.121h-692.999c-6.026 0-10.847 4.942-10.847 11.121v459.651c0 6.178 4.821 11.121 10.847 11.121h691.794c6.026 0 10.847-4.942 10.847-11.121v-144.568h-73.518c-32.541 0-57.85-27.184-57.85-59.31v-67.959c0-33.362 26.515-59.31 57.85-59.31h74.723v-128.505zM869.391 262.204h1.205v-107.499h-114.496c-10.847 0-19.283 8.649-19.283 19.77v67.959c0 11.121 8.437 19.77 19.283 19.77h113.29zM903.137 716.913l-115.701-219.941h-238.633l180.782 342.267 163.909-91.436c12.052-4.942 15.668-19.77 9.642-30.891zM832.489 710.616l-12.185 5.837c-30.462 16.051-71.586 4.378-88.34-24.807l-15.231-27.725c-7.615-14.592-10.662-32.103-4.569-48.154 4.569-16.051 16.754-29.184 31.985-36.48l12.185-5.837c9.139-4.378 19.8-7.296 30.462-7.296 24.37 0 45.693 13.133 57.878 32.103l15.231 27.725c15.231 30.643 3.046 68.583-27.416 84.634zM815.735 647.87l-15.231-27.725c-4.569-7.296-15.231-10.214-22.846-5.837l-12.185 7.296c-3.046 1.459-6.092 5.837-7.615 8.755-1.523 4.378-1.523 8.755 1.523 11.674l15.231 27.725c3.046 4.378 9.139 8.755 15.231 8.755 3.046 0 4.569 0 7.615-1.459l12.185-5.837c6.092-5.837 9.139-14.592 6.092-23.347z" />
<glyph unicode="&#xe90f;" glyph-name="peni-icon" d="M993.877 656.46l-98.488-98.526c-10.041-10.045-26.278-10.045-36.319 0l-237.14 237.232c-10.041 10.045-10.041 26.288 0 36.333l98.488 98.526c39.951 39.966 104.897 39.966 145.061 0l128.397-128.447c40.164-39.966 40.164-104.938 0-145.118zM559.876 748.255l-517.367-517.394-41.768-239.388c-5.713-32.312 22.46-60.29 54.771-54.774l239.376 41.967 517.367 517.394c9.26 9.26 9.26 24.234 0 33.495l-218.689 218.7c-9.457 9.26-24.43 9.26-33.69 0zM280.801 285.067c-10.312 10.312-10.312 26.812 0 37.124l288.741 288.741c10.312 10.312 26.812 10.312 37.124 0s10.312-26.812 0-37.124l-288.741-288.741c-10.312-10.312-26.812-10.312-37.124 0v0zM170.238 106.238h102.828v-77.764l-138.176-24.208-66.624 66.624 24.208 138.176h77.764v-102.828z" />
<glyph unicode="&#xe910;" glyph-name="reservas-icon" d="M809.634 804.438l-119.623-128.17-33.667 36.074c-18.907 20.256-49.67 20.254-68.574 0-9.158-9.814-14.202-22.86-14.202-36.736 0-13.878 5.044-26.922 14.202-36.734l42.879-45.938c0.211-0.26 0.431-0.514 0.661-0.76l26.245-28.118c8.661-9.282 20.181-14.396 32.433-14.396s23.772 5.114 32.435 14.394l155.786 166.914c18.906 20.256 18.906 53.216 0 73.472-18.909 20.252-49.672 20.248-68.576-0.002v0zM858.42 783.236c7.997-8.566 7.997-22.504 0-31.070l-155.786-166.914c-3.377-3.62-7.87-5.616-12.649-5.616-4.777 0-9.268 1.994-12.649 5.616l-25.557 27.38c-0.211 0.262-0.433 0.516-0.665 0.766l-43.564 46.674c-3.873 4.15-6.007 9.666-6.007 15.534 0 5.87 2.134 11.386 6.009 15.536 7.997 8.568 21.009 8.566 28.999 0l36.68-39.3c4.48-4.804 10.437-7.446 16.774-7.446 6.334 0 12.29 2.642 16.772 7.442l122.638 131.398c8.001 8.57 21.013 8.566 29.004 0zM732.987 959.884c-141.645 0-256.879-123.466-256.879-275.228 0-23.238 2.748-45.794 7.834-67.364h-118.608c-14.308 0-27.535-8.938-33.703-22.774l-29.605-66.438h-51.649c-30.417 0-57.902-18.034-71.729-47.064l-37.634-79.020h-73.577c-18.277 0-33.146-15.93-33.146-35.512v-28.55c0-17.866 12.389-32.652 28.439-35.114-17.896-17.548-28.597-42.628-28.597-69.488v-249.972c0-26.050 19.779-47.244 44.094-47.244h65.216c24.313 0 44.094 21.192 44.094 47.244v1.534c2.759-0.406 5.548-0.634 8.359-0.634h496.319c2.809 0 5.6 0.228 8.359 0.634v-1.534c0-26.050 19.779-47.244 44.094-47.244h65.216c24.313 0 44.094 21.192 44.094 47.244v249.972c0 26.86-10.702 51.942-28.599 69.486 16.050 2.462 28.441 17.248 28.441 35.114v28.55c0 19.582-14.87 35.512-33.146 35.512h-73.575l-3.653 7.668c103.731 4.542 195.823 76.356 231.269 181.634l0.556 1.666c2.598 7.796-1.193 16.374-8.471 19.158-7.274 2.776-15.282-1.276-17.881-9.076l-0.539-1.622c-32.627-96.908-119.185-162.018-215.385-162.018-1.249 0-2.492 0.030-3.735 0.050l-19.792 41.558c-13.826 29.028-41.309 47.064-71.729 47.064h-54.837l-29.607 66.44c-6.166 13.832-19.393 22.772-33.701 22.772h-6.698c-5.719 21.414-8.799 44.010-8.799 67.364 0 135.23 102.683 245.248 228.898 245.248s228.891-110.014 228.891-245.244c0-6.002-0.203-12.066-0.607-18.020-0.558-8.258 5.238-15.436 12.943-16.034 7.75-0.626 14.407 5.612 14.965 13.868 0.452 6.674 0.679 13.466 0.679 20.188 0 151.76-115.235 275.226-256.879 275.226zM62.273 337.932v28.55c0 3.050 2.317 5.534 5.167 5.534h59.297l-18.87-39.62h-40.428c-2.849 0-5.165 2.482-5.165 5.536v0zM159.555-16.64c0-9.52-7.228-17.264-16.113-17.264h-65.214c-8.885 0-16.113 7.744-16.113 17.264v124.48l88.465-102.368c2.738-3.168 5.755-6.006 8.975-8.514v-13.598zM825.992-16.64c0-9.52-7.23-17.264-16.113-17.264h-65.216c-8.885 0-16.113 7.744-16.113 17.264v13.598c3.222 2.508 6.237 5.346 8.975 8.514l88.467 102.368v-124.48zM825.992 233.332v-61.502c0-12.808-4.474-25.040-12.596-34.438l-96.398-111.552c-6.373-7.372-15.406-11.602-24.784-11.602h-496.319c-9.378 0-18.413 4.23-24.784 11.602l-96.402 111.55c-8.122 9.398-12.594 21.63-12.594 34.438v61.502c0 25.334 13.961 48.352 35.567 58.64l21.937 10.446h648.868l21.937-10.446c21.607-10.286 35.567-33.304 35.567-58.638v0zM820.668 372.016c2.849 0 5.167-2.482 5.167-5.534v-28.55c0-3.052-2.317-5.536-5.167-5.536h-40.428l-18.868 39.62h59.297zM637.731 498.1c19.848 0 37.783-11.768 46.805-30.712l64.288-134.992h-609.543l64.29 134.992c9.022 18.944 26.955 30.712 46.805 30.712h387.356zM519.586 587.312c3.586 0 6.905-2.242 8.45-5.71l23.85-53.522h-218.855l23.849 53.52c1.547 3.47 4.866 5.712 8.452 5.712h154.254zM574.259 144.278h-162.43c-7.728 0-13.991-6.71-13.991-14.99s6.263-14.99 13.991-14.99h158.142l-14.577-45.552h-222.684l-14.577 45.552h29.107c7.728 0 13.991 6.71 13.991 14.99s-6.263 14.99-13.991 14.99h-33.393c-8.030 0-15.611-4.178-20.278-11.18-4.667-7-5.899-16.040-3.295-24.178l16.675-52.108c3.451-10.792 12.925-18.042 23.572-18.042h227.061c10.647 0 20.121 7.25 23.572 18.040l16.677 52.11c2.604 8.14 1.372 17.178-3.297 24.178-4.667 7.002-12.247 11.18-20.278 11.18v0zM188.034 262.812c-35.502 0-64.385-30.946-64.385-68.984s28.883-68.986 64.385-68.986c35.502 0 64.387 30.948 64.387 68.986 0 38.040-28.885 68.984-64.387 68.984zM188.034 154.822c-20.074 0-36.404 17.498-36.404 39.006 0 21.506 16.331 39.004 36.404 39.004 20.074 0 36.406-17.498 36.406-39.004 0-21.508-16.331-39.006-36.406-39.006zM700.072 262.812c-35.502 0-64.387-30.946-64.387-68.984s28.885-68.986 64.387-68.986c35.502 0 64.385 30.948 64.385 68.986 0.002 38.040-28.881 68.984-64.385 68.984zM700.072 154.822c-20.074 0-36.406 17.498-36.406 39.006 0 21.506 16.331 39.004 36.406 39.004 20.072 0 36.404-17.498 36.404-39.004 0.002-21.508-16.33-39.006-36.404-39.006zM309.698 167.704c-7.734 0-14 6.714-14 15v36.196c0 8.286 6.266 15 14 15s14-6.714 14-15v-36.196c0-8.286-6.266-15-14-15zM363.439 167.704c-7.734 0-14 6.714-14 15v36.196c0 8.286 6.266 15 14 15s14-6.714 14-15v-36.196c0-8.286-6.266-15-14-15zM417.183 167.704c-7.734 0-14 6.714-14 15v36.196c0 8.286 6.266 15 14 15s14-6.714 14-15v-36.196c0-8.286-6.266-15-14-15zM470.924 167.704c-7.734 0-14 6.714-14 15v36.196c0 8.286 6.266 15 14 15s14-6.714 14-15v-36.196c0-8.286-6.266-15-14-15zM524.667 167.704c-7.734 0-14 6.714-14 15v36.196c0 8.286 6.266 15 14 15s14-6.714 14-15v-36.196c0-8.286-6.266-15-14-15zM578.409 167.704c-7.734 0-14 6.714-14 15v36.196c0 8.286 6.266 15 14 15s14-6.714 14-15v-36.196c0-8.286-6.266-15-14-15z" />
<glyph unicode="&#xe911;" glyph-name="sad-icon" d="M508.034 960c-271.53 0-492.444-229.688-492.444-512s220.915-512 492.444-512c271.551 0 492.444 229.688 492.444 512s-220.893 512-492.444 512zM508.034-19.478c-247.935 0-449.623 209.697-449.623 467.478s201.688 467.478 449.623 467.478c247.914 0 449.623-209.697 449.623-467.478s-201.71-467.478-449.623-467.478zM400.981 537.043c0 36.819-28.819 66.783-64.232 66.783s-64.232-29.963-64.232-66.783c0-36.819 28.819-66.783 64.232-66.783s64.232 29.963 64.232 66.783zM315.339 537.043c0 12.266 9.613 22.261 21.411 22.261s21.411-9.995 21.411-22.261c0-12.266-9.613-22.261-21.411-22.261s-21.411 9.995-21.411 22.261zM679.319 603.826c-35.413 0-64.232-29.963-64.232-66.783s28.819-66.783 64.232-66.783c35.413 0 64.232 29.963 64.232 66.783s-28.819 66.783-64.232 66.783zM679.319 514.783c-11.819 0-21.411 9.995-21.411 22.261s9.592 22.261 21.411 22.261c11.819 0 21.411-9.995 21.411-22.261s-9.592-22.261-21.411-22.261zM508.034 336.696c-79.819 0-155.869-35.15-208.647-96.456-7.879-9.171-7.13-23.24 1.67-31.432 8.821-8.214 22.353-7.413 30.232 1.736 44.663 51.89 109.087 81.631 176.745 81.631s132.082-29.741 176.745-81.631c4.218-4.92 10.084-7.413 15.951-7.413 5.074 0 10.213 1.87 14.281 5.677 8.8 8.192 9.549 22.261 1.67 31.432-52.777 61.284-128.806 96.456-208.647 96.456z" />
<glyph unicode="&#xe912;" glyph-name="starfill" d="M512 154.453l301.349-181.882-79.97 342.796 266.24 230.644-350.598 29.745-137.021 323.291-137.021-323.291-350.598-29.745 266.24-230.644-79.97-342.796z" />
<glyph unicode="&#xe913;" glyph-name="trash-icon" d="M438.857 584v-432c0-13.254-12.281-24-27.429-24h-54.857c-15.147 0-27.429 10.746-27.429 24v432c0 13.254 12.281 24 27.429 24h54.857c15.147 0 27.429-10.746 27.429-24zM667.429 608h-54.857c-15.147 0-27.429-10.746-27.429-24v-432c0-13.254 12.281-24 27.429-24h54.857c15.147 0 27.429 10.746 27.429 24v432c0 13.254-12.281 24-27.429 24zM969.143 800c30.297 0 54.857-21.49 54.857-48v-24c0-13.254-12.281-24-27.429-24h-45.714v-672c0-53.020-49.12-96-109.714-96h-658.286c-60.594 0-109.714 42.98-109.714 96v672h-45.714c-15.147 0-27.429 10.746-27.429 24v24c0 26.51 24.56 48 54.857 48h170.082l77.755 113.392c19.828 28.916 55.541 46.608 94.080 46.608h230.453c38.539 0 74.252-17.692 94.080-46.608l77.753-113.392h170.082zM352.889 800h318.224l-39.89 58.174c-2.479 3.614-6.943 5.826-11.76 5.826h-214.921c-4.817 0-9.281-2.212-11.76-5.826l-39.893-58.174zM841.143 704h-658.286v-660c0-6.627 6.14-12 13.714-12h630.857c7.574 0 13.714 5.373 13.714 12v660z" />
<glyph unicode="&#xe914;" glyph-name="wheelchair" d="M300.536 447.082c-99.429 0-180.321-76.134-180.321-169.714s80.892-169.714 180.321-169.714c99.429 0 180.321 76.134 180.321 169.714s-80.892 169.714-180.321 169.714zM300.536 164.225c-66.286 0-120.214 50.756-120.214 113.143s53.928 113.143 120.214 113.143c66.286 0 120.214-50.756 120.214-113.143s-53.928-113.143-120.214-113.143zM373.679 277.368c0-40.396-32.747-73.143-73.143-73.143s-73.143 32.747-73.143 73.143c0 40.396 32.747 73.143 73.143 73.143s73.143-32.747 73.143-73.143zM982.335 217.811l-93.334-43.922-103.601 195.013v49.894c0 46.79-40.446 84.857-90.161 84.857h-30.054v141.429c0 46.79-40.446 84.857-90.161 84.857h-332.849l-62.99 209.475c-3.663 12.178-15.472 20.583-28.918 20.583h-120.214c-16.598 0-30.054-12.664-30.054-28.286s13.456-28.286 30.054-28.286h97.486c2.28-7.654 105.294-350.155 105.374-350.422-133.262-28.948-232.913-141.544-232.913-275.635 0-155.967 134.82-282.857 300.536-282.857s300.536 126.89 300.536 282.857c0 19.368-2.084 38.288-6.043 56.571h70.157v-174.579c-34.98-11.676-60.107-43.117-60.107-79.992 0-46.79 40.446-84.857 90.161-84.857s90.161 38.067 90.161 84.857c0 36.875-25.127 68.316-60.107 79.992v174.579h11.478l111.907-210.649c7.425-13.975 25.479-19.636 40.322-12.649l120.214 56.571c14.846 6.987 20.863 23.977 13.44 37.95-7.423 13.971-25.475 19.636-40.32 12.649zM695.239 51.082c-16.572 0-30.054 12.689-30.054 28.286s13.482 28.286 30.054 28.286c16.572 0 30.054-12.689 30.054-28.286s-13.482-28.286-30.054-28.286zM259.188 673.368h315.837c16.572 0 30.054-12.689 30.054-28.286v-141.429h-124.42c-50.23 35.508-112.611 56.571-180.123 56.571-2.44 0-4.873-0.032-7.299-0.087l-34.049 113.23zM300.536 51.082c-132.572 0-240.429 101.512-240.429 226.286s107.856 226.286 240.429 226.286c132.572 0 240.429-101.512 240.429-226.286s-107.856-226.286-240.429-226.286zM725.293 390.511h-149.342c-9.399 20.19-21.222 39.161-35.139 56.571h154.427c16.572 0 30.054-12.689 30.054-28.286v-28.286z" />
</font>
</defs>
</svg>
