<?xml version="1.0" encoding="UTF-8"?>
<svg width="155px" height="51px" viewBox="0 0 155 51" version="1.1" xmlns="http://www.w3.org/2000/svg" xmlns:xlink="http://www.w3.org/1999/xlink">
    <title>APPSTORESVG</title>
    <g id="PROTOTIPO" stroke="none" stroke-width="1" fill="none" fill-rule="evenodd">
        <g id="HOME" transform="translate(-541.000000, -1588.000000)">
            <g id="Group-7" transform="translate(433.000000, 1529.000000)">
                <g id="APPSTORE" transform="translate(108.000000, 59.000000)">
                    <path d="M155,44.1073973 C155,47.9129125 151.933323,51 148.150038,51 L6.85174465,51 C3.06816265,51 0,47.9129125 0,44.1073973 L0,6.89170612 C0,3.08619093 3.06816265,0 6.85174465,0 L148.150038,0 C151.933323,0 155,3.08619093 155,6.89170612 L155,44.1073973" id="Fill-135" fill="#1A1919"></path>
                    <path d="M39.7435897,33.6099475 C38.9288652,35.4451664 38.5389065,36.2641501 37.4902656,37.8859296 C36.0262982,40.1507252 33.9638238,42.9704032 31.4081489,42.9940854 C29.1365363,43.0153694 28.5533681,41.4916161 25.4711606,41.509003 C22.388953,41.5260901 21.7453147,43.0207653 19.4734071,43 C16.9177323,42.9757992 14.9629242,40.4292156 13.4992517,38.1653193 C9.40645529,31.8337842 8.97873963,24.403276 11.502852,20.4531487 C13.296898,17.6457615 16.1257209,16.0023982 18.7869972,16.0023982 C21.4960597,16.0023982 23.198958,17.5123619 25.4390082,17.5123619 C27.6115087,17.5123619 28.9359524,16 32.067716,16 C34.4351959,16 36.9436745,17.3097144 38.731231,19.5757091 C32.8750662,22.8369548 33.8260698,31.3376575 39.7435897,33.6099475" id="Fill-136" fill="#FFFFFE"></path>
                    <path d="M30.8480183,14.3968563 C32.1065014,12.9973258 33.0636668,11.020005 32.7166454,9 C30.6599803,9.12268152 28.2527029,10.2559309 26.8476416,11.73348 C25.5721828,13.0750618 24.5196926,15.0645378 24.9297198,16.9977611 C27.1754021,17.0579712 29.4987807,15.8964542 30.8480183,14.3968563" id="Fill-137" fill="#FFFFFE"></path>
                    <path d="M54.0679318,22.9597976 C54.2690111,23.7631273 54.4859731,24.5975318 54.7649669,25.4990086 L56.3700057,30.2716054 L51.8018184,30.2716054 L53.3843818,25.4679338 C53.6256171,24.6892178 53.8545659,23.8477369 54.0679318,22.9597976 Z M52.6546825,20 L46.6987179,38 L49.4260253,38 L51.204274,32.4729933 L56.9711461,32.4729933 L58.7997396,38 L61.6025641,38 L55.6208278,20 L52.6546825,20 L52.6546825,20 Z" id="Fill-138" fill="#FFFFFE"></path>
                    <path d="M69.545419,27.1945304 C71.8586812,27.1945304 72.8938008,29.3830722 72.8938008,31.5518515 C72.8938008,34.3491366 71.572858,36.0870346 69.4469199,36.0870346 C67.9955245,36.0870346 66.7399547,35.0779519 66.3899312,33.6275077 C66.3298351,33.4029344 66.2978815,33.1052999 66.2978815,32.7696377 L66.2978815,30.6382873 C66.2978815,30.4451542 66.3400954,30.2109991 66.3802572,29.9840303 C66.3931559,29.911568 66.4072272,29.8391057 66.4174875,29.7687394 C66.8044481,28.2524204 68.08904,27.1945304 69.545419,27.1945304 Z M70.1918191,25 C68.4244059,25 67.0090682,25.6970756 66.0665846,27.0214592 L65.9631019,25.2790698 L63.5897436,25.2790698 L63.6038149,25.5018465 C63.6738782,26.5872842 63.7029003,27.7820142 63.7029003,29.4974548 L63.7029003,43 L66.2978815,43 L66.2978815,36.6987723 C67.1028768,37.6827029 68.3883482,38.2555145 69.8447272,38.2555145 C71.3614955,38.2555145 72.7586578,37.6488672 73.7767745,36.5481585 C74.9133247,35.3210899 75.5128205,33.5574409 75.5128205,31.4500449 C75.5128205,29.5881825 74.9921826,27.9781415 74.0054331,26.7953888 C73.038911,25.6374888 71.6851352,25 70.1918191,25 L70.1918191,25 Z" id="Fill-139" fill="#FFFFFE"></path>
                    <path d="M82.4622321,27.1945304 C84.7743785,27.1945304 85.8098168,29.3830722 85.8098168,31.5518515 C85.8098168,34.3491366 84.487962,36.0870346 82.3631443,36.0870346 C80.9122995,36.0870346 79.6555261,35.0779519 79.3060804,33.6275077 C79.2459828,33.4029344 79.2146147,33.1052999 79.2146147,32.7696377 L79.2146147,30.6382873 C79.2146147,30.4439565 79.2562433,30.2089031 79.2972856,29.9816349 C79.3101846,29.9103703 79.3230836,29.8391057 79.33481,29.7687394 C79.7203143,28.2524204 81.0055242,27.1945304 82.4622321,27.1945304 Z M83.1080618,25 C81.3411914,25 79.9258189,25.6970756 78.9824327,27.0214592 L78.8789475,25.2790698 L76.5064103,25.2790698 L76.5196024,25.5018465 C76.5899606,26.5884819 76.6195697,27.7820142 76.6195697,29.4974548 L76.6195697,43 L79.2146147,43 L79.2146147,36.6987723 C80.0196298,37.6827029 81.3042534,38.2555145 82.7606682,38.2555145 C84.2771806,38.2555145 85.6746704,37.6488672 86.6945712,36.5481585 C87.8293903,35.3210899 88.4294872,33.5574409 88.4294872,31.4500449 C88.4294872,29.5881825 87.907957,27.9781415 86.9211832,26.7953888 C85.9552237,25.6374888 84.6014146,25 83.1080618,25 L83.1080618,25 Z" id="Fill-140" fill="#FFFFFE"></path>
                    <path d="M99.7945996,27.669516 C97.2867948,26.7153364 96.4832409,25.965411 96.4832409,24.5791671 C96.4832409,23.4120863 97.4273485,22.2351655 99.5374744,22.2351655 C101.278154,22.2351655 102.391654,22.8297386 102.691887,23.0128218 L102.919565,23.1508796 L103.677887,20.9482159 L103.527923,20.8620415 C103.077726,20.6029222 101.794833,20 99.6148852,20 C96.1881693,20 93.7948111,21.9870788 93.7948111,24.8311301 C93.7948111,27.1247391 95.2935439,28.7280588 98.511099,29.8772488 C100.791529,30.7142431 101.640315,31.5718119 101.640315,33.0421429 C101.640315,34.7062916 100.330707,35.7388928 98.224831,35.7388928 C96.8529911,35.7388928 95.4413833,35.3461883 94.3518649,34.6603717 L94.1187219,34.5136666 L93.3974359,36.7670212 L93.5300967,36.8531955 C94.5446329,37.5187357 96.4537944,38 98.0712238,38 C102.689458,38 104.326923,35.2340722 104.326923,32.8653215 C104.326923,30.4235165 103.01428,28.9174038 99.7945996,27.669516" id="Fill-141" fill="#FFFFFE"></path>
                    <path d="M108.974983,23 L106.291306,23.8165344 L106.291306,26.0190205 L104.326923,26.0190205 L104.326923,28.1379362 L106.291306,28.1379362 L106.291306,34.6288752 C106.291306,36.1981429 106.601032,37.2977385 107.238723,37.9929609 C107.850139,38.6423544 108.790137,39 109.885925,39 C110.920201,39 111.654952,38.8020069 112.000844,38.6833907 L112.154161,38.630972 L112.0231,36.5081623 L111.760667,36.5860416 C111.414466,36.6890819 111.059609,36.7286206 110.487759,36.7286206 C109.427827,36.7286206 108.974983,36.0786281 108.974983,34.5524936 L108.974983,28.1379362 L112.275641,28.1379362 L112.275641,26.0190205 L108.974983,26.0190205 L108.974983,23" id="Fill-142" fill="#FFFFFE"></path>
                    <path d="M118.7469,27.0523843 C121.227077,27.0523843 122.356129,29.3317672 122.356129,31.4508121 C122.356129,34.0564503 120.815323,35.9479094 118.694574,35.9479094 L118.667789,35.9479094 C116.577251,35.9479094 115.059183,34.0881655 115.059183,31.5259888 C115.059183,29.2994646 116.20007,27.0523843 118.7469,27.0523843 Z M118.826634,25 C114.96917,25 112.275641,27.7148795 112.275641,31.5994036 C112.275641,35.3682261 114.882272,38 118.615463,38 L118.641003,38 C121.797054,38 125.192308,35.9270596 125.192308,31.3756353 C125.192308,29.5252886 124.584956,27.9357112 123.435347,26.7781066 C122.278886,25.6155097 120.684509,25 118.826634,25 L118.826634,25 Z" id="Fill-143" fill="#FFFFFE"></path>
                    <path d="M133.141026,25.1235867 L132.973406,25.0830911 C132.727184,25.0245974 132.526419,25 132.278619,25 C130.816757,25 129.505154,25.8180119 128.775328,27.1375698 L128.693254,25.2795699 L126.185897,25.2795699 L126.201997,25.5027459 C126.276494,26.5538327 126.30743,27.7339056 126.30743,29.3261341 L126.281545,38 L129.075529,38 L129.075529,31.2333287 C129.075529,30.8646684 129.102045,30.5164059 129.152552,30.2038396 C129.467589,28.5786146 130.62199,27.5281277 132.092374,27.5281277 C132.37837,27.5281277 132.603442,27.5503253 132.842087,27.5728229 L133.141026,27.6019198 L133.141026,25.1235867" id="Fill-144" fill="#FFFFFE"></path>
                    <path d="M138.79136,26.9777948 C139.575321,26.9777948 140.211507,27.2227066 140.681592,27.7054824 C141.42221,28.4666471 141.551948,29.5875443 141.568239,30.125528 L135.695952,30.125528 C135.935067,28.6243421 136.865057,26.9777948 138.79136,26.9777948 Z M138.962697,25 C135.535087,25 133.141026,27.7650952 133.141026,31.7239152 C133.141026,35.5359055 135.522579,38 139.209375,38 C141.147896,38 142.496774,37.5703766 143.28597,37.210644 L143.441017,37.1398721 L142.946206,35.2031896 L142.731235,35.2904064 C142.029597,35.5787797 141.096699,35.8730263 139.505506,35.8730263 C138.386726,35.8730263 135.806783,35.5003727 135.648827,32.1042038 L143.959682,32.1294585 L143.993135,31.9632474 C144.045496,31.6992478 144.070513,31.3433328 144.070513,30.8784703 C144.070513,28.166821 142.73298,25 138.962697,25 L138.962697,25 Z" id="Fill-145" fill="#FFFFFE"></path>
                    <path d="M47.95898,16.1357805 C48.2739671,16.1824029 48.7323298,16.1824029 49.2195558,16.1824029 C51.8831419,16.1937742 53.3294471,14.9679471 53.3294471,12.8423652 C53.3438788,10.9621193 52.0547533,9.80565723 49.4200307,9.80565723 C48.7759386,9.80565723 48.2883988,9.85284816 47.95898,9.91084183 L47.95898,16.1357805 Z M46.6987179,9.16346256 C47.4723814,9.06993355 48.3746751,9 49.362304,9 C51.1527734,9 52.4274671,9.32720941 53.2723479,9.96968836 C54.1457782,10.6115987 54.6474359,11.5340962 54.6474359,12.8073985 C54.6474359,14.0920721 54.1457782,15.142781 53.2582299,15.8671334 C52.3415045,16.602857 50.8519043,17 48.9760997,17 C48.073806,17 47.3434375,16.9766888 46.6987179,16.906471 L46.6987179,9.16346256 L46.6987179,9.16346256 Z" id="Fill-146" fill="#FFFFFE"></path>
                    <path d="M59.0966838,16.2172031 C60.3317909,16.2172031 61.2586044,15.28056 61.2586044,13.976187 C61.2586044,13.0037523 60.6555474,11.7825083 59.1263212,11.7825083 C57.6112695,11.7825083 56.949582,12.9209121 56.949582,14.0119786 C56.949582,15.2687256 57.8319393,16.2172031 59.0818651,16.2172031 L59.0966838,16.2172031 Z M59.0525499,17 C57.1406144,17 55.6410256,15.8618848 55.6410256,14.0477702 C55.6410256,12.1265695 57.2143858,11 59.1698109,11 C61.2144704,11 62.5961538,12.1972868 62.5961538,13.9406841 C62.5961538,16.0751912 60.758312,17 59.0676907,17 L59.0525499,17 L59.0525499,17 Z" id="Fill-147" fill="#FFFFFE"></path>
                    <path d="M63.7413889,11 L64.567853,14.0377188 C64.7330901,14.7066989 64.8988845,15.3388654 65.0131293,15.958962 L65.0513038,15.958962 C65.1911841,15.3512372 65.3945957,14.7066989 65.5982859,14.0500905 L66.6030834,11 L67.5446283,11 L68.4987122,14 C68.727202,14.7066989 68.9055354,15.3512372 69.0454157,15.958962 L69.0835902,15.958962 C69.185296,15.3512372 69.3508117,14.7190706 69.5542233,14.0126735 L70.4314009,11 L71.5384615,11 L69.5542233,17 L68.5366081,17 L67.5956205,14.1366928 C67.3793912,13.4547375 67.2010578,12.8596862 67.0480811,12.1529873 L67.023003,12.1529873 C66.870305,12.8720579 66.6797111,13.5042245 66.4629245,14.1490646 L65.4712234,17 L64.4536081,17 L62.5961538,11 L63.7413889,11" id="Fill-148" fill="#FFFFFE"></path>
                    <path d="M73.5834073,12.7213671 C73.5834073,12.102926 73.5689657,11.6184411 73.525641,11.1330711 L74.64392,11.1330711 L74.715186,12.0911237 L74.7440691,12.0911237 C75.088155,11.5455618 75.8902894,11 77.0368236,11 C77.9968734,11 79.4871795,11.4847799 79.4871795,13.497074 L79.4871795,17 L78.2269965,17 L78.2269965,13.6180477 C78.2269965,12.6726826 77.8103889,11.873076 76.6211579,11.873076 C75.8045819,11.873076 75.159107,12.3699533 74.9305536,12.9636095 C74.8731013,13.0969757 74.8442182,13.2908286 74.8442182,13.4607819 L74.8442182,17 L73.5834073,17 L73.5834073,12.7213671" id="Fill-149" fill="#FFFFFE"></path>
                    <polygon id="Fill-150" fill="#FFFFFE" points="80.4807692 17 81.474359 17 81.474359 9 80.4807692 9"></polygon>
                    <path d="M86.9163902,16.2172031 C88.1518767,16.2172031 89.0787331,15.28056 89.0787331,13.976187 C89.0787331,13.0037523 88.4756482,11.7825083 86.9466733,11.7825083 C85.4315514,11.7825083 84.7695111,12.9209121 84.7695111,14.0119786 C84.7695111,15.2687256 85.6519093,16.2172031 86.9022152,16.2172031 L86.9163902,16.2172031 Z M86.8728985,17 C84.9615189,17 83.4615385,15.8618848 83.4615385,14.0477702 C83.4615385,12.1265695 85.034005,11 86.9908094,11 C89.0342749,11 90.4166667,12.1972868 90.4166667,13.9406841 C90.4166667,16.0751912 88.5784175,17 86.8873958,17 L86.8728985,17 L86.8728985,17 Z" id="Fill-151" fill="#FFFFFE"></path>
                    <path d="M94.1879541,13.9406841 C92.9520997,13.9170154 91.5493218,14.1187762 91.5493218,15.2332227 C91.5493218,15.9210564 92.0382498,16.229326 92.6047183,16.229326 C93.4283393,16.229326 93.9561786,15.7550873 94.1360725,15.2687256 C94.1752657,15.1622168 94.1879541,15.0432963 94.1879541,14.9367874 L94.1879541,13.9406841 Z M95.2943865,15.494155 C95.2943865,15.9920623 95.3203273,16.4778467 95.3846154,16.8695338 L94.3675661,16.8695338 L94.2646487,16.1464858 L94.2265834,16.1464858 C93.8918905,16.5970559 93.2092522,17 92.321625,17 C91.0606757,17 90.4166667,16.1819887 90.4166667,15.3515659 C90.4166667,13.9643527 91.7548745,13.2055131 94.1617314,13.2173474 L94.1617314,13.0987155 C94.1617314,12.6247655 94.0207487,11.7591283 92.746265,11.7709626 C92.1535736,11.7709626 91.5493218,11.9245201 91.1117114,12.1972868 L90.853995,11.498196 C91.3688639,11.2017607 92.1281968,11 92.9137524,11 C94.8313992,11 95.2943865,12.1972868 95.2943865,13.3481022 L95.2943865,15.494155 L95.2943865,15.494155 Z" id="Fill-152" fill="#FFFFFE"></path>
                    <path d="M102.133387,13.280158 C102.133387,13.1303555 102.120527,12.9556366 102.080805,12.8058341 C101.911915,12.1194166 101.285508,11.5451231 100.42477,11.5451231 C99.2373967,11.5451231 98.5326887,12.5436038 98.5326887,13.8672136 C98.5326887,15.1027043 99.172527,16.1133394 100.398479,16.1133394 C101.168342,16.1133394 101.872765,15.6144029 102.080805,14.8030994 C102.120527,14.6532969 102.133387,14.5031905 102.133387,14.3287754 L102.133387,13.280158 Z M103.281037,8 L103.281037,15.3020359 C103.281037,15.8389547 103.29504,16.4503191 103.333333,16.8626557 L102.303134,16.8626557 L102.251124,15.8143421 L102.224833,15.8143421 C101.872765,16.4883014 101.116047,17 100.085561,17 C98.5589796,17 97.3718924,15.7645093 97.3718924,13.9292009 C97.358747,11.9067153 98.6767167,10.6836828 100.202441,10.6836828 C101.181488,10.6836828 101.833614,11.1209359 102.107667,11.5949559 L102.133387,11.5949559 L102.133387,8 L103.281037,8 L103.281037,8 Z" id="Fill-153" fill="#FFFFFE"></path>
                    <path d="M111.756942,16.2172031 C112.991935,16.2172031 113.918018,15.28056 113.918018,13.976187 C113.918018,13.0037523 113.315984,11.7825083 111.786577,11.7825083 C110.271665,11.7825083 109.610361,12.9209121 109.610361,14.0119786 C109.610361,15.2687256 110.492637,16.2172031 111.741803,16.2172031 L111.756942,16.2172031 Z M111.71249,17 C109.801054,17 108.301282,15.8618848 108.301282,14.0477702 C108.301282,12.1265695 109.875463,11 111.830063,11 C113.874855,11 115.25641,12.1972868 115.25641,13.9406841 C115.25641,16.0751912 113.418094,17 111.727952,17 L111.71249,17 L111.71249,17 Z" id="Fill-154" fill="#FFFFFE"></path>
                    <path d="M116.30776,12.7213671 C116.30776,12.102926 116.293006,11.6184411 116.25,11.1330711 L117.367847,11.1330711 L117.440048,12.0911237 L117.4683,12.0911237 C117.812349,11.5455618 118.614399,11 119.760813,11 C120.721075,11 122.211538,11.4847799 122.211538,13.497074 L122.211538,17 L120.950232,17 L120.950232,13.6180477 C120.950232,12.6726826 120.535238,11.873076 119.345191,11.873076 C118.529015,11.873076 117.883294,12.3699533 117.654137,12.9636095 C117.597004,13.0969757 117.568438,13.2908286 117.568438,13.4607819 L117.568438,17 L116.30776,17 L116.30776,12.7213671" id="Fill-155" fill="#FFFFFE"></path>
                    <path d="M128.415653,9 L128.415653,10.5184064 L130.160256,10.5184064 L130.160256,11.3955378 L128.415653,11.3955378 L128.415653,14.8135458 C128.415653,15.5988845 128.651705,16.0441434 129.330128,16.0441434 C129.662058,16.0441434 129.856544,16.018008 130.036465,15.9657371 L130.091686,16.8428685 C129.856544,16.9212749 129.48244,17 129.011245,17 C128.443566,17 127.986025,16.8167331 127.695056,16.5158566 C127.362822,16.1620717 127.224771,15.5988845 127.224771,14.8524303 L127.224771,11.3955378 L126.185897,11.3955378 L126.185897,10.5184064 L127.224771,10.5184064 L127.224771,9.35346614 L128.415653,9" id="Fill-156" fill="#FFFFFE"></path>
                    <path d="M131.153846,9 L132.426858,9 L132.426858,12.4027497 L132.456338,12.4027497 C132.658257,12.1210615 132.97651,11.8621387 133.368304,11.704152 C133.744248,11.5242226 134.191831,11.4224637 134.670479,11.4224637 C135.610339,11.4224637 137.115385,11.87311 137.115385,13.7549628 L137.115385,17 L135.842373,17 L135.842373,13.8676929 C135.842373,12.9773717 135.422684,12.2450372 134.221628,12.2450372 C133.396833,12.2450372 132.760327,12.6959578 132.514029,13.2365687 C132.44144,13.37179 132.426858,13.5182569 132.426858,13.7099805 L132.426858,17 L131.153846,17 L131.153846,9" id="Fill-157" fill="#FFFFFE"></path>
                    <path d="M142.884934,13.4427767 C142.897781,12.790446 142.563458,11.7470053 141.194659,11.7470053 C139.937812,11.7470053 139.407115,12.71944 139.309847,13.4427767 L142.884934,13.4427767 Z M139.29547,14.1897821 C139.324223,15.6006639 140.371545,16.1819887 141.59964,16.1819887 C142.479036,16.1819887 143.024108,16.0512339 143.4713,15.8970991 L143.694896,16.6322702 C143.261163,16.7982393 142.507177,17 141.432326,17 C139.365516,17 138.108974,15.8258046 138.108974,14.1069418 C138.108974,12.3638332 139.324223,11 141.291928,11 C143.498829,11 144.070513,12.6481455 144.070513,13.703709 C144.070513,13.9170154 144.057666,14.0832732 144.029525,14.2016164 L139.29547,14.1897821 L139.29547,14.1897821 Z" id="Fill-158" fill="#FFFFFE"></path>
                </g>
            </g>
        </g>
    </g>
</svg>