<?xml version="1.0" encoding="UTF-8"?>
<svg width="21px" height="22px" viewBox="0 0 21 22" version="1.1" xmlns="http://www.w3.org/2000/svg" xmlns:xlink="http://www.w3.org/1999/xlink">
    <title>ShapeSVG</title>
    <g id="Symbols" stroke="none" stroke-width="1" fill="none" fill-rule="evenodd">
        <g id="header" transform="translate(-647.000000, -68.000000)" fill="#EB4555" fill-rule="nonzero">
            <g id="aeropuertos" transform="translate(657.500000, 80.500000) rotate(-45.000000) translate(-657.500000, -80.500000) translate(648.000000, 71.000000)">
                <path d="M17.6536351,4.282953 C18.0598988,3.89324593 18.2868313,3.36860916 18.2927824,2.80568723 C18.2985031,2.2427653 18.082469,1.71355822 17.6844318,1.31548396 C17.2863595,0.917444857 16.7566628,0.702183117 16.1942709,0.707192271 C15.6313517,0.713116712 15.1067175,0.940050328 14.7170123,1.34628084 L11.1404785,5.07439058 L9.61955602,4.61563663 L10.7602655,3.47492167 L10.0144995,2.72915207 L8.47367864,4.26998035 L7.32762548,3.92428891 L8.52282684,2.7290466 L7.77706085,1.98334731 L6.18171295,3.57870293 L2.73975661,2.54053877 L0.295986954,4.98432026 L7.12509129,9.25998865 L5.45029064,11.0057779 L2.47766801,10.3572505 L0.292893219,12.542071 L4.22387067,14.7761455 L6.45796945,18.7071068 L8.6427794,16.5223214 L7.99425513,13.5497547 L9.74007107,11.8749108 L14.0156836,18.7040482 L16.4594533,16.2602667 L15.421259,12.8182585 L17.0166069,11.2229381 L16.2708409,10.4771685 L15.0756395,11.6724108 L14.7299498,10.5263521 L16.2707706,8.98552378 L15.5250046,8.23975418 L14.3842951,9.38046914 L13.9255434,7.8595393 L17.6536351,4.282953 Z M1.97848679,4.79335149 L3.03935676,3.73251154 L10.3208144,5.92882817 L7.87089244,8.48257842 L1.97848679,4.79335149 Z M7.48948409,16.1841182 L6.69098397,16.9825871 L4.99737481,14.0026376 L2.01740457,12.3090554 L2.81590469,11.5105162 L5.80244912,12.1620671 L15.478036,2.07644107 C15.6698476,1.8764723 15.9281042,1.76478088 16.2051693,1.76186291 C16.2088959,1.76186291 16.2124818,1.76186291 16.2161732,1.76186291 C16.489125,1.76186291 16.7453777,1.86796448 16.938701,2.06128872 C17.1345907,2.25721452 17.2409378,2.5176872 17.2381122,2.79475364 C17.2352074,3.07182007 17.1234814,3.33007791 16.9235487,3.52189043 L6.83790124,13.1975242 L7.48948409,16.1841182 Z M15.2674863,15.9607003 L14.2066163,17.0215754 L10.5174775,11.129106 L13.0711803,8.67920735 L15.2674863,15.9607003 Z" id="Shape"></path>
            </g>
        </g>
    </g>
</svg>