<?xml version="1.0" encoding="UTF-8"?>
<svg width="22px" height="22px" viewBox="0 0 22 22" version="1.1" xmlns="http://www.w3.org/2000/svg" xmlns:xlink="http://www.w3.org/1999/xlink">
    <title>footer_instagram</title>
    <defs>
        <polygon id="path-1" points="0.00220514534 0.0146642165 15.0538657 0.0146642165 15.0538657 15.0685299 0.00220514534 15.0685299"></polygon>
    </defs>
    <g id="Symbols" stroke="none" stroke-width="1" fill="none" fill-rule="evenodd">
        <g id="FOOTER1" transform="translate(-1327.000000, -48.000000)">
            <g id="Group-3" transform="translate(1288.000000, 18.000000)">
                <g id="footer_instagram" transform="translate(39.000000, 30.000000)">
                    <g id="014-instagram" transform="translate(3.515982, 3.515982)">
                        <g id="Group-3">
                            <mask id="mask-2" fill="white">
                                <use xlink:href="#path-1"></use>
                            </mask>
                            <g id="Clip-2"></g>
                            <path d="M10.9789409,0.0146642165 L4.07492482,0.0146642165 C1.82799198,0.0146642165 0,1.84269295 0,4.08958904 L0,10.9936051 C0,13.2405379 1.82799198,15.0685299 4.07492482,15.0685299 L10.9789409,15.0685299 C13.225837,15.0685299 15.0538657,13.2405379 15.0538657,10.9936051 L15.0538657,4.08958904 C15.0538657,1.84269295 13.225837,0.0146642165 10.9789409,0.0146642165 Z M14.1712195,10.9936051 C14.1712195,12.7538256 12.7391614,14.1858837 10.9789409,14.1858837 L4.07492482,14.1858837 C2.3145573,14.1858837 0.882499165,12.7538256 0.882499165,10.9936051 L0.882499165,4.08958904 C0.882499165,2.32922152 2.3145573,0.897163381 4.07492482,0.897163381 L10.9789409,0.897163381 C12.7391614,0.897163381 14.1712195,2.32922152 14.1712195,4.08958904 L14.1712195,10.9936051 Z" id="Fill-1" fill="#FFFFFF" mask="url(#mask-2)"></path>
                        </g>
                        <path d="M7.53424658,3.41023792 C5.2601428,3.41023792 3.41023792,5.2601428 3.41023792,7.53424658 C3.41023792,9.80820306 5.2601428,11.6582552 7.53424658,11.6582552 C9.80820306,11.6582552 11.6582552,9.80820306 11.6582552,7.53424658 C11.6582552,5.2601428 9.80820306,3.41023792 7.53424658,3.41023792 Z M7.53424658,10.7740657 C5.74789789,10.7740657 4.29439068,9.32074256 4.29439068,7.53424658 C4.29439068,5.74789789 5.74789789,4.2944275 7.53424658,4.2944275 C9.32070573,4.2944275 10.7740657,5.74789789 10.7740657,7.53424658 C10.7740657,9.32074256 9.32070573,10.7740657 7.53424658,10.7740657 Z" id="Fill-4" fill="#FFFFFF"></path>
                        <path d="M11.7772356,1.98269647 C11.0993318,1.98269647 10.5479452,2.53416112 10.5479452,3.21187542 C10.5479452,3.88973829 11.0993318,4.44124009 11.7772356,4.44124009 C12.4551394,4.44124009 13.0064888,3.88973829 13.0064888,3.21187542 C13.0064888,2.53401255 12.4551394,1.98269647 11.7772356,1.98269647 Z M11.7772356,3.5492097 C11.5912113,3.5492097 11.4398809,3.39788842 11.4398809,3.21187542 C11.4398809,3.02589956 11.5912113,2.87454114 11.7772356,2.87454114 C11.9632227,2.87454114 12.1145903,3.02589956 12.1145903,3.21187542 C12.1145903,3.39788842 11.9632227,3.5492097 11.7772356,3.5492097 Z" id="Fill-5" fill="#FFFFFF"></path>
                    </g>
                    <path d="M20.4931507,0 C21.3253606,0 22,0.674639418 22,1.50684932 L22,20.4931507 C22,21.3253606 21.3253606,22 20.4931507,22 L1.50684932,22 C0.674639418,22 0,21.3253606 0,20.4931507 L0,1.50684932 C0,0.674639418 0.674639418,0 1.50684932,0 L20.4931507,0 Z M20.4931507,0.703196347 L1.50684932,0.703196347 C1.07137848,0.703196347 0.716803913,1.04955448 0.703578768,1.4818176 L0.703196347,1.50684932 L0.703196347,20.4931507 C0.703196347,20.9286215 1.04955448,21.2831961 1.4818176,21.2964212 L1.50684932,21.2968037 L20.4931507,21.2968037 C20.9286215,21.2968037 21.2831961,20.9504455 21.2964212,20.5181824 L21.2968037,20.4931507 L21.2968037,1.50684932 C21.2968037,1.07137848 20.9504455,0.716803913 20.5181824,0.703578768 L20.4931507,0.703196347 Z" id="Rectangle" fill="#FFFFFF" fill-rule="nonzero"></path>
                </g>
            </g>
        </g>
    </g>
</svg>