<?xml version="1.0" encoding="UTF-8"?>
<svg width="22px" height="22px" viewBox="0 0 22 22" version="1.1" xmlns="http://www.w3.org/2000/svg" xmlns:xlink="http://www.w3.org/1999/xlink">
    <title>footer_facebook</title>
    <defs>
        <polygon id="path-1" points="0 0 6.83105023 0 6.83105023 12.0175884 0 12.0175884"></polygon>
    </defs>
    <g id="Symbols" stroke="none" stroke-width="1" fill="none" fill-rule="evenodd">
        <g id="FOOTER1" transform="translate(-1365.000000, -48.000000)">
            <g id="Group-3" transform="translate(1288.000000, 18.000000)">
                <g id="footer_facebook" transform="translate(77.000000, 30.000000)">
                    <g id="013-facebook" transform="translate(7.634703, 5.022831)">
                        <mask id="mask-2" fill="white">
                            <use xlink:href="#path-1"></use>
                        </mask>
                        <g id="Clip-2"></g>
                        <path d="M4.21942265,12.0175884 L2.2920901,12.0175884 C1.97014323,12.0175884 1.70834287,11.7560545 1.70834287,11.4345797 L1.70834287,7.09377526 L0.583894144,7.09377526 C0.261917895,7.09377526 0,6.83224142 0,6.51088399 L0,4.65080746 C0,4.32933267 0.261917895,4.06791619 0.583894144,4.06791619 L1.70834287,4.06791619 L1.70834287,3.13649896 C1.70834287,2.21285675 1.99873265,1.42711099 2.54804329,0.864258721 C3.09988085,0.29879522 3.87117822,0 4.77837083,0 L6.24821386,0.00240585311 C6.56957308,0.00299264655 6.83105023,0.264409125 6.83105023,0.585297118 L6.83105023,2.31234758 C6.83105023,2.63382236 6.56924986,2.8953562 6.24742053,2.8953562 L5.25769175,2.89570828 C4.95593083,2.89570828 4.87903616,2.95608932 4.86264058,2.97466133 C4.83554968,3.00537997 4.80328741,3.09213738 4.80328741,3.33190118 L4.80328741,4.06779884 L6.17302339,4.06779884 C6.2760981,4.06779884 6.37605824,4.09323633 6.46191465,4.14103066 C6.6470554,4.24439432 6.76217705,4.43979654 6.76217705,4.65092482 L6.76150124,6.51100135 C6.76150124,6.83224142 6.49958335,7.09368724 6.17772463,7.09368724 L4.80328741,7.09368724 L4.80328741,11.4345797 C4.80328741,11.7560545 4.54136952,12.0175884 4.21942265,12.0175884 Z M2.41388162,11.3130842 L4.09763112,11.3130842 L4.09763112,6.77837378 C4.09763112,6.56372474 4.27257606,6.38918303 4.48742278,6.38918303 L6.05596249,6.38918303 L6.05652076,4.77239106 L4.48730524,4.77239106 C4.27245853,4.77239106 4.09763112,4.59784935 4.09763112,4.38320031 L4.09763112,3.33190118 C4.09763112,3.0567244 4.12566227,2.74361142 4.33375096,2.5084246 C4.58509106,2.22397648 4.98131754,2.19120407 5.25757422,2.19120407 L6.12539394,2.19073464 L6.12539394,0.7067927 L4.77781256,0.704504206 C3.31981078,0.704504206 2.41388162,1.63650823 2.41388162,3.13649896 L2.41388162,4.38320031 C2.41388162,4.59773199 2.2390836,4.77239106 2.0242075,4.77239106 L0.705656289,4.77239106 L0.705656289,6.38918303 L2.0242075,6.38918303 C2.2390836,6.38918303 2.41388162,6.56372474 2.41388162,6.77837378 L2.41388162,11.3130842 Z" id="Fill-1" fill="#FFFFFF" mask="url(#mask-2)"></path>
                    </g>
                    <path d="M20.4931507,0 C21.3253606,0 22,0.674639418 22,1.50684932 L22,20.4931507 C22,21.3253606 21.3253606,22 20.4931507,22 L1.50684932,22 C0.674639418,22 0,21.3253606 0,20.4931507 L0,1.50684932 C0,0.674639418 0.674639418,0 1.50684932,0 L20.4931507,0 Z M20.4931507,0.703196347 L1.50684932,0.703196347 C1.07137848,0.703196347 0.716803913,1.04955448 0.703578768,1.4818176 L0.703196347,1.50684932 L0.703196347,20.4931507 C0.703196347,20.9286215 1.04955448,21.2831961 1.4818176,21.2964212 L1.50684932,21.2968037 L20.4931507,21.2968037 C20.9286215,21.2968037 21.2831961,20.9504455 21.2964212,20.5181824 L21.2968037,20.4931507 L21.2968037,1.50684932 C21.2968037,1.07137848 20.9504455,0.716803913 20.5181824,0.703578768 L20.4931507,0.703196347 Z" id="Rectangle" fill="#FFFFFF" fill-rule="nonzero"></path>
                </g>
            </g>
        </g>
    </g>
</svg>