<?xml version="1.0" encoding="UTF-8"?>
<svg width="22px" height="22px" viewBox="0 0 22 22" version="1.1" xmlns="http://www.w3.org/2000/svg" xmlns:xlink="http://www.w3.org/1999/xlink">
    <title>footer_linkedin</title>
    <g id="Symbols" stroke="none" stroke-width="1" fill="none" fill-rule="evenodd">
        <g id="FOOTER1" transform="translate(-1290.000000, -48.000000)" fill="#FFFFFF">
            <g id="Group-3" transform="translate(1288.000000, 18.000000)">
                <g id="footer_linkedin" transform="translate(2.000000, 30.000000)">
                    <g id="015-linkedin" transform="translate(4.520548, 3.716895)">
                        <path d="M2.9519486,4.29407473 L0.498647168,4.29407473 C0.22372506,4.29407473 0,4.51850112 0,4.79428504 L0,14.0689718 C0,14.3447557 0.22372506,14.5691821 0.498647168,14.5691821 L2.9519486,14.5691821 C3.22687071,14.5691821 3.45059577,14.3447557 3.45059577,14.0689718 L3.45059577,4.79428504 C3.45059577,4.51850112 3.22687071,4.29407473 2.9519486,4.29407473 Z M0.853935496,13.7125698 L2.59666027,13.7125698 L2.59666027,5.15068712 L0.853935496,5.15068712 L0.853935496,13.7125698 Z" id="Fill-1"></path>
                        <path d="M1.72543884,0 C0.774007231,0 0,0.773866278 0,1.72529788 C0,2.67672949 0.774007231,3.45059577 1.72543884,3.45059577 C2.67658854,3.45059577 3.45059577,2.67672949 3.45059577,1.72529788 C3.45059577,0.773866278 2.67672949,0 1.72543884,0 Z M1.72543884,2.60364545 C1.24105443,2.60364545 0.846985559,2.20968229 0.846985559,1.72529788 C0.846985559,1.24091348 1.24105443,0.846950321 1.72543884,0.846950321 C2.20968229,0.846950321 2.6037864,1.24091348 2.6037864,1.72529788 C2.6037864,2.20954133 2.20968229,2.60364545 1.72543884,2.60364545 Z" id="Fill-2"></path>
                        <path d="M11.4013799,5.3812587 C10.8178076,4.89020111 10.0760048,4.62763606 9.31334505,4.6418567 C8.83967866,4.65062432 8.37682965,4.76574378 7.95728545,4.97431317 L7.95728545,4.77187398 C7.95728545,4.50791895 7.74507415,4.29407473 7.48337161,4.29407473 L4.99806364,4.29407473 C4.73621971,4.29407473 4.52411445,4.50791895 4.52411445,4.77187398 L4.52411445,14.0913829 C4.52411445,14.3553379 4.73621971,14.5691821 4.99806364,14.5691821 L7.53240328,14.5691821 C7.76702704,14.5691821 7.95728545,14.3773282 7.95728545,14.1409235 L7.95728545,8.58432421 C7.95728545,8.10873469 8.3265607,7.70610168 8.79799998,7.69205924 C9.28806917,7.67744655 9.69128126,8.07491166 9.69128126,8.56579105 L9.69128126,14.1498336 C9.69128126,14.3813556 9.87758038,14.5691821 10.1072197,14.5691821 L12.5429657,14.5691821 C12.772605,14.5691821 12.9589041,14.3813556 12.9589041,14.1498336 L12.9589041,8.73565463 C12.9589041,7.43701438 12.3912044,6.21421754 11.4013799,5.3812587 Z M12.1092458,13.7125579 L10.5409396,13.7125579 L10.5409396,8.56579105 C10.5409396,7.61143997 9.77096213,6.83514985 8.82423033,6.83514985 C7.87774598,6.83514985 7.10762715,7.61143997 7.10762715,8.56579105 L7.10762715,13.7125579 L5.3736667,13.7125579 L5.3736667,5.15055644 L7.10762715,5.15055644 L7.10762715,5.7730213 L7.10819277,5.7730213 C7.10805136,5.87395576 7.14283663,5.97531792 7.2145282,6.05689949 C7.36985995,6.23399813 7.6384559,6.2504285 7.81411441,6.09364505 C8.23266878,5.72013049 8.7706384,5.50863857 9.32907619,5.49819584 C9.88793818,5.48746799 10.430362,5.67974958 10.8569057,6.03879401 C11.652866,6.70873228 12.1092458,7.69163155 12.1092458,8.73565463 L12.1092458,13.7125579 Z" id="Fill-3"></path>
                    </g>
                    <path d="M20.4931507,0 C21.3253606,0 22,0.674639418 22,1.50684932 L22,20.4931507 C22,21.3253606 21.3253606,22 20.4931507,22 L1.50684932,22 C0.674639418,22 0,21.3253606 0,20.4931507 L0,1.50684932 C0,0.674639418 0.674639418,0 1.50684932,0 L20.4931507,0 Z M20.4931507,0.703196347 L1.50684932,0.703196347 C1.07137848,0.703196347 0.716803913,1.04955448 0.703578768,1.4818176 L0.703196347,1.50684932 L0.703196347,20.4931507 C0.703196347,20.9286215 1.04955448,21.2831961 1.4818176,21.2964212 L1.50684932,21.2968037 L20.4931507,21.2968037 C20.9286215,21.2968037 21.2831961,20.9504455 21.2964212,20.5181824 L21.2968037,20.4931507 L21.2968037,1.50684932 C21.2968037,1.07137848 20.9504455,0.716803913 20.5181824,0.703578768 L20.4931507,0.703196347 Z" id="Rectangle" fill-rule="nonzero"></path>
                </g>
            </g>
        </g>
    </g>
</svg>