<?xml version="1.0" encoding="UTF-8"?>
<svg width="155px" height="51px" viewBox="0 0 155 51" version="1.1" xmlns="http://www.w3.org/2000/svg" xmlns:xlink="http://www.w3.org/1999/xlink">
    <title>PLAYSTORESVG</title>
    <defs>
        <path d="M0.693091787,0.205311953 L17.729821,16.9865225 L0.549385087,33.9084025 C0.28300584,33.8196771 0.112549735,33.5584179 0.112549735,33.1748108 L0.112549735,33.1748108 L0.112549735,1.11954955" id="path-1"></path>
        <linearGradient x1="29.5954342%" y1="-1.59796556%" x2="29.5954342%" y2="101.176441%" id="linearGradient-3">
            <stop stop-color="#87C8B2" offset="0%"></stop>
            <stop stop-color="#2C729D" offset="100%"></stop>
        </linearGradient>
        <path d="M0.072794953,0.20347881 C0.329782918,0.129098881 0.648771767,0.184942971 0.968330173,0.375517857 L0.953048483,0.366714286 L6.54377974,3.70096138 C10.0399414,5.78631266 13.9024585,8.09023289 14.0381359,8.17116196 L14.0418161,8.17335714 L20.8195395,12.2154107 L16.3096777,16.8348571" id="path-4"></path>
        <linearGradient x1="-0.000310804585%" y1="23.9090051%" x2="75.0895589%" y2="23.9090051%" id="linearGradient-6">
            <stop stop-color="#53B8A0" offset="0%"></stop>
            <stop stop-color="#DBE596" offset="100%"></stop>
        </linearGradient>
        <path d="M17.1526157,0.138428571 L21.8113097,4.75726786 L14.8097587,8.79901786 C14.8097587,8.79901786 4.87319356,14.5357888 1.83786373,16.2887026 L0.984570867,16.7815682 C0.701453273,16.9426937 0.440920787,16.9774868 0.237310056,16.9092204" id="path-7"></path>
        <linearGradient x1="37.5441578%" y1="49.7896003%" x2="37.5441578%" y2="101.549612%" id="linearGradient-9">
            <stop stop-color="#7D4589" offset="0%"></stop>
            <stop stop-color="#DA3E3E" offset="100%"></stop>
        </linearGradient>
        <path d="M4.72273077,0.0693870968 C4.85541047,0.144532509 10.7302857,3.47171935 11.377,3.81135484 C12.0312788,4.15451613 12.1057981,4.75258065 11.3305,5.18893548 L11.3349712,5.18632258 L10.4992796,5.65625331 C8.7534694,6.63783103 5.0918209,8.6967766 4.7484046,8.88987984 L4.72243269,8.90448387 L0.148442308,4.48722581" id="path-10"></path>
        <linearGradient x1="80.7936518%" y1="35.986719%" x2="80.7936518%" y2="63.5904861%" id="linearGradient-12">
            <stop stop-color="#F7C374" offset="0%"></stop>
            <stop stop-color="#E88172" offset="100%"></stop>
        </linearGradient>
    </defs>
    <g id="PROTOTIPO" stroke="none" stroke-width="1" fill="none" fill-rule="evenodd">
        <g id="HOME" transform="translate(-749.000000, -1588.000000)">
            <g id="Group-7" transform="translate(433.000000, 1529.000000)">
                <g id="PLAYSTORE" transform="translate(316.000000, 59.000000)">
                    <path d="M154.337607,44.1073749 C154.337607,47.9133769 151.290178,51 147.531251,51 L7.13905796,51 C3.37952867,51 0.331196581,47.9133769 0.331196581,44.1073749 L0.331196581,6.89201547 C0.331196581,3.08631829 3.37952867,0 7.13905796,0 L147.531251,0 C151.290178,0 154.337607,3.08631829 154.337607,6.89201547 L154.337607,44.1073749" id="Fill-62" fill="#1A1919"></path>
                    <g id="Group-101" transform="translate(11.260684, 10.000000)">
                        <mask id="mask-2" fill="white">
                            <use xlink:href="#path-1"></use>
                        </mask>
                        <g id="Clip-100"></g>
                        <path d="M22.4618435,12.3254595 L15.350242,8.24699099 C15.350242,8.24699099 2.39468833,0.815693694 1.63274204,0.378900901 C0.871104111,-0.0578918919 0.112549735,0.206756757 0.112549735,1.11954955 C0.112549735,2.64036036 0.112549735,16.9862162 0.112549735,16.9862162 C0.112549735,16.9862162 0.112549735,32.4899099 0.112549735,33.1748108 C0.112549735,33.8590991 0.65494695,34.1540721 1.31667772,33.7748649 C1.97810013,33.3947387 15.350242,25.7251351 15.350242,25.7251351 L22.4615351,21.646973 C22.4615351,21.646973 28.4954344,18.1866306 29.2974668,17.7268649 C30.0994993,17.2664865 30.0224105,16.6354955 29.3455703,16.2734414 C28.6690385,15.9110811 22.4618435,12.3254595 22.4618435,12.3254595" id="Fill-99" fill="url(#linearGradient-3)" mask="url(#mask-2)"></path>
                    </g>
                    <g id="Group-104" transform="translate(12.254274, 10.000000)">
                        <mask id="mask-5" fill="white">
                            <use xlink:href="#path-4"></use>
                        </mask>
                        <g id="Clip-103"></g>
                        <path d="M20.8195395,12.2154107 L14.0418161,8.17335714 C14.0418161,8.17335714 1.69450433,0.808410714 0.968330173,0.375517857 C0.242449892,-0.057375 -0.480491603,0.204910714 -0.480491603,1.10955357 C-0.480491603,2.61678571 -0.480491603,16.8345536 -0.480491603,16.8345536 C-0.480491603,16.8345536 -0.480491603,32.1998214 -0.480491603,32.8786071 C-0.480491603,33.5567857 0.0364409534,33.849125 0.66710455,33.4733036 C1.29747427,33.0965714 14.0418161,25.4954464 14.0418161,25.4954464 L20.8192457,21.4536964 C20.8192457,21.4536964 26.5698632,18.02425 27.3342416,17.5685893 C28.09862,17.1123214 28.0251503,16.4869643 27.3800867,16.1281429 C26.7353169,15.7690179 20.8195395,12.2154107 20.8195395,12.2154107" id="Fill-102" fill="url(#linearGradient-6)" mask="url(#mask-5)"></path>
                    </g>
                    <g id="Group-107" transform="translate(12.254274, 27.000000)">
                        <mask id="mask-8" fill="white">
                            <use xlink:href="#path-7"></use>
                        </mask>
                        <g id="Clip-106"></g>
                        <path d="M21.8116132,-4.48101786 L14.8097587,-8.52307143 C14.8097587,-8.52307143 2.0541364,-15.8880179 1.30394854,-16.3209107 C0.554064281,-16.7538036 -0.19278401,-16.4915179 -0.19278401,-15.586875 C-0.19278401,-14.0796429 -0.19278401,0.138125 -0.19278401,0.138125 C-0.19278401,0.138125 -0.19278401,15.5033929 -0.19278401,16.1821786 C-0.19278401,16.8603571 0.341242877,17.1526964 0.992761752,16.776875 C1.64397703,16.4001429 14.8097587,8.79901786 14.8097587,8.79901786 L21.8113097,4.75726786 C21.8113097,4.75726786 27.7520931,1.32782143 28.5417486,0.872160714 C29.331404,0.415892857 29.2555048,-0.209464286 28.5891097,-0.568285714 C27.9230182,-0.927410714 21.8116132,-4.48101786 21.8116132,-4.48101786" id="Fill-105" fill="url(#linearGradient-9)" mask="url(#mask-8)"></path>
                    </g>
                    <g id="Group-110" transform="translate(29.145299, 22.000000)">
                        <mask id="mask-11" fill="white">
                            <use xlink:href="#path-10"></use>
                        </mask>
                        <g id="Clip-109"></g>
                        <path d="M4.72273077,0.0693870968 L-2.15181731,-3.79625806 C-2.15181731,-3.79625806 -14.6755192,-10.8397742 -15.4120673,-11.2537742 C-16.1483173,-11.6677742 -16.8815865,-11.4169355 -16.8815865,-10.5517742 C-16.8815865,-9.11032258 -16.8815865,4.48693548 -16.8815865,4.48693548 C-16.8815865,4.48693548 -16.8815865,19.1816129 -16.8815865,19.8307742 C-16.8815865,20.4793548 -16.3572692,20.7589355 -15.7175962,20.3995161 C-15.0782212,20.0392258 -2.15181731,12.7698387 -2.15181731,12.7698387 L4.72243269,8.90448387 C4.72243269,8.90448387 10.5552019,5.62470968 11.3305,5.18893548 C12.1057981,4.75258065 12.0312788,4.15451613 11.377,3.81135484 C10.7230192,3.46790323 4.72273077,0.0693870968 4.72273077,0.0693870968" id="Fill-108" fill="url(#linearGradient-12)" mask="url(#mask-11)"></path>
                    </g>
                    <path d="M119.096918,25.2275774 C118.059115,25.2275774 117.308888,25.497766 116.845622,26.0372745 C116.382355,26.5773622 116.144095,27.4362899 116.131458,28.6149264 L116.131458,28.9366623 C116.131458,30.2777594 116.369718,31.2368857 116.845622,31.8146202 C117.321526,32.3920652 118.08439,32.6804981 119.134214,32.6804981 C120.011739,32.6804981 120.699395,32.346889 121.196875,31.6796707 C121.693738,31.0124524 121.942478,30.0921314 121.942478,28.9189972 C121.942478,27.7296459 121.693738,26.8165646 121.196875,26.1809118 C120.699395,25.545259 119.999101,25.2275774 119.096918,25.2275774 Z M119.319459,33.8904104 C118.65831,33.8904104 118.054492,33.7760218 117.508004,33.5469552 C116.961516,33.3175989 116.502256,32.9648767 116.131458,32.4893679 L116.020496,32.4893679 C116.09447,33.0462519 116.131458,33.5747559 116.131458,34.0734321 L116.131458,38 L114.594017,38 L114.594017,24.1743339 L115.844806,24.1743339 L116.057483,25.4801009 L116.131458,25.4801009 C116.527531,24.9576783 116.988023,24.5806305 117.512935,24.3483783 C118.037847,24.1164157 118.640433,24 119.319459,24 C120.666415,24 121.706068,24.4326493 122.437801,25.2976584 C123.169842,26.162378 123.536325,27.3754758 123.536325,28.9366623 C123.536325,30.5039302 123.163985,31.7210822 122.420232,32.5895664 C121.675245,33.4568923 120.642065,33.8904104 119.319459,33.8904104 L119.319459,33.8904104 Z" id="Fill-111" fill="#F9F8F7"></path>
                    <polygon id="Fill-112" fill="#F9F8F7" points="125.523504 34 127.510684 34 127.510684 20 125.523504 20"></polygon>
                    <path d="M132.943601,32.792092 C133.877824,32.792092 134.611427,32.5424733 135.145613,32.0429426 C135.678595,31.5434119 135.945989,30.843541 135.945989,29.9433298 L135.945989,29.0706911 L134.444193,29.1319958 C133.250698,29.1736478 132.390767,29.354042 131.862597,29.6749384 C131.335329,29.9952482 131.071545,30.4936055 131.071545,31.1697172 C131.071545,31.6985803 131.23547,32.1016074 131.564223,32.3773319 C131.892976,32.6542297 132.352267,32.792092 132.943601,32.792092 Z M136.334597,33.8237123 L136.035922,32.4477297 L135.963434,32.4477297 C135.469252,33.0540303 134.976274,33.4640971 134.484799,33.6782236 C133.993925,33.8932301 133.380334,34 132.644926,34 C131.662578,34 130.89228,33.7533146 130.334634,33.259357 C129.776686,32.7653995 129.497863,32.0634753 129.497863,31.1521178 C129.497863,29.2003403 131.098916,28.1775197 134.299518,28.0830693 L135.982082,28.0299777 L135.982082,27.4304236 C135.982082,26.6718878 135.814548,26.1116391 135.47978,25.7505573 C135.145613,25.3885956 134.609622,25.2082013 133.874816,25.2082013 C133.048573,25.2082013 132.114049,25.4551801 131.071545,25.9488443 L130.610148,24.8289335 C131.098916,24.5702218 131.633403,24.3675349 132.215713,24.2205796 C132.797121,24.0736243 133.380334,24 133.965351,24 C135.146816,24 136.022387,24.2554852 136.592365,24.7670421 C137.161742,25.2785991 137.446581,26.0987328 137.446581,27.2277367 L137.446581,33.8237123 L136.334597,33.8237123 L136.334597,33.8237123 Z" id="Fill-113" fill="#F9F8F7"></path>
                    <path d="M138.440171,24 L139.987795,24 L142.075596,29.5103263 C142.533605,30.7683382 142.818016,31.6759248 142.92854,32.2348456 L142.997979,32.2348456 C143.073494,31.9342717 143.231757,31.4219765 143.471901,30.6956139 C143.712623,29.9695446 144.500178,27.7382598 145.833408,24 L147.382479,24 L143.284994,35.0024716 C142.879065,36.0898161 142.405143,36.861338 141.862361,37.3176239 C141.320446,37.7727368 140.654699,38 139.866566,38 C139.425627,38 138.990765,37.9501487 138.5614,37.8504461 L138.5614,36.6780612 C138.879952,36.7484395 139.236984,36.7839219 139.63163,36.7839219 C140.623162,36.7839219 141.330284,36.2200159 141.754151,35.091031 L142.284492,33.7160152 L138.440171,24" id="Fill-114" fill="#F9F8F7"></path>
                    <path d="M91.3773188,30.0893044 C91.8346896,29.6058038 91.8739836,28.9346307 91.8739836,28.5562389 C91.8739836,27.0448045 91.018183,24.6931089 89.3658117,24.6931089 C88.8474773,24.6931089 88.2907157,24.9657825 87.9717407,25.3865225 C87.6336966,25.8273702 87.5334391,26.3934345 87.5334391,26.9400004 C87.5334391,28.3466306 88.3100738,30.6776092 90.0234086,30.6776092 C90.5209403,30.6776092 91.057477,30.4256526 91.3773188,30.0893044 Z M90.7994655,34.079479 C90.6405559,34.0575433 90.5402984,34.0575433 90.3420947,34.0575433 C90.1629602,34.0575433 89.0864196,34.1001961 88.2508439,34.3951102 C87.8128311,34.561761 86.5380869,35.065674 86.5380869,36.5573053 C86.5380869,38.0471086 87.9127997,39.1198279 90.0436335,39.1198279 C91.9540163,39.1198279 92.9707491,38.1519127 92.9707491,36.8510006 C92.9707491,35.7782813 92.313441,35.2134356 90.7994655,34.079479 Z M92.2137613,24.7558695 C92.6714211,25.1552831 93.6269014,25.9946303 93.6269014,27.5910658 C93.6269014,29.1439343 92.7907478,29.8803054 91.9540163,30.5721957 C91.6951381,30.8448693 91.3966769,31.1397833 91.3966769,31.6022621 C91.3966769,32.0632176 91.6951381,32.3154788 91.9150112,32.5046747 L92.6321271,33.0914561 C93.5081526,33.8683474 94.3038565,34.5827827 94.3038565,36.0323705 C94.3038565,38.0056744 92.4917087,40 89.0673505,40 C86.1795289,40 84.7863248,38.5516309 84.7863248,36.9969343 C84.7863248,36.2410648 85.1431492,35.1710875 86.3193694,34.4353257 C87.5530861,33.6374126 89.2271269,33.5335225 90.1227994,33.4689339 C89.8431184,33.0914561 89.5250102,32.6923472 89.5250102,32.0425005 C89.5250102,31.6860445 89.6249788,31.4758269 89.7243696,31.2226517 C89.5044964,31.2439781 89.285779,31.2649999 89.0864196,31.2649999 C86.9763885,31.2649999 85.7813881,29.6058038 85.7813881,27.9688482 C85.7813881,27.002761 86.2000427,25.931565 87.0552655,25.1552831 C88.1907471,24.1684788 89.5449462,24 90.6209089,24 L94.7222222,24 L93.447478,24.7558695 L92.2137613,24.7558695 L92.2137613,24.7558695 Z" id="Fill-115" fill="#F9F8F7"></path>
                    <path d="M81.218437,31.3094147 C81.698037,30.6407051 81.817792,29.8060317 81.817792,28.9910798 C81.817792,27.1536454 80.9800868,23.6465609 78.5055362,23.6465609 C77.8476085,23.6465609 77.1891009,23.9187172 76.7103707,24.3577475 C75.9321081,25.087442 75.7917656,26.0061592 75.7917656,26.9051549 C75.7917656,28.9704481 76.7695234,32.3725538 79.1843414,32.3725538 C79.9623141,32.3725538 80.7605842,31.9766073 81.218437,31.3094147 Z M78.7247488,33 C75.5528355,33 73.8568376,30.4110258 73.8568376,28.0723626 C73.8568376,25.3371462 75.9912607,23 79.0251513,23 C81.9569746,23 83.792735,25.3999515 83.792735,27.9270306 C83.792735,30.3894839 81.977852,33 78.7247488,33 L78.7247488,33 Z" id="Fill-116" fill="#F9F8F7"></path>
                    <path d="M70.2898948,31.3094147 C70.768611,30.6407051 70.8886524,29.8060317 70.8886524,28.9910798 C70.8886524,27.1536454 70.0503917,23.6465609 67.5759134,23.6465609 C66.9182948,23.6465609 66.2592265,23.9187172 65.7808003,24.3577475 C65.0025603,25.087442 64.8630918,26.0061592 64.8630918,26.9051549 C64.8630918,28.9704481 65.8402411,32.3725538 68.2552786,32.3725538 C69.0335186,32.3725538 69.8311855,31.9766073 70.2898948,31.3094147 Z M67.7956995,33 C64.6232988,33 62.9273504,30.4110258 62.9273504,28.0723626 C62.9273504,25.3371462 65.0625811,23 68.0952233,23 C71.027831,23 72.8632479,25.3999515 72.8632479,27.9270306 C72.8632479,30.3894839 71.0481278,33 67.7956995,33 L67.7956995,33 Z" id="Fill-117" fill="#F9F8F7"></path>
                    <path d="M61.1552281,32.9817725 L58.2233579,33.6544037 C57.0337767,33.8382503 55.9680732,34 54.8410236,34 C49.1817703,34 47.0299145,29.8622722 47.0299145,26.6213859 C47.0299145,22.6677993 50.0841806,19 55.3128256,19 C56.4203156,19 57.4854264,19.1626336 58.4488864,19.427797 C59.9866883,19.8558886 60.7038748,20.3853316 61.1552281,20.691448 L59.4532438,22.3015792 L58.7360574,22.4639181 L59.2484604,21.6483933 C58.5517227,20.9763514 57.2797539,19.7333242 54.8614723,19.7333242 C51.6216861,19.7333242 49.1817703,22.1801933 49.1817703,25.7469359 C49.1817703,29.5773688 51.9704995,33.1853591 56.4389861,33.1853591 C57.752445,33.1853591 58.4275486,32.9204903 59.0430843,32.6753614 L59.0430843,29.394406 L55.9479209,29.5573342 L57.5870772,28.6802326 L61.9337607,28.6802326 L61.4012053,29.1893463 C61.2568789,29.3122054 61.2370229,29.353453 61.1958291,29.5152027 C61.1744914,29.6990493 61.1552281,30.2903638 61.1552281,30.494245 L61.1552281,32.9817725" id="Fill-118" fill="#F9F8F7"></path>
                    <path d="M97.7342865,32.4657254 C97.1116573,32.4061387 96.9813522,32.2878248 96.9813522,31.5140577 L96.9813522,20.2971557 C96.9851687,20.254471 96.9878947,20.2109269 96.9917112,20.1693882 C97.0677679,19.4761203 97.2558652,19.3572335 97.8414201,19 L95.1434511,19 L93.7286325,19.7136075 L95.1704389,19.7136075 L95.1704389,19.7227747 L95.1693485,19.7153264 L95.1693485,31.9503581 C95.1693485,32.3459791 95.0949274,32.4061387 94.6606681,33 L97.9989857,33 L98.6965812,32.5654185 C98.3765432,32.5244526 98.0554149,32.5052589 97.7342865,32.4657254" id="Fill-119" fill="#F9F8F7"></path>
                    <path d="M105.48802,26.0342553 C105.893767,25.8893058 106.108006,25.7643285 106.108006,25.4735218 C106.108006,24.6425589 105.145798,23.6854082 103.989591,23.6854082 C103.132945,23.6854082 101.529577,24.3302669 101.529577,26.5750166 C101.529577,26.9284634 101.572238,27.3027901 101.594658,27.6780246 L105.48802,26.0342553 Z M107.498381,32.2304666 C107.263901,32.3554439 107.028487,32.5016038 106.794007,32.6047933 C106.08652,32.9164801 105.359414,33 104.716696,33 C104.033809,33 102.963236,32.9570296 101.871176,32.1887067 C100.353441,31.1486413 99.6901709,29.3605277 99.6901709,27.8017914 C99.6901709,24.5796163 102.385911,23 104.589336,23 C105.359414,23 106.151912,23.1867094 106.794007,23.5825213 C107.862401,24.2670217 108.140787,25.1609272 108.289634,25.6393512 L103.26342,27.6153846 L101.615833,27.7400593 C102.149874,30.3800157 103.989591,31.9175694 106.022684,31.9175694 C107.113498,31.9175694 107.905373,31.543848 108.632479,31.1910065 L107.498381,32.2304666 L107.498381,32.2304666 Z" id="Fill-120" fill="#F9F8F7"></path>
                    <polyline id="Fill-121" fill="#F9F8F7" points="109.206403 23.1874875 109.206403 25 109.052424 25 109.052424 23.1874875 108.632479 23.1874875 108.632479 23 109.626068 23 109.626068 23.1874875 109.206403 23.1874875"></polyline>
                    <polyline id="Fill-122" fill="#F9F8F7" points="110.389456 25 110.389456 23.1710973 110.37783 23.1710973 109.728148 25 109.528174 25 108.872912 23.1710973 108.865006 23.1710973 108.865006 25 108.632479 25 108.632479 23 109.031031 23 109.623976 24.61663 109.631882 24.61663 110.215525 23 110.619658 23 110.619658 25 110.389456 25"></polyline>
                    <path d="M49.5561608,12.2642643 C49.1990199,11.2074932 49.0201577,10.6360646 49.0201577,10.5499785 L48.9699713,10.5499785 C48.9699713,10.6297726 48.7852734,11.2012012 48.4152942,12.2642643 L49.5561608,12.2642643 Z M51.0042735,14 L50.0014197,14 C50.0014197,13.8650079 49.9060071,13.4820535 49.7160572,12.8511369 L48.2679444,12.8511369 C48.0715753,13.4717575 47.9732449,13.8547119 47.9732449,14 L47.0299145,14 C47.0299145,13.9202059 47.2738441,13.2646933 47.7617031,12.033748 C48.2495622,10.8030888 48.4937835,10.1249821 48.4937835,10 L49.6784173,10 C49.6784173,10.1166881 49.8992961,10.7847848 50.3413454,12.004576 C50.7833947,13.2240812 51.0042735,13.8896039 51.0042735,14 L51.0042735,14 Z" id="Fill-123" fill="#FCFBFA"></path>
                    <path d="M54.9786325,14 L54.2923341,14 C54.2923341,13.9159159 54.0376227,13.4729015 53.5284586,12.6698127 C52.9952456,11.8238238 52.6914022,11.2455312 52.6174454,10.9340769 L52.5729679,10.9340769 C52.6192555,11.3825254 52.64227,11.7880738 52.64227,12.1507222 C52.64227,12.6563707 52.6551995,13.2729873 52.6813171,14 L51.9978632,14 C52.025791,13.3653654 52.0394963,12.6678107 52.0394963,11.9079079 C52.0394963,11.1603032 52.025791,10.5242385 51.9978632,10 L52.8230246,10 C52.8230246,10.1086801 53.0516183,10.5419705 53.5090644,11.2995853 C53.9959897,12.1043901 54.2757843,12.6503647 54.347931,12.9372229 L54.389564,12.9372229 C54.3450865,12.4804805 54.3231063,12.0706421 54.3231063,11.7082797 C54.3231063,11.1531532 54.3099182,10.5837266 54.2840592,10 L54.9786325,10 C54.9525149,10.5079365 54.9395854,11.1440011 54.9395854,11.9079079 C54.9395854,12.6778207 54.9525149,13.3753754 54.9786325,14" id="Fill-124" fill="#FCFBFA"></path>
                    <path d="M58.213349,11.9849073 C58.213349,11.5970097 58.1121905,11.2703294 57.9098736,11.0043021 C57.7075566,10.7388391 57.3985314,10.6059666 56.9830501,10.6059666 C56.9053523,10.6059666 56.798644,10.614994 56.6631774,10.633331 C56.6813406,11.0373087 56.6904221,11.4593413 56.6904221,11.8999929 C56.6904221,12.3829607 56.6992514,12.8616969 56.7174145,13.3364835 C56.8349703,13.3627195 56.9522737,13.3756965 57.0698294,13.3756965 C57.4580661,13.3756965 57.745901,13.2408491 57.9328297,12.9711545 C58.1197585,12.7014599 58.213349,12.3728049 58.213349,11.9849073 Z M58.9529915,11.8545737 C58.9529915,12.42838 58.7887666,12.9291205 58.4598124,13.3576416 C58.1311104,13.7861626 57.6704736,14 57.0779019,14 C56.8105005,14 56.4419406,13.9878694 55.9722222,13.9636082 C55.9956829,13.35341 56.0075394,12.6656323 56.0075394,11.8999929 C56.0075394,11.1648212 55.9956829,10.5374145 55.9722222,10.0180549 L56.4464814,10.0180549 C56.5241792,10.0180549 56.6397168,10.0149517 56.7933464,10.0090274 C56.9467239,10.0028211 57.0471255,10 57.0940469,10 C57.7461533,10 58.2191511,10.1816771 58.5127881,10.5453135 C58.8061729,10.9089499 58.9529915,11.3453699 58.9529915,11.8545737 L58.9529915,11.8545737 Z" id="Fill-125" fill="#FCFBFA"></path>
                    <path d="M62.8604793,11.1866192 C62.8604793,10.7809253 62.6190585,10.5779359 62.1364804,10.5779359 C61.9590348,10.5779359 61.8026511,10.5921708 61.6668025,10.6206406 C61.6876011,10.9369395 61.698132,11.3486121 61.698132,11.8562278 C61.801598,11.8604982 61.8892677,11.8624911 61.961141,11.8624911 C62.5606121,11.8624911 62.8604793,11.6372954 62.8604793,11.1866192 Z M63.9209402,14 L63.0837342,14 C62.8649549,13.2782918 62.6972504,12.8330249 62.5803575,12.6636299 C62.4634646,12.4942349 62.2749616,12.4096797 62.0148486,12.4096797 C61.9053273,12.4096797 61.8008082,12.4108185 61.7007647,12.4128114 C61.7007647,12.9369395 61.7094527,13.4659075 61.7263021,14 L60.9401709,14 C60.964392,13.3841993 60.9767658,12.6901068 60.9767658,11.9174377 C60.9767658,11.175516 60.964392,10.5423488 60.9401709,10.0182206 L61.4293309,10.0182206 C61.4859345,10.0182206 61.6041437,10.015089 61.784222,10.0091103 C61.9643003,10.002847 62.1306884,10 62.2833863,10 C63.1487625,10 63.5815821,10.32 63.5815821,10.9602847 C63.5815821,11.4679004 63.3343694,11.8214947 62.8404706,12.0213523 L62.8404706,12.0671886 C63.0310797,12.1244128 63.1977311,12.2849822 63.3412145,12.5488968 C63.4844347,12.8128114 63.6776765,13.2967972 63.9209402,14 L63.9209402,14 Z" id="Fill-126" fill="#FCFBFA"></path>
                    <path d="M68.0273999,12.0058523 C68.0273999,11.5983668 67.91579,11.2679143 67.6931515,11.0144947 C67.470513,10.7613474 67.1955574,10.6345015 66.8688659,10.6345015 C66.5648451,10.6345015 66.3070379,10.762164 66.0945721,11.0174889 C65.8823971,11.2730861 65.7760189,11.5953726 65.7760189,11.9854372 C65.7760189,12.3907452 65.8879194,12.7206533 66.1117205,12.9748894 C66.3355217,13.2293978 66.609896,13.356788 66.9345529,13.356788 C67.238283,13.356788 67.4963809,13.2285812 67.7088467,12.9721674 C67.9210217,12.7157537 68.0273999,12.3937394 68.0273999,12.0058523 Z M68.8888889,11.9209255 C68.8888889,12.5194964 68.6932809,13.0157196 68.3020649,13.4093229 C67.9105583,13.8029262 67.4266247,14 66.8502642,14 C66.3006436,14 65.8405433,13.8192583 65.4702542,13.4575026 C65.0996745,13.0960191 64.9145299,12.6362708 64.9145299,12.0788023 C64.9145299,11.4805036 65.1098472,10.9842804 65.5013539,10.5906771 C65.8925698,10.1968016 66.3765034,10 66.9531546,10 C67.5027752,10 67.9625848,10.1801973 68.3331646,10.5408642 C68.7037443,10.9015311 68.8888889,11.3615515 68.8888889,11.9209255 L68.8888889,11.9209255 Z" id="Fill-127" fill="#FCFBFA"></path>
                    <path d="M69.8824786,14 L68.8888889,14 C68.9192849,13.3653654 68.9346463,12.6678107 68.9346463,11.9079079 C68.9346463,11.1603032 68.9192849,10.5242385 68.8888889,10 L69.8824786,10 C69.8520826,10.5162305 69.8367212,11.1520092 69.8367212,11.9079079 C69.8367212,12.6801087 69.8520826,13.3776634 69.8824786,14" id="Fill-128" fill="#FCFBFA"></path>
                    <path d="M74.1107849,11.9849073 C74.1107849,11.5970097 74.0093742,11.2703294 73.8073095,11.0043021 C73.6047403,10.7388391 73.2959673,10.6059666 72.880486,10.6059666 C72.8027882,10.6059666 72.6960799,10.614994 72.5606133,10.633331 C72.5787765,11.0373087 72.587858,11.4593413 72.587858,11.8999929 C72.587858,12.3829607 72.5966873,12.8616969 72.6148504,13.3364835 C72.7321539,13.3627195 72.8497096,13.3756965 72.9672653,13.3756965 C73.355502,13.3756965 73.6433369,13.2408491 73.8302656,12.9711545 C74.0171944,12.7014599 74.1107849,12.3728049 74.1107849,11.9849073 Z M74.8504274,11.8545737 C74.8504274,12.42838 74.6862025,12.9291205 74.3572483,13.3576416 C74.0285463,13.7861626 73.5676572,14 72.9753378,14 C72.7079364,14 72.3393765,13.9878694 71.8696581,13.9636082 C71.8931188,13.35341 71.9049753,12.6656323 71.9049753,11.8999929 C71.9049753,11.1648212 71.8931188,10.5374145 71.8696581,10.0180549 L72.3439173,10.0180549 C72.421615,10.0180549 72.5371527,10.0149517 72.6907823,10.0090274 C72.8441598,10.0028211 72.9445614,10 72.9914828,10 C73.6435892,10 74.116587,10.1816771 74.410224,10.5453135 C74.7036088,10.9089499 74.8504274,11.3453699 74.8504274,11.8545737 L74.8504274,11.8545737 Z" id="Fill-129" fill="#FCFBFA"></path>
                    <path d="M79.3638531,12.2642643 C79.0067122,11.2074932 78.8275583,10.6360646 78.8275583,10.5499785 L78.7776636,10.5499785 C78.7776636,10.6297726 78.5929657,11.2012012 78.2229865,12.2642643 L79.3638531,12.2642643 Z M80.8119658,14 L79.809112,14 C79.809112,13.8650079 79.7139912,13.4820535 79.5234577,12.8511369 L78.0753449,12.8511369 C77.8789758,13.4717575 77.7809372,13.8547119 77.7809372,14 L76.8376068,14 C76.8376068,13.9202059 77.0815364,13.2646933 77.5693954,12.033748 C78.0572545,10.8030888 78.301184,10.1249821 78.301184,10 L79.4858178,10 C79.4858178,10.1166881 79.7069884,10.7847848 80.1490377,12.004576 C80.5907953,13.2240812 80.8119658,13.8896039 80.8119658,14 L80.8119658,14 Z" id="Fill-130" fill="#FCFBFA"></path>
                    <path d="M83.9769459,11.2293238 C83.9769459,10.7931673 83.6798913,10.5748043 83.0857821,10.5748043 C82.9371087,10.5748043 82.7802569,10.5901779 82.6152265,10.6206406 C82.6383016,11.006121 82.649693,11.4422776 82.649693,11.9296797 C82.701977,11.9339502 82.7627315,11.9356584 82.8316646,11.9356584 C83.5951855,11.9356584 83.9769459,11.7002135 83.9769459,11.2293238 Z M84.7863248,11.0610676 C84.7863248,11.5484698 84.6008482,11.9083274 84.2293109,12.1406406 C83.8583577,12.3732384 83.4026987,12.489395 82.8629181,12.489395 C82.7647761,12.489395 82.6946748,12.4874021 82.652906,12.4831317 C82.652906,12.8666192 82.6642975,13.3719573 82.6873725,14 L81.8055556,14 C81.8327198,13.4109609 81.846448,12.7168683 81.846448,11.9174377 C81.846448,11.1834875 81.8327198,10.5503203 81.8055556,10.0182206 L82.3517622,10.0182206 C82.4288737,10.0182206 82.577547,10.015089 82.797198,10.0091103 C83.016849,10.002847 83.206999,10 83.3682322,10 C83.7654734,10 84.1013759,10.0874021 84.3753554,10.2627758 C84.6496271,10.4384342 84.7863248,10.7043416 84.7863248,11.0610676 L84.7863248,11.0610676 Z" id="Fill-131" fill="#FCFBFA"></path>
                    <path d="M87.9513049,11.2293238 C87.9513049,10.7931673 87.6542503,10.5748043 87.060141,10.5748043 C86.9114677,10.5748043 86.7546158,10.5901779 86.5895855,10.6206406 C86.6126605,11.006121 86.624052,11.4422776 86.624052,11.9296797 C86.676336,11.9339502 86.7370905,11.9356584 86.8060235,11.9356584 C87.5695444,11.9356584 87.9513049,11.7002135 87.9513049,11.2293238 Z M88.7606838,11.0610676 C88.7606838,11.5484698 88.5749151,11.9083274 88.2039619,12.1406406 C87.8327167,12.3732384 87.3770577,12.489395 86.8372771,12.489395 C86.738843,12.489395 86.6690337,12.4874021 86.627265,12.4831317 C86.627265,12.8666192 86.6386565,13.3719573 86.6617315,14 L85.7799145,14 C85.8070788,13.4109609 85.820807,12.7168683 85.820807,11.9174377 C85.820807,11.1834875 85.8070788,10.5503203 85.7799145,10.0182206 L86.3258291,10.0182206 C86.4032327,10.0182206 86.551906,10.015089 86.771557,10.0091103 C86.991208,10.002847 87.181358,10 87.3425912,10 C87.7398324,10 88.0757348,10.0874021 88.3497144,10.2627758 C88.623694,10.4384342 88.7606838,10.7043416 88.7606838,11.0610676 L88.7606838,11.0610676 Z" id="Fill-132" fill="#FCFBFA"></path>
                    <path d="M94.8540954,12.0058523 C94.8540954,11.5983668 94.7427843,11.2679143 94.5198714,11.0144947 C94.2972492,10.7613474 94.0226043,10.6345015 93.695646,10.6345015 C93.3919382,10.6345015 93.1338591,10.762164 92.9214089,11.0174889 C92.7092494,11.2730861 92.6031696,11.5953726 92.6031696,11.9854372 C92.6031696,12.3907452 92.7147713,12.7206533 92.9388467,12.9748894 C93.1626314,13.2293978 93.4366951,13.356788 93.7613283,13.356788 C94.0653268,13.356788 94.3234058,13.2285812 94.5355654,12.9721674 C94.7480156,12.7157537 94.8540954,12.3937394 94.8540954,12.0058523 Z M95.715812,11.9209255 C95.715812,12.5194964 95.5202183,13.0157196 95.1287403,13.4093229 C94.7372623,13.8029262 94.2533641,14 93.6770457,14 C93.1274653,14 92.6673987,13.8192583 92.2971367,13.4575026 C91.9268746,13.0960191 91.741453,12.6362708 91.741453,12.0788023 C91.741453,11.4805036 91.9370467,10.9842804 92.328234,10.5906771 C92.719712,10.1968016 93.2036102,10 93.7802192,10 C94.3295091,10 94.7895756,10.1801973 95.1601283,10.5408642 C95.5303903,10.9015311 95.715812,11.3615515 95.715812,11.9209255 L95.715812,11.9209255 Z" id="Fill-133" fill="#FCFBFA"></path>
                    <path d="M99.6901709,14 L99.0040716,14 C99.0040716,13.9159159 98.7495968,13.4729015 98.2401299,12.6698127 C97.706612,11.8238238 97.4030008,11.2455312 97.328779,10.9340769 L97.2845562,10.9340769 C97.3305893,11.3825254 97.3538644,11.7880738 97.3538644,12.1507222 C97.3538644,12.6563707 97.366795,13.2729873 97.3926563,14 L96.7094017,14 C96.7370733,13.3653654 96.7510383,12.6678107 96.7510383,11.9079079 C96.7510383,11.1603032 96.7370733,10.5242385 96.7094017,10 L97.534376,10 C97.534376,10.1086801 97.7632482,10.5419705 98.2207339,11.2995853 C98.7077015,12.1043901 98.9872618,12.6503647 99.0596733,12.9372229 L99.10131,12.9372229 C99.0568286,12.4804805 99.0345879,12.0706421 99.0345879,11.7082797 C99.0345879,11.1531532 99.0216573,10.5837266 98.995796,10 L99.6901709,10 C99.6643097,10.5079365 99.651379,11.1440011 99.651379,11.9079079 C99.651379,12.6778207 99.6643097,13.3753754 99.6901709,14" id="Fill-134" fill="#FCFBFA"></path>
                </g>
            </g>
        </g>
    </g>
</svg>