<?xml version="1.0" encoding="UTF-8"?>
<svg width="71px" height="71px" viewBox="0 0 71 71" version="1.1" xmlns="http://www.w3.org/2000/svg" xmlns:xlink="http://www.w3.org/1999/xlink">
    <title>seccion7_icono1</title>
    <g id="Page-1" stroke="none" stroke-width="1" fill="none" fill-rule="evenodd">
        <g id="Desktop-HD-Copy-5" transform="translate(-396.000000, -2931.000000)" fill="#EB4555" fill-rule="nonzero">
            <g id="enterprise" transform="translate(396.000000, 2931.000000)">
                <path d="M69.0701922,21.2975039 L56.9340647,21.2975039 L56.9340647,17.8917227 C56.9340647,16.499041 55.7965333,15.3658145 54.398251,15.3658145 L52.4826431,15.3658145 L52.4826431,12.903418 C52.4826431,11.7750449 51.5611745,10.8570371 50.4283765,10.8570371 L49.321751,10.8570371 L49.321751,1.04003906 C49.321751,0.465660156 48.8544039,-3.94129174e-15 48.2776333,-3.94129174e-15 C47.7008627,-3.94129174e-15 47.2335157,0.465660156 47.2335157,1.04003906 L47.2335157,10.8570371 L44.8508392,10.8570371 L44.8508392,4.90413086 C44.8508392,4.32975195 44.3834922,3.8640918 43.8067216,3.8640918 C43.229951,3.8640918 42.7626039,4.32975195 42.7626039,4.90413086 L42.7626039,10.8570371 L27.3748157,10.8570371 C26.2420176,10.8570371 25.3204098,11.7750449 25.3204098,12.903418 L25.3204098,15.3629023 L23.4049412,15.3658145 C22.0066588,15.3658145 20.8691275,16.4989023 20.8691275,17.8917227 L20.8691275,23.1702676 L13.2643314,26.6231973 C12.7396275,26.8614355 12.5081118,27.478248 12.7474235,28.0009023 C12.9225569,28.3836367 13.3016412,28.6098105 13.6981275,28.6098105 C13.843051,28.6098105 13.990202,28.5795801 14.1305314,28.515791 L20.8692667,25.4561348 L20.8692667,35.456457 L9.41975098,35.456457 C8.47197059,35.456457 7.7008549,36.2245605 7.7008549,37.1686387 L7.7008549,41.0640703 C7.7008549,42.0081484 8.47197059,42.776252 9.41975098,42.776252 L20.8692667,42.776252 L20.8692667,46.7575215 L9.41975098,46.7575215 C8.47197059,46.7575215 7.7008549,47.5274277 7.7008549,48.4735859 L7.7008549,52.3651348 C7.7008549,53.3114316 8.47197059,54.0811992 9.41975098,54.0811992 L20.8692667,54.0811992 L20.8692667,58.0624687 L9.41975098,58.0624687 C8.47197059,58.0624687 7.7008549,58.8305723 7.7008549,59.7746504 L7.7008549,63.670082 C7.7008549,64.6141602 8.47197059,65.3822637 9.41975098,65.3822637 L20.8692667,65.3822637 L20.8692667,68.9199219 L2.19264706,68.9199219 L2.19264706,34.4130898 C2.19264706,34.0026211 2.56240392,33.7647988 3.67376275,33.2586465 L9.7225451,30.512666 C10.247249,30.2744277 10.4787647,29.6576152 10.2395922,29.1349609 C10.0004196,28.612168 9.38104902,28.3816953 8.85648431,28.6199336 L2.8373549,31.3524629 L2.80547451,31.3668848 C1.66557647,31.8860723 0.104411765,32.597043 0.104411765,34.4130898 L0.104411765,69.3113926 C0.104411765,70.2424355 0.863137255,71 1.79574314,71 L69.0701922,71 C70.0767216,71 70.8955882,70.1825293 70.8955882,69.1777129 L70.8955882,23.1157695 C70.8955882,22.1131719 70.0767216,21.2975039 69.0701922,21.2975039 Z M56.9340647,30.307709 L62.639402,30.307709 L62.639402,33.4713691 L56.9340647,33.4713691 L56.9340647,30.307709 Z M56.9340647,41.6127949 L62.639402,41.6127949 L62.639402,44.7725723 L56.9340647,44.7725723 L56.9340647,41.6127949 Z M56.9340647,52.9141367 L62.639402,52.9141367 L62.639402,56.0739141 L56.9340647,56.0739141 L56.9340647,52.9141367 Z M9.78895098,40.6963125 L9.78895098,37.5365352 L20.8691275,37.5365352 L20.8691275,40.6963125 L9.78895098,40.6963125 Z M9.78895098,52.0015371 L9.78895098,48.837877 L20.8691275,48.837877 L20.8691275,52.0015371 L9.78895098,52.0015371 Z M9.78895098,63.3027402 L9.78895098,60.1429629 L20.8691275,60.1429629 L20.8691275,63.3027402 L9.78895098,63.3027402 Z M22.9573627,17.891584 C22.9573627,17.6498789 23.1622882,17.4457539 23.4064725,17.4457539 L36.6932176,17.4260625 C37.2699882,17.4252305 37.7366392,16.958877 37.7358039,16.384498 C37.7349686,15.8105352 37.2677608,15.3459844 36.6916863,15.3459844 C36.6912686,15.3459844 36.6905725,15.3459844 36.6901549,15.3459844 L27.4086451,15.3597129 L27.4086451,12.9371152 L50.3944078,12.9371152 L50.3944078,15.3658145 L41.5297098,15.3658145 C40.9529392,15.3658145 40.4855922,15.8314746 40.4855922,16.4058535 C40.4855922,16.9802324 40.9529392,17.4458926 41.5297098,17.4458926 L54.398251,17.4458926 C54.6407647,17.4458926 54.8458294,17.6500176 54.8458294,17.8917227 L54.8458294,68.9199219 L46.6621745,68.9199219 L46.6621745,58.5469883 L48.8617824,58.5469883 C49.4385529,58.5469883 49.9059,58.0813281 49.9059,57.5069492 C49.9059,56.9325703 49.4385529,56.4669102 48.8617824,56.4669102 L45.6180569,56.4669102 L32.1852745,56.4669102 L28.941549,56.4669102 C28.3649176,56.4669102 27.8974314,56.9325703 27.8974314,57.5069492 C27.8974314,58.0813281 28.3649176,58.5469883 28.941549,58.5469883 L31.1411569,58.5469883 L31.1411569,68.9199219 L22.9573627,68.9199219 L22.9573627,17.891584 L22.9573627,17.891584 Z M33.2292529,58.5469883 L37.8573392,58.5469883 L37.8573392,68.9199219 L33.2292529,68.9199219 L33.2292529,58.5469883 Z M39.9457137,68.9199219 L39.9457137,58.5469883 L44.5739392,58.5469883 L44.5739392,68.9199219 L39.9457137,68.9199219 Z M68.8073529,68.9199219 L56.9340647,68.9199219 L56.9340647,58.1538535 L63.0048431,58.1538535 C63.9547118,58.1538535 64.7276373,57.38575 64.7276373,56.4416719 L64.7276373,52.5462402 C64.7276373,51.6021621 63.9547118,50.8340586 63.0048431,50.8340586 L56.9340647,50.8340586 L56.9340647,46.8527891 L63.0048431,46.8527891 C63.9547118,46.8527891 64.7276373,46.0846855 64.7276373,45.1406074 L64.7276373,41.2450371 C64.7276373,40.300959 63.9547118,39.5328555 63.0048431,39.5328555 L56.9340647,39.5328555 L56.9340647,35.5515859 L63.0048431,35.5515859 C63.9547118,35.5515859 64.7276373,34.7816797 64.7276373,33.8355215 L64.7276373,29.9439727 C64.7276373,28.9976758 63.9547118,28.2279082 63.0048431,28.2279082 L56.9340647,28.2279082 L56.9340647,23.3778594 L68.8073529,23.3778594 L68.8073529,68.9199219 Z" id="Shape"></path>
                <path d="M29.0362157,28.9200195 L35.2790647,28.9200195 C36.0767706,28.9200195 36.7256549,28.2735312 36.7256549,27.4789414 L36.7256549,22.7423262 C36.7256549,21.9477363 36.0767706,21.301248 35.2790647,21.301248 L29.0362157,21.301248 C28.2385098,21.301248 27.5894863,21.9477363 27.5894863,22.7423262 L27.5894863,27.4789414 C27.5894863,28.2736699 28.2385098,28.9200195 29.0362157,28.9200195 L29.0362157,28.9200195 Z M29.6777216,23.3814648 L34.6372804,23.3814648 L34.6372804,26.8399414 L29.6777216,26.8399414 L29.6777216,23.3814648 Z" id="Shape"></path>
                <path d="M42.5241275,28.9200195 L48.7671157,28.9200195 C49.5646824,28.9200195 50.2137059,28.2735312 50.2137059,27.4789414 L50.2137059,22.7423262 C50.2137059,21.9477363 49.5648216,21.301248 48.7671157,21.301248 L42.5241275,21.301248 C41.7265608,21.301248 41.0775373,21.9477363 41.0775373,22.7423262 L41.0775373,27.4789414 C41.0775373,28.2736699 41.7265608,28.9200195 42.5241275,28.9200195 Z M43.1657725,23.3814648 L48.1253314,23.3814648 L48.1253314,26.8399414 L43.1657725,26.8399414 L43.1657725,23.3814648 Z" id="Shape"></path>
                <path d="M29.0362157,39.8321094 L35.2790647,39.8321094 C36.0767706,39.8321094 36.7256549,39.1856211 36.7256549,38.3911699 L36.7256549,33.6584375 C36.7256549,32.8616289 36.0767706,32.2134766 35.2790647,32.2134766 L29.0362157,32.2134766 C28.2385098,32.2134766 27.5894863,32.8616289 27.5894863,33.6584375 L27.5894863,38.3911699 C27.5894863,39.1857598 28.2385098,39.8321094 29.0362157,39.8321094 L29.0362157,39.8321094 Z M29.6777216,34.2935547 L34.6372804,34.2935547 L34.6372804,37.7520313 L29.6777216,37.7520313 L29.6777216,34.2935547 Z" id="Shape"></path>
                <path d="M42.5241275,39.8321094 L48.7671157,39.8321094 C49.5646824,39.8321094 50.2137059,39.1856211 50.2137059,38.3911699 L50.2137059,33.6584375 C50.2137059,32.8616289 49.5648216,32.2134766 48.7671157,32.2134766 L42.5241275,32.2134766 C41.7265608,32.2134766 41.0775373,32.8616289 41.0775373,33.6584375 L41.0775373,38.3911699 C41.0775373,39.1857598 41.7265608,39.8321094 42.5241275,39.8321094 Z M43.1657725,34.2935547 L48.1253314,34.2935547 L48.1253314,37.7520313 L43.1657725,37.7520313 L43.1657725,34.2935547 Z" id="Shape"></path>
                <path d="M29.0362157,50.748082 L35.2790647,50.748082 C36.0767706,50.748082 36.7256549,50.1015937 36.7256549,49.3071426 L36.7256549,44.5705273 C36.7256549,43.7759375 36.0767706,43.1294492 35.2790647,43.1294492 L29.0362157,43.1294492 C28.2385098,43.1294492 27.5894863,43.7759375 27.5894863,44.5705273 L27.5894863,49.3072812 C27.5894863,50.1017324 28.2385098,50.748082 29.0362157,50.748082 L29.0362157,50.748082 Z M29.6777216,45.2095273 L34.6372804,45.2095273 L34.6372804,48.6680039 L29.6777216,48.6680039 L29.6777216,45.2095273 Z" id="Shape"></path>
                <path d="M42.5241275,50.748082 L48.7671157,50.748082 C49.5646824,50.748082 50.2137059,50.1015937 50.2137059,49.3071426 L50.2137059,44.5705273 C50.2137059,43.7759375 49.5648216,43.1294492 48.7671157,43.1294492 L42.5241275,43.1294492 C41.7265608,43.1294492 41.0775373,43.7759375 41.0775373,44.5705273 L41.0775373,49.3072812 C41.0775373,50.1017324 41.7265608,50.748082 42.5241275,50.748082 Z M43.1657725,45.2095273 L48.1253314,45.2095273 L48.1253314,48.6680039 L43.1657725,48.6680039 L43.1657725,45.2095273 Z" id="Shape"></path>
            </g>
        </g>
    </g>
</svg>