<?xml version="1.0" encoding="UTF-8"?>
<svg width="81px" height="63px" viewBox="0 0 81 63" version="1.1" xmlns="http://www.w3.org/2000/svg" xmlns:xlink="http://www.w3.org/1999/xlink">
    <title>seccion7_icono2</title>
    <g id="Page-1" stroke="none" stroke-width="1" fill="none" fill-rule="evenodd">
        <g id="Desktop-HD-Copy-5" transform="translate(-1040.000000, -2939.000000)" fill="#EB4555" fill-rule="nonzero">
            <g id="partner-(1)" transform="translate(1040.000000, 2939.000000)">
                <path d="M78.2314737,17.7889523 C77.7955263,17.0320025 76.8304737,16.7725628 76.0746316,17.2096055 C75.3194211,17.6466482 75.0606316,18.6147588 75.4967368,19.3718668 L77.6025789,23.0285578 C77.7137368,23.2213568 77.6889474,23.4049749 77.6643158,23.4972588 C77.6396842,23.5895427 77.5694211,23.7611307 77.3771053,23.8724095 L71.8084737,27.0955402 C71.5138421,27.2655452 71.1364737,27.1640804 70.9665789,26.8693417 L59.7639474,7.41753769 C59.5940526,7.12248241 59.6952632,6.74384925 59.9895789,6.57336935 L65.5580526,3.35039698 C65.8523684,3.18039196 66.2303684,3.28138191 66.4001053,3.57643719 L68.3914737,7.03431407 C68.8275789,7.7915804 69.7932632,8.0510201 70.5483158,7.6136608 C71.3035263,7.17661809 71.5623158,6.20850754 71.1262105,5.4513995 L69.1348421,1.99352261 C68.0944737,0.186942211 65.7819474,-0.434668342 63.9792632,0.608630653 L58.4106316,3.83176131 C57.5646316,4.32151508 56.9793158,5.09223618 56.7037895,5.9590402 L40.9174737,5.9590402 C38.7011053,5.9590402 36.6173684,6.82426131 35.0499474,8.39546231 L33.4324737,10.017 C32.0142632,9.67809799 30.5613158,9.5038191 29.1001579,9.5038191 L24.1984737,9.5038191 C23.9535789,8.55549497 23.3452105,7.70198744 22.4341579,7.1745603 L16.8655263,3.95142965 C15.9923684,3.44600503 14.9748947,3.31193216 14.0014737,3.57342965 C13.0277368,3.83492714 12.2137895,4.46112814 11.7097895,5.33632161 L0.507315789,24.7882839 C0.00331578947,25.6634774 -0.130736842,26.683191 0.130105263,27.6595327 C0.390947368,28.6358744 1.01557895,29.4517085 1.88873684,29.9569749 L7.45736842,33.1801055 C8.05026316,33.5232814 8.69810526,33.6863216 9.33805263,33.6863216 C9.57126316,33.6863216 9.80321053,33.6636859 10.0312105,33.6212638 L14.589,38.1906633 C14.5192105,38.5498266 14.4830526,38.9181709 14.4830526,39.2923719 C14.4830526,40.8133945 15.0738947,42.2435578 16.1467895,43.3189899 C17.1740526,44.3486759 18.5000526,44.900005 19.8476842,44.9745603 C19.827,45.1730578 19.8157895,45.3734548 19.8157895,45.5757513 C19.8157895,47.0969322 20.4066316,48.5269372 21.4795263,49.6023693 C22.5524211,50.6779598 23.9788421,51.2702864 25.4960526,51.2702864 C25.5372632,51.2702864 25.578,51.2682286 25.6190526,51.2672789 C25.6181053,51.3084347 25.6160526,51.3492739 25.6160526,51.3905879 C25.6160526,52.9117688 26.2068947,54.3417739 27.2797895,55.417206 C28.3526842,56.4927965 29.7791053,57.0851231 31.2963158,57.0851231 C31.3375263,57.0851231 31.3782632,57.0830653 31.4193158,57.0821156 C31.4183684,57.1232714 31.4163158,57.1641106 31.4163158,57.2054246 C31.4163158,58.7264472 32.0071579,60.1566106 33.0800526,61.2320427 C34.1529474,62.3074749 35.5793684,62.8999598 37.0965789,62.8999598 C38.6137895,62.8999598 40.0403684,62.3076332 41.1131053,61.2320427 L43.3593158,58.9803467 C44.0178947,58.3201131 44.4789474,57.5362538 44.7459474,56.7030075 C45.7438421,57.4412789 46.9296316,57.8105729 48.1158947,57.8104146 C49.5702632,57.8102563 51.0252632,57.2552864 52.1324211,56.1451884 C52.7949474,55.4809975 53.2728947,54.6814673 53.5422632,53.8091231 C54.4563158,54.4082563 55.524,54.7305377 56.6415789,54.7305377 C58.1587895,54.7305377 59.5853684,54.1382111 60.6581053,53.0626206 C61.4553158,52.2632487 61.9858421,51.2682286 62.2061053,50.1855151 C62.7764211,50.3748317 63.3789474,50.4747136 63.9971053,50.4747136 C65.5143158,50.4747136 66.9410526,49.8823869 68.0137895,48.8066382 C70.2284211,46.5862839 70.2284211,42.973598 68.0137895,40.7532437 L64.3285263,37.0587211 L71.0553158,30.3150302 C71.2046842,30.3329171 71.3551579,30.3430477 71.5062632,30.3430477 C72.1462105,30.3430477 72.7942105,30.1800075 73.3869474,29.8369899 L78.9555789,26.6140176 C79.8285789,26.108593 80.4532105,25.2927588 80.7142105,24.3164171 C80.9752105,23.3400754 80.8413158,22.3208367 80.3373158,21.4456432 L78.2314737,17.7889523 Z M3.46752632,27.2153668 C3.27521053,27.1040879 3.20510526,26.9326583 3.18047368,26.8402161 C3.15584211,26.7479322 3.13105263,26.5643141 3.24221053,26.3713568 L14.4446842,6.91923618 C14.5556842,6.72643719 14.7268421,6.65615578 14.8188947,6.63146231 C14.8582105,6.62101508 14.9141053,6.61040955 14.9801053,6.61040955 C15.069,6.61040955 15.1762105,6.62956281 15.2864211,6.69319598 L20.8550526,9.91632663 C21.1492105,10.0866482 21.2505789,10.4652814 21.0806842,10.7603367 L9.87821053,30.212299 C9.70815789,30.507196 9.33078947,30.6088191 9.03631579,30.4384975 L3.46752632,27.2153668 Z M17.6409474,39.2922136 C17.6409474,38.6166256 17.9033684,37.9817186 18.3798947,37.503995 L19.7425263,36.1379397 C20.2342105,35.6448618 20.8801579,35.398402 21.5262632,35.398402 C22.1720526,35.398402 22.8181579,35.6450201 23.3098421,36.1379397 C23.7863684,36.6156633 24.0487895,37.2505704 24.0487895,37.926 C24.0487895,38.6014296 23.7863684,39.236495 23.3098421,39.7140603 L21.9472105,41.0801156 C20.9636842,42.0662714 19.3634211,42.0661131 18.3798947,41.0801156 C17.9033684,40.6027085 17.6409474,39.9676432 17.6409474,39.2922136 L17.6409474,39.2922136 Z M25.4962105,48.1044573 C24.8223158,48.1044573 24.189,47.8413769 23.7126316,47.3638116 C23.2361053,46.8862462 22.9736842,46.2511809 22.9736842,45.5757513 C22.9736842,44.9003216 23.2361053,44.2652563 23.7126316,43.787691 L25.9586842,41.535995 C26.4503684,41.0430754 27.0963158,40.7966156 27.7422632,40.7966156 C28.3883684,40.7966156 29.0343158,41.0430754 29.526,41.535995 C30.0025263,42.0135603 30.2649474,42.6486256 30.2649474,43.3240553 C30.2649474,43.9994849 30.0025263,44.6345503 29.526,45.1121156 L27.2799474,47.3638116 C26.8034211,47.8415352 26.1699474,48.1044573 25.4962105,48.1044573 Z M31.2964737,53.9194523 C30.6225789,53.9194523 29.9892632,53.6563719 29.5128947,53.1788065 C29.0363684,52.7012412 28.7739474,52.0661759 28.7739474,51.3907462 C28.7739474,50.7153166 29.0363684,50.0802513 29.5128947,49.6025276 L31.7589474,47.3508317 C32.2506316,46.8579121 32.8965789,46.6114523 33.5425263,46.6114523 C34.1884737,46.6114523 34.8345789,46.8579121 35.3262632,47.3509899 C35.8027895,47.8285553 36.0652105,48.4636206 36.0652105,49.1390503 C36.0652105,49.8144799 35.8027895,50.4495452 35.3262632,50.9271106 L33.0802105,53.1788065 C32.6038421,53.6563719 31.9703684,53.9194523 31.2964737,53.9194523 Z M41.1265263,56.7419472 L38.8803158,58.9938015 C38.4039474,59.4713668 37.7706316,59.7344472 37.0967368,59.7344472 C36.4228421,59.7344472 35.7895263,59.4713668 35.3131579,58.9938015 C34.8366316,58.5160779 34.5742105,57.8811709 34.5742105,57.2057412 C34.5742105,56.5301533 34.8366316,55.8952462 35.3131579,55.4175226 L37.5592105,53.1658266 C38.0508947,52.6727487 38.6968421,52.4262889 39.3429474,52.4262889 C39.9887368,52.4262889 40.6348421,52.672907 41.1265263,53.1656683 C42.1100526,54.1515075 42.1100526,55.7559497 41.1265263,56.7419472 L41.1265263,56.7419472 Z M65.7811579,46.568397 C65.3046316,47.0461206 64.6713158,47.309201 63.9974211,47.309201 C63.3236842,47.309201 62.6903684,47.0461206 62.2138421,46.568397 L47.1427895,31.4594774 C46.5262105,30.8415075 45.5267368,30.8413492 44.9096842,31.4594774 C44.2931053,32.0776055 44.2931053,33.079907 44.9096842,33.6980352 L58.4254737,47.2479422 C58.902,47.7255075 59.1644211,48.3605729 59.1644211,49.0360025 C59.1644211,49.7114322 58.902,50.3464975 58.4254737,50.8242211 C57.9491053,51.3017864 57.3157895,51.5648668 56.6418947,51.5648668 C55.968,51.5648668 55.3346842,51.3017864 54.8583158,50.8242211 L38.6171053,34.5422035 C38.0005263,33.9242337 37.0007368,33.9242337 36.384,34.5422035 C35.7674211,35.1603317 35.7674211,36.1626332 36.384,36.7807613 L49.8997895,50.3306683 C50.3763158,50.8082337 50.6387368,51.443299 50.6387368,52.1187286 C50.6387368,52.7941583 50.3763158,53.4292236 49.8997895,53.9067889 C48.9164211,54.8927864 47.3161579,54.893103 46.3324737,53.9067889 L43.3599474,50.926794 C43.3558421,50.9226784 43.3512632,50.919196 43.3471579,50.9152387 C42.21,49.7820302 40.71,49.2329171 39.2201053,49.2650503 C39.2210526,49.223103 39.2231053,49.1813141 39.2231053,49.1390503 C39.2231053,47.6180276 38.6322632,46.1878643 37.5593684,45.1122739 C36.4207895,43.9708342 34.9151053,43.4179221 33.4196842,43.4500553 C33.4206316,43.408108 33.4226842,43.3663191 33.4226842,43.3242136 C33.4226842,41.8030327 32.8318421,40.3730276 31.7589474,39.2974372 C30.5137895,38.0491508 28.8295263,37.5028869 27.2000526,37.6581709 C27.1348421,36.2378216 26.5523684,34.9116558 25.5427895,33.8995402 C23.328,31.6791859 19.7242105,31.6796608 17.5094211,33.8995402 L16.1467895,35.2655955 C16.1452105,35.2671784 16.1436316,35.2689196 16.1420526,35.2705025 L12.6358421,31.7554824 L23.6273684,12.6696482 L29.1,12.6696482 C29.6362105,12.6696482 30.171,12.6981407 30.7027895,12.7535427 L28.8978947,14.5629724 C27.825,15.6385628 27.2341579,17.0687261 27.2341579,18.5897487 C27.2341579,20.1109296 27.825,21.5409347 28.8978947,22.6165251 C30.0053684,23.7266231 31.4600526,24.2817513 32.9144211,24.2817513 C34.3691053,24.2817513 35.8237895,23.7267814 36.9311053,22.6165251 L41.1936316,18.3432889 L65.781,42.9922764 C66.7645263,43.9781156 66.7645263,45.5825578 65.7811579,46.568397 L65.7811579,46.568397 Z M50.6109474,23.3066759 C52.9086316,21.6395503 54.3170526,18.9492286 54.3170526,16.0263769 C54.3170526,15.1521332 53.61,14.4434623 52.7381053,14.4434623 C51.8662105,14.4434623 51.1591579,15.1521332 51.1591579,16.0263769 C51.1591579,18.0941382 50.0696842,19.9801809 48.3314211,21.0215804 L42.3175263,14.9925754 C41.7007895,14.3744472 40.7027368,14.3583015 40.086,14.9764296 L34.6981579,20.377809 C33.7146316,21.3638065 32.1143684,21.3636482 31.1308421,20.377809 C30.6543158,19.9002437 30.3918947,19.2651784 30.3918947,18.5897487 C30.3918947,17.9143191 30.6543158,17.2792538 31.1308421,16.8015302 L37.2828947,10.6340201 C38.2536316,9.66084422 39.5444211,9.12486935 40.9174737,9.12486935 L57.1008947,9.12486935 L68.2316842,28.4525729 C68.2580526,28.4983191 68.2867895,28.5418492 68.3147368,28.5860126 L62.0958947,34.8204799 L50.6109474,23.3066759 Z" id="XMLID_429_"></path>
                <path d="M73.3117895,13.9951809 C73.7270526,13.9951809 74.1328421,13.825809 74.4281053,13.5313869 C74.7216316,13.2353819 74.8907368,12.8285729 74.8907368,12.4122663 C74.8907368,11.9943769 74.7217895,11.5875678 74.4281053,11.2915628 C74.1328421,10.9971407 73.7270526,10.8293518 73.3117895,10.8293518 C72.8949474,10.8293518 72.4891579,10.9971407 72.1954737,11.2915628 C71.9002105,11.5875678 71.7328421,11.9943769 71.7328421,12.4122663 C71.7328421,12.8285729 71.9002105,13.2353819 72.1954737,13.5313869 C72.4891579,13.8259673 72.8949474,13.9951809 73.3117895,13.9951809 Z" id="XMLID_436_"></path>
            </g>
        </g>
    </g>
</svg>