<?xml version="1.0" encoding="UTF-8"?>
<svg width="181px" height="126px" viewBox="0 0 181 126" version="1.1" xmlns="http://www.w3.org/2000/svg" xmlns:xlink="http://www.w3.org/1999/xlink">
    <title>mapaSVG</title>
    <g id="PROTOTIPO" stroke="none" stroke-width="1" fill="none" fill-rule="evenodd">
        <g id="mapa">
            <polygon id="Fill-1" fill="#DDD6C8" points="48 63 47 63.1620963 48 68"></polygon>
            <polygon id="Fill-2" fill="#CBCCCB" points="48 0 0 17.8392037 0 126 48 108.161945"></polygon>
            <polygon id="Fill-3" fill="#E4E4E3" points="48 0 48 107.882818 91 124 91 16.1177547"></polygon>
            <polygon id="Fill-4" fill="#CBCCCB" points="134 0 91 16.1177547 91 124 134 107.882818"></polygon>
            <polygon id="Fill-5" fill="#E4E4E3" points="134 0 134 108.161945 181 126 181 17.8392037"></polygon>
            <g id="Group-138" transform="translate(5.000000, 5.000000)">
                <path d="M171.885333,113.752848 C171.883613,80.816538 171.885333,47.880228 171.885333,14.943918 C157.583533,9.959838 143.23988,5.100018 128.91572,0.182058 C128.92088,33.118368 128.986813,66.054108 128.9914,98.992128 C143.273707,103.957968 157.565187,108.893598 171.885333,113.752848" id="Fill-6" fill="#E2DAC8"></path>
                <path d="M128.990024,93.413196 C130.804624,92.579286 131.689851,92.166036 133.427624,91.346946 C132.905891,83.976846 132.362944,76.608456 131.775851,69.242916 C130.664731,67.939326 130.104011,67.520376 128.973397,66.219066 C128.983144,75.361296 128.987731,84.270966 128.990024,93.413196" id="Fill-8" fill="#8BBC5C"></path>
                <path d="M128.991171,98.991843 C143.200091,103.931463 157.418184,108.844293 171.664944,113.678463 L171.664944,110.941893 C159.901864,98.352873 148.185797,85.764993 135.814984,73.757373 C136.236384,80.849883 136.629691,87.942393 136.992611,95.038323 C133.900624,96.258693 132.318224,96.882273 128.991171,98.126583 L128.991171,98.991843 Z" id="Fill-10" fill="#BEB5A8"></path>
                <path d="M140.078749,60.912081 C139.084589,60.863061 138.011883,60.671541 136.880123,60.322131 C136.899616,64.055061 137.143283,66.972891 137.161629,70.847181 C148.967136,81.982131 160.291616,93.569091 171.664829,105.137241 C171.666549,99.648711 171.665403,94.161321 171.666549,88.673931 C161.221563,79.756851 150.616616,69.721431 140.078749,60.912081" id="Fill-12" fill="#BEB5A8"></path>
                <path d="M128.915548,0.181716 L128.915548,2.722206 C131.236975,2.750136 133.493041,2.673756 135.690628,2.507316 C133.001121,1.586196 131.648628,1.122786 128.915548,0.181716" id="Fill-14" fill="#BEB5A8"></path>
                <path d="M128.918357,14.268354 C128.922371,19.951824 128.925811,25.408434 128.930971,31.092474 C131.512691,29.905734 132.776317,29.515284 135.274904,28.232784 C135.503091,23.003604 135.616037,20.302374 135.843651,14.535684 C133.589304,14.530554 131.281637,14.442204 128.918357,14.268354" id="Fill-16" fill="#BEB5A8"></path>
                <path d="M139.104541,14.477943 C138.912475,19.497933 138.816728,21.871413 138.625235,26.466753 C141.413928,24.959673 142.790501,24.176493 145.540208,22.543443 C144.575861,19.306413 144.091968,17.652273 143.123608,14.245383 C141.804368,14.354823 140.464488,14.431203 139.104541,14.477943" id="Fill-18" fill="#BEB5A8"></path>
                <path d="M166.398361,13.031226 C162.481921,12.545016 160.541761,12.310746 156.663735,11.839356 C153.755788,12.668706 150.707948,13.304256 147.533975,13.751136 C148.234588,17.067966 148.586041,18.677646 149.283788,21.821766 C156.746868,22.767396 164.212241,23.696496 171.670161,24.678606 C171.670735,20.901786 171.670735,18.950106 171.670735,14.868906 C169.551695,14.126766 168.498481,13.759686 166.398361,13.031226" id="Fill-20" fill="#BEB5A8"></path>
                <path d="M128.917268,11.583426 C133.615735,11.868996 138.092321,11.804016 142.352188,11.399316 C141.978375,9.353586 141.536908,7.254846 140.906241,5.089416 C137.140588,5.569356 133.148468,5.750616 128.916121,5.622366 C128.916695,8.063106 128.916121,9.253266 128.917268,11.583426" id="Fill-22" fill="#00A7CC"></path>
                <path d="M146.869195,6.325404 C147.259061,7.801134 147.572675,9.246654 147.843288,10.665954 C150.265621,10.248714 152.607688,9.711774 154.862035,9.056844 C151.666848,7.963014 150.072408,7.418664 146.869195,6.325404" id="Fill-24" fill="#00A7CC"></path>
                <path d="M128.817565,53.692461 C129.771019,55.107201 131.251365,56.446701 133.114699,57.448761 C137.373419,59.739591 142.016272,59.405571 143.486872,56.703771 C144.956899,54.001971 142.697392,49.954971 138.438672,47.664711 C134.737805,45.674271 130.747979,45.668001 128.801512,47.473761 L128.817565,53.692461 Z" id="Fill-26" fill="#8BBC5C"></path>
                <path d="M152.441249,26.830356 C153.630916,31.956366 154.223169,34.409076 155.405956,39.210756 C151.862183,42.931716 148.245023,46.580856 144.569956,50.171286 C146.718236,52.860546 147.459556,55.872426 146.210836,58.165536 C145.701716,59.102046 144.907649,59.823096 143.916929,60.334386 C152.764609,67.824186 162.878783,76.268736 171.666263,83.737446 C171.667983,65.707206 171.668556,47.677536 171.670276,29.646156 C165.264423,28.680576 158.853409,27.754896 152.441249,26.830356" id="Fill-28" fill="#BEB5A8"></path>
                <path d="M139.382837,45.939549 C139.942984,46.239939 140.468731,46.569399 140.974984,46.911399 C144.637437,43.257699 146.470957,41.359599 150.119651,37.399809 C148.710397,32.964069 148.002331,30.702879 146.581037,26.008929 C143.353744,27.864849 141.739237,28.752339 138.457477,30.450939 C138.196037,36.572169 138.064171,39.486009 137.804451,45.190569 C138.332491,45.412869 138.859957,45.657969 139.382837,45.939549" id="Fill-30" fill="#8BBC5C"></path>
                <path d="M134.547,44.17386 C134.76888,39.48846 134.880107,37.0956 135.101413,32.14629 C132.673347,33.34101 131.446987,33.91785 128.935787,35.0322 C128.940373,38.80104 128.942667,40.69344 128.946107,44.27247 C130.55488,43.7988 132.49676,43.76061 134.547,44.17386" id="Fill-32" fill="#8BBC5C"></path>
                <path d="M132.182,59.174265 C130.98316,58.527315 129.90472,57.778335 128.962733,56.965515 C128.965027,59.157735 128.966747,60.481275 128.96904,62.886105 C130.982013,65.191755 131.972733,66.113445 133.925507,68.424795 C133.81944,64.945515 133.766693,63.243495 133.660627,59.877645 C133.166413,59.665035 132.6722,59.437035 132.182,59.174265" id="Fill-34" fill="#BEB5A8"></path>
                <path d="M86.097524,113.752848 L86.097524,14.943918 C71.799164,10.023678 57.511124,5.076648 43.2047373,0.182058 C43.205884,33.118368 43.2666573,66.054108 43.2689507,98.992128 C57.4967907,104.052588 71.8048973,108.875358 86.097524,113.752848" id="Fill-36" fill="#E2DAC8"></path>
                <path d="M67.4345493,8.510499 C65.074136,9.228699 63.8936427,9.576399 61.513736,10.243299 C66.3102427,16.515009 71.169816,22.725729 76.123416,28.876029 C80.0696693,28.469619 82.0511093,28.255869 86.097696,27.822669 L86.097696,27.785049 C81.8143227,22.179099 77.6794427,16.463139 73.6678293,10.662819 C71.173256,9.802119 69.9308427,9.372339 67.4345493,8.510499" id="Fill-38" fill="#BEB5A8"></path>
                <path d="M58.996344,10.738686 C55.4261973,13.669626 53.6293707,15.041046 49.9428373,17.623716 C53.9630507,23.547726 58.0268373,29.441526 62.1376373,35.302836 C66.5717973,33.186426 68.7567707,32.078346 73.170864,29.734506 C68.3680507,23.457096 63.652384,17.124966 58.996344,10.738686" id="Fill-40" fill="#BEB5A8"></path>
                <path d="M46.6192813,1.349589 C47.3090013,5.370369 47.652428,7.304379 48.336988,11.060679 C51.5390547,8.639889 53.1054013,7.359099 56.2100013,4.640769 C52.444348,3.345159 50.5380147,2.691369 46.6192813,1.349589" id="Fill-42" fill="#BEB5A8"></path>
                <path d="M80.3765173,12.975822 C82.6451973,16.341102 83.7855573,17.122002 86.0978107,20.372712 L86.0978107,14.943462 C83.790144,14.151162 82.648064,13.758432 80.3765173,12.975822" id="Fill-44" fill="#BEB5A8"></path>
                <path d="M43.2526107,65.315103 C43.2543307,67.407003 43.2554773,68.462073 43.2571973,70.609833 C46.2264907,72.972483 49.154504,74.866023 51.913384,76.029393 C52.4591973,75.980373 52.7309573,75.957003 53.272184,75.906843 C49.3775307,71.665473 47.3909307,69.557613 43.2526107,65.315103" id="Fill-46" fill="#BEB5A8"></path>
                <path d="M83.9206347,113.006946 C78.553088,106.572216 73.1614613,100.160856 67.7056213,93.800796 C65.6146747,91.427316 64.5706347,90.252546 62.467648,87.917826 C59.1383013,88.169766 55.878328,87.482916 53.0976613,86.513916 C52.7198347,86.381676 52.3322613,86.238036 51.946408,86.087556 C49.108408,84.977766 46.205048,83.392596 43.263848,81.453456 C43.2684347,87.241236 43.2684347,93.029016 43.269008,98.816796 C43.392848,98.930796 43.4541947,98.987226 43.576888,99.101796 C56.9814213,103.863576 70.4530347,108.424716 83.9206347,113.006946" id="Fill-48" fill="#BEB5A8"></path>
                <path d="M68.228444,56.136108 C59.8852973,54.733338 51.556484,53.282688 43.238564,51.736278 C43.2391373,52.030398 43.2391373,52.178598 43.2397107,52.472148 C44.1530307,57.127908 44.607684,59.453508 45.508964,64.226118 C49.0166173,68.032578 52.4606307,71.895468 55.847884,75.809088 C58.3544973,75.864378 59.5894573,75.886608 62.0490573,75.928218 C62.812164,75.469368 63.543164,74.897088 64.2426307,74.205678 C67.0066707,71.477088 69.5723373,67.984698 72.1838707,64.224978 C70.600324,60.983388 69.8114173,59.371428 68.228444,56.136108" id="Fill-50" fill="#BEB5A8"></path>
                <path d="M74.9936627,60.128331 C75.8427693,58.877181 76.719396,57.606651 77.6097827,56.334411 C75.8072227,56.390841 74.9111027,56.422191 73.124596,56.484321 C73.846996,57.979431 74.2087693,58.724421 74.9334627,60.216111 C74.9541027,60.186471 74.973596,60.158541 74.9936627,60.128331" id="Fill-52" fill="#BEB5A8"></path>
                <path d="M86.097524,68.031495 C85.9192173,68.278875 82.7372173,71.799765 81.329684,73.737195 C81.8393773,74.784855 82.095084,75.310395 82.6082173,76.365465 C84.0019907,76.019475 84.704324,75.851325 86.1204573,75.520725 C86.1204573,72.087045 86.097524,71.407035 86.097524,68.031495" id="Fill-54" fill="#BEB5A8"></path>
                <path d="M86.0969507,30.924153 C82.592164,31.357353 80.8715907,31.191483 77.447644,31.605303 C80.863564,36.000003 82.578404,37.435263 86.097524,41.705703 C86.097524,37.129173 86.0969507,35.874603 86.0969507,30.924153" id="Fill-56" fill="#BEB5A8"></path>
                <path d="M79.462796,53.730309 C81.4574227,50.982909 83.5799027,48.248619 85.9259827,45.655119 C82.2434627,41.241039 78.6366227,36.763689 75.100876,32.231049 C70.575556,34.652409 68.3424227,35.800389 63.8199693,38.000589 C66.4360893,43.326099 69.0768627,48.636789 71.7388493,53.939499 C74.8090493,53.851719 76.3455827,53.808399 79.462796,53.730309" id="Fill-58" fill="#BEB5A8"></path>
                <path d="M86.097524,93.221733 C83.875284,88.418913 81.6249507,83.630913 79.3528307,78.852603 C78.4544173,78.820113 78.006644,78.804723 77.1151107,78.776793 C76.037244,80.086083 74.9352973,81.338373 73.790924,82.502883 C71.1088707,85.234893 68.1504707,86.796123 65.1817507,87.501783 C72.2400573,95.460693 79.181404,102.821673 86.097524,110.901993 L86.097524,93.221733 Z" id="Fill-60" fill="#BEB5A8"></path>
                <path d="M86.0969507,51.531534 C82.9355907,55.295814 80.111924,58.076274 77.4659907,61.922064 C77.119124,62.428224 76.7756973,62.926974 76.432844,63.428004 C77.905164,65.623644 78.9228307,67.836384 79.819524,70.067934 C80.844644,68.621274 81.622084,66.932934 82.9269907,65.649294 C84.2215773,64.375344 84.8568307,63.777414 86.097524,62.630004 C86.097524,58.299144 86.0969507,55.984374 86.0969507,51.531534" id="Fill-62" fill="#00A7CC"></path>
                <path d="M73.47582,67.671939 C71.21918,70.841709 68.9665533,73.787469 66.5482333,76.199709 C65.0868067,77.658339 63.4637,78.682059 61.6835,79.255479 C63.2681933,80.824119 64.3449133,82.611069 65.29378,84.492639 C67.4346067,83.746509 69.5341533,82.461729 71.4811933,80.487819 C73.1656467,78.778959 74.7600867,76.866609 76.3235667,74.831709 C75.3976333,72.423459 74.5863667,70.031169 73.47582,67.671939" id="Fill-64" fill="#00A7CC"></path>
                <path d="M57.770156,79.914684 C57.694476,79.869084 57.6210893,79.822344 57.5522893,79.774464 C55.933196,79.687824 54.206316,79.295664 52.364196,78.582024 C49.4207027,77.440884 46.354516,75.805554 43.2590893,73.485654 C43.2608093,75.678444 43.2613827,76.758594 43.2631027,79.032894 C46.247876,81.066654 49.202836,82.527564 52.0798227,83.654454 C52.4112093,83.783274 52.7500493,83.910384 53.0963427,84.031794 C55.8271293,84.982554 58.9615427,85.592454 62.114876,85.220814 C61.1167027,83.223534 59.882316,81.193764 57.770156,79.914684" id="Fill-66" fill="#00A7CC"></path>
                <path d="M46.190428,32.473299 C45.559188,31.513989 44.5260413,30.913209 43.2687213,30.656139 L43.2687213,41.120199 C46.4042813,38.405859 47.714348,34.791489 46.190428,32.473299" id="Fill-68" fill="#8BBC5C"></path>
                <path d="M59.5243267,38.792832 C55.6623533,38.678832 52.05494,38.268432 48.0846067,38.039862 C47.0594867,39.928842 45.39338,41.782482 43.22962,43.308942 C43.2319133,45.660192 43.2336333,46.942692 43.2365,49.379442 C51.1444867,50.824392 59.0616467,52.181562 66.99314,53.490852 C64.4882467,48.600252 61.9959667,43.701672 59.5243267,38.792832" id="Fill-70" fill="#BEB5A8"></path>
                <path d="M48.4411627,31.009881 C49.3304027,32.362491 49.465136,34.058241 48.983536,35.832651 C52.5536827,35.974581 54.4181627,36.024741 57.975696,36.102261 C53.8591627,30.439881 49.7684293,24.759261 45.6994827,19.063821 C44.7099093,19.151601 44.2128293,19.192641 43.209496,19.271301 C43.2117893,23.091441 43.212936,24.994101 43.2158027,28.488201 C45.491936,28.585671 47.394256,29.417871 48.4411627,31.009881" id="Fill-72" fill="#8BBC5C"></path>
                <path d="M128.991171,98.991843 C128.986584,66.054393 128.920651,33.118653 128.915491,0.181773 C114.626877,5.056413 100.370371,10.023963 86.0978107,14.943633 L86.0978107,113.752563 C100.384131,108.802113 114.681917,103.880163 128.991171,98.991843" id="Fill-74" fill="#FDF7E4"></path>
                <path d="M109.668576,56.589201 C101.813336,64.015731 93.9712827,71.457081 86.097696,78.863661 L86.097696,81.628161 C90.1081627,87.009531 93.8675093,92.575011 97.3109493,98.331441 C101.643056,100.119531 103.756936,101.079411 108.005336,103.127421 C110.077936,100.538481 112.821909,98.489901 115.861149,97.446801 C119.341856,96.253221 122.519269,96.617451 124.748389,98.255061 C126.429976,96.206481 127.278509,95.428431 128.989909,93.413481 C128.987043,84.428001 128.981883,75.205401 128.973283,66.219351 C122.547363,62.992581 116.126029,59.755551 109.668576,56.589201" id="Fill-76" fill="#A9CE71"></path>
                <path d="M122.835119,101.093718 C121.151239,99.643068 118.631439,99.257748 115.846185,100.213068 C113.060932,101.168388 110.594452,103.264848 108.959879,105.854358 C114.427759,103.973928 117.146505,103.039698 122.835119,101.093718" id="Fill-78" fill="#A9CE71"></path>
                <path d="M97.909108,47.541021 C101.542321,44.042361 103.350041,42.285621 106.956308,38.741931 C111.015508,41.370771 113.018735,42.634461 117.028628,45.136761 C113.887335,48.734031 112.312961,50.520981 109.164788,54.097731 C104.705401,51.493971 102.461375,50.204631 97.909108,47.541021" id="Fill-80" fill="#DDD6C8"></path>
                <path d="M86.097524,14.943576 L86.097524,20.372826 C87.444284,21.319026 88.1179507,21.780726 89.465284,22.687596 C91.813084,18.438246 92.9855507,16.260276 95.3327773,11.757846 C91.641084,13.032936 89.788644,13.673046 86.097524,14.943576" id="Fill-82" fill="#DDD6C8"></path>
                <path d="M86.0969507,75.565071 C93.3186573,68.950791 100.516857,62.311431 107.709324,55.665231 C102.854337,53.316261 100.406204,52.158591 95.437124,49.777131 C95.3195907,49.859211 95.2611107,49.903101 95.1435773,49.986321 C92.1324307,55.755291 89.241684,61.566441 86.3956573,67.418061 C86.2964707,67.623831 86.197284,67.825611 86.097524,68.031381 C86.097524,70.123281 86.0969507,71.619531 86.0969507,75.565071" id="Fill-84" fill="#DDD6C8"></path>
                <path d="M89.13384,28.483014 C87.9206667,29.461704 87.3129333,29.950194 86.0968933,30.924324 C86.0968933,35.400534 86.0974667,37.538604 86.0974667,41.705874 C86.9763867,42.156174 87.41556,42.379044 88.29276,42.821934 C90.42212,39.189894 92.70456,35.572674 95.1974133,32.047224 C92.78024,30.663834 91.56592,29.954754 89.13384,28.483014" id="Fill-86" fill="#DDD6C8"></path>
                <path d="M98.5132293,44.001321 C101.161456,41.430621 102.481843,40.139571 105.115736,37.539231 C104.379576,37.143651 104.011496,36.944151 103.272469,36.542871 C101.601203,38.948841 100.022243,41.447721 98.5132293,44.001321" id="Fill-88" fill="#DDD6C8"></path>
                <path d="M121.085993,2.862825 C120.212233,5.377665 119.772487,6.610005 118.891847,9.034215 C118.958927,8.994885 119.024287,8.953845 119.091367,8.914515 C122.470593,6.949725 125.764967,4.837305 128.915433,2.630835 L128.915433,0.181545 C125.833767,1.232625 124.26398,1.770705 121.085993,2.862825" id="Fill-90" fill="#DDD6C8"></path>
                <path d="M128.918357,14.189067 C126.567691,15.677907 124.166571,17.118867 121.729331,18.494277 C118.443557,20.349627 115.417504,22.695747 112.619064,25.381017 C111.098011,29.156697 110.337197,30.995517 108.813851,34.613877 C113.495117,37.305417 115.798771,38.589057 120.425571,41.107887 C123.849517,37.130997 125.559771,35.130297 128.930971,31.092417 C128.925811,25.457967 128.922371,19.823517 128.918357,14.189067" id="Fill-92" fill="#DDD6C8"></path>
                <path d="M99.2153333,10.415553 C96.7993067,15.051363 94.31448,19.651263 91.7591333,24.212403 C94.27836,25.864833 95.53568,26.658843 98.03484,28.203543 C102.86116,21.908463 108.46664,16.157733 114.96824,11.559543 C116.055853,8.616063 116.5988,7.114113 117.680107,4.034403 C111.523653,6.156513 105.369493,8.286603 99.2153333,10.415553" id="Fill-94" fill="#DDD6C8"></path>
                <path d="M103.836687,107.617539 C99.65766,105.525639 97.5598333,104.549229 93.2449267,102.740049 C90.4304333,98.030139 88.9999667,97.366659 86.0977533,93.221619 L86.0977533,110.901879 C87.4857933,111.547689 88.1737933,111.878289 89.53718,112.560579 C95.4172867,110.523399 98.2163,109.555539 103.836687,107.617539" id="Fill-96" fill="#DDD6C8"></path>
                <path d="M86.097524,62.62989 C88.3226307,58.09668 90.5804173,53.57202 92.998164,49.12602 C92.7716973,48.98352 92.552684,48.83076 92.346284,48.66489 C91.491444,47.9826 90.4330707,46.58097 89.0066173,46.20705 C88.0061507,47.98146 87.0395107,49.75815 86.0969507,51.53142 C86.0969507,56.03841 86.097524,58.2312 86.097524,62.62989" id="Fill-98" fill="#45BEE2"></path>
                <path d="M97.354236,32.912484 C95.0912893,36.099354 92.9997693,39.376854 91.041836,42.682284 C92.787636,43.082994 94.063876,44.305644 95.162956,45.250134 C97.1931293,41.714994 99.3505827,38.255664 101.690356,34.950804 C100.312636,34.208094 98.728516,33.693954 97.354236,32.912484" id="Fill-100" fill="#45BEE2"></path>
                <path d="M128.916121,5.534415 C125.980081,7.532835 122.900135,9.463425 119.728455,11.305095 C111.963801,15.815505 105.453028,22.245105 100.005788,29.327925 C101.354268,30.154995 102.960175,30.641205 104.313815,31.420965 C108.941761,25.434255 114.502521,20.031225 121.092415,16.256685 C123.738348,14.741055 126.368801,13.157025 128.917841,11.506875 C128.916121,9.172725 128.916695,7.980285 128.916121,5.534415" id="Fill-102" fill="#45BEE2"></path>
                <path d="M128.835511,47.418015 C128.513871,47.704155 128.239244,48.030195 128.032844,48.409815 C127.191191,49.955085 127.575897,51.941535 128.852711,53.787195 L128.835511,47.418015 Z" id="Fill-104" fill="#A9CE71"></path>
                <path d="M128.94582,44.272983 C128.941233,40.684833 128.939513,38.813523 128.934927,35.032143 C126.39678,38.025213 125.115953,39.292323 122.551433,42.259743 C124.544913,43.334193 125.65546,43.925853 127.4735,44.878323 C127.92242,44.629233 128.416633,44.428023 128.94582,44.272983" id="Fill-106" fill="#A9CE71"></path>
                <path d="M126.416732,54.157809 L126.417305,54.219939 C125.240252,52.519059 124.625065,50.730969 124.712212,49.101339 C122.695799,47.970459 121.394905,47.231169 119.117052,45.926439 C116.166679,49.275189 114.689199,50.940159 111.734239,54.276939 C117.484772,57.134919 123.220972,60.022539 128.969212,62.886219 C128.966345,60.463719 128.964625,59.173239 128.962332,56.965629 C127.945812,56.088399 127.086385,55.137639 126.416732,54.157809" id="Fill-108" fill="#DDD6C8"></path>
                <path d="M43.268836,98.991843 C43.2665427,66.054393 43.2063427,33.118653 43.2046227,0.181773 C28.9624493,5.267883 14.5213293,9.768033 0.309542667,14.943633 L0.309542667,113.752563 C14.6044627,108.758793 28.930916,103.860213 43.268836,98.991843" id="Fill-110" fill="#FDF7E4"></path>
                <path d="M29.7748053,103.577436 C25.472512,102.223686 23.4383253,101.547666 19.199672,100.331286 C14.7563387,104.170806 10.3084187,108.004056 5.84329867,111.817926 C13.8132053,109.049436 21.789992,106.304886 29.7748053,103.577436" id="Fill-112" fill="#DDD6C8"></path>
                <path d="M0.430114667,111.604233 C6.14510133,106.380753 11.7935813,101.091723 17.4334613,95.789013 C13.3954747,92.789673 11.3245947,91.406853 6.952928,88.866363 C4.86198133,83.236473 2.720008,77.639073 0.424381333,72.089553 C0.426101333,85.260543 0.427821333,98.432103 0.430114667,111.604233" id="Fill-114" fill="#DDD6C8"></path>
                <path d="M0.417214667,14.903505 C0.418361333,21.750345 0.418934667,28.596615 0.419508,35.444025 C11.817948,30.805935 23.3236013,26.453985 34.8063213,22.029645 C33.477908,16.156365 32.260148,10.263705 31.0584413,4.363635 C20.8124013,7.783065 10.5411347,11.139225 0.417214667,14.903505" id="Fill-116" fill="#DDD6C8"></path>
                <path d="M34.1095493,3.337635 C35.269976,9.011985 36.4487493,14.678355 37.7462027,20.323635 C39.9959627,18.626175 41.0961893,17.777445 43.207776,16.084545 C43.2066293,13.975545 43.206056,12.901095 43.2054827,10.705455 C42.504296,6.915525 42.160296,4.945605 41.477456,0.797715 C38.6795893,1.787235 37.189496,2.296245 34.1095493,3.337635" id="Fill-118" fill="#DDD6C8"></path>
                <path d="M14.91068,68.66049 C11.4987733,64.5981 6.39438667,62.49423 1.15297333,61.97325 C4.81026667,69.65115 8.34830667,77.34159 11.653,85.1751 C16.2087067,88.14309 18.3604267,89.75049 22.6501067,93.21723 C27.4007467,89.20842 32.1869333,85.25946 37.02816,81.35724 C28.46772,80.04396 20.4118133,75.20979 14.91068,68.66049" id="Fill-120" fill="#DDD6C8"></path>
                <path d="M43.2537573,65.703615 C42.7188373,65.515515 42.453384,65.420895 41.927064,65.231655 C40.913984,60.108495 40.430664,57.643245 39.486384,52.679115 C32.7015573,53.766105 25.905264,54.781275 19.118144,55.853445 C21.3581573,57.194655 23.4038107,58.952535 25.1358507,61.133355 C29.474264,66.593385 36.221824,70.183245 43.2571973,70.858125 C43.2560507,68.768505 43.2554773,67.738515 43.2537573,65.703615" id="Fill-122" fill="#DDD6C8"></path>
                <path d="M43.268836,98.991843 C43.2682627,93.201783 43.2682627,87.411723 43.2648227,81.622233 C42.560196,81.663843 41.865316,81.682653 41.1830493,81.676953 C35.8734093,85.951953 30.6669693,90.352923 25.561436,94.869603 C31.3521027,96.373263 37.147356,97.776033 42.9856093,99.086463 C43.098556,99.048843 43.155316,99.029463 43.268836,98.991843" id="Fill-124" fill="#DDD6C8"></path>
                <path d="M5.529628,59.647365 C7.63433467,58.306725 9.75624133,56.867475 11.9154147,55.700685 C7.99324133,54.420465 3.86696133,54.008355 0.310001333,54.0117539 L0.310001333,59.341275 C1.86717467,59.429055 3.493148,59.619435 5.118548,59.945475 C5.24296133,59.843445 5.379988,59.743125 5.529628,59.647365" id="Fill-126" fill="#45BEE2"></path>
                <path d="M43.259892,73.485483 C35.0216653,72.103803 28.0080787,69.614613 22.676652,62.940483 C20.6602387,60.417663 18.196052,58.511583 15.5048253,57.166953 C14.7635053,57.435423 14.031932,57.744933 13.3359053,58.130253 C11.7810253,58.986963 10.2473587,59.945703 8.71426533,60.922113 C11.9943053,62.065533 15.0576253,63.943683 17.3933853,66.829023 C24.0291453,75.022773 32.9731453,78.209073 43.2639053,79.032723 C43.2621853,76.773243 43.261612,75.665163 43.259892,73.485483" id="Fill-128" fill="#45BEE2"></path>
                <path d="M43.3377507,30.688173 C41.0759507,30.172323 38.0418707,30.814143 35.269804,32.615913 C31.035164,35.368443 29.0273507,39.767133 30.7851907,42.441003 C32.543604,45.114873 37.4020307,45.051033 41.6366707,42.298503 C42.2552973,41.897223 42.8194573,41.457753 43.3377507,40.996053 L43.3377507,30.688173 Z" id="Fill-130" fill="#A9CE71"></path>
                <path d="M43.2162613,28.488315 C43.2128213,24.836895 43.2111013,23.321835 43.208808,19.293075 C41.1780613,21.038985 40.1237013,21.647745 37.9742747,23.391945 C38.1995947,25.776825 38.3194213,27.010305 38.537288,29.195685 C40.171288,28.657035 41.7685947,28.426185 43.2162613,28.488315" id="Fill-132" fill="#A9CE71"></path>
                <path d="M28.6029693,43.903338 C26.328556,40.445148 28.9251827,34.754838 34.4033827,31.194618 C34.8895693,30.878268 35.382636,30.600108 35.877996,30.339048 C35.5724093,28.380528 35.3992627,27.247938 35.076476,25.091058 C23.506036,29.607738 11.9109427,34.048608 0.420196,38.764218 C0.420769333,44.080608 0.421342667,46.606848 0.421916,51.585228 C5.67880933,51.463818 10.956916,52.237308 15.848596,54.205518 C23.6310227,52.896228 31.4209027,51.630828 39.206196,50.335788 C38.882836,48.496968 38.7137027,47.531388 38.408116,45.750138 C34.2399827,47.094198 30.3023293,46.487718 28.6029693,43.903338" id="Fill-134" fill="#DDD6C8"></path>
                <path d="M42.6401187,43.719684 C42.1029053,44.068524 41.557092,44.374044 41.0089853,44.656764 C41.2967987,46.738974 41.4584787,47.885814 41.7692253,50.054094 C42.3563187,49.746864 42.6498653,49.593534 43.2363853,49.285164 C43.234092,46.870074 43.2317987,45.576744 43.2295053,43.308714 C43.0339987,43.446654 42.8430787,43.587444 42.6401187,43.719684" id="Fill-136" fill="#DDD6C8"></path>
            </g>
        </g>
    </g>
</svg>