<?xml version="1.0" encoding="UTF-8"?>
<svg width="37px" height="21px" viewBox="0 0 37 21" version="1.1" xmlns="http://www.w3.org/2000/svg" xmlns:xlink="http://www.w3.org/1999/xlink">
    <title>icon6SVG</title>
    <defs>
        <filter id="filter-1">
            <feColorMatrix in="SourceGraphic" type="matrix" values="0 0 0 0 0.670588 0 0 0 0 0.670588 0 0 0 0 0.670588 0 0 0 1.000000 0"></feColorMatrix>
        </filter>
    </defs>
    <g id="PROTOTIPO" stroke="none" stroke-width="1" fill="none" fill-rule="evenodd">
        <g id="FILTROS-priv" transform="translate(-1055.000000, -422.000000)">
            <g id="icon6" transform="translate(1055.000000, 422.000000)">
                <rect id="Rectangle-Copy-20" x="0" y="0" width="37" height="21"></rect>
                <g filter="url(#filter-1)" id="Group-16">
                    <g transform="translate(8.000000, 3.000000)" id="Group-12" fill="#000000" fill-rule="nonzero">
                        <g id="bike">
                            <path d="M16.2021563,7.43728543 L13.5039023,0.384740234 C13.4155137,0.153748072 13.1843906,0 12.925623,0 L11.0311934,0 C10.6914199,0 10.415959,0.261609336 10.415959,0.584297207 C10.415959,0.906985078 10.6914199,1.16859441 11.0311934,1.16859441 L12.4946309,1.16859441 L13.0536738,2.62984382 L10.3264219,6.50821392 L8.72689453,6.50821392 C8.33220117,5.75852165 7.75658789,4.66522367 7.49642578,4.17102509 L8.54281641,4.17102509 C8.88258984,4.17102509 9.15805078,3.90941575 9.15805078,3.58672788 C9.15805078,3.26404001 8.88258984,3.00243068 8.54281641,3.00243068 L5.58973242,3.00243068 C5.24995898,3.00243068 4.97449805,3.26404001 4.97449805,3.58672788 C4.97449805,3.90941575 5.24995898,4.17102509 5.58973242,4.17102509 L6.12076172,4.17102509 L6.95830078,5.76187162 C5.2938457,4.93310446 3.35680078,4.85644467 1.67089453,5.47287822 C1.35384375,5.58880279 1.19572852,5.92691611 1.31783203,6.22810184 C1.43993555,6.52928757 1.79607422,6.679413 2.11300195,6.56341053 C3.43870898,6.07875547 4.98602344,6.11638421 6.34191797,6.77531565 L5.65195313,7.75514311 C3.02830664,6.59511839 0,8.42470876 0,11.1825916 C0,13.2660396 1.78475391,14.9610469 3.97851563,14.9610469 C5.96309766,14.9610469 7.61278711,13.5738863 7.90941211,11.7668888 C7.91642578,11.7668888 10.4934785,11.7670056 10.5004922,11.7670056 C10.7779219,11.7670056 10.8850547,11.627865 11.0116289,11.5071102 L14.5337637,6.49839773 L15.0460078,7.8372953 C13.8041777,8.48761809 12.9609375,9.74327279 12.9609375,11.1825916 C12.9609375,13.2875028 14.7641074,15 16.9804688,15 C19.1968301,15 21,13.2875028 21,11.1825916 C21,8.78401259 18.6866367,6.97241857 16.2021563,7.43728543 Z M7.63317187,7.04378074 L9.50455078,10.5982944 L7.90941211,10.5982944 C7.76807227,9.73731296 7.31948437,8.97176676 6.67385742,8.4060502 L7.63317187,7.04378074 Z M5.97769922,9.39468108 C6.30668555,9.72632817 6.54527344,10.1393094 6.65626172,10.5982944 L5.13011133,10.5982944 L5.97769922,9.39468108 Z M3.97851563,13.7924524 C2.46323438,13.7924524 1.23046875,12.6216766 1.23046875,11.1825916 C1.23046875,9.35607851 3.16435547,8.09423026 4.95571289,8.74385189 C4.95296484,8.74774721 3.37472461,10.9889944 3.46713281,10.8578002 C3.19511719,11.2434753 3.48583594,11.7669277 3.97933594,11.7669277 L6.65630273,11.7669277 C6.37604297,12.9254722 5.2822793,13.7924524 3.97851563,13.7924524 L3.97851563,13.7924524 Z M10.5765762,10.021593 L9.34212891,7.67680833 L10.6553672,7.67680833 C10.8608965,7.67680833 11.0528496,7.57934756 11.1669961,7.4170298 L13.5750645,3.99258072 L14.0124141,5.13566083 L10.5765762,10.021593 Z M16.9804688,13.8314056 C15.4425879,13.8314056 14.1914062,12.6431398 14.1914062,11.1825916 C14.1914062,10.2489236 14.7031582,9.42720696 15.4737187,8.95532853 L16.4021895,11.3821486 C16.5182637,11.6854767 16.8712441,11.8419125 17.1905918,11.731792 C17.5099395,11.6215546 17.6747812,11.2863628 17.558748,10.9830346 L16.6299492,8.55543552 C18.311877,8.35404775 19.7695312,9.6053397 19.7695312,11.1825916 C19.7695312,12.6431398 18.5183496,13.8314056 16.9804688,13.8314056 L16.9804688,13.8314056 Z" id="Shape"></path>
                        </g>
                    </g>
                </g>
            </g>
        </g>
    </g>
</svg>