<?xml version="1.0" encoding="UTF-8"?>
<svg width="37px" height="21px" viewBox="0 0 37 21" version="1.1" xmlns="http://www.w3.org/2000/svg" xmlns:xlink="http://www.w3.org/1999/xlink">
    <title>icon5SVG</title>
    <defs>
        <filter id="filter-1">
            <feColorMatrix in="SourceGraphic" type="matrix" values="0 0 0 0 0.670588 0 0 0 0 0.670588 0 0 0 0 0.670588 0 0 0 1.000000 0"></feColorMatrix>
        </filter>
    </defs>
    <g id="PROTOTIPO" stroke="none" stroke-width="1" fill="none" fill-rule="evenodd">
        <g id="FILTROS-priv" transform="translate(-1055.000000, -397.000000)">
            <g id="icon5" transform="translate(1055.000000, 397.000000)">
                <rect id="Rectangle-Copy-19" x="0" y="0" width="37" height="21"></rect>
                <g id="icon/sedan-copy-4" transform="translate(6.000000, 3.000000)" filter="url(#filter-1)">
                    <g transform="translate(13.000000, 8.000000) scale(-1, 1) translate(-13.000000, -8.000000) " id="bus" fill="#000000" fill-rule="nonzero">
                        <path d="M6.29032258,11.8709677 C5.59670968,11.8709677 5.03225806,12.4267355 5.03225806,13.1096774 C5.03225806,13.7926194 5.59670968,14.3483871 6.29032258,14.3483871 C6.98393548,14.3483871 7.5483871,13.7926194 7.5483871,13.1096774 C7.5483871,12.4267355 6.98393548,11.8709677 6.29032258,11.8709677 Z M6.29032258,13.5225806 C6.05883871,13.5225806 5.87096774,13.3371871 5.87096774,13.1096774 C5.87096774,12.8821677 6.05883871,12.6967742 6.29032258,12.6967742 C6.52180645,12.6967742 6.70967742,12.8821677 6.70967742,13.1096774 C6.70967742,13.3371871 6.52180645,13.5225806 6.29032258,13.5225806 Z" id="Shape"></path>
                        <path d="M19.7096774,11.8709677 C19.0160645,11.8709677 18.4516129,12.4267355 18.4516129,13.1096774 C18.4516129,13.7926194 19.0160645,14.3483871 19.7096774,14.3483871 C20.4032903,14.3483871 20.9677419,13.7926194 20.9677419,13.1096774 C20.9677419,12.4267355 20.4032903,11.8709677 19.7096774,11.8709677 Z M19.7096774,13.5225806 C19.4781935,13.5225806 19.2903226,13.3371871 19.2903226,13.1096774 C19.2903226,12.8821677 19.4781935,12.6967742 19.7096774,12.6967742 C19.9411613,12.6967742 20.1290323,12.8821677 20.1290323,13.1096774 C20.1290323,13.3371871 19.9411613,13.5225806 19.7096774,13.5225806 Z" id="Shape"></path>
                        <path d="M7.12903226,7.74193548 L23.9032258,7.74193548 C24.135129,7.74193548 24.3225806,7.55695484 24.3225806,7.32903226 L24.3225806,2.37419355 C24.3225806,2.14627097 24.135129,1.96129032 23.9032258,1.96129032 L7.12903226,1.96129032 C6.89712903,1.96129032 6.70967742,2.14627097 6.70967742,2.37419355 L6.70967742,7.32903226 C6.70967742,7.55695484 6.89712903,7.74193548 7.12903226,7.74193548 Z M15.0967742,6.91612903 L11.7419355,6.91612903 L11.7419355,2.78709677 L15.0967742,2.78709677 L15.0967742,6.91612903 Z M15.9354839,2.78709677 L19.2903226,2.78709677 L19.2903226,6.91612903 L15.9354839,6.91612903 L15.9354839,2.78709677 Z M23.483871,6.91612903 L20.1290323,6.91612903 L20.1290323,2.78709677 L23.483871,2.78709677 L23.483871,6.91612903 Z M7.5483871,2.78709677 L10.9032258,2.78709677 L10.9032258,6.91612903 L7.5483871,6.91612903 L7.5483871,2.78709677 Z" id="Shape"></path>
                        <rect id="Rectangle" x="3.35483871" y="8.56774194" width="1.67741935" height="1"></rect>
                        <path d="M5.03225806,0.309677419 L2.93548387,0.309677419 C1.31719355,0.309677419 0,1.60619355 0,3.2 L0,12.283871 C0,12.9668129 0.564451613,13.5225806 1.25806452,13.5225806 L3.3883871,13.5225806 C3.59303226,14.9210839 4.8146129,16 6.29032258,16 C7.76603226,16 8.9876129,14.9210839 9.19225806,13.5225806 L16.8077419,13.5225806 C17.0123871,14.9210839 18.2339677,16 19.7096774,16 C21.1853871,16 22.4069677,14.9210839 22.6116129,13.5225806 L24.7419355,13.5225806 C25.4355484,13.5225806 26,12.9668129 26,12.283871 L26,2.37419355 C26,1.23581935 25.0593871,0.309677419 23.9032258,0.309677419 L20.9677419,0.309677419 L5.03225806,0.309677419 Z M0.881064516,2.78709677 L5.03225806,2.78709677 L5.03225806,6.91612903 L0.838709677,6.91612903 L0.838709677,3.2 C0.838709677,3.0587871 0.853387097,2.92046452 0.881064516,2.78709677 Z M6.29032258,15.1741935 C5.13416129,15.1741935 4.19354839,14.2480516 4.19354839,13.1096774 C4.19354839,11.9713032 5.13416129,11.0451613 6.29032258,11.0451613 C7.44648387,11.0451613 8.38709677,11.9713032 8.38709677,13.1096774 C8.38709677,14.2480516 7.44648387,15.1741935 6.29032258,15.1741935 Z M19.7096774,15.1741935 C18.5535161,15.1741935 17.6129032,14.2480516 17.6129032,13.1096774 C17.6129032,11.9713032 18.5535161,11.0451613 19.7096774,11.0451613 C20.8658387,11.0451613 21.8064516,11.9713032 21.8064516,13.1096774 C21.8064516,14.2480516 20.8658387,15.1741935 19.7096774,15.1741935 Z M25.1612903,11.0451613 L24.3225806,11.0451613 L24.3225806,10.2193548 L25.1612903,10.2193548 L25.1612903,11.0451613 Z M25.1612903,2.37419355 L25.1612903,9.39354839 L23.9032258,9.39354839 C23.6713226,9.39354839 23.483871,9.57852903 23.483871,9.80645161 L23.483871,11.4580645 C23.483871,11.6859871 23.6713226,11.8709677 23.9032258,11.8709677 L25.1612903,11.8709677 L25.1612903,12.283871 C25.1612903,12.5113806 24.9734194,12.6967742 24.7419355,12.6967742 L22.6116129,12.6967742 C22.4069677,11.298271 21.1853871,10.2193548 19.7096774,10.2193548 C18.2339677,10.2193548 17.0123871,11.298271 16.8077419,12.6967742 L9.19225806,12.6967742 C8.9876129,11.298271 7.76603226,10.2193548 6.29032258,10.2193548 C4.8146129,10.2193548 3.59303226,11.298271 3.3883871,12.6967742 L1.25806452,12.6967742 C1.02658065,12.6967742 0.838709677,12.5113806 0.838709677,12.283871 L0.838709677,7.74193548 L5.4516129,7.74193548 C5.68351613,7.74193548 5.87096774,7.55695484 5.87096774,7.32903226 L5.87096774,2.37419355 C5.87096774,2.14627097 5.68351613,1.96129032 5.4516129,1.96129032 L1.26896774,1.96129032 C1.65183871,1.46291613 2.25319355,1.13548387 2.93548387,1.13548387 L23.9032258,1.13548387 C24.5968387,1.13548387 25.1612903,1.69125161 25.1612903,2.37419355 Z" id="Shape"></path>
                    </g>
                </g>
            </g>
        </g>
    </g>
</svg>