<?xml version="1.0" encoding="UTF-8"?>
<svg width="37px" height="21px" viewBox="0 0 37 21" version="1.1" xmlns="http://www.w3.org/2000/svg" xmlns:xlink="http://www.w3.org/1999/xlink">
    <title>icon2SVG</title>
    <defs>
        <filter id="filter-1">
            <feColorMatrix in="SourceGraphic" type="matrix" values="0 0 0 0 0.670588 0 0 0 0 0.670588 0 0 0 0 0.670588 0 0 0 1.000000 0"></feColorMatrix>
        </filter>
    </defs>
    <g id="PROTOTIPO" stroke="none" stroke-width="1" fill="none" fill-rule="evenodd">
        <g id="FILTROS-priv" transform="translate(-1055.000000, -297.000000)">
            <g id="icon2" transform="translate(1055.000000, 297.000000)">
                <rect id="Rectangle-Copy-2" x="0" y="0" width="37" height="21"></rect>
                <g filter="url(#filter-1)" id="003-jeep">
                    <g transform="translate(18.736842, 11.000000) scale(-1, 1) translate(-18.736842, -11.000000) translate(4.000000, 4.000000)">
                        <path d="M28.9825726,1.47876255 L27.0177269,1.47876255 C26.7464863,1.47876255 26.5266155,1.69958408 26.5266155,1.97175008 L26.5266155,2.60613555 L25.890789,1.1706955 C25.5745748,0.459293315 24.871388,0.000802878361 24.0948441,3.09972124e-07 L11.6741414,3.09972124e-07 C10.959961,-0.000400482872 10.3015478,0.387892358 9.95475155,1.01445581 L8.05027044,4.45393613 L1.84011895,4.84323178 C0.806126384,4.910822 0.00139918053,5.77124366 0,6.81096995 L0,10.3511337 C0,10.6232997 0.219870825,10.8439206 0.491311327,10.8439206 L1.51291114,10.8439206 C1.78255277,12.7278228 3.52313012,14.0355032 5.4004272,13.7649417 C6.90954061,13.5475298 8.09484421,12.3579819 8.31151697,10.8439206 L18.7060101,10.8439206 C18.9756517,12.7278228 20.7162291,14.0355032 22.5935262,13.7649417 C24.1024397,13.5475298 25.2879432,12.3579819 25.5046159,10.8439206 L27.0177269,10.8439206 C27.2889676,10.8439206 27.5088384,10.6232997 27.5088384,10.3511337 L27.5088384,8.37938421 L28.9825726,8.37938421 C29.2538132,8.37938421 29.4736842,8.15876328 29.4736842,7.88659729 L29.4736842,1.97175008 C29.4736842,1.69938353 29.2540131,1.47876255 28.9825726,1.47876255 Z M4.91231399,12.8156701 C3.55571099,12.8156701 2.456157,11.7121642 2.456157,10.3511337 C2.456157,8.9899025 3.55571099,7.88659729 4.91231399,7.88659729 C6.26871707,7.88659729 7.36847099,8.9899025 7.36847099,10.3511337 C7.36687193,11.7115626 6.26811746,12.8140655 4.91231399,12.8156701 Z M7.36847099,7.94034857 L7.36447333,7.93633728 C7.33449098,7.90585148 7.30310937,7.87717075 7.27172782,7.84808891 C7.22595473,7.80476698 7.1803815,7.76144505 7.13220977,7.7205299 C7.09822975,7.69144801 7.06285055,7.66437184 7.02747135,7.63669392 C6.97850008,7.59878724 6.929329,7.56168283 6.88015786,7.52618287 C6.84277981,7.50010952 6.80500201,7.47704459 6.76622482,7.45036952 C6.71705368,7.4172764 6.66348516,7.38538663 6.61051629,7.35530198 C6.57073964,7.33203645 6.53036339,7.31037554 6.48958735,7.28871452 C6.43501937,7.26063555 6.3800517,7.23396043 6.32408458,7.20888988 C6.28230914,7.18963569 6.24053364,7.17078266 6.19835841,7.15353409 C6.14039249,7.12986745 6.08102738,7.10920935 6.02146235,7.08855119 C5.97888737,7.0737094 5.93651227,7.05846655 5.89273797,7.04563042 C5.82997487,7.02697789 5.76601245,7.01173498 5.7022499,6.99649208 C5.65987479,6.98646388 5.61869901,6.97523227 5.57592412,6.96680854 C5.50416626,6.9525685 5.43100927,6.9427408 5.35745248,6.93331431 C5.32107383,6.92830016 5.28509497,6.92148099 5.24831657,6.91807136 C5.13818127,6.9072409 5.02584729,6.90082284 4.91231399,6.90082284 C4.79878069,6.90082284 4.68624679,6.9072409 4.57571175,6.91807136 C4.53893335,6.92148099 4.50315436,6.92830016 4.46677576,6.93331431 C4.39301905,6.94254025 4.3192624,6.9525685 4.2481042,6.96680854 C4.20532936,6.97523227 4.16415353,6.98646388 4.12177842,6.99649208 C4.05801592,7.01173498 3.9940535,7.02697789 3.93129035,7.04563042 C3.88751605,7.05846655 3.84534087,7.0737094 3.80256597,7.08855119 C3.74300099,7.10920935 3.68363583,7.12986745 3.62566991,7.15353409 C3.58349468,7.17078266 3.54171923,7.18963569 3.49994379,7.20888988 C3.44397667,7.23396043 3.38900895,7.25802817 3.33444097,7.28871452 C3.29366498,7.31037554 3.25328868,7.33203645 3.21351203,7.35530198 C3.16054316,7.38538663 3.10897344,7.4172764 3.0578035,7.45036952 C3.01902631,7.47503897 2.98124851,7.49970841 2.94387046,7.52618287 C2.89469932,7.56168283 2.84572811,7.59878724 2.79655702,7.63669392 C2.76117782,7.66437184 2.72579857,7.69144801 2.69181856,7.7205299 C2.64284734,7.76144505 2.59807364,7.80476698 2.5523005,7.84808891 C2.52091895,7.87717075 2.4895374,7.90585148 2.45955499,7.93633728 C2.4103839,7.98567612 2.36820867,8.03501501 2.32343497,8.08415329 C2.29844966,8.11323513 2.27426383,8.14091306 2.24827912,8.17039605 C2.19630966,8.23457668 2.14753831,8.30116404 2.10096568,8.3677515 C2.08777341,8.38740679 2.07238246,8.40505647 2.05919024,8.42491236 C2.00022487,8.51255903 1.94545702,8.60321418 1.89468687,8.69647665 C1.87989554,8.72295116 1.86810245,8.75123079 1.85431057,8.77830696 C1.81933116,8.84629833 1.78495131,8.91489141 1.75616822,8.98528951 C1.74037753,9.02279508 1.72718526,9.06130346 1.71179431,9.09961129 C1.6878084,9.16178625 1.6628231,9.22396127 1.64303471,9.2879413 C1.62924282,9.33046102 1.6180494,9.37418406 1.60625632,9.41770654 C1.58906644,9.47927984 1.57227625,9.54025145 1.55708523,9.60302812 C1.54669129,9.64915798 1.5388959,9.69568894 1.53050081,9.7428216 C1.52370483,9.78032712 1.51431034,9.81682988 1.50891349,9.85473656 L0.982420982,9.85473656 L0.982420982,6.8111705 C0.981423434,6.28970284 1.3849863,5.85788752 1.90348171,5.8251955 L7.36847099,5.48463703 L7.36847099,7.94034857 Z M21.6141016,0.985775073 L24.0948441,0.985775073 C24.483216,0.985775073 24.8352092,1.21542139 24.9929166,1.57142337 L26.2617711,4.43628646 L21.6143015,4.43628646 L21.6143015,0.985775073 L21.6141016,0.985775073 Z M15.7193648,0.985775073 L20.6316788,0.985775073 L20.6316788,4.43628646 L15.7193648,4.43628646 L15.7193648,0.985775073 Z M14.736942,9.85814614 L8.35089382,9.85814614 L8.35089382,5.42206091 L14.736942,5.42206091 L14.736942,9.85814614 Z M14.736942,4.43628646 L9.18600316,4.43628646 L10.8160455,1.49300264 C10.9891438,1.1803226 11.3175509,0.986176176 11.6741414,0.985775073 L14.736942,0.985775073 L14.736942,4.43628646 Z M19.5171336,8.08676062 C19.4919484,8.1156419 19.4679625,8.14331983 19.4419778,8.17300337 C19.3898084,8.2369834 19.3412369,8.30357086 19.2944644,8.37015822 C19.2812722,8.38981357 19.2660811,8.40766379 19.2528888,8.42731914 C19.1939234,8.51516636 19.1389558,8.60562095 19.0881856,8.69888342 C19.0733943,8.72555854 19.0618011,8.75363752 19.0480092,8.78071373 C19.0130297,8.84870511 18.9786499,8.91729813 18.949667,8.98769628 C18.9340762,9.02520185 18.920684,9.06371023 18.9054929,9.10201806 C18.881507,9.16419303 18.8563218,9.22636804 18.8367333,9.29034813 C18.8229414,9.33286775 18.8115481,9.37659083 18.7999549,9.42011331 C18.782765,9.48168662 18.7659749,9.54265822 18.7507838,9.60543489 C18.7403899,9.65156475 18.7325945,9.69809571 18.7241994,9.74522833 C18.7174034,9.7827339 18.708009,9.81923666 18.7026121,9.85714333 L15.7193648,9.85714333 L15.7193648,5.42206091 L20.6316788,5.42206091 L20.6316788,7.2353644 C20.5962995,7.25221181 20.5625194,7.2708643 20.5275399,7.28871452 C20.4925605,7.3063642 20.4463876,7.33203645 20.406611,7.35530198 C20.3536421,7.38538663 20.3020724,7.4172764 20.2509025,7.45036952 C20.2121253,7.47503897 20.1743475,7.49970841 20.1369694,7.52618287 C20.0877983,7.56168283 20.0388271,7.59878724 19.989656,7.63669392 C19.9542768,7.66437184 19.9188975,7.69144801 19.8849175,7.7205299 C19.8359463,7.76144505 19.7911726,7.80476698 19.7453995,7.84808891 C19.7140179,7.87717075 19.6826364,7.90585148 19.652654,7.93633728 C19.6060813,7.98507441 19.5619073,8.0344133 19.5171336,8.08676062 Z M22.105413,12.8156701 C20.74881,12.8156701 19.649256,11.7121642 19.649256,10.3511337 C19.649256,8.9899025 20.74881,7.88659729 22.105413,7.88659729 C23.462016,7.88659729 24.56157,8.9899025 24.56157,10.3511337 C24.5599709,11.7115626 23.4612164,12.8140655 22.105413,12.8156701 Z M26.5264156,7.88659729 L26.5264156,9.85814614 L25.5092132,9.85814614 C25.5038164,9.82023947 25.4944219,9.78373671 25.4876259,9.74623119 C25.4792308,9.69709285 25.4714354,9.65256756 25.4610415,9.60623715 C25.4472496,9.54366103 25.4306594,9.48268943 25.4118704,9.42091557 C25.4000773,9.37759364 25.3888839,9.33367006 25.375092,9.29135094 C25.3545041,9.2271703 25.3303183,9.16519589 25.3063324,9.10302087 C25.2911413,9.06451249 25.2777492,9.02620466 25.2621583,8.98869914 C25.2315763,8.918301 25.1971965,8.84970792 25.1638161,8.78171659 C25.1500242,8.75464038 25.1382311,8.72656135 25.1236397,8.69988629 C25.0728696,8.60682436 25.0179019,8.51636977 24.9589365,8.42832195 C24.9457442,8.4086666 24.9305532,8.39081638 24.9171611,8.37116108 C24.8681898,8.30357086 24.8190187,8.2369834 24.7698476,8.17400618 C24.7458617,8.14432264 24.7206765,8.11664471 24.6946917,8.08756288 C24.649918,8.03842459 24.605744,7.98567612 24.5585717,7.93974686 C24.5285893,7.90926106 24.4972078,7.88058033 24.4658262,7.85149849 C24.4200531,7.80817656 24.3744799,7.76485463 24.3263082,7.72393948 C24.2923281,7.69485764 24.2569489,7.66778142 24.2215697,7.6401035 C24.1725985,7.60219683 24.1234274,7.56509241 24.0742562,7.52979306 C24.0368782,7.5035191 23.9991004,7.48045422 23.9603232,7.45377911 C23.9111521,7.42088653 23.8575836,7.38879621 23.8046147,7.35871157 C23.7648381,7.33544609 23.7244618,7.31378512 23.6836857,7.29212416 C23.6291178,7.26404513 23.5741501,7.23737002 23.5181829,7.21229947 C23.4764075,7.19304528 23.434632,7.17439279 23.3924568,7.15714422 C23.3344909,7.13347764 23.2751257,7.11261893 23.2155607,7.09196078 C23.1729857,7.07731958 23.1306106,7.06187613 23.0868364,7.04904 C23.0240732,7.03038747 22.9601108,7.01514462 22.8963483,6.99990167 C22.8539732,6.99007402 22.8127974,6.97864186 22.7700225,6.97021817 C22.6982647,6.95597808 22.6251076,6.94615044 22.551351,6.93672389 C22.5151722,6.93170979 22.4791934,6.92489058 22.442415,6.92148099 C22.3314802,6.9072409 22.2189463,6.90082284 22.105413,6.90082284 C21.9918797,6.90082284 21.8793458,6.9072409 21.7688107,6.91807136 C21.7320323,6.92148099 21.6962533,6.92830016 21.6598747,6.93331431 L21.6141016,6.93973237 L21.6141016,5.42206091 L26.5264156,5.42206091 L26.5264156,7.88659729 Z M28.4914611,7.39360976 L27.5090383,7.39360976 L27.5090383,2.464537 L28.4914611,2.464537 L28.4914611,7.39360976 Z" id="Shape" fill="#ABABAB" fill-rule="nonzero"></path>
                        <polygon id="Path" fill="#ABABAB" fill-rule="nonzero" points="11.7303292 6.40732265 13.7018131 6.40732265 13.7018131 7.3930646 11.7303292 7.3930646"></polygon>
                        <path d="M4.92870973,8.87167752 C4.11209345,8.87167752 3.45009681,9.5336742 3.45009681,10.3502905 C3.45009681,11.1669067 4.11209345,11.8289034 4.92870973,11.8289034 C5.74532602,11.8289034 6.40732265,11.1669067 6.40732265,10.3502905 C6.40732265,9.5336742 5.74532602,8.87167752 4.92870973,8.87167752 Z M4.92870973,10.8430277 C4.65657117,10.8430277 4.43577193,10.622429 4.43577193,10.3502905 C4.43577193,10.0781519 4.65657117,9.85735262 4.92870973,9.85735262 C5.2008483,9.85735262 5.42144714,10.0781519 5.42144714,10.3502905 C5.42164753,10.622429 5.2008483,10.8430277 4.92870973,10.8430277 Z" id="Shape" fill="#ABABAB" fill-rule="nonzero"></path>
                        <path d="M22.0806196,8.87167752 C21.2640033,8.87167752 20.6020067,9.5336742 20.6020067,10.3502905 C20.6020067,11.1669067 21.2640033,11.8289034 22.0806196,11.8289034 C22.8972359,11.8289034 23.5592325,11.1669067 23.5592325,10.3502905 C23.5592325,9.5336742 22.8972359,8.87167752 22.0806196,8.87167752 Z M22.0806196,10.8430277 C21.808481,10.8430277 21.5876818,10.622429 21.5876818,10.3502905 C21.5876818,10.0781519 21.808481,9.85735262 22.0806196,9.85735262 C22.3527582,9.85735262 22.5735574,10.0781519 22.5735574,10.3502905 C22.5735574,10.622429 22.3527582,10.8430277 22.0806196,10.8430277 Z" id="Shape" fill="#ABABAB" fill-rule="nonzero"></path>
                    </g>
                </g>
            </g>
        </g>
    </g>
</svg>