<?xml version="1.0" encoding="UTF-8"?>
<svg width="26px" height="27px" viewBox="0 0 26 27" version="1.1" xmlns="http://www.w3.org/2000/svg" xmlns:xlink="http://www.w3.org/1999/xlink">
    <title>GPS</title>
    <g id="PROTOTIPO" stroke="none" stroke-width="1" fill="none" fill-rule="evenodd">
        <g id="BUSQUEDA" transform="translate(-944.000000, -139.000000)">
            <g id="GPS" transform="translate(944.000000, 139.000000)">
                <polygon id="Path" points="0 0.0769230769 26 0.0769230769 26 26.0769231 0 26.0769231"></polygon>
                <path d="M13,8.71328671 C10.5890909,8.71328671 8.63636364,10.666014 8.63636364,13.0769231 C8.63636364,15.4878322 10.5890909,17.4405594 13,17.4405594 C15.4109091,17.4405594 17.3636364,15.4878322 17.3636364,13.0769231 C17.3636364,10.666014 15.4109091,8.71328671 13,8.71328671 Z M22.7527273,11.986014 C22.2509091,7.43692308 18.64,3.82601399 14.0909091,3.3241958 L14.0909091,1.07692308 L11.9090909,1.07692308 L11.9090909,3.3241958 C7.36,3.82601399 3.74909091,7.43692308 3.24727273,11.986014 L1,11.986014 L1,14.1678322 L3.24727273,14.1678322 C3.74909091,18.7169231 7.36,22.3278322 11.9090909,22.8296503 L11.9090909,25.0769231 L14.0909091,25.0769231 L14.0909091,22.8296503 C18.64,22.3278322 22.2509091,18.7169231 22.7527273,14.1678322 L25,14.1678322 L25,11.986014 L22.7527273,11.986014 Z M13,20.7132867 C8.77818182,20.7132867 5.36363636,17.2987413 5.36363636,13.0769231 C5.36363636,8.8551049 8.77818182,5.44055944 13,5.44055944 C17.2218182,5.44055944 20.6363636,8.8551049 20.6363636,13.0769231 C20.6363636,17.2987413 17.2218182,20.7132867 13,20.7132867 Z" id="Shape" fill="#25BBD4" fill-rule="nonzero"></path>
            </g>
        </g>
    </g>
</svg>