<?xml version="1.0" encoding="UTF-8"?>
<svg width="26px" height="27px" viewBox="0 0 26 27" version="1.1" xmlns="http://www.w3.org/2000/svg" xmlns:xlink="http://www.w3.org/1999/xlink">
    <title>LUPA</title>
    <g id="PROTOTIPO" stroke="none" stroke-width="1" fill="none" fill-rule="evenodd">
        <g id="BUSQUEDA" transform="translate(-881.000000, -139.000000)">
            <g id="LUPA" transform="translate(881.000000, 139.000000)">
                <polygon id="Path" points="0 0.0769230769 23 0.0769230769 23 23.0769231 0 23.0769231"></polygon>
                <path d="M19.4379646,17.5423319 L18.3990852,17.5423319 L18.0308748,17.1872718 C19.3196112,15.6881295 20.0954831,13.7418745 20.0954831,11.6246646 C20.0954831,6.90368122 16.268725,3.07692308 11.5477416,3.07692308 C6.82675815,3.07692308 3,6.90368122 3,11.6246646 C3,16.3456481 6.82675815,20.1724062 11.5477416,20.1724062 C13.6649514,20.1724062 15.6112064,19.3965343 17.1103488,18.1077979 L17.4654088,18.4760083 L17.4654088,19.5148876 L24.0405946,26.0769231 L26,24.1175177 L19.4379646,17.5423319 Z M11.5477416,17.5423319 C8.27329903,17.5423319 5.63007433,14.8991072 5.63007433,11.6246646 C5.63007433,8.3502221 8.27329903,5.70699741 11.5477416,5.70699741 C14.8221841,5.70699741 17.4654088,8.3502221 17.4654088,11.6246646 C17.4654088,14.8991072 14.8221841,17.5423319 11.5477416,17.5423319 Z" id="Shape" fill="#25BBD4" fill-rule="nonzero"></path>
            </g>
        </g>
    </g>
</svg>