<?xml version="1.0" encoding="UTF-8"?>
<svg width="15px" height="15px" viewBox="0 0 15 15" version="1.1" xmlns="http://www.w3.org/2000/svg" xmlns:xlink="http://www.w3.org/1999/xlink">
    <title>mesesicons/principa</title>
    <defs>
        <filter id="filter-1">
            <feColorMatrix in="SourceGraphic" type="matrix" values="0 0 0 0 0.715212 0 0 0 0 0.715212 0 0 0 0 0.715212 0 0 0 1.000000 0"></feColorMatrix>
        </filter>
    </defs>
    <g id="PROTOTIPO" stroke="none" stroke-width="1" fill="none" fill-rule="evenodd">
        <g filter="url(#filter-1)" id="meses">
            <g>
                <path d="M13.0664062,1.171875 L11.71875,1.171875 L11.71875,0.46875 C11.71875,0.209882812 11.5088965,0 11.25,0 C10.9911035,0 10.78125,0.209882812 10.78125,0.46875 L10.78125,1.171875 L4.21875,1.171875 L4.21875,0.46875 C4.21875,0.209882812 4.00889648,0 3.75,0 C3.49110352,0 3.28125,0.209882812 3.28125,0.46875 L3.28125,1.171875 L1.93359375,1.171875 C0.867392578,1.171875 0,2.03926758 0,3.10546875 L0,13.0664062 C0,14.1326074 0.867392578,15 1.93359375,15 L13.0664062,15 C14.1326074,15 15,14.1326074 15,13.0664062 L15,3.10546875 C15,2.03926758 14.1326074,1.171875 13.0664062,1.171875 Z M1.93359375,2.109375 L3.28125,2.109375 L3.28125,2.578125 C3.28125,2.83699219 3.49110352,3.046875 3.75,3.046875 C4.00889648,3.046875 4.21875,2.83699219 4.21875,2.578125 L4.21875,2.109375 L10.78125,2.109375 L10.78125,2.578125 C10.78125,2.83699219 10.9911035,3.046875 11.25,3.046875 C11.5088965,3.046875 11.71875,2.83699219 11.71875,2.578125 L11.71875,2.109375 L13.0664062,2.109375 C13.6156641,2.109375 14.0625,2.55621094 14.0625,3.10546875 L14.0625,4.21875 L0.9375,4.21875 L0.9375,3.10546875 C0.9375,2.55621094 1.38433594,2.109375 1.93359375,2.109375 Z M13.0664062,14.0625 L1.93359375,14.0625 C1.38433594,14.0625 0.9375,13.6156641 0.9375,13.0664062 L0.9375,5.15625 L14.0625,5.15625 L14.0625,13.0664062 C14.0625,13.6156641 13.6156641,14.0625 13.0664062,14.0625 Z" id="Shape" fill="#EB4555" fill-rule="nonzero"></path>
                <path d="M8.72148148,12 C8.80839506,12 8.87654321,11.969697 8.92592593,11.9090909 C8.97530864,11.8484848 9,11.7645688 9,11.6573427 L9,11.6573427 L9,7.36363636 C9,7.25641026 8.97234568,7.16899767 8.91703704,7.1013986 C8.8617284,7.03379953 8.79061728,7 8.7037037,7 C8.58518519,7 8.48839506,7.08391608 8.41333333,7.25174825 L8.41333333,7.25174825 L7.00888889,10.4475524 L5.59259259,7.25174825 C5.51753086,7.08391608 5.41876543,7 5.2962963,7 C5.20938272,7 5.1382716,7.03379953 5.08296296,7.1013986 C5.02765432,7.16899767 5,7.25641026 5,7.36363636 L5,7.36363636 L5,11.6573427 C5,11.7599068 5.02469136,11.8426573 5.07407407,11.9055944 C5.12345679,11.9685315 5.18962963,12 5.27259259,12 C5.35950617,12 5.42666667,11.969697 5.47407407,11.9090909 C5.52148148,11.8484848 5.54518519,11.7645688 5.54518519,11.6573427 L5.54518519,11.6573427 L5.54518519,8.43356643 L6.71259259,11.013986 C6.78765432,11.1771562 6.88444444,11.2587413 7.00296296,11.2587413 C7.12148148,11.2587413 7.2182716,11.1771562 7.29333333,11.013986 L7.29333333,11.013986 L8.45481481,8.40559441 L8.45481481,11.6573427 C8.45481481,11.7645688 8.47851852,11.8484848 8.52592593,11.9090909 C8.57333333,11.969697 8.63851852,12 8.72148148,12 Z" id="M" fill="#EB4555" fill-rule="nonzero"></path>
            </g>
        </g>
    </g>
</svg>