<?xml version="1.0" encoding="UTF-8"?>
<svg width="37px" height="21px" viewBox="0 0 37 21" version="1.1" xmlns="http://www.w3.org/2000/svg" xmlns:xlink="http://www.w3.org/1999/xlink">
    <title>icon4SVG</title>
    <defs>
        <filter id="filter-1">
            <feColorMatrix in="SourceGraphic" type="matrix" values="0 0 0 0 0.670588 0 0 0 0 0.670588 0 0 0 0 0.670588 0 0 0 1.000000 0"></feColorMatrix>
        </filter>
    </defs>
    <g id="PROTOTIPO" stroke="none" stroke-width="1" fill="none" fill-rule="evenodd">
        <g id="FILTROS-priv" transform="translate(-1055.000000, -372.000000)">
            <g id="icon4" transform="translate(1055.000000, 372.000000)">
                <rect id="Rectangle-Copy-18" x="0" y="0" width="37" height="21"></rect>
                <g filter="url(#filter-1)" id="005-motorbike">
                    <g transform="translate(7.000000, 4.000000)">
                        <path d="M19.1817081,6.34481381 C18.9958203,6.34481381 18.8132118,6.35886324 18.6343318,6.38475563 L18.4003773,5.50945779 C18.6546366,5.46676912 18.9155893,5.44420897 19.181753,5.44420897 C19.5520462,5.44420897 19.9214409,5.48761812 20.2796052,5.57317558 C20.4528249,5.61455837 20.6340857,5.54948967 20.7416293,5.40728417 C21.784946,4.02877336 21.8447823,3.20679133 20.9787284,2.14984148 C19.8609757,0.785875448 18.8325732,0.0850247594 17.8346279,0.00730256153 C17.0870337,-0.0511016625 16.3671115,0.240379095 15.6313767,0.897685539 C15.5346145,0.984098574 15.4798095,1.10824695 15.4810223,1.23820423 C15.4822802,1.36816151 15.5394661,1.49118413 15.6378905,1.57575093 L16.3713791,2.20599419 C16.3414161,2.33653687 16.3156308,2.45982967 16.2917771,2.57402636 C16.2304135,2.86744342 16.1818526,3.09840353 16.1043619,3.28991715 C15.9985703,3.22813566 15.8943509,3.16702962 15.7919734,3.10691425 C14.2844763,2.22202496 13.0939947,1.52302051 11.8819056,1.85926133 C11.0766762,2.08261133 10.3700959,2.74631207 9.67335355,3.93817252 L6.26636875,2.96088117 L6.05599837,2.30857309 C5.83947367,1.63708211 5.3770901,1.27008564 4.60106016,1.15399768 L0.74750438,0.499753289 C0.585829604,0.472194781 0.422088411,0.535327181 0.320294845,0.664203734 C0.21850128,0.793035256 0.194872236,0.967257263 0.258571828,1.118739 C1.21833331,3.39920555 1.58188818,4.00162013 2.95187862,4.68396339 L6.25864214,6.3308094 C7.11193816,6.7557598 7.41754346,7.08060796 7.68042782,7.84215942 L8.3293281,9.72208197 L7.60945084,9.72208197 C7.38627765,7.82311163 5.77177601,6.34481381 3.81838175,6.34481381 C1.71292605,6.34481381 0,8.06186197 0,10.1723844 C0,12.2829068 1.71292605,14 3.81838175,14 C5.77182093,14 7.38632258,12.5216572 7.60945084,10.6226868 L8.6401893,10.6226868 L9.07957273,11.8956918 C9.14219419,12.0770736 9.31262878,12.1987453 9.50408694,12.1987453 L14.2595445,12.1987453 C14.402891,12.1987453 14.5377024,12.1301642 14.6222908,12.0140763 C14.7068791,11.8979883 14.7310922,11.7484429 14.6874728,11.6115509 C14.5397239,11.1473792 14.4647937,10.663214 14.4647937,10.1723844 C14.4647937,8.14651883 15.7425141,6.41443056 17.5324816,5.74266941 L17.7665709,6.61846259 C16.3598791,7.18332195 15.3632365,8.56295851 15.3632365,10.1724294 C15.3632365,12.2829518 17.0761626,14 19.1816183,14 C21.2870739,14 23,12.2829518 23,10.1724294 C23,8.061907 21.2871638,6.34481381 19.1817081,6.34481381 L19.1817081,6.34481381 Z M3.81838175,13.0993501 C2.20832739,13.0993501 0.898442764,11.7863133 0.898442764,10.1723844 C0.898442764,8.55845548 2.20832739,7.24541865 3.81838175,7.24541865 C5.27570083,7.24541865 6.48698137,8.32119114 6.70373069,9.72208197 L5.78898119,9.72208197 C5.58409131,8.8208467 4.77863737,8.14602349 3.81838175,8.14602349 C2.70372873,8.14602349 1.79688553,9.05504899 1.79688553,10.1723844 C1.79688553,11.2897198 2.70372873,12.1987453 3.81838175,12.1987453 C4.77863737,12.1987453 5.58404639,11.5239221 5.78898119,10.6226868 L6.70373069,10.6226868 C6.48698137,12.0235776 5.27570083,13.0993501 3.81838175,13.0993501 Z M3.81838175,10.6226868 L4.84741317,10.6226868 C4.67374418,11.0198535 4.27798014,11.2981404 3.81838175,11.2981404 C3.19913007,11.2981404 2.69532829,10.7931263 2.69532829,10.1723844 C2.69532829,9.5516425 3.19913007,9.04662834 3.81838175,9.04662834 C4.27798014,9.04662834 4.67374418,9.32491523 4.84741317,9.72208197 L3.81838175,9.72208197 C3.57027678,9.72208197 3.36916037,9.92372739 3.36916037,10.1723844 C3.36916037,10.4210414 3.57027678,10.6226868 3.81838175,10.6226868 Z M12.1215202,2.72726428 C12.9673592,2.49270175 14.0135509,3.1066891 15.3379903,3.88404617 C15.3732991,3.90476008 15.4091469,3.9257892 15.44486,3.94677329 C15.3689416,3.98392324 15.2853415,4.0204878 15.1919035,4.05705236 L13.0330803,4.90190976 L10.5681576,4.1948449 C11.0903326,3.35354488 11.6010074,2.87163123 12.1215202,2.72726428 L12.1215202,2.72726428 Z M14.5166788,7.04278256 L13.0495218,7.04278256 C12.8014617,7.04278256 12.6003004,7.24442799 12.6003004,7.49308498 C12.6003004,7.74174198 12.8014617,7.9433874 13.0495218,7.9433874 L14.0259494,7.9433874 C13.9012904,8.23198623 13.8001707,8.53296836 13.7247914,8.84403728 L12.0389084,8.84403728 C11.7908484,8.84403728 11.589687,9.0456827 11.589687,9.2943397 C11.589687,9.54299669 11.7908484,9.74464212 12.0389084,9.74464212 L13.5825229,9.74464212 C13.5718764,9.88585696 13.5663959,10.0284677 13.5663959,10.1723844 C13.5663959,10.5523496 13.6041754,10.9290275 13.6790606,11.2981404 L9.82402241,11.2981404 L8.52945623,7.54770667 C8.14698914,6.43960247 7.57674752,5.98164491 6.65835933,5.52422771 L3.35164073,3.87738169 C2.42368412,3.41523632 2.0959322,3.06895375 1.41208249,1.52599251 L4.45555736,2.04275957 C4.45870191,2.04329993 4.46180153,2.04379526 4.46494608,2.04424556 C4.9607068,2.11764486 5.10611976,2.29110135 5.20113008,2.58559913 L5.48517276,3.46630061 C5.53121796,3.60904648 5.6451405,3.7194156 5.78902611,3.76070833 L12.9316461,5.80958435 C13.0261623,5.83673759 13.1270574,5.83196438 13.2186087,5.79612031 L15.5186222,4.8960108 C16.8314717,4.38226077 16.9888788,3.62998554 17.171083,2.75887551 C17.210884,2.5685777 17.2520776,2.37179555 17.3079608,2.1592528 C17.3519396,1.99232569 17.2967303,1.81490654 17.1659619,1.70251106 L16.6379471,1.24883137 C17.0285451,0.986575237 17.3945257,0.876701446 17.7649537,0.90520559 C18.4958369,0.962168846 19.3435176,1.57327426 20.2844567,2.72150041 C20.5072706,2.99343804 20.6852071,3.21111423 20.682938,3.52398435 L20.0713461,3.2716799 C19.8417042,3.17693627 19.5793589,3.28676504 19.4849325,3.51664442 C19.3904613,3.74661387 19.4999365,4.00981563 19.729309,4.1044692 L20.3687307,4.36830139 C20.3171601,4.45192255 20.258896,4.54036195 20.1924113,4.63497048 C19.8597629,4.57426972 19.521005,4.54364915 19.1816183,4.54364915 C17.2399936,4.54360412 15.5254953,5.53674611 14.5166788,7.04278256 Z M19.1817081,13.0993501 C17.5716537,13.0993501 16.2617691,11.7863133 16.2617691,10.1723844 C16.2617691,8.97948824 16.9777831,7.95162794 18.0012891,7.49619207 L18.237849,8.38121645 C17.5975289,8.72164508 17.1602119,9.39660338 17.1602119,10.1723844 C17.1602119,11.2897198 18.0670551,12.1987453 19.1817081,12.1987453 C20.2963611,12.1987453 21.2032043,11.2897198 21.2032043,10.1723844 C21.2032043,9.05504899 20.2963611,8.14602349 19.1817081,8.14602349 C19.1561923,8.14602349 19.1309012,8.14701416 19.1056549,8.14795979 L18.8689602,7.26244008 C18.9717869,7.25140767 19.0760512,7.24541865 19.181753,7.24541865 C20.7918074,7.24541865 22.101692,8.55845548 22.101692,10.1723844 C22.101692,11.7863133 20.7917625,13.0993501 19.1817081,13.0993501 Z M18.7478052,10.2889227 C18.801577,10.4901178 18.9830624,10.6228219 19.1814386,10.6228219 C19.2198919,10.6228219 19.259064,10.6178235 19.2979666,10.6073315 C19.5376262,10.5429383 19.6798497,10.2960374 19.615611,10.0558461 L19.3492227,9.05919177 C19.8893216,9.14051639 20.3047616,9.60869582 20.3047616,10.1723844 C20.3047616,10.7931263 19.8009598,11.2981404 19.1817081,11.2981404 C18.5624564,11.2981404 18.0586546,10.7931263 18.0586546,10.1723844 C18.0586546,9.81687063 18.224058,9.49954251 18.4815966,9.29307885 L18.7478052,10.2889227 Z" id="Shape" fill="#000000" fill-rule="nonzero"></path>
                        <path d="M10.5001,7 L10.49975,7 C10.2236553,7 10,7.2239 10,7.5 C10,7.7761 10.2240052,8 10.5001,8 C10.7761948,8 11,7.7761 11,7.5 C11,7.2239 10.7761948,7 10.5001,7 L10.5001,7 Z" id="Path" fill="#000000" fill-rule="nonzero"></path>
                    </g>
                </g>
            </g>
        </g>
    </g>
</svg>