<?xml version="1.0" encoding="UTF-8"?>
<svg width="17px" height="16px" viewBox="0 0 17 16" version="1.1" xmlns="http://www.w3.org/2000/svg" xmlns:xlink="http://www.w3.org/1999/xlink">
    <title>resultado_1</title>
    <g id="PROTOTIPO" stroke="none" stroke-width="1" fill="none" fill-rule="evenodd">
        <g id="BUSQUEDA" transform="translate(-642.000000, -299.000000)">
            <g id="resultado_1" transform="translate(642.642674, 299.000000)">
                <polygon id="Path" points="0 0 15.6188518 0 15.6188518 16 0 16"></polygon>
                <path d="M8.36724201,8 C7.67694455,8 7.11215571,7.38285714 7.11215571,6.62857143 C7.11215571,5.87428571 7.67694455,5.25714286 8.36724201,5.25714286 C9.05753948,5.25714286 9.62232831,5.87428571 9.62232831,6.62857143 C9.62232831,7.38285714 9.05753948,8 8.36724201,8 Z M12.1325009,6.76571429 C12.1325009,4.27657143 10.4695116,2.51428571 8.36724201,2.51428571 C6.26497246,2.51428571 4.60198311,4.27657143 4.60198311,6.76571429 C4.60198311,8.37028571 5.82569225,10.496 8.36724201,13.0331429 C10.9087918,10.496 12.1325009,8.37028571 12.1325009,6.76571429 Z M8.36724201,1.14285714 C11.0029232,1.14285714 13.3875872,3.35085714 13.3875872,6.76571429 C13.3875872,9.04228571 11.712047,11.7371429 8.36724201,14.8571429 C5.02243702,11.7371429 3.3468968,9.04228571 3.3468968,6.76571429 C3.3468968,3.35085714 5.73156078,1.14285714 8.36724201,1.14285714 Z" id="Shape" fill="#B6B6B6" fill-rule="nonzero"></path>
            </g>
        </g>
    </g>
</svg>