<?xml version="1.0" encoding="UTF-8"?>
<svg width="37px" height="21px" viewBox="0 0 37 21" version="1.1" xmlns="http://www.w3.org/2000/svg" xmlns:xlink="http://www.w3.org/1999/xlink">
    <title>icon1SVG</title>
    <defs>
        <filter id="filter-1">
            <feColorMatrix in="SourceGraphic" type="matrix" values="0 0 0 0 0.670588 0 0 0 0 0.670588 0 0 0 0 0.670588 0 0 0 1.000000 0"></feColorMatrix>
        </filter>
    </defs>
    <g id="PROTOTIPO" stroke="none" stroke-width="1" fill="none" fill-rule="evenodd">
        <g id="FILTROS-priv" transform="translate(-1055.000000, -272.000000)">
            <g id="icon1" transform="translate(1055.000000, 272.000000)">
                <rect id="Rectangle" x="0" y="0" width="37" height="21"></rect>
                <g filter="url(#filter-1)" id="001-car">
                    <g transform="translate(18.500000, 10.500000) scale(-1, 1) translate(-18.500000, -10.500000) translate(3.000000, 4.000000)">
                        <polygon id="Path" fill="#000000" fill-rule="nonzero" points="12.25 5.5 14.25 5.5 14.25 6.5 12.25 6.5"></polygon>
                        <path d="M29.8209012,3.50469317 L26.4245007,3.01971415 C25.8051978,2.63929853 25.162498,2.29875541 24.4998602,1.99991558 C22.311548,1.00880074 19.9364684,0.497375691 17.5339229,0.500010126 L16.9439169,0.500010126 C14.1086325,0.502054613 11.3187175,1.2134521 8.82848492,2.56931834 L7.11441555,3.50428633 C5.10798801,3.52686711 3.14021601,4.0604661 1.39705322,5.05402211 C0.688639002,5.4602734 0.251220702,6.21398454 0.25,7.03035232 L0.25,9.99901792 C0.25,10.2752769 0.473795409,10.4990508 0.750080988,10.4990508 L2.42895351,10.4990508 C2.97501426,12.0567204 4.68053874,12.8769534 6.23835822,12.3309451 C7.09590156,12.0304779 7.76993263,11.3563082 8.07042886,10.4990508 L21.4289803,10.4990508 C21.9750411,12.0567204 23.6805656,12.8769534 25.2383851,12.3309451 C26.0957249,12.0304779 26.7699595,11.3563082 27.0704556,10.4990508 L27.2498989,10.4990508 C27.3135789,10.4990508 27.3766484,10.4870484 27.4358525,10.4634504 L29.0553175,9.81369245 C29.778787,9.52726189 30.2526229,8.82705311 30.2499891,8.04933716 L30.2499891,3.99964028 C30.2499891,3.75104788 30.0670762,3.54009015 29.8209012,3.50469317 Z M7.20942689,9.89913338 C6.98827632,10.9811818 5.93175855,11.6791529 4.84960601,11.4580236 C3.76725003,11.2368943 3.06921179,10.1804782 3.29036236,9.09822635 C3.51171636,8.01617793 4.56823413,7.31820685 5.65038668,7.53933614 C6.58157902,7.72954395 7.25011696,8.54875978 7.24991357,9.49918846 C7.24991357,9.63345279 7.23628234,9.76751364 7.20942689,9.89913338 Z M16.2499476,9.49918846 L8.24987207,9.49918846 C8.24987207,7.84244806 6.90689617,6.49939791 5.24999634,6.49939791 C3.59309651,6.49939791 2.24991718,7.84244806 2.24991718,9.49918846 L1.24995859,9.49918846 L1.24995859,7.03035232 C1.25056896,6.57242958 1.49593008,6.14949694 1.89347213,5.92206134 C3.52514406,4.99055171 5.37125277,4.50028351 7.24991353,4.49967321 L16.2499476,4.49967321 L16.2499476,9.49918846 Z M16.2499476,3.49981083 L9.21097162,3.49981083 L9.30740713,3.44712224 C11.4450601,2.28553242 13.8195295,1.62702689 16.2499476,1.52185318 L16.2499476,3.49981083 Z M17.2499062,1.49987289 L17.5329056,1.49987289 C19.5478781,1.49764496 21.5445401,1.88009485 23.41608,2.62688927 L22.5430745,3.49981083 L17.2499062,3.49981083 L17.2499062,1.49987289 Z M26.2094537,9.89913338 C25.9883031,10.9811818 24.9317853,11.6791529 23.8494294,11.4580236 C22.7672768,11.2368943 22.0692386,10.1804782 22.2903891,9.09822635 C22.5115397,8.01617793 23.568261,7.31820685 24.6504135,7.53933614 C25.5816058,7.72954395 26.2501437,8.54875978 26.2499404,9.49918846 C26.2499404,9.63345279 26.2363091,9.76751364 26.2094537,9.89913338 Z M29.2500244,4.99950266 L27.7499799,4.99950266 L27.7499799,5.99956846 L29.2500244,5.99956846 L29.2500244,8.04933716 C29.2512402,8.41775035 29.026631,8.74934252 28.6840206,8.88462404 L27.2498989,9.46053658 C27.2498989,9.41456125 27.2439988,9.36899275 27.240947,9.32301737 C27.2378953,9.27704203 27.2368781,9.22313288 27.2319953,9.17308888 C27.226909,9.12304488 27.2169399,9.07300093 27.2090053,9.0231604 C27.2008673,8.9731164 27.1949673,8.92307245 27.1849982,8.87770737 C27.1750292,8.83213887 27.1603807,8.78168803 27.1473599,8.7340852 C27.1343391,8.68668583 27.12437,8.63867617 27.1093147,8.59209053 C27.0944628,8.54570831 27.0763557,8.50115695 27.0594694,8.45558845 C27.0423795,8.41022337 27.0269173,8.36323089 27.0094205,8.31806923 C26.9919238,8.27311104 26.9683236,8.23222146 26.9473682,8.18970444 C26.9264128,8.14718736 26.9058643,8.10060172 26.8824675,8.05767781 C26.8588673,8.0147539 26.8324187,7.97813641 26.8098357,7.93826392 C26.7874562,7.89818807 26.7599904,7.85261957 26.7315073,7.81172999 C26.7028208,7.77063694 26.6763723,7.73829149 26.6489065,7.70126706 C26.6214407,7.66424268 26.5903128,7.62070846 26.5583711,7.58226005 C26.5264293,7.54381165 26.4965222,7.51370389 26.4653943,7.4821721 C26.4344698,7.45084378 26.3998832,7.40832671 26.3655001,7.37333661 C26.3309135,7.33834652 26.2969373,7.31067993 26.2625542,7.27975845 C26.2279677,7.24883696 26.1909397,7.21221942 26.1528945,7.17967049 C26.1150527,7.14732498 26.0763972,7.12230304 26.0385554,7.09382272 C26.0005101,7.06534241 25.9624649,7.03482777 25.9225886,7.00817837 C25.8825089,6.98173234 25.8375464,6.95833779 25.7946183,6.93026436 C25.7514869,6.90219089 25.7164934,6.88022036 25.6760068,6.85886014 C25.6355202,6.8372965 25.5850645,6.81471567 25.5390847,6.79274515 C25.4931049,6.77077462 25.4570942,6.75124526 25.4145731,6.73334335 C25.3720519,6.71523802 25.3144755,6.69631892 25.2646301,6.67841701 C25.2145813,6.66031168 25.1820293,6.64627497 25.1395082,6.63284851 C25.082542,6.61535349 25.0241518,6.60274076 24.965965,6.58829721 C24.9279198,6.5793462 24.8915022,6.56734382 24.85305,6.55941001 C24.791608,6.54679727 24.7285384,6.53988065 24.6660791,6.53072628 C24.6290512,6.52584394 24.5936508,6.51770671 24.5566228,6.51424835 C24.4565253,6.50428025 24.3566311,6.49878766 24.2516507,6.49878766 C22.5953613,6.5004151 21.2531992,7.84244806 21.2515716,9.49857816 L17.2501097,9.49857816 L17.2501097,4.49946974 L22.7499835,4.49946974 C22.8826332,4.49946974 23.0097897,4.4467812 23.1033768,4.35299956 L24.3999661,3.05653511 C24.9441958,3.31550255 25.4733702,3.60498454 25.9850479,3.92355719 C26.0440485,3.96037815 26.1099665,3.98458643 26.1789361,3.99455453 L29.2500244,4.43294791 L29.2500244,4.99950266 Z" id="Shape" fill="#000000" fill-rule="nonzero"></path>
                    </g>
                </g>
            </g>
        </g>
    </g>
</svg>