<?xml version="1.0" encoding="UTF-8"?>
<svg width="37px" height="21px" viewBox="0 0 37 21" version="1.1" xmlns="http://www.w3.org/2000/svg" xmlns:xlink="http://www.w3.org/1999/xlink">
    <title>icon3SVG</title>
    <defs>
        <filter id="filter-1">
            <feColorMatrix in="SourceGraphic" type="matrix" values="0 0 0 0 0.670588 0 0 0 0 0.670588 0 0 0 0 0.670588 0 0 0 1.000000 0"></feColorMatrix>
        </filter>
    </defs>
    <g id="PROTOTIPO" stroke="none" stroke-width="1" fill="none" fill-rule="evenodd">
        <g id="FILTROS-priv" transform="translate(-1055.000000, -322.000000)">
            <g id="icon3" transform="translate(1055.000000, 322.000000)">
                <rect id="Rectangle-Copy-3" x="0" y="0" width="37" height="21"></rect>
                <g filter="url(#filter-1)" id="002-truck">
                    <g transform="translate(6.000000, 3.000000)">
                        <path d="M25.9182344,7.27018794 L23.9473624,5.95202334 L21.691185,0.987596933 C21.3912067,0.380765037 20.7734978,-0.00216243262 20.0983654,9.18814228e-06 L1.78066835,9.18814228e-06 C0.797224945,9.18814228e-06 0,0.799858898 0,1.78671037 L0,13.8461083 C0,14.0927303 0.199260953,14.292645 0.445257633,14.292645 L2.8309547,14.292645 C3.31715142,15.6844145 4.83570104,16.4170109 6.2227384,15.9292191 C6.98608902,15.6607883 7.58640791,15.0584999 7.85396101,14.292645 L17.9671789,14.292645 C18.4533757,15.6844145 19.9719253,16.4170109 21.3591438,15.9292191 C22.1224944,15.6607883 22.7226322,15.0584999 22.9901853,14.292645 L26.2658542,14.292645 C26.5118509,14.292645 26.7111118,14.0927303 26.7111118,13.8461083 L26.7111118,8.48639608 C26.6919104,7.96480056 26.3868599,7.49681849 25.9182344,7.27018794 Z M22.8744328,5.80644907 L19.5880763,5.80644907 C19.3422607,5.80644907 19.1429997,5.60653445 19.1429997,5.35973069 L19.1429997,3.12650212 C19.1429997,2.87988013 19.3422607,2.67996546 19.5880763,2.67996546 L21.3163933,2.67996546 L22.8744328,5.80644907 Z M7.08698751,13.7566919 C6.89008145,14.7233702 5.94920744,15.3469222 4.98569019,15.1493702 C4.0221729,14.9518182 3.40065986,14.0080392 3.59756593,13.0413609 C3.79447199,12.0745009 4.73516482,11.4509488 5.69868211,11.6486826 C6.52778881,11.8186101 7.12321677,12.5504795 7.12303564,13.3993899 C7.12285446,13.5195204 7.11089883,13.6391057 7.08698751,13.7566919 Z M22.2232117,13.7566919 C22.0263057,14.7233702 21.0856128,15.3469222 20.1219144,15.1493702 C19.1583971,14.9518182 18.5368841,14.0080392 18.7337902,13.0413609 C18.9306962,12.0745009 19.871389,11.4509488 20.8350875,11.6486826 C21.6641942,11.8186101 22.259441,12.5504795 22.2592599,13.3993899 C22.2592599,13.5195204 22.2471231,13.6391057 22.2232117,13.7566919 Z M25.8207777,11.6128797 L24.0401094,11.6128797 L24.0401094,12.5061348 L25.8207777,12.5061348 L25.8207777,13.3993899 L23.149594,13.3993899 C23.149594,11.9194762 21.953666,10.7196246 20.4785915,10.7196246 C19.0033359,10.7196246 17.8074079,11.9194762 17.8074079,13.3993899 L8.01336977,13.3993899 C8.01336977,11.9194762 6.81744179,10.7196246 5.34218615,10.7196246 C3.86711165,10.7196246 2.67118362,11.9194762 2.67118362,13.3993899 L0.890334177,13.3993899 L0.890334177,12.5061348 L2.22592599,12.5061348 L2.22592599,11.6128797 L0.890334177,11.6128797 L0.890334177,8.48639608 L17.3623314,8.48639608 L17.3623314,7.59295926 L0.890334177,7.59295926 L0.890334177,1.78671037 C0.890334177,1.29328461 1.28903722,0.893251228 1.78084949,0.893251228 L20.0983654,0.893251228 C20.4305878,0.89091093 20.7356382,1.07628635 20.8876199,1.37252351 L21.0754687,1.78671037 L19.5882574,1.78671037 C18.8506296,1.78671037 18.2526655,2.38645437 18.2526655,3.12650212 L18.2526655,5.35973069 C18.2526655,6.09977844 18.8506296,6.69970417 19.5882574,6.69970417 L23.4613469,6.69970417 L25.4255164,8.01332527 C25.4371098,8.0209584 25.4450802,8.0316811 25.4557679,8.03967765 L24.4851859,8.03967765 C24.2393703,8.03967765 24.0401094,8.23959236 24.0401094,8.48639608 L24.0401094,10.2729062 C24.0401094,10.5195283 24.2393703,10.7194429 24.4851859,10.7194429 L25.8207777,10.7194429 L25.8207777,11.6128797 Z M25.8207777,9.82618783 L24.9304435,9.82618783 L24.9304435,8.93293274 L25.8207777,8.93293274 L25.8207777,9.82618783 Z" id="Shape" fill="#000000" fill-rule="nonzero"></path>
                        <polygon id="Path" fill="#000000" fill-rule="nonzero" points="18.2243037 7.59345989 20.4576743 7.59345989 20.4576743 8.48680811 18.2243037 8.48680811"></polygon>
                        <polygon id="Path" fill="#000000" fill-rule="nonzero" points="8.39747329 11.6135269 17.3309555 11.6135269 17.3309555 12.5068751 8.39747329 12.5068751"></polygon>
                    </g>
                </g>
            </g>
        </g>
    </g>
</svg>