<?xml version="1.0" encoding="UTF-8"?>
<svg width="13px" height="13px" viewBox="0 0 13 13" version="1.1" xmlns="http://www.w3.org/2000/svg" xmlns:xlink="http://www.w3.org/1999/xlink">
    <!-- Generator: Sketch 62 (91390) - https://sketch.com -->
    <title>logouticons/principa</title>
    <desc>Created with Sketch.</desc>
    <g id="Symbols" stroke="none" stroke-width="1" fill="none" fill-rule="evenodd">
        <g id="menu/CON-PARQUEADERO" transform="translate(-20.000000, -424.000000)" fill="#EB4555">
            <g id="Group" transform="translate(0.000000, 403.000000)">
                <g id="logout" transform="translate(20.197917, 21.000000)">
                    <g id="Path">
                        <path d="M12.098787,7.15 L4.27480754,7.15 C4.05142053,7.15 3.87012235,6.93160094 3.87012235,6.6625 C3.87012235,6.39339906 4.05142053,6.175 4.27480754,6.175 L12.098787,6.175 C12.322174,6.175 12.5034722,6.39339906 12.5034722,6.6625 C12.5034722,6.93160094 12.322174,7.15 12.098787,7.15 Z" fill-rule="nonzero"></path>
                        <path d="M6.44082229,9.425 C6.33686451,9.425 6.23300586,9.3826196 6.15392266,9.29711339 L3.98904448,6.97098255 C3.83048165,6.80050256 3.83048165,6.52428449 3.98904448,6.35391098 L6.15392266,4.02778013 C6.31248549,3.85740662 6.5695555,3.85740662 6.72821743,4.02778013 C6.88678026,4.19815365 6.88678026,4.47437169 6.72821743,4.6447452 L4.85013976,6.66271297 L6.72821743,8.68068073 C6.88678026,8.85105425 6.88678026,9.12727229 6.72821743,9.2976458 C6.6486387,9.3826196 6.54468095,9.425 6.44082229,9.425 L6.44082229,9.425 Z" fill-rule="nonzero"></path>
                        <path d="M5.99869402,13 C2.69124929,13 0,10.0838452 0,6.5 C0,2.9161548 2.69124929,0 5.99869402,0 C8.48045083,0 10.6716342,1.61788599 11.5817981,4.12223887 C11.6646764,4.34967126 11.5610286,4.60674991 11.3511367,4.69709529 C11.141145,4.78581772 10.9038933,4.67523929 10.8205157,4.44661675 C10.0346693,2.28384519 8.14184789,0.886358717 5.99869402,0.886358717 C3.14218732,0.886358717 0.817999191,3.40488555 0.817999191,6.5 C0.817999191,9.59511445 3.14218732,12.1136413 5.99869402,12.1136413 C8.14184789,12.1136413 10.0346693,10.7161548 10.8205157,8.55403246 C10.903394,8.32530172 11.1406457,8.21483145 11.3511367,8.30344569 C11.5610286,8.39325009 11.6646764,8.65086975 11.5817981,8.87841033 C10.6716342,11.382114 8.48045083,13 5.99869402,13 Z" fill-rule="nonzero"></path>
                    </g>
                </g>
            </g>
        </g>
    </g>
</svg>