<?xml version="1.0" encoding="UTF-8"?>
<svg width="15px" height="15px" viewBox="0 0 15 15" version="1.1" xmlns="http://www.w3.org/2000/svg" xmlns:xlink="http://www.w3.org/1999/xlink">
    <!-- Generator: Sketch 62 (91390) - https://sketch.com -->
    <title>Group 40icons/principa</title>
    <desc>Created with Sketch.</desc>
    <g id="PROTOTIPO" stroke="none" stroke-width="1" fill="none" fill-rule="evenodd">
        <g id="MI-cuenta/CREAR-PARQUEADERO-PUBLICO" transform="translate(-608.000000, -1085.000000)" fill="#EB4555" fill-rule="nonzero">
            <g id="Group-40" transform="translate(608.000000, 1085.000000)">
                <path d="M13.0664062,1.171875 L11.71875,1.171875 L11.71875,0.46875 C11.71875,0.209882812 11.5088965,0 11.25,0 C10.9911035,0 10.78125,0.209882812 10.78125,0.46875 L10.78125,1.171875 L4.21875,1.171875 L4.21875,0.46875 C4.21875,0.209882812 4.00889648,0 3.75,0 C3.49110352,0 3.28125,0.209882812 3.28125,0.46875 L3.28125,1.171875 L1.93359375,1.171875 C0.867392578,1.171875 0,2.03926758 0,3.10546875 L0,13.0664062 C0,14.1326074 0.867392578,15 1.93359375,15 L13.0664062,15 C14.1326074,15 15,14.1326074 15,13.0664062 L15,3.10546875 C15,2.03926758 14.1326074,1.171875 13.0664062,1.171875 Z M1.93359375,2.109375 L3.28125,2.109375 L3.28125,2.578125 C3.28125,2.83699219 3.49110352,3.046875 3.75,3.046875 C4.00889648,3.046875 4.21875,2.83699219 4.21875,2.578125 L4.21875,2.109375 L10.78125,2.109375 L10.78125,2.578125 C10.78125,2.83699219 10.9911035,3.046875 11.25,3.046875 C11.5088965,3.046875 11.71875,2.83699219 11.71875,2.578125 L11.71875,2.109375 L13.0664062,2.109375 C13.6156641,2.109375 14.0625,2.55621094 14.0625,3.10546875 L14.0625,4.21875 L0.9375,4.21875 L0.9375,3.10546875 C0.9375,2.55621094 1.38433594,2.109375 1.93359375,2.109375 Z M13.0664062,14.0625 L1.93359375,14.0625 C1.38433594,14.0625 0.9375,13.6156641 0.9375,13.0664062 L0.9375,5.15625 L14.0625,5.15625 L14.0625,13.0664062 C14.0625,13.6156641 13.6156641,14.0625 13.0664062,14.0625 Z" id="Shape"></path>
                <path d="M7.63036304,12 C8.38283828,12 8.96589659,11.7813239 9.37953795,11.3439716 C9.79317932,10.9066194 10,10.2907801 10,9.4964539 C10,8.70212766 9.79317932,8.08747045 9.37953795,7.65248227 C8.96589659,7.21749409 8.38283828,7 7.63036304,7 L7.63036304,7 L6.33663366,7 C6.2310231,7 6.14851485,7.03191489 6.08910891,7.09574468 C6.02970297,7.15957447 6,7.24586288 6,7.35460993 L6,7.35460993 L6,11.6453901 C6,11.7541371 6.02970297,11.8404255 6.08910891,11.9042553 C6.14851485,11.9680851 6.2310231,12 6.33663366,12 L6.33663366,12 L7.63036304,12 Z M7.59075908,11.3900709 L6.67986799,11.3900709 L6.67986799,7.60992908 L7.59075908,7.60992908 C8.73487349,7.60992908 9.30693069,8.23877069 9.30693069,9.4964539 C9.30693069,10.7588652 8.73487349,11.3900709 7.59075908,11.3900709 L7.59075908,11.3900709 Z" id="D"></path>
            </g>
        </g>
    </g>
</svg>