<?xml version="1.0" encoding="UTF-8"?>
<svg width="19px" height="19px" viewBox="0 0 19 19" version="1.1" xmlns="http://www.w3.org/2000/svg" xmlns:xlink="http://www.w3.org/1999/xlink">
    <!-- Generator: Sketch 62 (91390) - https://sketch.com -->
    <title>PRIVADOicons/principa</title>
    <desc>Created with Sketch.</desc>
    <g id="PROTOTIPO" stroke="none" stroke-width="1" fill="none" fill-rule="evenodd">
        <g id="MI-cuenta/CREAR-PARQUEADERO-PUBLICO" transform="translate(-607.000000, -976.000000)" fill="#B6B6B6">
            <g id="PRIVADO" transform="translate(607.169935, 976.208955)">
                <g id="car-parking">
                    <polygon id="Path" fill-rule="nonzero" points="17.2941176 17.28 18 17.28 18 18 17.2941176 18"></polygon>
                    <polygon id="Path" fill-rule="nonzero" points="0 17.28 0.705882353 17.28 0.705882353 18 0 18"></polygon>
                    <path d="M14.2941176,15.12 C13.8076471,15.12 13.4117647,15.5238 13.4117647,16.02 C13.4117647,16.5162 13.8076471,16.92 14.2941176,16.92 L14.2941176,16.32 C14.1320588,16.32 14,16.1853 14,16.02 C14,15.8547 14.1320588,15.72 14.2941176,15.72 C14.4561765,15.72 14.5882353,15.8547 14.5882353,16.02 L15.1764706,16.02 C15.1764706,15.5238 14.7805882,15.12 14.2941176,15.12 Z" id="Path" fill-rule="nonzero"></path>
                    <path d="M9.12019355,2.32258065 L18,2.32258065 L18,1.4516129 C18,0.651193548 17.3488065,0 16.5483871,0 L3.77419355,0 C2.97377419,0 2.32258065,0.651193548 2.32258065,1.4516129 L2.32258065,11.636129 C1.33925806,11.7778065 0.580645161,12.6235161 0.580645161,13.6451613 L0.580645161,15.1501935 C0.243580645,15.2703871 0,15.5897419 0,15.9677419 C0,16.4479355 0.390774194,16.8387097 0.870967742,16.8387097 L2.32258065,16.8387097 L2.32258065,17.4193548 L1.16129032,17.4193548 L1.16129032,18 L16.8387097,18 L16.8387097,17.4193548 L15.6454839,17.4193548 C15.8159032,17.2527097 15.9555484,17.0561613 16.0591935,16.8387097 L17.4193548,16.8387097 C17.7395806,16.8387097 18,16.5782903 18,16.2580645 L18,15.6774194 C18,15.3571935 17.7395806,15.0967742 17.4193548,15.0967742 L17.4193548,11.8013226 L16.2534194,10.3439032 C15.4225161,9.30541935 14.183129,8.70967742 12.852871,8.70967742 L7.97777419,8.70967742 C6.66783871,8.70967742 5.46067742,9.28741935 4.64516129,10.2614516 L4.64516129,6.7976129 L9.12019355,2.32258065 Z M4.64516129,5.97658065 L4.64516129,4.76535484 L7.08793548,2.32258065 L8.29916129,2.32258065 L4.64516129,5.97658065 Z M4.64516129,3.94432258 L4.64516129,2.32258065 L6.26690323,2.32258065 L4.64516129,3.94432258 Z M3.77419355,0.580645161 L16.5483871,0.580645161 C17.0285806,0.580645161 17.4193548,0.971419355 17.4193548,1.4516129 L17.4193548,1.74193548 L4.35483871,1.74193548 L4.06451613,1.74193548 L2.90322581,1.74193548 L2.90322581,1.4516129 C2.90322581,0.971419355 3.294,0.580645161 3.77419355,0.580645161 Z M2.32258065,13.9354839 L1.16129032,13.9354839 L1.16129032,13.6451613 C1.16129032,13.545871 1.17145161,13.4486129 1.1906129,13.3548387 L2.32258065,13.3548387 L2.32258065,13.9354839 Z M2.32258065,12.222871 L2.32258065,12.7741935 L1.45916129,12.7741935 C1.66848387,12.4975161 1.97041935,12.2945806 2.32258065,12.222871 Z M0.870967742,16.2580645 C0.711,16.2580645 0.580645161,16.1277097 0.580645161,15.9677419 C0.580645161,15.8077742 0.711,15.6774194 0.870967742,15.6774194 L1.74193548,15.6774194 L1.74193548,15.0967742 L1.16129032,15.0967742 L1.16129032,14.516129 L2.32258065,14.516129 L2.32258065,16.2580645 L0.870967742,16.2580645 Z M2.90322581,2.32258065 L4.06451613,2.32258065 L4.06451613,17.4193548 L2.90322581,17.4193548 L2.90322581,2.32258065 Z M14.2258065,13.9354839 C13.4172581,13.9354839 12.7193226,14.4113226 12.3924194,15.0967742 L9.87096774,15.0967742 L9.87096774,12.1935484 L14.516129,12.1935484 L14.516129,12.7741935 L13.3548387,12.7741935 L13.3548387,13.3548387 L14.516129,13.3548387 L14.516129,13.9587097 C14.4209032,13.9450645 14.3245161,13.9354839 14.2258065,13.9354839 Z M12.2167742,16.2580645 L6.36387097,16.2580645 C6.37751613,16.1628387 6.38709677,16.0664516 6.38709677,15.9677419 C6.38709677,15.8690323 6.37751613,15.7726452 6.36387097,15.6774194 L12.2167742,15.6774194 C12.203129,15.7726452 12.1935484,15.8690323 12.1935484,15.9677419 C12.1935484,16.0664516 12.203129,16.1628387 12.2167742,16.2580645 Z M9.29032258,12.1935484 L9.29032258,12.7741935 L8.12903226,12.7741935 L8.12903226,13.3548387 L9.29032258,13.3548387 L9.29032258,15.0967742 L6.18822581,15.0967742 C6.09096774,14.8932581 5.96235484,14.7077419 5.80645161,14.5480645 L5.80645161,12.1935484 L9.29032258,12.1935484 Z M9.87096774,11.6129032 L9.87096774,10.4516129 L12.2818065,10.4516129 C13.0380968,10.4516129 13.7403871,10.8272903 14.1599032,11.4567097 L14.264129,11.6129032 L9.87096774,11.6129032 Z M9.29032258,11.6129032 L5.96090323,11.6129032 C6.35341935,10.9050968 7.10158065,10.4516129 7.93306452,10.4516129 L9.29032258,10.4516129 L9.29032258,11.6129032 Z M5.80645161,15.9677419 C5.80645161,16.6685806 5.30680645,17.2550323 4.64516129,17.3900323 L4.64516129,14.5454516 C5.30680645,14.6804516 5.80645161,15.2669032 5.80645161,15.9677419 Z M5.77451613,17.4193548 C5.94493548,17.2527097 6.08458065,17.0561613 6.18822581,16.8387097 L12.3924194,16.8387097 C12.4960645,17.0561613 12.636,17.2527097 12.806129,17.4193548 L5.77451613,17.4193548 Z M14.2258065,17.4193548 C13.4253871,17.4193548 12.7741935,16.7681613 12.7741935,15.9677419 C12.7741935,15.1673226 13.4253871,14.516129 14.2258065,14.516129 C15.0262258,14.516129 15.6774194,15.1673226 15.6774194,15.9677419 C15.6774194,16.7681613 15.0262258,17.4193548 14.2258065,17.4193548 Z M17.4193548,16.2580645 L16.2348387,16.2580645 C16.2484839,16.1628387 16.2580645,16.0664516 16.2580645,15.9677419 C16.2580645,15.8690323 16.2484839,15.7726452 16.2348387,15.6774194 L17.4193548,15.6774194 L17.4193548,16.2580645 Z M16.8387097,13.8820645 C16.5016452,13.761871 16.2580645,13.4425161 16.2580645,13.0645161 C16.2580645,12.6865161 16.5016452,12.3671613 16.8387097,12.2469677 L16.8387097,13.8820645 Z M7.97777419,9.29032258 L12.8531613,9.29032258 C14.0060323,9.29032258 15.0799355,9.80651613 15.8002258,10.7068065 L16.6061613,11.7142258 C16.064129,11.925 15.6774194,12.4490323 15.6774194,13.0645161 C15.6774194,13.7653548 16.1770645,14.3518065 16.8387097,14.4868065 L16.8387097,15.0967742 L16.0591935,15.0967742 C15.8582903,14.6758065 15.5177419,14.3352581 15.0967742,14.1343548 L15.0967742,11.8152581 L14.643,11.1344516 C14.1154839,10.3433226 13.2329032,9.87096774 12.2818065,9.87096774 L7.93306452,9.87096774 C6.70964516,9.87096774 5.6276129,10.6507742 5.24090323,11.8114839 L5.22580645,11.8561935 L5.22580645,14.1343548 C5.04522581,14.048129 4.85012903,13.9883226 4.64516129,13.9587097 L4.64516129,11.2964516 C5.30129032,10.0579355 6.57116129,9.29032258 7.97777419,9.29032258 Z" id="Shape" fill-rule="nonzero"></path>
                </g>
            </g>
        </g>
    </g>
</svg>