<?xml version="1.0" encoding="UTF-8"?>
<svg width="12px" height="14px" viewBox="0 0 12 14" version="1.1" xmlns="http://www.w3.org/2000/svg" xmlns:xlink="http://www.w3.org/1999/xlink">
    <!-- Generator: Sketch 62 (91390) - https://sketch.com -->
    <title>Group Copyicons/principa</title>
    <desc>Created with Sketch.</desc>
    <g id="PROTOTIPO" stroke="none" stroke-width="1" fill="none" fill-rule="evenodd" opacity="0.324404762">
        <g id="MI-cuenta/CREAR-PARQUEADERO-PUBLICO" transform="translate(-689.000000, -1200.000000)">
            <g id="Group-Copy" transform="translate(689.000000, 1201.000000)">
                <g id="car-blue-copy-2" transform="translate(0.000000, 4.000000)" fill="#333333" fill-rule="nonzero">
                    <path d="M11.5364242,3.34392265 L11.27499,3.07541436 L10.3574073,0.676243094 C10.2010594,0.270994475 9.80121889,0.00248618785 9.35524292,0 L2.80144672,0 C2.35547075,0 1.95563023,0.270994475 1.79928234,0.676243094 L0.894515008,3.04558011 L0.517742211,3.38370166 C0.189667939,3.65469613 2.72496802e-14,4.05248619 2.72496802e-14,4.47016575 L2.72496802e-14,7.96574586 C0.00256308025,8.53756906 0.481859088,9 1.07136755,9 L1.74802073,9 C2.33752919,9 2.8168252,8.53756906 2.81938828,7.96574586 L2.81938828,7.45856354 L9.17582731,7.45856354 L9.17582731,7.96574586 C9.17839039,8.53756906 9.65768639,9 10.2471949,9 L10.923848,9 C11.5133565,9 11.9926525,8.53756906 11.9952156,7.96574586 L11.9952156,4.3781768 C11.9926525,3.9878453 11.8286154,3.61491713 11.5364242,3.34392265 Z M2.28114143,0.845303867 C2.36315999,0.633977901 2.57076949,0.497237569 2.80144672,0.497237569 L9.357806,0.497237569 C9.58848323,0.497237569 9.79609273,0.636464088 9.87811129,0.845303867 L10.6777923,2.93370166 L10.0805946,2.93370166 C9.93962522,2.00138122 9.04511021,1.35745856 8.08395512,1.49668508 C7.31759412,1.60607735 6.71527026,2.19033149 6.60249473,2.93370166 L1.48146039,2.93370166 L2.28114143,0.845303867 Z M9.55772626,2.93370166 L7.12023694,2.93370166 C7.26120636,2.27983425 7.92248106,1.8621547 8.59657117,1.99889503 C9.07843026,2.09834254 9.45520305,2.46381215 9.55772626,2.93370166 Z M2.30677223,7.96574586 C2.30420915,8.2640884 2.05559036,8.50276243 1.74802073,8.50276243 L1.07136755,8.50276243 C0.763797915,8.50276243 0.515179131,8.2640884 0.512616051,7.96574586 L0.512616051,7.31436464 C0.666400866,7.41132597 0.868884206,7.45856354 1.07136755,7.45856354 L2.30677223,7.45856354 L2.30677223,7.96574586 Z M11.4825995,7.96574586 C11.4800365,8.2640884 11.2314177,8.50276243 10.923848,8.50276243 L10.2471949,8.50276243 C9.93962522,8.50276243 9.69100644,8.26160221 9.68844336,7.96574586 L9.68844336,7.45856354 L10.923848,7.45856354 C11.1263314,7.45856354 11.3288147,7.41132597 11.4825995,7.31436464 L11.4825995,7.96574586 Z M10.923848,6.96134542 L1.07136755,6.96134542 C0.766360996,6.96381215 0.515179131,6.72762431 0.512616051,6.42928177 L0.512616051,4.47016575 C0.512616051,4.19668508 0.638206983,3.93563536 0.853505724,3.75911602 C0.856068804,3.75662983 0.861194965,3.75165746 0.863758045,3.74917127 L1.21233696,3.43093923 L10.9187219,3.43093923 L11.1647776,3.68701657 C11.1673407,3.69198895 11.1750299,3.69447514 11.177593,3.69944751 C11.369824,3.87596685 11.4800365,4.12209945 11.4800365,4.3781768 L11.4800365,6.42928177 L11.4825995,6.42928177 C11.4800365,6.72513812 11.2288546,6.96381215 10.923848,6.96134542 Z" id="Shape"></path>
                    <path d="M3.38326593,4.42541436 L1.46095574,4.42541436 C1.31998633,4.42541436 1.20464772,4.53729282 1.20464772,4.67403315 L1.20464772,5.96685083 C1.20464772,6.10359116 1.31998633,6.21546961 1.46095574,6.21546961 L3.38326593,6.21546961 C3.52423535,6.21546961 3.63957396,6.10359116 3.63957396,5.96685083 L3.63957396,4.67403315 C3.63957396,4.53729282 3.52423535,4.42541436 3.38326593,4.42541436 Z M3.12695791,5.71823204 L1.71726377,5.71823204 L1.71726377,4.92265193 L3.12695791,4.92265193 L3.12695791,5.71823204 Z" id="Shape"></path>
                    <path d="M10.5342598,4.42541436 L8.61194965,4.42541436 C8.47098024,4.42541436 8.35564162,4.53729282 8.35564162,4.67403315 L8.35564162,5.96685083 C8.35564162,6.10359116 8.47098024,6.21546961 8.61194965,6.21546961 L10.5342598,6.21546961 C10.6752293,6.21546961 10.7905679,6.10359116 10.7905679,5.96685083 L10.7905679,4.67403315 C10.7905679,4.53729282 10.6752293,4.42541436 10.5342598,4.42541436 Z M10.2779518,5.71823204 L8.86825768,5.71823204 L8.86825768,4.92265193 L10.2779518,4.92265193 L10.2779518,5.71823204 Z" id="Shape"></path>
                    <path d="M7.23557555,5.46961326 L4.75964003,5.46961326 C4.61867062,5.46961326 4.503332,5.58149171 4.503332,5.71823204 C4.503332,5.85497238 4.61867062,5.96685083 4.75964003,5.96685083 L7.23557555,5.96685083 C7.37654497,5.96685083 7.49188358,5.85497238 7.49188358,5.71823204 C7.49188358,5.58149171 7.37654497,5.46961326 7.23557555,5.46961326 Z" id="Path"></path>
                    <path d="M7.23557555,4.69889503 L4.75964003,4.69889503 C4.61867062,4.69889503 4.503332,4.81077348 4.503332,4.94751381 C4.503332,5.08425414 4.61867062,5.1961326 4.75964003,5.1961326 L7.23557555,5.1961326 C7.37654497,5.1961326 7.49188358,5.08425414 7.49188358,4.94751381 C7.49188358,4.81077348 7.37654497,4.69889503 7.23557555,4.69889503 Z" id="Path"></path>
                </g>
                <path d="M0,2.3355672 C4.15631476,-0.7785224 8.05166227,-0.7785224 11.6860425,2.3355672" id="Path-4" stroke="#000000"></path>
            </g>
        </g>
    </g>
</svg>