<?xml version="1.0" encoding="UTF-8"?>
<svg width="24px" height="16px" viewBox="0 0 24 16" version="1.1" xmlns="http://www.w3.org/2000/svg" xmlns:xlink="http://www.w3.org/1999/xlink">
    <title>Group 2</title>
    <g id="PROTOTIPO" stroke="none" stroke-width="1" fill="none" fill-rule="evenodd">
        <g id="METODO-DE-PAGO" transform="translate(-35.000000, -244.000000)" fill="#000000" fill-rule="nonzero">
            <g id="Group-2" transform="translate(35.000000, 244.000000)">
                <path d="M21.5000156,7.99360578e-14 L2.49998437,7.99360578e-14 C1.122,7.99360578e-14 -2.04281037e-13,1.11981287 -2.04281037e-13,2.49515789 L-2.04281037e-13,13.473731 C-2.04281037e-13,14.8490292 1.122,15.9688421 2.49998437,15.9688421 L21.4999687,15.9688421 C22.8779531,15.9688421 23.9999531,14.8490292 23.9999531,13.473731 L23.9999531,2.49515789 C23.9999531,1.11981287 22.878,7.99360578e-14 21.5000156,7.99360578e-14 Z M23.0000156,13.4736842 C23.0000156,14.2990877 22.3270312,14.9707602 21.5000156,14.9707602 L2.49998437,14.9707602 C1.67296875,14.9707602 0.999984375,14.2990877 0.999984375,13.4736842 L0.999984375,2.49515789 C0.999984375,1.66975439 1.67296875,0.998081871 2.49998437,0.998081871 L21.4999687,0.998081871 C22.3269844,0.998081871 23.0000156,1.66975439 23.0000156,2.49515789 L23.0000156,13.4736842 L23.0000156,13.4736842 Z" id="Shape"></path>
                <path d="M23.4999844,2.99415205 L0.500015625,2.99415205 C0.224015625,2.99415205 1.98951966e-13,3.21773099 1.98951966e-13,3.49319298 L1.98951966e-13,6.48734503 C1.98951966e-13,6.76280702 0.224015625,6.98638596 0.500015625,6.98638596 L23.5000313,6.98638596 C23.7760313,6.98638596 24.0000469,6.76280702 24.0000469,6.48734503 L24.0000469,3.49319298 C24.0000469,3.21773099 23.7759844,2.99415205 23.4999844,2.99415205 Z M23.0000156,5.98830409 L0.999984375,5.98830409 L0.999984375,3.99218713 L23.0000156,3.99218713 L23.0000156,5.98830409 L23.0000156,5.98830409 Z" id="Shape"></path>
                <path d="M9.50001562,9.98053801 L3.50001562,9.98053801 C3.22401562,9.98053801 3,10.204117 3,10.4795789 C3,10.7550409 3.22401562,10.9785731 3.50001562,10.9785731 L9.50001562,10.9785731 C9.77601562,10.9785731 10.0000312,10.7549942 10.0000312,10.4795322 C10.0000312,10.2040702 9.77601562,9.98053801 9.50001562,9.98053801 Z" id="Path"></path>
                <path d="M9.50001562,11.9766082 L3.50001562,11.9766082 C3.22401562,11.9766082 3,12.2001871 3,12.4756491 C3,12.7511111 3.22401562,12.9746901 3.50001562,12.9746901 L9.50001562,12.9746901 C9.77601562,12.9746901 10.0000312,12.7511111 10.0000312,12.4756491 C10.0000312,12.2001871 9.77601562,11.9766082 9.50001562,11.9766082 Z" id="Path"></path>
                <path d="M19.5,8.98245614 L18.5000156,8.98245614 C17.673,8.98245614 17.0000156,9.65412865 17.0000156,10.4795322 L17.0000156,11.4775673 C17.0000156,12.3029708 17.673,12.9746433 18.5000156,12.9746433 L19.5,12.9746433 C20.3270156,12.9746433 21,12.3029708 21,11.4775673 L21,10.4795322 C21,9.65417544 20.3270156,8.98245614 19.5,8.98245614 Z M20.0000156,11.477614 C20.0000156,11.753076 19.776,11.976655 19.5,11.976655 L18.5000156,11.976655 C18.2240156,11.976655 18,11.753076 18,11.477614 L18,10.4795789 C18,10.204117 18.2240156,9.98053801 18.5000156,9.98053801 L19.5,9.98053801 C19.776,9.98053801 20.0000156,10.204117 20.0000156,10.4795789 L20.0000156,11.477614 Z" id="Shape"></path>
            </g>
        </g>
    </g>
</svg>