<?xml version="1.0" encoding="UTF-8"?>
<svg width="13px" height="12px" viewBox="0 0 13 12" version="1.1" xmlns="http://www.w3.org/2000/svg" xmlns:xlink="http://www.w3.org/1999/xlink">
    <!-- Generator: Sketch 62 (91390) - https://sketch.com -->
    <title>favoritosicons/principa</title>
    <desc>Created with Sketch.</desc>
    <g id="Symbols" stroke="none" stroke-width="1" fill="none" fill-rule="evenodd" opacity="0.596842448">
        <g id="menu/CON-PARQUEADERO" transform="translate(-20.000000, -105.000000)" fill="#5C5C5C" fill-rule="nonzero">
            <g id="icon/hearth" transform="translate(20.000000, 105.000000)">
                <path d="M12.9785121,3.5782811 C12.7887501,1.50468508 11.3104066,0.000248215948 9.46028949,0.000248215948 C8.22771149,0.000248215948 7.09914007,0.658765126 6.46409988,1.71417934 C5.83481006,0.645113249 4.75249157,0 3.53966482,0 C1.68979776,0 0.211204188,1.50443686 0.0216921958,3.57803289 C0.00669124648,3.66962457 -0.0548126456,4.15165994 0.132199189,4.93775985 C0.401716244,6.0716103 1.02425564,7.10294756 1.93206309,7.91957803 L6.46109969,12 L11.0678912,7.91982625 C11.9756987,7.10294756 12.5982381,6.07185852 12.8677551,4.93775985 C13.054767,4.15190816 12.9932631,3.66987279 12.9785121,3.5782811 Z M12.3809743,4.82407695 C12.1349587,5.85963388 11.5646727,6.8031027 10.73337,7.55072913 L6.46409988,11.3322991 L2.26808435,7.551722 C1.43528165,6.80260627 0.865245577,5.85938567 0.618979993,4.82382873 C0.441968792,4.07992554 0.514723396,3.65969594 0.514973411,3.65696556 L0.518723649,3.63189575 C0.681233933,1.81520323 1.95156432,0.496431896 3.53966482,0.496431896 C4.71148897,0.496431896 5.74305425,1.21129383 6.23258523,2.36177474 L6.4628498,2.90363016 L6.69311438,2.36177474 C7.17489486,1.22891716 8.26096359,0.496680112 9.4605395,0.496680112 C11.04839,0.496680112 12.3189704,1.81545144 12.4847309,3.65572448 C12.4852309,3.65969594 12.5579855,4.08017375 12.3809743,4.82407695 Z" id="Shape"></path>
                <path d="M4.01818182,0.857142857 C2.28043636,0.857142857 0.866666667,2.25537662 0.866666667,3.97402597 C0.866666667,4.14638961 1.00753939,4.28571429 1.18181818,4.28571429 C1.35609697,4.28571429 1.4969697,4.14638961 1.4969697,3.97402597 C1.4969697,2.59916883 2.62804848,1.48051948 4.01818182,1.48051948 C4.19246061,1.48051948 4.33333333,1.34119481 4.33333333,1.16883117 C4.33333333,0.996467532 4.19214545,0.857142857 4.01818182,0.857142857 Z" id="Path"></path>
            </g>
        </g>
    </g>
</svg>