<?xml version="1.0" encoding="UTF-8"?>
<svg width="15px" height="14px" viewBox="0 0 15 14" version="1.1" xmlns="http://www.w3.org/2000/svg" xmlns:xlink="http://www.w3.org/1999/xlink">
    <!-- Generator: Sketch 62 (91390) - https://sketch.com -->
    <title>mdpi/icon/hearth</title>
    <desc>Created with Sketch.</desc>
    <g id="Symbols" stroke="none" stroke-width="1" fill="none" fill-rule="evenodd">
        <g id="cabecera_mini" transform="translate(-373.000000, -74.000000)" fill-rule="nonzero">
            <g id="Group-5" transform="translate(373.000000, 71.000000)">
                <g id="icon/hearth-copy" transform="translate(0.000000, 3.000000)">
                    <path d="M10.9157186,0.000289585273 C13.0504691,0.000289585273 14.7562501,1.75546592 14.9752063,4.17466129 C14.9922266,4.28151825 15.0631926,4.84389285 14.8474098,5.76071983 C14.5364285,7.08383494 13.8181138,8.28677216 12.7706437,9.23979729 L12.7706437,9.23979729 L7.45511503,14 L2.22930356,9.23950771 C1.18183343,8.28677216 0.463518744,7.08354535 0.152537526,5.76071983 C-0.0632453603,4.84360327 0.00772066902,4.28122867 0.0250294567,4.1743717 C0.24369714,1.75517634 1.94976664,0 4.08422864,0 C5.48364412,0 6.73247315,0.752632123 7.45857679,1.99987589 C8.19131546,0.768559313 9.49351325,0.000289585273 10.9157186,0.000289585273 Z" id="Combined-Shape" fill="#EB4555"></path>
                    <path d="M14.9752063,4.17466129 C14.7562501,1.75546592 13.0504691,0.000289585273 10.9157186,0.000289585273 C9.49351325,0.000289585273 8.19131546,0.768559313 7.45857679,1.99987589 C6.73247315,0.752632123 5.48364412,0 4.08422864,0 C1.94976664,0 0.24369714,1.75517634 0.0250294567,4.1743717 C0.00772066902,4.28122867 -0.0632453603,4.84360327 0.152537526,5.76071983 C0.463518744,7.08354535 1.18183343,8.28677216 2.22930356,9.23950771 L7.45511503,14 L12.7706437,9.23979729 C13.8181138,8.28677216 14.5364285,7.08383494 14.8474098,5.76071983 C15.0631926,4.84389285 14.9922266,4.28151825 14.9752063,4.17466129 Z M14.2857396,5.62808977 C14.0018755,6.83623953 13.3438531,7.93695315 12.3846577,8.80918399 L7.45857679,13.2210156 L2.61702041,8.81034233 C1.65609421,7.93637398 0.998360282,6.83594994 0.714207684,5.62780019 C0.50996399,4.75991312 0.59391161,4.26964526 0.59420009,4.26645982 L0.598527287,4.23721171 C0.786039153,2.1177371 2.25180499,0.579170545 4.08422864,0.579170545 C5.43633343,0.579170545 6.62660106,1.41317613 7.1914445,2.75540387 L7.45713439,3.38756852 L7.72282428,2.75540387 C8.27872484,1.43373668 9.53188107,0.57946013 10.9160071,0.57946013 C12.7481423,0.57946013 14.2141966,2.11802668 14.4054587,4.26501189 C14.4060357,4.26964526 14.4899833,4.76020271 14.2857396,5.62808977 Z" id="Shape" fill="#FF6B6B"></path>
                    <path d="M4.63636364,1 C2.63127273,1 1,2.63127273 1,4.63636364 C1,4.83745455 1.16254545,5 1.36363636,5 C1.56472727,5 1.72727273,4.83745455 1.72727273,4.63636364 C1.72727273,3.03236364 3.03236364,1.72727273 4.63636364,1.72727273 C4.83745455,1.72727273 5,1.56472727 5,1.36363636 C5,1.16254545 4.83709091,1 4.63636364,1 Z" id="Path" fill="#FFFFFF"></path>
                </g>
            </g>
        </g>
    </g>
</svg>