<?xml version="1.0" encoding="UTF-8"?>
<svg width="20px" height="20px" viewBox="0 0 20 20" version="1.1" xmlns="http://www.w3.org/2000/svg" xmlns:xlink="http://www.w3.org/1999/xlink">
    <!-- Generator: Sketch 62 (91390) - https://sketch.com -->
    <title>keyicons/principa</title>
    <desc>Created with Sketch.</desc>
    <g id="PROTOTIPO" stroke="none" stroke-width="1" fill="none" fill-rule="evenodd">
        <g id="LOGIN" transform="translate(-317.000000, -329.000000)" fill="#E0E3E5" fill-rule="nonzero">
            <g id="key" transform="translate(317.000000, 329.000000)">
                <g id="Group-2">
                    <circle id="Oval" cx="14.5" cy="5.5" r="1.5"></circle>
                    <path d="M19.7842126,6.48095592 C19.3670269,5.4184185 18.6020301,3.88533103 17.3266059,2.61563124 C16.0557129,1.35030757 14.539274,0.606992434 13.4909191,0.206186784 C12.3399865,-0.233808578 11.0321405,0.0435279888 10.1590974,0.912695633 L7.0912198,3.96699254 C6.18180961,4.87234131 5.91970135,6.26543204 6.43895695,7.43350427 C6.59997189,7.79578444 6.77508833,8.15013289 6.96219691,8.49248609 L0.22882715,15.2275683 C0.082304337,15.3741292 0,15.572891 0,15.7801706 L0,19.2185501 C0,19.6501449 0.349764135,20 0.781246673,20 L4.21873203,20 C4.65021457,20 4.9999787,19.6501449 4.9999787,19.2185501 L4.9999787,17.8119403 L6.40622272,17.8119012 C6.83770525,17.8119012 7.18746939,17.4620461 7.18746939,17.0304513 L7.18746939,15.6238806 L8.5937134,15.6238806 C9.02519594,15.6238806 9.37496007,15.2740255 9.37496007,14.8424307 C9.37496007,14.4108359 9.02519594,14.0609808 8.5937134,14.0609808 L6.40622272,14.0609808 C5.97474018,14.0609808 5.62497604,14.4108359 5.62497604,14.8424307 L5.62497604,16.2490014 L4.21873203,16.2490405 C3.78724949,16.2490405 3.43748536,16.5988956 3.43748536,17.0304904 L3.43748536,18.4371002 L1.56249335,18.4371002 L1.56249335,16.1038471 L8.49039353,9.1741839 C8.74492369,8.91958753 8.7926188,8.52405667 8.60593991,8.21624355 C8.33519887,7.76987937 8.086489,7.29288236 7.86676337,6.79849808 C7.60899103,6.21862319 7.7403186,5.52590693 8.19355885,5.07465869 L11.2613973,2.02040086 C11.6994033,1.58439089 12.3555724,1.44533188 12.9331871,1.66609147 C13.8402926,2.01289894 15.1476308,2.65126536 16.2244231,3.72333646 C17.3078169,4.80189361 17.9673844,6.12891274 18.3298829,7.05219579 C18.5560928,7.62843694 18.4186325,8.28309659 17.979689,8.72008337 L14.8747804,11.8112647 C14.4226339,12.2613408 13.747793,12.3929369 13.1554127,12.1465067 C12.6668601,11.9432516 12.1936981,11.7017836 11.7491687,11.4288622 C11.381475,11.2031013 10.9003833,11.318287 10.6746811,11.6861155 C10.4489789,12.053944 10.5640956,12.5351608 10.9318284,12.7609217 C11.4455763,13.0763149 11.9918239,13.3550971 12.5553372,13.5895321 C13.732754,14.0794621 15.0758342,13.8161526 15.9770023,12.919009 L19.0819109,9.82786674 C19.9625712,8.95111903 20.2382341,7.63738454 19.7842126,6.48095592 Z" id="Path"></path>
                </g>
            </g>
        </g>
    </g>
</svg>