<?xml version="1.0" encoding="UTF-8"?>
<svg width="10px" height="12px" viewBox="0 0 10 12" version="1.1" xmlns="http://www.w3.org/2000/svg" xmlns:xlink="http://www.w3.org/1999/xlink">
    <!-- Generator: Sketch 62 (91390) - https://sketch.com -->
    <title>datosicons/principa</title>
    <desc>Created with Sketch.</desc>
    <g id="Symbols" stroke="none" stroke-width="1" fill="none" fill-rule="evenodd">
        <g id="menu/CON-PARQUEADERO" transform="translate(-23.000000, -26.000000)" fill="#A4A4A4">
            <g id="datos" transform="translate(23.000000, 26.000000)">
                <g id="list">
                    <path d="M1.6,4.37086093 C0.715789474,4.37086093 0,5.08191007 0,5.9602649 C0,6.83861973 0.715789474,7.54966887 1.6,7.54966887 C2.48421053,7.54966887 3.2,6.83861973 3.2,5.9602649 C3.19719298,5.0846985 2.48140351,4.37364936 1.6,4.37086093 Z M1.6,6.99198327 C1.02736842,6.99198327 0.561403509,6.53189265 0.561403509,5.9602649 C0.561403509,5.39142558 1.0245614,4.92854653 1.6,4.92854653 C2.17263158,4.92854653 2.63859649,5.38863716 2.63859649,5.9602649 C2.63578947,6.52910422 2.17263158,6.98919484 1.6,6.99198327 Z" id="Shape" fill-rule="nonzero"></path>
                    <path d="M9.71722595,4.84768212 L3.96277405,4.84768212 C3.80724832,4.84768212 3.68,4.97284768 3.68,5.12582781 C3.68,5.27880795 3.80724832,5.40397351 3.96277405,5.40397351 L9.71722595,5.40397351 C9.87275168,5.40397351 10,5.27880795 10,5.12582781 C10,4.97284768 9.87275168,4.84768212 9.71722595,4.84768212 Z" id="Path" fill-rule="nonzero"></path>
                    <path d="M7.07604938,6.59602649 L3.96395062,6.59602649 C3.80777778,6.59602649 3.68,6.72119205 3.68,6.87417219 C3.68,7.02715232 3.80493827,7.15231788 3.96395062,7.15231788 L7.07604938,7.15231788 C7.23222222,7.15231788 7.36,7.02715232 7.36,6.87417219 C7.36,6.72119205 7.23222222,6.59602649 7.07604938,6.59602649 Z" id="Path" fill-rule="nonzero"></path>
                    <path d="M1.6,0 C0.715789474,0 0,0.711049146 0,1.58940397 C0,2.4677588 0.715789474,3.17880795 1.6,3.17880795 C2.48421053,3.17880795 3.2,2.4677588 3.2,1.58940397 C3.19719298,0.711049146 2.48140351,0 1.6,0 Z M1.6,2.61833391 C1.02736842,2.61833391 0.561403509,2.15824329 0.561403509,1.58661555 C0.561403509,1.0149878 1.0245614,0.554897177 1.6,0.554897177 C2.17263158,0.554897177 2.63859649,1.0149878 2.63859649,1.58661555 C2.63578947,2.15824329 2.17263158,2.61833391 1.6,2.61833391 Z" id="Shape" fill-rule="nonzero"></path>
                    <path d="M9.71722595,0.397350993 L3.96277405,0.397350993 C3.80724832,0.397350993 3.68,0.522516556 3.68,0.675496689 C3.68,0.828476821 3.80724832,0.953642384 3.96277405,0.953642384 L9.71722595,0.953642384 C9.87275168,0.953642384 10,0.828476821 10,0.675496689 C10,0.522516556 9.87275168,0.397350993 9.71722595,0.397350993 Z" id="Path" fill-rule="nonzero"></path>
                    <path d="M7.07604938,2.22516556 L3.96395062,2.22516556 C3.80777778,2.22516556 3.68,2.35033113 3.68,2.50331126 C3.68,2.65629139 3.80493827,2.78145695 3.96395062,2.78145695 L7.07604938,2.78145695 C7.23222222,2.78145695 7.36,2.65629139 7.36,2.50331126 C7.36,2.35033113 7.23222222,2.22516556 7.07604938,2.22516556 Z" id="Path" fill-rule="nonzero"></path>
                    <path d="M1.6,8.82119205 C0.715789474,8.82119205 0,9.5322412 0,10.410596 C0,11.2889509 0.715789474,12 1.6,12 C2.48421053,12 3.2,11.2889509 3.2,10.410596 C3.19719298,9.5322412 2.48140351,8.82119205 1.6,8.82119205 Z M1.6,11.439526 C1.02736842,11.439526 0.561403509,10.9794353 0.561403509,10.4078076 C0.561403509,9.83896828 1.0245614,9.37608923 1.6,9.37608923 C2.17263158,9.37608923 2.63859649,9.83617985 2.63859649,10.4078076 C2.63578947,10.9794353 2.17263158,11.439526 1.6,11.439526 Z" id="Shape" fill-rule="nonzero"></path>
                    <path d="M9.71722595,9.21854305 L3.96277405,9.21854305 C3.80724832,9.21854305 3.68,9.34370861 3.68,9.49668874 C3.68,9.64966887 3.80724832,9.77483444 3.96277405,9.77483444 L9.71722595,9.77483444 C9.87275168,9.77483444 10,9.64966887 10,9.49668874 C10,9.34370861 9.87275168,9.21854305 9.71722595,9.21854305 Z" id="Path" fill-rule="nonzero"></path>
                    <path d="M7.07604938,10.9668874 L3.96395062,10.9668874 C3.80777778,10.9668874 3.68,11.092053 3.68,11.2450331 C3.68,11.3980132 3.80777778,11.5231788 3.96395062,11.5231788 L7.07604938,11.5231788 C7.23222222,11.5231788 7.36,11.3980132 7.36,11.2450331 C7.36,11.092053 7.23222222,10.9668874 7.07604938,10.9668874 Z" id="Path" fill-rule="nonzero"></path>
                </g>
            </g>
        </g>
    </g>
</svg>