<?xml version="1.0" encoding="UTF-8"?>
<svg width="19px" height="22px" viewBox="0 0 19 22" version="1.1" xmlns="http://www.w3.org/2000/svg" xmlns:xlink="http://www.w3.org/1999/xlink">
    <title>business-and-finance (2)</title>
    <g id="PROTOTIPO" stroke="none" stroke-width="1" fill="none" fill-rule="evenodd">
        <g id="METODO-DE-PAGO" transform="translate(-40.000000, -511.000000)" fill="#000000" fill-rule="nonzero">
            <g id="business-and-finance-(2)" transform="translate(40.000000, 511.000000)">
                <path d="M18.2883838,3.78906845 L11.6020238,0.152191455 C10.9677446,-0.192913662 10.0956107,0.0725518122 9.75204279,0.709668951 L5.84065436,8.0099695 L1.08356031,8.0099695 C0.475709405,8.0099695 0,8.48780735 0,9.09837794 L0,11.0097294 L0,20.9115916 C0,21.5221621 0.475709405,22 1.08356031,22 L16.279833,22 C16.8876839,22 17.3633933,21.5221621 17.3633933,20.9115916 L17.3633933,18.1507506 L17.8126744,18.1507506 C18.0505291,18.1507506 18.2355272,17.9649248 18.2355272,17.7260059 L18.2355272,14.5669667 C18.2355272,14.3280478 18.0505291,14.142222 17.8126744,14.142222 L17.3633933,14.142222 L17.3633933,11.0362759 C17.3633933,10.5318915 16.9933971,10.0806002 16.5176877,9.97441401 L18.8433781,5.64732678 C19.186946,4.98366309 18.9490913,4.16072012 18.2883838,3.78906845 Z M13.5312897,2.16972906 L9.35561829,9.94786746 L8.16634478,9.94786746 L12.6327275,1.69189121 L13.5312897,2.16972906 Z M10.5184635,1.10786716 C10.650605,0.868948236 10.9677446,0.762762046 11.2055993,0.895494783 L11.8663068,1.26714645 L7.21492597,9.94786746 L5.76136945,9.94786746 L10.5184635,1.10786716 Z M0.819277308,9.0718314 C0.819277308,8.99219175 0.924990509,8.85945902 1.05713201,8.85945902 L5.36494495,8.85945902 L4.78352235,9.92132091 L1.05713201,9.92132091 C0.977847109,9.92132091 0.898562209,9.92132091 0.819277308,9.94786746 L0.819277308,9.0718314 Z M16.4912594,20.9115916 C16.4912594,21.0443243 16.3855462,21.1505105 16.2534047,21.1505105 L1.05713201,21.1505105 C0.924990509,21.1505105 0.819277308,21.0443243 0.819277308,20.9115916 L0.819277308,11.0362759 C0.819277308,10.9035432 0.924990509,10.797357 1.05713201,10.797357 L5.04780535,10.797357 L6.73921656,10.797357 L9.83132769,10.797357 L15.7776952,10.797357 L16.2269764,10.797357 C16.3591179,10.797357 16.4648311,10.9035432 16.4648311,11.0362759 L16.4648311,14.142222 L14.8527047,14.142222 L14.8527047,14.142222 C14.1391406,14.142222 13.5841463,14.726246 13.5841463,15.4164562 L13.5841463,16.8765163 C13.5841463,17.5932731 14.1655689,18.1507506 14.8527047,18.1507506 L16.4912594,18.1507506 L16.4912594,20.9115916 Z M17.336965,14.9917115 L17.3633933,14.9917115 L17.3633933,17.3012611 L17.336965,17.3012611 L14.8527047,17.3012611 C14.61485,17.3012611 14.4298519,17.1154353 14.4298519,16.8765163 L14.4298519,15.4164562 C14.4298519,15.1775373 14.61485,14.9917115 14.8527047,14.9917115 L17.336965,14.9917115 L17.336965,14.9917115 Z M18.0769574,5.22258202 L15.5398405,9.94786746 L10.3070371,9.94786746 L14.2712821,2.59447382 L17.865531,4.55891833 C18.129814,4.66510452 18.2090989,4.98366309 18.0769574,5.22258202 Z" id="Shape"></path>
                <path d="M16.3530559,5.2490155 L16.1210217,5.13786461 C15.5409361,4.83219967 14.7578206,5.05450144 14.4387735,5.61025589 L14.1487308,6.13822261 C14.0037094,6.41609983 13.9457008,6.7495525 14.0617179,7.05521744 C14.1487308,7.36088239 14.380765,7.61097189 14.6708078,7.7499105 L14.902842,7.86106139 C15.0768677,7.94442456 15.2798976,8 15.4829276,8 C15.946996,8 16.3530559,7.7499105 16.5850901,7.38867011 L16.8751329,6.86070339 C17.1651757,6.27716122 16.9331415,5.55468044 16.3530559,5.2490155 Z M16.0340088,6.44388756 L15.7439661,6.97185428 C15.6569532,7.11079289 15.4539233,7.16636833 15.3089019,7.08300517 L15.0768677,6.94406656 C15.0188591,6.91627883 14.9608506,6.83291567 14.9318463,6.77734022 C14.902842,6.69397706 14.902842,6.61061389 14.9608506,6.55503844 L15.2508933,6.02707172 C15.3089019,5.94370856 15.424919,5.86034539 15.5409361,5.86034539 C15.5989447,5.86034539 15.627949,5.86034539 15.6859575,5.88813311 L15.9179917,5.999284 C16.0340088,6.11043489 16.0920174,6.27716122 16.0340088,6.44388756 Z" id="Shape"></path>
            </g>
        </g>
    </g>
</svg>