<?xml version="1.0" encoding="UTF-8"?>
<svg width="12px" height="14px" viewBox="0 0 12 14" version="1.1" xmlns="http://www.w3.org/2000/svg" xmlns:xlink="http://www.w3.org/1999/xlink">
    <!-- Generator: Sketch 62 (91390) - https://sketch.com -->
    <title>parqueaderos_internaicons/principa</title>
    <desc>Created with Sketch.</desc>
    <g id="Symbols" stroke="none" stroke-width="1" fill="none" fill-rule="evenodd" opacity="0.490443638">
        <g id="menu/CON-PARQUEADERO" transform="translate(-21.000000, -251.000000)" fill="#000000">
            <g id="Group-8" transform="translate(0.000000, 235.000000)">
                <g id="Group-4" transform="translate(20.197917, 13.000000)">
                    <g id="par" transform="translate(0.000000, 3.000000)">
                        <g id="park-(1)" transform="translate(1.551663, 0.000000)">
                            <path d="M5.18097602,0 C2.33485813,0 0.0192774387,2.53307031 0.0192774387,5.64667578 C0.0192774387,8.69796484 4.818071,13.7193164 5.02231192,13.9318867 C5.06607407,13.9771406 5.12353819,14.0000273 5.18097602,14.0000273 C5.23844014,14.0000273 5.29587797,13.977168 5.33964012,13.931668 C5.54385474,13.7193437 10.3426746,8.69799219 10.3426746,5.64670312 C10.3426746,2.53307031 8.02709391,0 5.18097602,0 Z M5.18097602,13.4325352 C4.3418683,12.5276758 0.468128798,8.20982422 0.468128798,5.64667578 C0.468128798,2.79042969 2.5824141,0.466675781 5.18097602,0.466675781 C7.77953794,0.466675781 9.89382324,2.79042969 9.89382324,5.64667578 C9.89382324,8.20867578 6.01987335,12.5274297 5.18097602,13.4325352 Z" id="Shape" fill-rule="nonzero"></path>
                            <path d="M5.18097602,1.16667578 C2.95360342,1.16667578 1.14139269,3.05085156 1.14139269,5.36667578 C1.14139269,7.6825 2.95360342,9.56667578 5.18097602,9.56667578 C7.40834862,9.56667578 9.22055935,7.6825 9.22055935,5.36667578 C9.22055935,3.05085156 7.40834862,1.16667578 5.18097602,1.16667578 Z M5.18097602,9.1 C3.2008964,9.1 1.59024405,7.42514063 1.59024405,5.36667578 C1.59024405,3.30821094 3.2008964,1.63332422 5.18097602,1.63332422 C7.16105564,1.63332422 8.77170799,3.30818359 8.77170799,5.36664844 C8.77170799,7.42511328 7.16105564,9.1 5.18097602,9.1 Z" id="Shape" fill-rule="nonzero"></path>
                            <path d="M5.62982738,3.73332422 L4.73215096,3.73332422 C4.60828092,3.73332422 4.50773843,3.83785938 4.50773843,3.96664844 L4.50773843,4.9 C4.50773843,5.02878906 4.60828092,5.13332422 4.73215096,5.13332422 L5.62982738,5.13332422 C6.0010167,5.13332422 6.30309127,4.81925391 6.30309127,4.43332422 C6.30309127,4.04739453 6.0010167,3.73332422 5.62982738,3.73332422 Z M5.62982738,4.66667578 L4.95656349,4.66667578 L4.95656349,4.2 L5.62982738,4.2 C5.75369741,4.2 5.85423991,4.30475391 5.85423991,4.43332422 C5.85423991,4.56189453 5.75369741,4.66667578 5.62982738,4.66667578 Z" id="Shape" fill-rule="nonzero"></path>
                            <path d="M5.62982738,2.8 L3.83444824,2.8 C3.71057821,2.8 3.61003571,2.90453516 3.61003571,3.03332422 L3.61003571,7.7 C3.61003571,7.82878906 3.71057821,7.93332422 3.83444824,7.93332422 L4.73212466,7.93332422 C4.8559947,7.93332422 4.95653719,7.82878906 4.95653719,7.7 L4.95653719,6.06667578 L5.62980108,6.06667578 C6.49607605,6.06667578 7.20074139,5.334 7.20074139,4.43335156 C7.20074139,3.53270312 6.49607605,2.8 5.62982738,2.8 Z M5.62982738,5.6 L4.73215096,5.6 C4.60828092,5.6 4.50773843,5.70453516 4.50773843,5.83332422 L4.50773843,7.46664844 L4.05888707,7.46664844 L4.05888707,3.26664844 L5.62982738,3.26664844 C6.24854637,3.26664844 6.75194263,3.79000781 6.75194263,4.43332422 C6.75194263,5.07664062 6.24854637,5.6 5.62982738,5.6 Z" id="Shape" fill-rule="nonzero"></path>
                        </g>
                    </g>
                </g>
            </g>
        </g>
    </g>
</svg>