<?xml version="1.0" encoding="UTF-8"?>
<svg width="11px" height="13px" viewBox="0 0 11 13" version="1.1" xmlns="http://www.w3.org/2000/svg" xmlns:xlink="http://www.w3.org/1999/xlink">
    <!-- Generator: Sketch 62 (91390) - https://sketch.com -->
    <title>metodos_pagoicons/principa</title>
    <desc>Created with Sketch.</desc>
    <g id="Symbols" stroke="none" stroke-width="1" fill="#ff0000" fill-rule="evenodd" opacity="0.403204055">
        <g id="menu/CON-PARQUEADERO" transform="translate(-20.000000, -145.000000)" fill="#000000" fill-rule="nonzero">
            <g id="metodos_pago" transform="translate(20.000000, 145.000000)">
                <path d="M10.5880117,2.238995 L6.71696115,0.0899313141 C6.34974688,-0.113994437 5.84482724,0.0428715254 5.64591951,0.419349835 L3.38143147,4.73316379 L0.62732439,4.73316379 C0.275410708,4.73316379 0,5.01552253 0,5.37631424 L0,6.50574917 L0,12.3568496 C0,12.7176413 0.275410708,13 0.62732439,13 L9.42516645,13 C9.77708013,13 10.0524908,12.7176413 10.0524908,12.3568496 L10.0524908,10.7254435 L10.312601,10.7254435 C10.4503063,10.7254435 10.5574105,10.6156374 10.5574105,10.474458 L10.5574105,8.60775306 C10.5574105,8.46657369 10.4503063,8.35676752 10.312601,8.35676752 L10.0524908,8.35676752 L10.0524908,6.52143576 C10.0524908,6.22339043 9.83828251,5.9567183 9.5628718,5.89397191 L10.9093242,3.33705673 C11.1082319,2.94489183 10.9705265,2.45860734 10.5880117,2.238995 Z M7.83390458,1.28211263 L5.41641059,5.87828532 L4.72788382,5.87828532 L7.31368435,0.999753895 L7.83390458,1.28211263 Z M6.08963676,0.654648778 C6.16613974,0.513469412 6.34974688,0.450723027 6.48745223,0.529156008 L6.8699671,0.748768355 L4.1770624,5.87828532 L3.33552968,5.87828532 L6.08963676,0.654648778 Z M0.474318441,5.36062764 C0.474318441,5.31356785 0.535520821,5.23513487 0.612023795,5.23513487 L3.10602076,5.23513487 L2.76940767,5.86259872 L0.612023795,5.86259872 C0.566122011,5.86259872 0.520220226,5.86259872 0.474318441,5.87828532 L0.474318441,5.36062764 Z M9.54757121,12.3568496 C9.54757121,12.4352825 9.48636883,12.4980289 9.40986585,12.4980289 L0.612023795,12.4980289 C0.535520821,12.4980289 0.474318441,12.4352825 0.474318441,12.3568496 L0.474318441,6.52143576 C0.474318441,6.44300278 0.535520821,6.3802564 0.612023795,6.3802564 L2.92241362,6.3802564 L3.90165169,6.3802564 L5.6918213,6.3802564 L9.13445514,6.3802564 L9.39456526,6.3802564 C9.47106823,6.3802564 9.53227061,6.44300278 9.53227061,6.52143576 L9.53227061,8.35676752 L8.59893432,8.35676752 L8.59893432,8.35676752 C8.18581826,8.35676752 7.86450577,8.70187264 7.86450577,9.10972414 L7.86450577,9.97248693 C7.86450577,10.396025 8.20111886,10.7254435 8.59893432,10.7254435 L9.54757121,10.7254435 L9.54757121,12.3568496 Z M10.0371902,8.8587386 L10.0524908,8.8587386 L10.0524908,10.2234725 L10.0371902,10.2234725 L8.59893432,10.2234725 C8.46122897,10.2234725 8.35412481,10.1136663 8.35412481,9.97248693 L8.35412481,9.10972414 C8.35412481,8.96854477 8.46122897,8.8587386 8.59893432,8.8587386 L10.0371902,8.8587386 L10.0371902,8.8587386 Z M10.4656069,3.08607119 L8.99674979,5.87828532 L5.967232,5.87828532 L8.26232124,1.53309817 L10.3432021,2.69390629 C10.4962081,2.75665267 10.5421099,2.94489183 10.4656069,3.08607119 Z" id="Shape"></path>
                <path d="M9.56870394,3.16601033 L9.41401445,3.09190974 C9.02729074,2.88813311 8.50521374,3.0363343 8.2925157,3.40683726 L8.09915384,3.75881507 C8.00247292,3.94406656 7.96380055,4.16636833 8.04114529,4.37014496 C8.09915384,4.57392159 8.25384333,4.74064793 8.44720518,4.83327367 L8.60189466,4.90737426 C8.71791178,4.9629497 8.85326508,5 8.98861837,5 C9.29799734,5 9.56870394,4.83327367 9.72339342,4.59244674 L9.91675527,4.24046893 C10.1101171,3.85144081 9.95542765,3.36978696 9.56870394,3.16601033 Z M9.3560059,3.9625917 L9.16264404,4.31456952 C9.10463549,4.40719526 8.96928219,4.44424556 8.87260126,4.38867011 L8.71791178,4.29604437 C8.67923941,4.27751922 8.64056704,4.22194378 8.62123085,4.18489348 C8.60189466,4.12931804 8.60189466,4.07374259 8.64056704,4.0366923 L8.83392889,3.68471448 C8.87260126,3.62913904 8.949946,3.57356359 9.02729074,3.57356359 C9.06596312,3.57356359 9.0852993,3.57356359 9.12397167,3.59208874 L9.27866116,3.66618933 C9.3560059,3.74028993 9.39467827,3.85144081 9.3560059,3.9625917 Z" id="Shape"></path>
            </g>
        </g>
    </g>
</svg>