<?xml version="1.0" encoding="UTF-8"?>
<svg width="16px" height="16px" viewBox="0 0 16 16" version="1.1" xmlns="http://www.w3.org/2000/svg" xmlns:xlink="http://www.w3.org/1999/xlink">
    <!-- Generator: Sketch 62 (91390) - https://sketch.com -->
    <title>penicons/principa</title>
    <desc>Created with Sketch.</desc>
    <g id="PROTOTIPO" stroke="none" stroke-width="1" fill="none" fill-rule="evenodd">
        <g id="Artboard" transform="translate(-515.000000, -303.000000)" fill="#FFFFFF" fill-rule="nonzero">
            <g id="Group-11" transform="translate(426.000000, 229.000000)">
                <g id="Group-10" transform="translate(72.000000, 64.000000)">
                    <g id="Group-9">
                        <g id="Group-8" transform="translate(3.000000, 0.000000)">
                            <path d="M29.5293259,14.7428124 L27.9904551,16.2822854 C27.8335637,16.4392382 27.579867,16.4392382 27.4229756,16.2822854 L23.7176685,12.5755283 C23.5607772,12.4185755 23.5607772,12.1647795 23.7176685,12.0078268 L25.2565393,10.4683538 C25.8807667,9.84388208 26.8955535,9.84388208 27.5231191,10.4683538 L29.5293259,12.4753457 C30.1568914,13.0998174 30.1568914,14.1150013 29.5293259,14.7428124 Z M22.7480647,13.308519 L14.6642035,21.3928016 L14.0115841,25.1332446 C13.9223107,25.6381274 14.362521,26.0752821 14.8673775,25.9890826 L18.6076255,25.3333506 L26.6914866,17.249068 C26.8361711,17.104376 26.8361711,16.8704059 26.6914866,16.7257139 L23.2744699,13.308519 C23.1267071,13.163827 22.8927492,13.163827 22.7480647,13.308519 Z M18.3875126,20.5458207 C18.2263847,20.3846928 18.2263847,20.1268882 18.3875126,19.9657603 L22.8990937,15.4541793 C23.0602216,15.2930514 23.3180262,15.2930514 23.4791541,15.4541793 C23.640282,15.6153072 23.640282,15.8731118 23.4791541,16.0342397 L18.967573,20.5458207 C18.8064451,20.7069486 18.5486405,20.7069486 18.3875126,20.5458207 L18.3875126,20.5458207 Z M16.6599721,23.3400279 L18.2666667,23.3400279 L18.2666667,24.5550907 L16.1076709,24.9333333 L15.0666667,23.8923291 L15.4449093,21.7333333 L16.6599721,21.7333333 L16.6599721,23.3400279 Z" id="pen"></path>
                        </g>
                    </g>
                </g>
            </g>
        </g>
    </g>
</svg>