<?xml version="1.0" encoding="UTF-8"?>
<svg width="14px" height="15px" viewBox="0 0 14 15" version="1.1" xmlns="http://www.w3.org/2000/svg" xmlns:xlink="http://www.w3.org/1999/xlink">
    <!-- Generator: Sketch 62 (91390) - https://sketch.com -->
    <title>reservasicons/principa</title>
    <desc>Created with Sketch.</desc>
    <g id="Symbols" stroke="none" stroke-width="1" fill="none" fill-rule="evenodd">
        <g id="menu/CON-PARQUEADERO" transform="translate(-18.000000, -63.000000)" fill="#25BBD4">
            <g id="park" transform="translate(18.000000, 63.000000)">
                <g id="taxi">
                    <path d="M11.3598789,2.27874023 L9.60758203,4.15623047 L9.11441016,3.62780273 C8.83744531,3.33108398 8.38682031,3.33111328 8.10991016,3.62780273 C7.97576172,3.7715625 7.90187891,3.96266602 7.90187891,4.16592773 C7.90187891,4.36921875 7.97576172,4.56029297 8.10991016,4.70402344 L8.73802344,5.37694336 C8.74111328,5.38075195 8.74433984,5.38447266 8.74770312,5.38807617 L9.13215625,5.79996094 C9.25903125,5.93592773 9.42776953,6.01083984 9.60725391,6.01083984 C9.78673828,6.01083984 9.95547656,5.93592773 10.0823789,5.79999023 L12.3644062,3.35496094 C12.6413437,3.05824219 12.6413437,2.57542969 12.3644062,2.27871094 C12.0874141,1.98205078 11.6367891,1.98210937 11.3598789,2.27874023 L11.3598789,2.27874023 Z M12.0745078,2.58931641 C12.1916484,2.71479492 12.1916484,2.91896484 12.0745078,3.04444336 L9.79248047,5.48947266 C9.74301562,5.5425 9.67719922,5.57173828 9.60719922,5.57173828 C9.53722656,5.57173828 9.4714375,5.5425293 9.42191797,5.48947266 L9.04755469,5.08839844 C9.04446484,5.08456055 9.04121094,5.08083984 9.03782031,5.07717773 L8.39967187,4.39347656 C8.34293359,4.33268555 8.31167969,4.25188477 8.31167969,4.16592773 C8.31167969,4.07994141 8.34293359,3.99914062 8.39969922,3.93834961 C8.51683984,3.8128418 8.70745312,3.81287109 8.82448437,3.93834961 L9.36178906,4.5140332 C9.42741406,4.5844043 9.51466797,4.62310547 9.6075,4.62310547 C9.70027734,4.62310547 9.78753125,4.5844043 9.85318359,4.5140918 L11.6496406,2.58931641 C11.7668359,2.4637793 11.9574492,2.46383789 12.0745078,2.58931641 Z" id="Shape" fill-rule="nonzero"></path>
                    <path d="M10.2371172,0.00169921875 C8.16224609,0.00169921875 6.47423438,1.8102832 6.47423438,4.03335938 C6.47423438,4.37375977 6.51448438,4.70416992 6.58899609,5.02013672 L4.85157422,5.02013672 C4.64198438,5.02013672 4.44822656,5.15106445 4.35788281,5.35374023 L3.92421094,6.32695313 L3.16763672,6.32695313 C2.72207031,6.32695313 2.31946094,6.59112305 2.11692578,7.01636719 L1.56564844,8.17388672 L0.487867188,8.17388672 C0.220144531,8.17388672 0.00232421875,8.40723633 0.00232421875,8.69408203 L0.00232421875,9.11229492 C0.00232421875,9.37400391 0.183804688,9.5905957 0.41890625,9.62666016 C0.156761719,9.88371094 0,10.2510938 0,10.6445508 L0,14.30625 C0,14.6878418 0.289734375,14.9983008 0.645914062,14.9983008 L1.60122266,14.9983008 C1.957375,14.9983008 2.24713672,14.6878711 2.24713672,14.30625 L2.24713672,14.2837793 C2.28755078,14.2897266 2.32840234,14.2930664 2.36958203,14.2930664 L9.639875,14.2930664 C9.68102734,14.2930664 9.72190625,14.2897266 9.76232031,14.2837793 L9.76232031,14.30625 C9.76232031,14.6878418 10.0520547,14.9983008 10.4082344,14.9983008 L11.363543,14.9983008 C11.7196953,14.9983008 12.009457,14.6878711 12.009457,14.30625 L12.009457,10.6445508 C12.009457,10.2510938 11.8526953,9.88368164 11.5905234,9.62668945 C11.825625,9.590625 12.0071328,9.3740332 12.0071328,9.11232422 L12.0071328,8.69411133 C12.0071328,8.40726563 11.7893125,8.17391602 11.5215898,8.17391602 L10.4438359,8.17391602 L10.3903242,8.0615918 C11.9098164,7.99505859 13.2588203,6.9430957 13.7780508,5.4009375 L13.7861992,5.3765332 C13.8242617,5.26233398 13.7687266,5.13667969 13.6621133,5.09589844 C13.5555547,5.05523438 13.43825,5.11458984 13.4001875,5.22884766 L13.3922852,5.25260742 C12.9143438,6.6721582 11.6464141,7.62591797 10.2372266,7.62591797 C10.2189336,7.62591797 10.2007227,7.62547852 10.1825117,7.62518555 L9.89258594,7.01642578 C9.69005078,6.59121094 9.28746875,6.32701172 8.841875,6.32701172 L8.03859766,6.32701172 L7.60489844,5.35376953 C7.51458203,5.15115234 7.32082422,5.02019531 7.11123438,5.02019531 L7.013125,5.02019531 C6.92934375,4.70651367 6.88422656,4.37551758 6.88422656,4.03341797 C6.88422656,2.05250977 8.38837891,0.440917969 10.2372266,0.440917969 C12.0860742,0.440917969 13.5901172,2.05245117 13.5901172,4.03335938 C13.5901172,4.1212793 13.5871367,4.21010742 13.5812305,4.29732422 C13.5730547,4.41829102 13.657957,4.5234375 13.770832,4.53219727 C13.8843633,4.54136719 13.9818711,4.44999023 13.9900469,4.32905273 C13.9966641,4.23128906 14,4.13179688 14,4.03333008 C14,1.8102832 12.3119883,0.00169921875 10.2371172,0.00169921875 Z M0.412207031,9.11232422 L0.412207031,8.69411133 C0.412207031,8.64943359 0.446140625,8.61304688 0.487894531,8.61304688 L1.35649609,8.61304688 L1.08007813,9.19341797 L0.487867188,9.19341797 C0.446140625,9.19341797 0.412207031,9.15706055 0.412207031,9.11232422 L0.412207031,9.11232422 Z M1.83722656,14.30625 C1.83722656,14.4457031 1.73135156,14.5591406 1.60119531,14.5591406 L0.645914063,14.5591406 C0.515757813,14.5591406 0.409882813,14.4457031 0.409882813,14.30625 L0.409882813,12.4828125 L1.70575781,13.9823438 C1.74587109,14.02875 1.79005859,14.0703223 1.83722656,14.1070605 L1.83722656,14.30625 Z M11.5994922,14.30625 C11.5994922,14.4457031 11.4935898,14.5591406 11.3634609,14.5591406 L10.4081523,14.5591406 C10.2779961,14.5591406 10.1721211,14.4457031 10.1721211,14.30625 L10.1721211,14.1070605 C10.2193164,14.0703223 10.2634766,14.02875 10.3035898,13.9823438 L11.5994922,12.4828125 L11.5994922,14.30625 Z M11.5994922,10.6445508 L11.5994922,11.545459 C11.5994922,11.7330762 11.5339492,11.9122559 11.4149766,12.0499219 L10.0028906,13.6839844 C9.90953906,13.7919727 9.77722266,13.8539355 9.63984766,13.8539355 L2.36955469,13.8539355 C2.23217969,13.8539355 2.09983594,13.7919727 2.00651172,13.6839844 L0.594371094,12.0499512 C0.475398438,11.9122852 0.409882813,11.7331055 0.409882813,11.5454883 L0.409882813,10.6445801 C0.409882813,10.2734766 0.614386719,9.93629883 0.930890625,9.7855957 L1.25223438,9.63257813 L10.7571406,9.63257813 L11.0784844,9.7855957 C11.3949883,9.93626953 11.5994922,10.2734473 11.5994922,10.6445508 L11.5994922,10.6445508 Z M11.5215078,8.61304688 C11.5632344,8.61304688 11.5971953,8.6494043 11.5971953,8.69411133 L11.5971953,9.11232422 C11.5971953,9.15703125 11.5632617,9.19341797 11.5215078,9.19341797 L10.9292969,9.19341797 L10.6529063,8.61304688 L11.5215078,8.61304688 Z M8.84176563,6.76611328 C9.13251172,6.76611328 9.39523047,6.93849609 9.52738281,7.21599609 L10.4691016,9.19341797 L1.54024609,9.19341797 L2.48199219,7.21599609 C2.61414453,6.93849609 2.87683594,6.76611328 3.16760938,6.76611328 L4.05174219,6.76611328 L8.84176563,6.76611328 Z M7.111125,5.45929688 C7.16365234,5.45929688 7.21226953,5.49213867 7.23491016,5.54293945 L7.58428125,6.32695313 L4.37839063,6.32695313 L4.72773438,5.54296875 C4.75040234,5.49213867 4.79901953,5.45929688 4.85154688,5.45929688 L7.111125,5.45929688 Z" id="Shape" fill-rule="nonzero"></path>
                    <path d="M7.91199609,11.9490527 L5.53265234,11.9490527 C5.41944922,11.9490527 5.32771094,12.0473437 5.32771094,12.1686328 C5.32771094,12.2899219 5.41944922,12.3882129 5.53265234,12.3882129 L7.8491875,12.3882129 L7.63566016,13.0554785 L4.3736875,13.0554785 L4.16016016,12.3882129 L4.58653125,12.3882129 C4.69973437,12.3882129 4.79147266,12.2899219 4.79147266,12.1686328 C4.79147266,12.0473437 4.69973437,11.9490527 4.58653125,11.9490527 L4.09737891,11.9490527 C3.97974609,11.9490527 3.86870312,12.0102539 3.80034375,12.1128223 C3.73198437,12.2153613 3.7139375,12.3477832 3.75208203,12.4669922 L3.99634375,13.230293 C4.04690234,13.3883789 4.18567187,13.4945801 4.34164062,13.4945801 L7.66773437,13.4945801 C7.82370312,13.4945801 7.96247266,13.3883789 8.01303125,13.2303223 L8.25732031,12.4669922 C8.29546484,12.3477539 8.27741797,12.2153613 8.20903125,12.1128223 C8.14067187,12.0102539 8.02962891,11.9490527 7.91199609,11.9490527 L7.91199609,11.9490527 Z" id="Path" fill-rule="nonzero"></path>
                    <path d="M2.25441016,10.2127148 C1.73435937,10.2127148 1.31126953,10.6660254 1.31126953,11.2232227 C1.31126953,11.7804199 1.73435937,12.2337598 2.25441016,12.2337598 C2.77446094,12.2337598 3.19757812,11.7804199 3.19757812,11.2232227 C3.19757812,10.6659961 2.77446094,10.2127148 2.25441016,10.2127148 Z M2.25441016,11.7945996 C1.96035547,11.7945996 1.72115234,11.5382812 1.72115234,11.2232227 C1.72115234,10.9081934 1.96038281,10.651875 2.25441016,10.651875 C2.54846484,10.651875 2.78769531,10.9081934 2.78769531,11.2232227 C2.78769531,11.5382813 2.54846484,11.7945996 2.25441016,11.7945996 Z" id="Shape" fill-rule="nonzero"></path>
                    <path d="M9.75496484,10.2127148 C9.23491406,10.2127148 8.81179687,10.6660254 8.81179687,11.2232227 C8.81179687,11.7804199 9.23491406,12.2337598 9.75496484,12.2337598 C10.2750156,12.2337598 10.6981055,11.7804199 10.6981055,11.2232227 C10.6981328,10.6659961 10.275043,10.2127148 9.75496484,10.2127148 Z M9.75496484,11.7945996 C9.46091016,11.7945996 9.22167969,11.5382812 9.22167969,11.2232227 C9.22167969,10.9081934 9.46091016,10.651875 9.75496484,10.651875 C10.0489922,10.651875 10.2882227,10.9081934 10.2882227,11.2232227 C10.28825,11.5382813 10.0490195,11.7945996 9.75496484,11.7945996 Z" id="Shape" fill-rule="nonzero"></path>
                    <path d="M4.03659375,11.6058984 C3.92330859,11.6058984 3.83151562,11.5075488 3.83151562,11.3861719 L3.83151562,10.855957 C3.83151562,10.7345801 3.92330859,10.6362305 4.03659375,10.6362305 C4.14987891,10.6362305 4.24167187,10.7345801 4.24167187,10.855957 L4.24167187,11.3861719 C4.24167187,11.5075488 4.14987891,11.6058984 4.03659375,11.6058984 Z" id="Path" fill-rule="nonzero"></path>
                    <path d="M4.82382031,11.6058984 C4.71053516,11.6058984 4.61874219,11.5075488 4.61874219,11.3861719 L4.61874219,10.855957 C4.61874219,10.7345801 4.71053516,10.6362305 4.82382031,10.6362305 C4.93710547,10.6362305 5.02889844,10.7345801 5.02889844,10.855957 L5.02889844,11.3861719 C5.02889844,11.5075488 4.93710547,11.6058984 4.82382031,11.6058984 Z" id="Path" fill-rule="nonzero"></path>
                    <path d="M5.61107422,11.6058984 C5.49778906,11.6058984 5.40599609,11.5075488 5.40599609,11.3861719 L5.40599609,10.855957 C5.40599609,10.7345801 5.49778906,10.6362305 5.61107422,10.6362305 C5.72435938,10.6362305 5.81615234,10.7345801 5.81615234,10.855957 L5.81615234,11.3861719 C5.81615234,11.5075488 5.72435938,11.6058984 5.61107422,11.6058984 Z" id="Path" fill-rule="nonzero"></path>
                    <path d="M6.39830078,11.6058984 C6.28501563,11.6058984 6.19322266,11.5075488 6.19322266,11.3861719 L6.19322266,10.855957 C6.19322266,10.7345801 6.28501563,10.6362305 6.39830078,10.6362305 C6.51158594,10.6362305 6.60337891,10.7345801 6.60337891,10.855957 L6.60337891,11.3861719 C6.60337891,11.5075488 6.51158594,11.6058984 6.39830078,11.6058984 Z" id="Path" fill-rule="nonzero"></path>
                    <path d="M7.18555469,11.6058984 C7.07226953,11.6058984 6.98047656,11.5075488 6.98047656,11.3861719 L6.98047656,10.855957 C6.98047656,10.7345801 7.07226953,10.6362305 7.18555469,10.6362305 C7.29883984,10.6362305 7.39063281,10.7345801 7.39063281,10.855957 L7.39063281,11.3861719 C7.39063281,11.5075488 7.29883984,11.6058984 7.18555469,11.6058984 Z" id="Path" fill-rule="nonzero"></path>
                    <path d="M7.97278125,11.6058984 C7.85949609,11.6058984 7.76770313,11.5075488 7.76770313,11.3861719 L7.76770313,10.855957 C7.76770313,10.7345801 7.85949609,10.6362305 7.97278125,10.6362305 C8.08606641,10.6362305 8.17785938,10.7345801 8.17785938,10.855957 L8.17785938,11.3861719 C8.17785938,11.5075488 8.08606641,11.6058984 7.97278125,11.6058984 Z" id="Path" fill-rule="nonzero"></path>
                </g>
            </g>
        </g>
    </g>
</svg>