<?xml version="1.0" encoding="UTF-8"?>
<svg width="13px" height="13px" viewBox="0 0 13 13" version="1.1" xmlns="http://www.w3.org/2000/svg" xmlns:xlink="http://www.w3.org/1999/xlink">
    <!-- Generator: Sketch 62 (91390) - https://sketch.com -->
    <title>sadicons/principa</title>
    <desc>Created with Sketch.</desc>
    <g id="Symbols" stroke="none" stroke-width="1" fill="none" fill-rule="evenodd">
        <g id="menu/CON-PARQUEADERO" transform="translate(-20.000000, -459.000000)" fill="#A4A4A4">
            <g id="Group" transform="translate(0.000000, 403.000000)">
                <g id="sad" transform="translate(20.197917, 56.000000)">
                    <g>
                        <path d="M6.25173611,0 C2.80458318,0 0,2.91595652 0,6.5 C0,10.0840435 2.80458318,13 6.25173611,13 C9.69916085,13 12.5034722,10.0840435 12.5034722,6.5 C12.5034722,2.91595652 9.69916085,0 6.25173611,0 Z M6.25173611,12.4347826 C3.10412289,12.4347826 0.543629227,9.7726087 0.543629227,6.5 C0.543629227,3.2273913 3.10412289,0.565217391 6.25173611,0.565217391 C9.39907752,0.565217391 11.959843,3.2273913 11.959843,6.5 C11.959843,9.7726087 9.39907752,12.4347826 6.25173611,12.4347826 Z" id="Shape" fill-rule="nonzero"></path>
                        <path d="M4.89266304,5.36956522 C4.89266304,4.90213043 4.52680057,4.52173913 4.0772192,4.52173913 C3.62763783,4.52173913 3.26177536,4.90213043 3.26177536,5.36956522 C3.26177536,5.837 3.62763783,6.2173913 4.0772192,6.2173913 C4.52680057,6.2173913 4.89266304,5.837 4.89266304,5.36956522 Z M3.80540459,5.36956522 C3.80540459,5.21384783 3.92744935,5.08695652 4.0772192,5.08695652 C4.22698905,5.08695652 4.34903382,5.21384783 4.34903382,5.36956522 C4.34903382,5.52528261 4.22698905,5.65217391 4.0772192,5.65217391 C3.92744935,5.65217391 3.80540459,5.52528261 3.80540459,5.36956522 Z" id="Shape" fill-rule="nonzero"></path>
                        <path d="M8.42625302,4.52173913 C7.97667165,4.52173913 7.61080918,4.90213043 7.61080918,5.36956522 C7.61080918,5.837 7.97667165,6.2173913 8.42625302,6.2173913 C8.87583439,6.2173913 9.24169686,5.837 9.24169686,5.36956522 C9.24169686,4.90213043 8.87583439,4.52173913 8.42625302,4.52173913 Z M8.42625302,5.65217391 C8.27621135,5.65217391 8.15443841,5.52528261 8.15443841,5.36956522 C8.15443841,5.21384783 8.27621135,5.08695652 8.42625302,5.08695652 C8.57629469,5.08695652 8.69806763,5.21384783 8.69806763,5.36956522 C8.69806763,5.52528261 8.57629469,5.65217391 8.42625302,5.65217391 Z" id="Shape" fill-rule="nonzero"></path>
                        <path d="M6.25173611,7.91304348 C5.23841123,7.91304348 4.27292572,8.35928261 3.6029027,9.13758696 C3.50287492,9.25402174 3.51238844,9.43263043 3.62410424,9.53663043 C3.73609186,9.64091304 3.9078787,9.63073913 4.00790648,9.51458696 C4.57491176,8.85582609 5.39280193,8.47826087 6.25173611,8.47826087 C7.11067029,8.47826087 7.92856046,8.85582609 8.49556575,9.51458696 C8.54911322,9.57704348 8.62359043,9.60869565 8.69806763,9.60869565 C8.7624877,9.60869565 8.8277232,9.58495652 8.87936798,9.53663043 C8.99108379,9.43263043 9.0005973,9.25402174 8.90056952,9.13758696 C8.2305465,8.35956522 7.2653328,7.91304348 6.25173611,7.91304348 Z" id="Path" fill-rule="nonzero"></path>
                    </g>
                </g>
            </g>
        </g>
    </g>
</svg>