<?xml version="1.0" encoding="UTF-8"?>
<svg width="16px" height="16px" viewBox="0 0 16 16" version="1.1" xmlns="http://www.w3.org/2000/svg" xmlns:xlink="http://www.w3.org/1999/xlink">
    <!-- Generator: Sketch 62 (91390) - https://sketch.com -->
    <title>trashicons/principa</title>
    <desc>Created with Sketch.</desc>
    <g id="PROTOTIPO" stroke="none" stroke-width="1" fill="none" fill-rule="evenodd">
        <g id="Artboard" transform="translate(-511.000000, -355.000000)" fill="#FFFFFF" fill-rule="nonzero">
            <g id="Group-11" transform="translate(426.000000, 229.000000)">
                <g id="Group-10" transform="translate(72.000000, 64.000000)">
                    <g id="Group-9">
                        <g id="Group-7" transform="translate(0.000000, 52.000000)">
                            <path d="M19.8571429,15.875 L19.8571429,22.625 C19.8571429,22.8320937 19.66525,23 19.4285714,23 L18.5714286,23 C18.33475,23 18.1428571,22.8320937 18.1428571,22.625 L18.1428571,15.875 C18.1428571,15.6679062 18.33475,15.5 18.5714286,15.5 L19.4285714,15.5 C19.66525,15.5 19.8571429,15.6679062 19.8571429,15.875 Z M23.4285714,15.5 L22.5714286,15.5 C22.33475,15.5 22.1428571,15.6679062 22.1428571,15.875 L22.1428571,22.625 C22.1428571,22.8320937 22.33475,23 22.5714286,23 L23.4285714,23 C23.66525,23 23.8571429,22.8320937 23.8571429,22.625 L23.8571429,15.875 C23.8571429,15.6679062 23.66525,15.5 23.4285714,15.5 Z M28.1428571,12.5 C28.61625,12.5 29,12.8357813 29,13.25 L29,13.625 C29,13.8320938 28.8081071,14 28.5714286,14 L27.8571429,14 L27.8571429,24.5 C27.8571429,25.3284375 27.0896429,26 26.1428571,26 L15.8571429,26 C14.9103571,26 14.1428571,25.3284375 14.1428571,24.5 L14.1428571,14 L13.4285714,14 C13.1918929,14 13,13.8320938 13,13.625 L13,13.25 C13,12.8357813 13.38375,12.5 13.8571429,12.5 L16.5146786,12.5 L17.7296071,10.72825 C18.0394224,10.2764411 18.5974394,10 19.1996071,10 L22.8004286,10 C23.4025963,10 23.9606133,10.2764411 24.2704286,10.72825 L25.4853214,12.5 L28.1428571,12.5 Z M18.5138929,12.5 L23.4861429,12.5 L22.8628571,11.5910313 C22.8241302,11.5345551 22.7543781,11.5 22.6791071,11.5 L19.3209643,11.5 C19.2456933,11.5 19.1759412,11.5345551 19.1372143,11.5910313 L18.5138929,12.5 Z M26.1428571,14 L15.8571429,14 L15.8571429,24.3125 C15.8571429,24.4160534 15.9530818,24.5 16.0714286,24.5 L25.9285714,24.5 C26.0469182,24.5 26.1428571,24.4160534 26.1428571,24.3125 L26.1428571,14 Z" id="trash"></path>
                        </g>
                    </g>
                </g>
            </g>
        </g>
    </g>
</svg>