<?xml version="1.0" encoding="UTF-8"?>
<svg width="14px" height="14px" viewBox="0 0 14 14" version="1.1" xmlns="http://www.w3.org/2000/svg" xmlns:xlink="http://www.w3.org/1999/xlink">
    <!-- Generator: Sketch 62 (91390) - https://sketch.com -->
    <title>PUBLICOicons/principa</title>
    <desc>Created with Sketch.</desc>
    <g id="PROTOTIPO" stroke="none" stroke-width="1" fill="none" fill-rule="evenodd" opacity="0.464983259">
        <g id="MI-cuenta/CREAR-PARQUEADERO-PUBLICO" transform="translate(-480.000000, -1201.000000)" fill="#333333">
            <g id="chair-copy-2" transform="translate(480.000000, 1201.000000)">
                <g id="wheelchair">
                    <path d="M4.10888672,7.01255156 C2.74950264,7.01255156 1.64355469,8.05344375 1.64355469,9.33286406 C1.64355469,10.6122844 2.74950264,11.6531766 4.10888672,11.6531766 C5.4682708,11.6531766 6.57421875,10.6122844 6.57421875,9.33286406 C6.57421875,8.05344375 5.4682708,7.01255156 4.10888672,7.01255156 Z M4.10888672,10.8797391 C3.20263066,10.8797391 2.46533203,10.1858109 2.46533203,9.33286406 C2.46533203,8.47991719 3.20263066,7.78598906 4.10888672,7.78598906 C5.01514277,7.78598906 5.75244141,8.47991719 5.75244141,9.33286406 C5.75244141,10.1858109 5.01514277,10.8797391 4.10888672,10.8797391 Z" id="Shape" fill-rule="nonzero"></path>
                    <ellipse id="Oval" fill-rule="nonzero" cx="4.10888672" cy="9.33286406" rx="1" ry="1"></ellipse>
                    <path d="M13.4303619,10.1471133 L12.1543061,10.7476102 L10.7378906,8.08141641 L10.7378906,7.39927031 C10.7378906,6.75956016 10.1849167,6.23911406 9.50522461,6.23911406 L9.09433594,6.23911406 L9.09433594,4.30552031 C9.09433594,3.66581016 8.54136196,3.14536406 7.86166992,3.14536406 L3.3109957,3.14536406 L2.44980044,0.281453906 C2.39972681,0.114958594 2.23827495,5.15625e-05 2.05444336,5.15625e-05 L0.410888672,5.15625e-05 C0.183968555,5.15625e-05 1.55708779e-15,0.173198437 1.55708779e-15,0.386770312 C1.55708779e-15,0.600342187 0.183968555,0.773489062 0.410888672,0.773489062 L1.74370195,0.773489062 C1.77487471,0.878135156 3.18326411,5.56075781 3.18435981,5.56441875 C1.36242466,5.96018672 1.55708779e-15,7.49958516 1.55708779e-15,9.33286406 C1.55708779e-15,11.4652312 1.84324658,13.2000516 4.10888672,13.2000516 C6.37452686,13.2000516 8.21777344,11.4652312 8.21777344,9.33286406 C8.21777344,9.06806484 8.18928516,8.80940156 8.13515742,8.55942656 L9.09433594,8.55942656 L9.09433594,10.9462547 C8.61608892,11.1058922 8.27255859,11.535743 8.27255859,12.0398953 C8.27255859,12.6796055 8.82553257,13.2000516 9.50522461,13.2000516 C10.1849167,13.2000516 10.7378906,12.6796055 10.7378906,12.0398953 C10.7378906,11.535743 10.3943603,11.1058922 9.91611328,10.9462547 L9.91611328,8.55942656 L10.0730454,8.55942656 L11.6030304,11.4393984 C11.7045473,11.6304633 11.9513818,11.7078586 12.1543061,11.6123391 L13.7978607,10.8389016 C14.0008397,10.743382 14.0830997,10.511093 13.9816102,10.3200539 C13.8801207,10.1290406 13.6333135,10.0515937 13.4303619,10.1471133 Z M9.50522461,12.4266141 C9.2786606,12.4266141 9.09433594,12.253132 9.09433594,12.0398953 C9.09433594,11.8266586 9.2786606,11.6531766 9.50522461,11.6531766 C9.73178862,11.6531766 9.91611328,11.8266586 9.91611328,12.0398953 C9.91611328,12.253132 9.73178862,12.4266141 9.50522461,12.4266141 Z M3.54358608,3.91880156 L7.86166992,3.91880156 C8.08823394,3.91880156 8.27255859,4.09228359 8.27255859,4.30552031 L8.27255859,6.23911406 L6.57150688,6.23911406 C5.88477495,5.75365312 5.03190703,5.46567656 4.10888672,5.46567656 C4.07552256,5.46567656 4.04226797,5.46611484 4.00909556,5.4668625 L3.54358608,3.91880156 Z M4.10888672,12.4266141 C2.29637461,12.4266141 0.821777344,11.0387578 0.821777344,9.33286406 C0.821777344,7.62697031 2.29637461,6.23911406 4.10888672,6.23911406 C5.92139883,6.23911406 7.39599609,7.62697031 7.39599609,9.33286406 C7.39599609,11.0387578 5.92139883,12.4266141 4.10888672,12.4266141 Z M9.91611328,7.78598906 L7.87432529,7.78598906 C7.74582671,7.50994922 7.58418311,7.25058984 7.39391426,7.01255156 L9.50522461,7.01255156 C9.73178862,7.01255156 9.91611328,7.18603359 9.91611328,7.39927031 L9.91611328,7.78598906 Z" id="Shape" fill-rule="nonzero"></path>
                </g>
            </g>
        </g>
    </g>
</svg>