<?xml version="1.0" encoding="UTF-8"?>
<svg width="27px" height="27px" viewBox="0 0 27 27" version="1.1" xmlns="http://www.w3.org/2000/svg" xmlns:xlink="http://www.w3.org/1999/xlink">
    <!-- Generator: Sketch 62 (91390) - https://sketch.com -->
    <title>Group 4icons/principa</title>
    <desc>Created with Sketch.</desc>
    <g id="Symbols" stroke="none" stroke-width="1" fill="none" fill-rule="evenodd">
        <g id="tarjetas/simple" transform="translate(-297.000000, -86.000000)">
            <g id="Group-4" transform="translate(297.000000, 86.000000)">
                <circle id="Oval-Copy-3" stroke="#25BBD4" cx="13.5" cy="13.5" r="13"></circle>
                <g id="video-camera" transform="translate(7.000000, 10.000000)" fill="#25BBD4" fill-rule="nonzero">
                    <path d="M13.8547073,0.713527719 C13.7645657,0.665090609 13.6531052,0.66319937 13.5611096,0.708694503 L10.3489142,2.29923825 L10.3489142,1.34489099 C10.3479873,0.602469149 9.68455375,0.000840556869 8.86586335,0 L1.48305085,0 C0.664360449,0.000840556869 0.00092690678,0.602469149 0,1.34489099 L0,6.65510901 C0.00092690678,7.39753088 0.664360449,7.99915944 1.48305085,8 L8.86586335,8 C9.68455375,7.99915944 10.3479873,7.39753088 10.3489142,6.65510901 L10.3489142,5.71809825 L13.5612255,7.30864198 C13.6531052,7.35413711 13.7646815,7.35235093 13.8547073,7.30391385 C13.944849,7.25537168 14,7.16742842 14,7.07255056 L14,0.944785921 C14,0.849802994 13.9447332,0.761964802 13.8547073,0.713527719 Z M9.75546214,6.65521407 C9.75499866,7.10070921 9.35689223,7.46162333 8.86563164,7.46214867 L1.48305085,7.46214867 C0.991790254,7.46162333 0.593799648,7.10070921 0.593220339,6.65521407 L0.593220339,1.34489099 C0.593799648,0.899500913 0.991790254,0.538481737 1.48305085,0.537956396 L8.86586335,0.537956396 C9.35700808,0.538481737 9.75511455,0.899500913 9.75569386,1.34489099 L9.75546214,6.65521407 Z M13.4067797,6.61928028 L10.3489142,5.10522721 L10.3489142,2.91210927 L13.4067797,1.39816129 L13.4067797,6.61928028 Z" id="Shape"></path>
                </g>
            </g>
        </g>
    </g>
</svg>