<?xml version="1.0" encoding="UTF-8"?>
<svg width="371px" height="86px" viewBox="0 0 371 86" version="1.1" xmlns="http://www.w3.org/2000/svg" xmlns:xlink="http://www.w3.org/1999/xlink">
    <title>Group 35 CopySVG</title>
    <defs>
        <polygon id="path-1" points="0.23002282 0.814012632 24.010464 0.814012632 24.010464 41.0385965 0.23002282 41.0385965"></polygon>
        <polygon id="path-3" points="0 84.4912281 370.963755 84.4912281 370.963755 0 0 0"></polygon>
        <path d="M0.4125,8.8066875 C0.4125,9.0260625 0.42,9.238125 0.435,9.44775 L0.435,9.44775 C0.77,13.762125 4.4675,17.1624375 8.9775,17.1624375 L8.9775,17.1624375 C13.71,17.1624375 17.545,13.420875 17.545,8.8066875 L17.545,8.8066875 C17.545,4.197375 13.71,0.45825 8.9775,0.45825 L8.9775,0.45825 C4.245,0.45825 0.4125,4.197375 0.4125,8.8066875" id="path-5"></path>
        <path d="M3.61363636,0 C1.6165,0 0,1.64618667 0,3.67754667 L0,3.67754667 L0,14.59488 C11.7563636,34.38592 35.6015455,12.0875733 47.4085,8.58176 L47.4085,8.58176 C49.343,8.00768 51.0076818,7.82368 52.4772273,7.87274667 L52.4772273,7.87274667 C47.3410455,2.71584 40.2872273,0 33.0623636,0 L33.0623636,0 L3.61363636,0 Z" id="path-7"></path>
        <path d="M27.867197,13.2554167 C6.91305816,24.72975 0,15.2685 0,15.2685 L0,15.2685 L0,38.3355833 L0,52.9999167 C0,55.0009167 1.63910319,56.6273333 3.6641651,56.6273333 L3.6641651,56.6273333 C3.6641651,47.6808333 6.78847655,38.0383333 21.5526191,38.0383333 L21.5526191,38.0383333 L21.7578124,37.9706667 L33.1289381,37.9706667 C40.6624615,37.9706667 48.0152195,35.1939167 53.33803,29.92075 L53.33803,29.92075 C58.7512233,24.5654167 61.4553771,18.0984167 61.4553771,10.4351667 L61.4553771,10.4351667 C61.2770544,3.335 59.728334,0.302083333 55.9127167,0.302083333 L55.9127167,0.302083333 C50.9880788,0.302083333 42.2844653,5.35775 27.867197,13.2554167" id="path-9"></path>
    </defs>
    <g id="Symbols" stroke="none" stroke-width="1" fill="none" fill-rule="evenodd">
        <g id="Group-35-Copy">
            <g id="Group-25">
                <path d="M102.893767,46.3820632 C102.893767,41.1508491 100.298262,38.4012632 95.0564538,38.4012632 L88.5930891,38.4012632 L88.5930891,54.3628632 L95.0564538,54.3628632 C100.298262,54.3628632 102.893767,51.6132772 102.893767,46.3820632 M109.141848,46.3820632 C109.141848,55.0508632 103.740391,59.3309474 95.0564538,59.3309474 L88.5930891,59.3309474 L88.5930891,70.0613333 C88.5930891,71.4349193 87.8504794,71.5942456 85.5210557,71.5942456 C83.189213,71.5942456 82.4490223,71.4349193 82.4490223,70.0613333 L82.4490223,34.9129825 C82.4490223,33.9594386 82.9811855,33.4331789 83.9318226,33.4331789 L95.0564538,33.4331789 C103.740391,33.4331789 109.141848,37.7132632 109.141848,46.3820632" id="Fill-1" fill="#FFFFFF"></path>
                <path d="M126.513592,61.4992337 L126.513592,58.6965389 C117.723222,58.5903214 115.763894,61.1829951 115.763894,63.6646232 C115.763894,65.991753 117.510357,67.2591214 119.735767,67.2591214 C122.120826,67.2591214 124.397034,65.8324267 125.560536,64.2995144 C126.039483,63.6646232 126.513592,62.8197109 126.513592,61.4992337 M132.34078,54.8920196 L132.34078,70.0618161 C132.34078,71.3291846 131.970684,71.5947284 130.168586,71.5947284 C128.422123,71.5947284 127.945595,71.3291846 127.73273,70.2187284 L127.202985,67.6308828 C125.033211,70.324946 121.641879,72.0171846 117.933669,72.0171846 C113.485268,72.0171846 109.832693,69.4800337 109.832693,64.5119495 C109.832693,59.6476688 113.272402,54.3102372 126.513592,54.6795846 L126.513592,53.675346 C126.513592,50.8750653 125.243657,48.9728056 121.008121,48.9728056 C116.133989,48.9728056 113.908579,50.8750653 113.059537,50.8750653 C112.215333,50.8750653 111.472723,49.4483705 111.472723,47.968567 C111.472723,46.6987846 112.1089,45.9600898 113.698133,45.4314161 C115.657461,44.7434161 118.729495,44.2147425 121.535447,44.2147425 C129.162314,44.2147425 132.34078,47.3336758 132.34078,54.8920196" id="Fill-3" fill="#FFFFFF"></path>
                <path d="M153.948543,46.9633628 C153.948543,48.3900575 153.525232,49.9253839 152.572176,49.9253839 C151.989215,49.9253839 151.355457,49.5536225 149.97667,49.5536225 C147.857693,49.5536225 145.794351,50.1885137 144.205118,52.0376646 C143.619738,52.7256646 143.305278,53.7299032 143.305278,54.8403593 L143.305278,70.0608505 C143.305278,71.4368505 142.562668,71.5937628 140.392894,71.5937628 C138.218281,71.5937628 137.475671,71.4368505 137.475671,70.0608505 L137.475671,46.1715593 C137.475671,44.9017768 138.114267,44.638647 139.650284,44.638647 C141.237098,44.638647 141.713626,44.9017768 142.136938,45.8553207 L142.719899,48.3900575 C145.155755,45.6428856 148.813168,44.3199944 151.512687,44.3199944 C153.368002,44.3199944 153.948543,45.1673207 153.948543,46.9633628" id="Fill-5" fill="#FFFFFF"></path>
                <path d="M175.610249,71.5940042 C173.387258,71.5940042 172.751081,71.4370919 172.487418,70.0079832 C171.638376,65.8341165 169.519399,61.9740744 165.973256,59.4369235 C164.754119,60.1249235 163.430967,60.706706 162.105397,61.1822709 L162.105397,70.0610919 C162.105397,71.4370919 161.362787,71.5940042 159.193012,71.5940042 C157.020819,71.5940042 156.280628,71.4370919 156.280628,70.0610919 L156.280628,33.2736112 C156.280628,31.9000253 157.020819,31.7406989 159.193012,31.7406989 C161.362787,31.7406989 162.105397,31.9000253 162.105397,33.2736112 L162.105397,56.6366428 C167.293989,54.5219481 170.474874,50.5049937 171.481146,46.1718007 C171.798025,44.7958007 172.538216,44.6364744 174.763626,44.6364744 C177.042252,44.6364744 178.048524,44.9020182 177.412347,46.8042779 C176.19321,50.5049937 173.650921,53.8894709 170.315225,56.583534 C174.657193,60.0718147 177.67601,64.7236604 178.471836,69.6917446 C178.735499,71.3308744 177.886457,71.5940042 175.610249,71.5940042" id="Fill-7" fill="#FFFFFF"></path>
                <path d="M181.966939,70.0615747 L181.966939,46.1722835 C181.966939,44.8493923 182.709549,44.6369572 184.879324,44.6369572 C187.051517,44.6369572 187.791708,44.8493923 187.791708,46.1722835 L187.791708,70.0615747 C187.791708,71.4351607 187.051517,71.594487 184.879324,71.594487 C182.709549,71.594487 181.966939,71.4351607 181.966939,70.0615747 M181.330762,36.2868098 C181.330762,33.9089853 181.860507,33.0085502 184.879324,33.0085502 C187.951357,33.0085502 188.481102,33.7496589 188.481102,36.2868098 C188.481102,38.8239607 187.951357,39.5650695 184.879324,39.5650695 C181.860507,39.5650695 181.330762,38.8239607 181.330762,36.2868098" id="Fill-9" fill="#FFFFFF"></path>
                <path d="M215.491774,52.9887944 L215.491774,70.0608505 C215.491774,71.4368505 214.749164,71.5937628 212.579389,71.5937628 C210.404777,71.5937628 209.667005,71.4368505 209.667005,70.0608505 L209.667005,54.0461418 C209.667005,51.4027733 208.71153,49.3411874 205.42905,49.3411874 C203.20364,49.3411874 201.031446,50.4516435 199.708295,52.0907733 C199.125334,52.7787733 198.755239,53.7299032 198.755239,54.8403593 L198.755239,70.0608505 C198.755239,71.4368505 198.012629,71.5937628 195.842855,71.5937628 C193.670661,71.5937628 192.93047,71.4368505 192.93047,70.0608505 L192.93047,46.1715593 C192.93047,44.9017768 193.566647,44.638647 195.100245,44.638647 C196.689478,44.638647 197.11279,44.9017768 197.378871,45.9060154 L198.119062,48.4962751 C200.554918,45.6959944 204.156696,44.3199944 207.0715,44.3199944 C212.949485,44.3199944 215.491774,47.6513628 215.491774,52.9887944" id="Fill-11" fill="#FFFFFF"></path>
                <g id="Group-15" transform="translate(218.703154, 43.452632)">
                    <mask id="mask-2" fill="white">
                        <use xlink:href="#path-1"></use>
                    </mask>
                    <g id="Clip-14"></g>
                    <path d="M18.2921278,16.1431354 L18.2921278,13.1835284 C18.2921278,10.54016 18.0284651,9.64213895 17.3922881,8.74411789 C16.1731505,6.99877053 14.3178358,5.78451088 11.8287631,5.78451088 C8.91637866,5.78451088 6.32329221,7.4236407 6.32329221,14.6633319 C6.32329221,21.9054372 8.91637866,23.4890442 11.7779657,23.4890442 C14.4242685,23.4890442 16.2795831,22.168567 17.3922881,20.582546 C17.9728299,19.7907425 18.2921278,18.8396126 18.2921278,16.1431354 M24.010464,2.71868632 L24.010464,28.0370863 C24.010464,35.3298863 20.9408495,41.0390793 11.511884,41.0390793 C8.5462833,41.0390793 5.4234525,40.4041881 3.51734045,39.6123846 C2.13613488,39.0306021 1.60880946,38.3957109 1.60880946,37.1259284 C1.60880946,35.7523425 2.34900019,34.1663214 3.19804249,34.1663214 C4.04466586,34.1663214 6.37408961,36.1747986 10.878126,36.1747986 C16.3303805,36.1747986 18.1856952,33.0582793 18.1856952,28.56576 L18.1856952,25.2343916 C16.2263668,27.2428688 13.3115635,28.5126512 10.4548143,28.5126512 C4.83807291,28.5126512 0.23002282,25.0774793 0.23002282,14.6633319 C0.23002282,4.30470737 4.99772189,0.814012632 10.6120443,0.814012632 C13.7905104,0.814012632 16.7028948,2.19001263 18.8726696,4.56783719 L19.4048328,2.40244772 C19.6152792,1.50201263 20.1982399,1.18577404 21.8406892,1.18577404 C23.3767059,1.18577404 24.010464,1.45131789 24.010464,2.71868632" id="Fill-13" fill="#FFFFFF" mask="url(#mask-2)"></path>
                </g>
                <path d="M283.394113,46.2478428 C286.553228,48.9370779 286.553228,52.6015832 286.553228,56.8358007 L286.553228,71.4889937 L282.039516,71.4889937 L282.039516,56.8358007 C282.039516,53.1157726 282.039516,51.2279972 280.817959,49.6250779 C279.85039,48.3649516 278.108764,47.5634919 275.919638,47.5634919 C273.728093,47.5634919 271.988887,48.3649516 271.021317,49.6250779 C269.797342,51.2279972 269.797342,53.1157726 269.797342,56.8358007 L269.797342,71.4889937 L265.286049,71.4889937 L265.286049,56.8358007 C265.286049,53.1157726 265.286049,51.2279972 264.062073,49.6250779 C263.094503,48.3649516 261.355297,47.5634919 259.163752,47.5634919 C256.972207,47.5634919 255.233001,48.3649516 254.26785,49.6250779 C253.041456,51.2279972 253.041456,53.1157726 253.041456,56.8358007 L253.041456,71.4889937 L248.532581,71.4889937 L248.532581,44.130734 L253.041456,44.130734 L253.041456,46.7620323 C254.589567,44.8742568 256.909315,43.785527 259.485469,43.785527 C263.48395,43.785527 266.31651,45.50432 267.927514,48.3649516 C269.410314,45.7336533 272.697632,43.785527 276.241355,43.785527 C279.269848,43.785527 281.652488,44.81632 283.394113,46.2478428" id="Fill-16" fill="#FFFFFF"></path>
                <path d="M295.056471,50.3121123 C293.638982,52.1998877 293.638982,54.8891228 293.638982,57.8076912 C293.638982,60.7286737 293.638982,63.4179088 295.056471,65.3080982 C296.343339,67.0244772 298.534884,68.0552702 301.369863,68.0552702 C304.204841,68.0552702 306.396386,67.0244772 307.688092,65.3080982 C309.105581,63.4179088 309.105581,60.7286737 309.105581,57.8076912 C309.105581,54.8891228 309.105581,52.1998877 307.688092,50.3121123 C306.396386,48.5957333 304.204841,47.5649404 301.369863,47.5649404 C298.534884,47.5649404 296.343339,48.5957333 295.056471,50.3121123 M311.744627,48.6512561 C313.614456,51.3984281 313.614456,54.5463298 313.614456,57.8076912 C313.614456,61.0714667 313.614456,64.2193684 311.744627,66.9665404 C309.683704,70.0009825 305.946467,71.8332351 301.369863,71.8332351 C296.795677,71.8332351 293.05844,70.0009825 290.995098,66.9665404 C289.127689,64.2193684 289.127689,61.0714667 289.127689,57.8076912 C289.127689,54.5463298 289.127689,51.3984281 290.995098,48.6512561 C293.05844,45.6192281 296.795677,43.7869754 301.369863,43.7869754 C305.946467,43.7869754 309.683704,45.6192281 311.744627,48.6512561" id="Fill-18" fill="#FFFFFF"></path>
                <polygon id="Fill-20" fill="#FFFFFF" points="323.02286 71.4889937 312.32396 44.12832 317.094078 44.12832 325.279716 66.279506 333.397625 44.12832 338.100013 44.12832 327.40595 71.4889937"></polygon>
                <mask id="mask-4" fill="white">
                    <use xlink:href="#path-3"></use>
                </mask>
                <g id="Clip-23"></g>
                <path d="M339.389541,71.4868211 L343.900835,71.4868211 L343.900835,44.1285614 L339.389541,44.1285614 L339.389541,71.4868211 Z M344.672471,37.0312982 C344.672471,38.6366316 343.385604,39.7229474 341.643978,39.7229474 C339.904772,39.7229474 338.615486,38.6366316 338.615486,37.0312982 C338.615486,35.430793 339.904772,34.3420632 341.643978,34.3420632 C343.385604,34.3420632 344.672471,35.430793 344.672471,37.0312982 L344.672471,37.0312982 Z" id="Fill-22" fill="#FFFFFF" mask="url(#mask-4)"></path>
                <path d="M353.564194,49.5671411 C351.631474,51.5707902 351.631474,54.7186919 351.631474,57.8086568 C351.631474,60.9010358 351.631474,64.0489375 353.564194,66.0525867 C354.725277,67.2523621 356.595105,68.0538218 359.043056,68.0538218 C361.491007,68.0538218 363.360836,67.2523621 364.5195,66.0525867 C366.45222,64.0489375 366.45222,60.9010358 366.45222,57.8086568 C366.45222,54.7186919 366.45222,51.5707902 364.5195,49.5671411 C363.360836,48.3649516 361.491007,47.5634919 359.043056,47.5634919 C356.595105,47.5634919 354.725277,48.3649516 353.564194,49.5671411 M366.45222,47.2786358 L366.45222,33.3713796 L370.963514,33.3713796 L370.963514,71.4889937 L366.45222,71.4889937 L366.45222,68.3410919 C364.713014,70.5161375 361.880454,71.8317867 358.72134,71.8317867 C354.918791,71.8317867 351.890298,70.4582007 350.02047,68.4545516 C347.122599,65.3645867 347.122599,61.5866218 347.122599,57.8086568 C347.122599,54.033106 347.122599,50.2551411 350.02047,47.1627621 C351.890298,45.159113 354.918791,43.785527 358.72134,43.785527 C361.880454,43.785527 364.713014,45.1035902 366.45222,47.2786358" id="Fill-24" fill="#FFFFFF" mask="url(#mask-4)"></path>
            </g>
            <g id="Group-28" transform="translate(13.000000, 64.000000)">
                <mask id="mask-6" fill="white">
                    <use xlink:href="#path-5"></use>
                </mask>
                <g id="Clip-27"></g>
                <path d="M0.4125,8.8066875 C0.4125,9.0260625 0.42,9.238125 0.435,9.44775 L0.435,9.44775 C0.77,13.762125 4.4675,17.1624375 8.9775,17.1624375 L8.9775,17.1624375 C13.71,17.1624375 17.545,13.420875 17.545,8.8066875 L17.545,8.8066875 C17.545,4.197375 13.71,0.45825 8.9775,0.45825 L8.9775,0.45825 C4.245,0.45825 0.4125,4.197375 0.4125,8.8066875" id="Fill-26" fill="#FFFFFF" mask="url(#mask-6)"></path>
            </g>
            <g id="Group-31">
                <mask id="mask-8" fill="white">
                    <use xlink:href="#path-7"></use>
                </mask>
                <g id="Clip-30"></g>
                <path d="M3.61363636,0 C1.6165,0 0,1.64618667 0,3.67754667 L0,3.67754667 L0,14.59488 C11.7563636,34.38592 35.6015455,12.0875733 47.4085,8.58176 L47.4085,8.58176 C49.343,8.00768 51.0076818,7.82368 52.4772273,7.87274667 L52.4772273,7.87274667 C47.3410455,2.71584 40.2872273,0 33.0623636,0 L33.0623636,0 L3.61363636,0 Z" id="Fill-29" fill="#FFFFFF" mask="url(#mask-8)"></path>
            </g>
            <g id="Group-34" transform="translate(0.000000, 18.000000)">
                <mask id="mask-10" fill="white">
                    <use xlink:href="#path-9"></use>
                </mask>
                <g id="Clip-33"></g>
                <path d="M27.867197,13.2554167 C6.91305816,24.72975 0,15.2685 0,15.2685 L0,15.2685 L0,38.3355833 L0,52.9999167 C0,55.0009167 1.63910319,56.6273333 3.6641651,56.6273333 L3.6641651,56.6273333 C3.6641651,47.6808333 6.78847655,38.0383333 21.5526191,38.0383333 L21.5526191,38.0383333 L21.7578124,37.9706667 L33.1289381,37.9706667 C40.6624615,37.9706667 48.0152195,35.1939167 53.33803,29.92075 L53.33803,29.92075 C58.7512233,24.5654167 61.4553771,18.0984167 61.4553771,10.4351667 L61.4553771,10.4351667 C61.2770544,3.335 59.728334,0.302083333 55.9127167,0.302083333 L55.9127167,0.302083333 C50.9880788,0.302083333 42.2844653,5.35775 27.867197,13.2554167" id="Fill-32" fill="#FFFFFF" mask="url(#mask-10)"></path>
            </g>
        </g>
    </g>
</svg>