<?xml version="1.0" encoding="UTF-8"?>
<svg width="16px" height="19px" viewBox="0 0 16 19" version="1.1" xmlns="http://www.w3.org/2000/svg" xmlns:xlink="http://www.w3.org/1999/xlink">
    <!-- Generator: Sketch 62 (91390) - https://sketch.com -->
    <title>point+icons/principa</title>
    <desc>Created with Sketch.</desc>
    <g id="PROTOTIPO" stroke="none" stroke-width="1" fill="none" fill-rule="evenodd">
        <g id="PRINCIPAL" transform="translate(-15.000000, -164.000000)" fill="#EB4555">
            <g id="Group-8" transform="translate(-84.000000, 0.000000)">
                <g id="Group-16" transform="translate(99.000000, 140.000000)">
                    <g id="point+" transform="translate(0.000000, 24.000000)">
                        <g id="place-24px">
                            <path d="M8,9.5 C7.02222222,9.5 6.22222222,8.68571429 6.22222222,7.69047619 C6.22222222,6.6952381 7.02222222,5.88095238 8,5.88095238 C8.97777778,5.88095238 9.77777778,6.6952381 9.77777778,7.69047619 C9.77777778,8.68571429 8.97777778,9.5 8,9.5 Z M13.3333333,7.87142857 C13.3333333,4.58714286 10.9777778,2.26190476 8,2.26190476 C5.02222222,2.26190476 2.66666667,4.58714286 2.66666667,7.87142857 C2.66666667,9.98857143 7.09022239,16.1409524 8,16.1409524 C8.90977761,16.1409524 13.3333333,9.98857143 13.3333333,7.87142857 Z M8,0.452380952 C11.7333333,0.452380952 15.1111111,3.36571429 15.1111111,7.87142857 C15.1111111,10.8752381 9.07101376,18.547619 8,18.547619 C6.92898624,18.547619 0.888888889,10.8752381 0.888888889,7.87142857 C0.888888889,3.36571429 4.26666667,0.452380952 8,0.452380952 Z" id="Shape" fill-rule="nonzero"></path>
                        </g>
                    </g>
                </g>
            </g>
        </g>
    </g>
</svg>