<?xml version="1.0" encoding="UTF-8"?>
<svg width="19px" height="19px" viewBox="0 0 19 19" version="1.1" xmlns="http://www.w3.org/2000/svg" xmlns:xlink="http://www.w3.org/1999/xlink">
    <!-- Generator: Sketch 62 (91390) - https://sketch.com -->
    <title>resultadosicons/principa</title>
    <desc>Created with Sketch.</desc>
    <g id="PROTOTIPO" stroke="none" stroke-width="1" fill="none" fill-rule="evenodd">
        <g id="PRINCIPAL" transform="translate(-13.000000, -137.000000)" fill="#EB4555">
            <g id="Group-8" transform="translate(-84.000000, 0.000000)">
                <g id="resultados" transform="translate(97.000000, 137.000000)">
                    <g id="result">
                        <path d="M18.5108613,6.49948437 C17.8597773,5.84840039 16.8003418,5.84840039 16.1492578,6.49948437 L11.5702949,11.0784102 C11.5674004,11.0813047 11.5639492,11.083457 11.5609062,11.0861289 C11.7836367,10.7208984 11.9121094,10.2921738 11.9121094,9.83398438 C11.9121094,8.50394727 10.8300371,7.421875 9.5,7.421875 C8.16996289,7.421875 7.08789062,8.50394727 7.08789062,9.83398438 C7.08789062,10.2922109 7.21640039,10.7209727 7.43916797,11.0862031 C7.43608789,11.0834941 7.43267383,11.0813789 7.42974219,11.0784844 L2.85070508,6.49948437 C2.19962109,5.84840039 1.14018555,5.84840039 0.489101563,6.49948437 C-0.162019531,7.15060547 -0.162019531,8.21000391 0.489101563,8.861125 L5.60351562,13.975502 L5.60351562,17.7011719 C5.60351562,18.4173457 6.18616992,19 6.90234375,19 L12.0976562,19 C12.8138301,19 13.3964844,18.4173457 13.3964844,17.7011719 L13.3964844,13.975502 L18.5108613,8.861125 C19.1619824,8.2099668 19.1619824,7.15056836 18.5108613,6.49948437 Z M17.7236602,8.07388672 L12.4462617,13.3513223 C12.341873,13.4557109 12.2832031,13.5972832 12.2832031,13.7449043 L12.2832031,17.7011719 C12.2832031,17.8034824 12.1999668,17.8867187 12.0976562,17.8867187 L6.90234375,17.8867187 C6.8000332,17.8867187 6.71679687,17.8034824 6.71679687,17.7011719 L6.71679687,13.7449414 C6.71679687,13.5972832 6.65816406,13.4557109 6.55373828,13.3513594 L1.27633984,8.07388672 C1.05928711,7.85683398 1.05928711,7.50370117 1.27633984,7.28664844 C1.38484766,7.17814062 1.52742188,7.12388672 1.66992188,7.12388672 C1.81242188,7.12388672 1.9550332,7.17814062 2.06350391,7.28664844 L6.64257812,11.8657598 C6.8879082,12.1110156 7.2140625,12.2460938 7.56092383,12.2460938 L11.4390762,12.2460938 C11.7859375,12.2460938 12.1120918,12.1110156 12.357459,11.8656855 L16.9364961,7.28664844 C17.1535117,7.06963281 17.5066816,7.06963281 17.7236973,7.28664844 C17.9407129,7.50370117 17.9407129,7.85687109 17.7236602,8.07388672 Z M8.20117187,9.83398438 C8.20117187,9.11781055 8.78382617,8.53515625 9.5,8.53515625 C10.2161738,8.53515625 10.7988281,9.11781055 10.7988281,9.83398438 C10.7988281,10.5501582 10.2161738,11.1328125 9.5,11.1328125 C8.78382617,11.1328125 8.20117187,10.5501582 8.20117187,9.83398438 Z" id="Shape" fill-rule="nonzero"></path>
                        <path d="M7.53832422,4.10659766 L7.26152539,5.72052148 C7.22571484,5.92933594 7.31158594,6.14037695 7.48299414,6.26495312 C7.65436523,6.38941797 7.88162305,6.40593164 8.06921094,6.30733203 L9.5185918,5.54532813 L10.9679727,6.30733203 C11.0494277,6.35011914 11.1383789,6.37127148 11.226959,6.37127148 C11.3423691,6.37127148 11.4572227,6.33542383 11.5541895,6.26499023 C11.7255977,6.14045117 11.8114687,5.92937305 11.7756582,5.72055859 L11.4988594,4.10663477 L12.6714414,2.96362891 C12.8231816,2.81574805 12.8778066,2.59453906 12.8123086,2.39303516 C12.7468477,2.19149414 12.5726563,2.04461523 12.3629883,2.01418555 L10.7424961,1.77868945 L10.0177129,0.310271484 C9.9239375,0.120271484 9.73044922,5.27355937e-16 9.51855469,5.27355937e-16 C9.30666016,5.27355937e-16 9.11317187,0.120271484 9.01939648,0.310271484 L8.29472461,1.77865234 L6.67423242,2.01414844 C6.46456445,2.04457813 6.29033594,2.19145703 6.22491211,2.39299805 C6.15941406,2.59450195 6.21403906,2.81571094 6.3657793,2.9635918 L7.53832422,4.10659766 Z M9.1635293,2.53379102 L9.51855469,1.81438867 L9.87358008,2.53379102 C9.95470117,2.69807422 10.111377,2.81192578 10.2926934,2.83827344 L11.0866484,2.95364648 L10.5121953,3.51362695 C10.3809766,3.64150586 10.3211191,3.82575391 10.3521055,4.00629102 L10.4877031,4.79705469 L9.77761523,4.42369727 C9.69649414,4.3810957 9.60754297,4.35975781 9.5185918,4.35975781 C9.42964062,4.35975781 9.34065234,4.38105859 9.25956836,4.42369727 L8.54948047,4.79705469 L8.68507813,4.00629102 C8.71606445,3.82575391 8.65620703,3.64150586 8.52498828,3.51362695 L7.95053516,2.95364648 L8.74449023,2.83827344 C8.92569531,2.81192578 9.0824082,2.69807422 9.1635293,2.53379102 L9.1635293,2.53379102 Z" id="Shape" fill-rule="nonzero"></path>
                    </g>
                </g>
            </g>
        </g>
    </g>
</svg>