<?xml version="1.0" encoding="UTF-8"?>
<svg width="27px" height="27px" viewBox="0 0 27 27" version="1.1" xmlns="http://www.w3.org/2000/svg" xmlns:xlink="http://www.w3.org/1999/xlink">
    <!-- Generator: Sketch 62 (91390) - https://sketch.com -->
    <title>Group 2icons/principa</title>
    <desc>Created with Sketch.</desc>
    <g id="Symbols" stroke="none" stroke-width="1" fill="none" fill-rule="evenodd">
        <g id="tarjetas/simple" transform="translate(-220.000000, -86.000000)">
            <g id="Group-2" transform="translate(220.000000, 86.000000)">
                <circle id="Oval-Copy" stroke="#25BBD4" cx="13.5" cy="13.5" r="13"></circle>
                <g id="chair" transform="translate(7.000000, 7.000000)" fill="#25BBD4">
                    <g id="wheelchair">
                        <g id="Group" transform="translate(0.000000, 0.000047)" fill-rule="nonzero">
                            <path d="M3.80859375,6.375 C2.54855859,6.375 1.5234375,7.32126563 1.5234375,8.484375 C1.5234375,9.64748437 2.54855859,10.59375 3.80859375,10.59375 C5.06862891,10.59375 6.09375,9.64748437 6.09375,8.484375 C6.09375,7.32126563 5.06862891,6.375 3.80859375,6.375 Z M3.80859375,9.890625 C2.96857031,9.890625 2.28515625,9.25978125 2.28515625,8.484375 C2.28515625,7.70896875 2.96857031,7.078125 3.80859375,7.078125 C4.64861719,7.078125 5.33203125,7.70896875 5.33203125,8.484375 C5.33203125,9.25978125 4.64861719,9.890625 3.80859375,9.890625 Z" id="Shape"></path>
                            <path d="M12.4488203,9.22460156 L11.2660234,9.77050781 L9.953125,7.34669531 L9.953125,6.7265625 C9.953125,6.14500781 9.44056445,5.671875 8.81054687,5.671875 L8.4296875,5.671875 L8.4296875,3.9140625 C8.4296875,3.33250781 7.91712695,2.859375 7.28710937,2.859375 L3.06901562,2.859375 L2.27075977,0.255820312 C2.2243457,0.104460937 2.07469336,0 1.90429687,0 L0.380859375,0 C0.170523437,0 -2.7095363e-14,0.15740625 -2.7095363e-14,0.3515625 C-2.7095363e-14,0.54571875 0.170523437,0.703125 0.380859375,0.703125 L1.61626562,0.703125 C1.64516016,0.798257812 2.95061914,5.0551875 2.95163477,5.05851563 C1.26285352,5.41830469 -2.7095363e-14,6.81775781 -2.7095363e-14,8.484375 C-2.7095363e-14,10.4228906 1.70853516,12 3.80859375,12 C5.90865234,12 7.6171875,10.4228906 7.6171875,8.484375 C7.6171875,8.24364844 7.59078125,8.0085 7.54060937,7.78125 L8.4296875,7.78125 L8.4296875,9.95109375 C7.98639258,10.0962188 7.66796875,10.4869922 7.66796875,10.9453125 C7.66796875,11.5268672 8.1805293,12 8.81054687,12 C9.44056445,12 9.953125,11.5268672 9.953125,10.9453125 C9.953125,10.4869922 9.63470117,10.0962188 9.19140625,9.95109375 L9.19140625,7.78125 L9.33686914,7.78125 L10.7550371,10.3994062 C10.8491348,10.5731016 11.0779297,10.6434609 11.2660234,10.556625 L12.7894609,9.8535 C12.9776055,9.76666406 13.0538535,9.55549219 12.9597812,9.38182031 C12.865709,9.20817187 12.6369395,9.13776563 12.4488203,9.22460156 Z M8.81054687,11.296875 C8.60054102,11.296875 8.4296875,11.1391641 8.4296875,10.9453125 C8.4296875,10.7514609 8.60054102,10.59375 8.81054687,10.59375 C9.02055273,10.59375 9.19140625,10.7514609 9.19140625,10.9453125 C9.19140625,11.1391641 9.02055273,11.296875 8.81054687,11.296875 Z M3.28460742,3.5625 L7.28710937,3.5625 C7.49711523,3.5625 7.66796875,3.72021094 7.66796875,3.9140625 L7.66796875,5.671875 L6.09123633,5.671875 C5.45469336,5.23054687 4.66415625,4.96875 3.80859375,4.96875 C3.77766797,4.96875 3.74684375,4.96914844 3.7160957,4.96982812 L3.28460742,3.5625 Z M3.80859375,11.296875 C2.12854687,11.296875 0.76171875,10.0351875 0.76171875,8.484375 C0.76171875,6.9335625 2.12854687,5.671875 3.80859375,5.671875 C5.48864062,5.671875 6.85546875,6.9335625 6.85546875,8.484375 C6.85546875,10.0351875 5.48864062,11.296875 3.80859375,11.296875 Z M9.19140625,7.078125 L7.29883984,7.078125 C7.17973242,6.82717969 7.02990234,6.59139844 6.85353906,6.375 L8.81054687,6.375 C9.02055273,6.375 9.19140625,6.53271094 9.19140625,6.7265625 L9.19140625,7.078125 Z" id="Shape"></path>
                        </g>
                        <ellipse id="Oval" fill-rule="nonzero" cx="3.80859375" cy="8.48442188" rx="1" ry="1"></ellipse>
                    </g>
                </g>
            </g>
        </g>
    </g>
</svg>