<?xml version="1.0" encoding="UTF-8"?>
<svg width="16px" height="16px" viewBox="0 0 16 16" version="1.1" xmlns="http://www.w3.org/2000/svg" xmlns:xlink="http://www.w3.org/1999/xlink">
    <!-- Generator: Sketch 62 (91390) - https://sketch.com -->
    <title>Shape Copy 3icons/principa</title>
    <desc>Created with Sketch.</desc>
    <g id="PROTOTIPO" stroke="none" stroke-width="1" fill="none" fill-rule="evenodd">
        <g id="LOGIN/desplegable" transform="translate(-741.000000, -185.000000)" fill="#A4A4A4" fill-rule="nonzero">
            <g id="Group-8-Copy" transform="translate(726.000000, 98.000000)">
                <path d="M30.7105307,87 L26.0881779,87 C25.9283026,87 25.7986773,87.129625 25.7986773,87.2895 C25.7986773,87.449375 25.9283026,87.579 26.0881779,87.579 L27.3610866,87.579 L27.3610866,90.0842188 L21.7595132,90.0842188 L21.7595132,87.579 L25.1231448,87.579 C25.2830201,87.579 25.4126453,87.449375 25.4126453,87.2895 C25.4126453,87.129625 25.2830513,87 25.123176,87 L15.2895006,87 C15.1296253,87 15,87.129625 15,87.2895 L15,90.3737187 L15,93.4579062 L15,96.5420937 L15,99.6263125 L15,102.7105 C15,102.870375 15.1296253,103 15.2895006,103 L30.7104994,103 C30.8703747,103 31,102.870375 31,102.7105 L31,87.2895 C31,87.129625 30.870406,87 30.7105307,87 Z M24.8194567,90.6632187 L30.4209676,90.6632187 L30.4209676,93.1684063 L26.6671478,93.1684063 C26.5072725,93.1684063 26.3776472,93.2980312 26.3776472,93.4579062 C26.3776472,93.6177812 26.5072725,93.7474062 26.6671478,93.7474062 L27.3610866,93.7474062 L27.3610866,96.2525938 L21.7595132,96.2525938 L21.7595132,93.7474062 L25.7021146,93.7474062 C25.86199,93.7474062 25.9916152,93.6177813 25.9916152,93.4579062 C25.9916152,93.2980312 25.86199,93.1684063 25.7021146,93.1684063 L24.8194567,93.1684063 L24.8194567,90.6632187 Z M30.4209989,96.8315625 L30.4209989,99.3367813 L24.8194567,99.3367813 L24.8194567,96.8315625 L30.4209989,96.8315625 Z M24.2404555,90.6632187 L24.2404555,93.1684063 L18.6389446,93.1684063 L18.6389446,90.6632187 L24.2404555,90.6632187 Z M15.5790011,87.579 L21.1805121,87.579 L21.1805121,90.0842188 L15.5790011,90.0842188 L15.5790011,87.579 Z M15.5790011,90.6632187 L18.0599435,90.6632187 L18.0599435,93.1684063 L15.5790011,93.1684063 L15.5790011,90.6632187 Z M15.5790011,93.7474375 L21.1805121,93.7474375 L21.1805121,96.252625 L15.5790011,96.252625 L15.5790011,93.7474375 Z M15.5790011,96.8315625 L18.0599435,96.8315625 L18.0599435,99.3367813 L15.5790011,99.3367813 L15.5790011,96.8315625 Z M21.1805121,102.420969 L15.5790011,102.420969 L15.5790011,99.9157812 L19.757728,99.9157812 C19.9176034,99.9157812 20.0472286,99.7861563 20.0472286,99.6262813 C20.0472286,99.4664063 19.9176034,99.3367813 19.757728,99.3367813 L18.6389446,99.3367813 L18.6389446,96.8315625 L24.2404555,96.8315625 L24.2404555,99.3367813 L20.7227299,99.3367813 C20.5628546,99.3367813 20.4332294,99.4664063 20.4332294,99.6262813 C20.4332294,99.7861563 20.5628546,99.9157812 20.7227299,99.9157812 L21.1805121,99.9157812 L21.1805121,102.420969 Z M27.3610866,102.420969 L21.7595132,102.420969 L21.7595132,99.9157812 L27.3610866,99.9157812 L27.3610866,102.420969 Z M30.4210301,102.421 L27.9400878,102.421 L27.9400878,99.9158125 L30.4210301,99.9158125 L30.4210301,102.421 Z M30.4210301,96.2525625 L27.9400878,96.2525625 L27.9400878,93.747375 L30.4210301,93.747375 L30.4210301,96.2525625 Z M30.4210301,90.0842188 L27.9400878,90.0842188 L27.9400878,87.579 L30.4210301,87.579 L30.4210301,90.0842188 Z" id="Shape-Copy-3"></path>
            </g>
        </g>
    </g>
</svg>