<?xml version="1.0" encoding="UTF-8"?>
<svg width="16px" height="13px" viewBox="0 0 16 13" version="1.1" xmlns="http://www.w3.org/2000/svg" xmlns:xlink="http://www.w3.org/1999/xlink">
    <!-- Generator: Sketch 62 (91390) - https://sketch.com -->
    <title>car (1) copy 3icons/principa</title>
    <desc>Created with Sketch.</desc>
    <g id="PROTOTIPO" stroke="none" stroke-width="1" fill="none" fill-rule="evenodd">
        <g id="LOGIN/desplegable" transform="translate(-741.000000, -149.000000)" fill="#A4A4A4" fill-rule="nonzero">
            <g id="Group-8-Copy" transform="translate(726.000000, 98.000000)">
                <g id="car-(1)-copy-3" transform="translate(15.000000, 51.000000)">
                    <path d="M15.3880342,4.8301105 L15.0393162,4.44226519 L13.8153846,0.97679558 C13.6068376,0.391436464 13.0735043,0.00359116022 12.4786325,0 L3.73675214,0 C3.14188034,0 2.60854701,0.391436464 2.4,0.97679558 L1.19316239,4.39917127 L0.690598291,4.88756906 C0.252991453,5.27900552 0,5.85359116 0,6.45690608 L0,11.5060773 C0.00341880342,12.3320442 0.642735043,13 1.42905983,13 L2.33162393,13 C3.11794872,13 3.75726496,12.3320442 3.76068376,11.5060773 L3.76068376,10.7734807 L12.2393162,10.7734807 L12.2393162,11.5060773 C12.242735,12.3320442 12.8820513,13 13.6683761,13 L14.5709402,13 C15.357265,13 15.9965812,12.3320442 16,11.5060773 L16,6.32403315 C15.9965812,5.76022099 15.7777778,5.22154696 15.3880342,4.8301105 Z M3.04273504,1.22099448 C3.15213675,0.915745856 3.42905983,0.718232044 3.73675214,0.718232044 L12.4820513,0.718232044 C12.7897436,0.718232044 13.0666667,0.919337017 13.1760684,1.22099448 L14.242735,4.23756906 L13.4461538,4.23756906 C13.2581197,2.89088398 12.0649573,1.96077348 10.782906,2.16187845 C9.76068376,2.3198895 8.95726496,3.16381215 8.80683761,4.23756906 L1.97606838,4.23756906 L3.04273504,1.22099448 Z M12.7487179,4.23756906 L9.4974359,4.23756906 C9.68547009,3.29309392 10.5675214,2.68977901 11.4666667,2.88729282 C12.1094017,3.03093923 12.6119658,3.55883978 12.7487179,4.23756906 Z M3.07692308,11.5060773 C3.07350427,11.9370166 2.74188034,12.281768 2.33162393,12.281768 L1.42905983,12.281768 C1.01880342,12.281768 0.687179487,11.9370166 0.683760684,11.5060773 L0.683760684,10.5651934 C0.888888889,10.7052486 1.15897436,10.7734807 1.42905983,10.7734807 L3.07692308,10.7734807 L3.07692308,11.5060773 Z M15.3162393,11.5060773 C15.3128205,11.9370166 14.9811966,12.281768 14.5709402,12.281768 L13.6683761,12.281768 C13.2581197,12.281768 12.9264957,11.9334254 12.9230769,11.5060773 L12.9230769,10.7734807 L14.5709402,10.7734807 C14.8410256,10.7734807 15.1111111,10.7052486 15.3162393,10.5651934 L15.3162393,11.5060773 Z M14.5709402,10.0552767 L1.42905983,10.0552767 C1.02222222,10.0588398 0.687179487,9.71767956 0.683760684,9.28674033 L0.683760684,6.45690608 C0.683760684,6.06187845 0.851282051,5.68480663 1.13846154,5.42983425 C1.14188034,5.42624309 1.14871795,5.41906077 1.15213675,5.41546961 L1.61709402,4.9558011 L14.5641026,4.9558011 L14.8923077,5.32569061 C14.8957265,5.33287293 14.9059829,5.33646409 14.9094017,5.34364641 C15.165812,5.59861878 15.3128205,5.95414365 15.3128205,6.32403315 L15.3128205,9.28674033 L15.3162393,9.28674033 C15.3128205,9.7140884 14.9777778,10.0588398 14.5709402,10.0552767 Z" id="Shape"></path>
                    <path d="M5.25077399,6 L2.27863777,6 C2.06068111,6 1.88235294,6.1875 1.88235294,6.41666667 L1.88235294,8.58333333 C1.88235294,8.8125 2.06068111,9 2.27863777,9 L5.25077399,9 C5.46873065,9 5.64705882,8.8125 5.64705882,8.58333333 L5.64705882,6.41666667 C5.64705882,6.1875 5.46873065,6 5.25077399,6 Z M4.85448916,8.16666667 L2.6749226,8.16666667 L2.6749226,6.83333333 L4.85448916,6.83333333 L4.85448916,8.16666667 Z" id="Shape"></path>
                    <path d="M13.7213622,6 L10.749226,6 C10.5312693,6 10.3529412,6.1875 10.3529412,6.41666667 L10.3529412,8.58333333 C10.3529412,8.8125 10.5312693,9 10.749226,9 L13.7213622,9 C13.9393189,9 14.1176471,8.8125 14.1176471,8.58333333 L14.1176471,6.41666667 C14.1176471,6.1875 13.9393189,6 13.7213622,6 Z M13.3250774,8.16666667 L11.1455108,8.16666667 L11.1455108,6.83333333 L13.3250774,6.83333333 L13.3250774,8.16666667 Z" id="Shape"></path>
                    <path d="M10.0300676,7 L6.91110887,7 C6.7335284,7 6.58823529,7.225 6.58823529,7.5 C6.58823529,7.775 6.7335284,8 6.91110887,8 L10.0300676,8 C10.2076481,8 10.3529412,7.775 10.3529412,7.5 C10.3529412,7.225 10.2076481,7 10.0300676,7 Z" id="Path"></path>
                    <path d="M10.0300676,6 L6.91110887,6 C6.7335284,6 6.58823529,6.225 6.58823529,6.5 C6.58823529,6.775 6.7335284,7 6.91110887,7 L10.0300676,7 C10.2076481,7 10.3529412,6.775 10.3529412,6.5 C10.3529412,6.225 10.2076481,6 10.0300676,6 Z" id="Path"></path>
                </g>
            </g>
        </g>
    </g>
</svg>